<?xml version="1.0" encoding="UTF-8"?>
<svg xmlns="http://www.w3.org/2000/svg" viewBox="0 0 480 300" width="480" height="300" role="img" aria-label="agra">

    <defs>
      <linearGradient id="sky" x1="0" y1="0" x2="0" y2="1">
        <stop offset="0%" stop-color="#f5d090"/>
        <stop offset="55%" stop-color="#e8b060"/>
        <stop offset="100%" stop-color="#c88850"/>
      </linearGradient>
      <radialGradient id="glow" cx="70%" cy="22%" r="45%">
        <stop offset="0%" stop-color="#fff6d8" stop-opacity="0.45"/>
        <stop offset="100%" stop-color="#fff6d8" stop-opacity="0"/>
      </radialGradient>
      <linearGradient id="ground" x1="0" y1="0" x2="0" y2="1">
        <stop offset="0%" stop-color="#2a3340" stop-opacity="0"/>
        <stop offset="100%" stop-color="#121820" stop-opacity="0.55"/>
      </linearGradient>
    </defs>
    <rect width="480" height="300" fill="url(#sky)"/>
    <rect width="480" height="300" fill="url(#glow)"/>
  
<g opacity="0.28" fill="#f7f3ea">
    <ellipse cx="81.0136980842799" cy="52.96160372439772" rx="26.757553654536604" ry="11.467522994801403"/>
    <ellipse cx="98.214982576482" cy="49.13909605946392" rx="19.112538324669003" ry="9.556269162334502"/>
    <ellipse cx="65.72366742454469" cy="54.872857556864616" rx="15.290030659735203" ry="7.645015329867602"/>
  </g>
<g opacity="0.22" fill="#f7f3ea">
    <ellipse cx="284.3935564905405" cy="54.80652668164112" rx="33.94339998206124" ry="14.547171420883387"/>
    <ellipse cx="306.2143136218656" cy="49.957469541346654" rx="24.245285701472312" ry="12.122642850736156"/>
    <ellipse cx="264.99732792936265" cy="57.23105525178835" rx="19.39622856117785" ry="9.698114280588925"/>
  </g>
<path d="M0 210 C80 182 160 228 240 198 S400 180 480 216 L480 300 L0 300 Z" fill="#a88860" opacity="0.55"/>
<path d="M0 218 C80 176 160 228 240 194 S400 180 480 216 L480 300 L0 300 Z" fill="#8a7050" opacity="0.67"/>

    <g fill="#e8e4dc" transform="translate(240,120)">
      <path d="M-70 100 L-70 55 Q-70 20 -40 20 L-20 20 Q0 -30 20 20 L40 20 Q70 20 70 55 L70 100 Z"/>
      <ellipse cx="0" cy="8" rx="22" ry="28" fill="#f2eee6"/>
      <rect x="-8" y="-28" width="16" height="24" rx="8" fill="#f2eee6"/>
      <circle cx="0" cy="-32" r="5" fill="#d4af37"/>
      <rect x="-90" y="95" width="180" height="12" fill="#cfc8ba"/>
      <rect x="-100" y="50" width="18" height="55" fill="#ddd7cc"/>
      <rect x="82" y="50" width="18" height="55" fill="#ddd7cc"/>
      <ellipse cx="-91" cy="48" rx="10" ry="14" fill="#e8e4dc"/>
      <ellipse cx="91" cy="48" rx="10" ry="14" fill="#e8e4dc"/>
    </g>
<rect width="480" height="300" fill="url(#ground)"/>
  <rect width="480" height="300" fill="none" stroke="#1a1520" stroke-width="28" stroke-opacity="0.18"/>
<g id="grain-agra" opacity="0.85"><circle cx="252.2" cy="194.4" r="0.59" fill="#1a1520" opacity="0.045"/><circle cx="476.3" cy="127.4" r="0.53" fill="#1a1520" opacity="0.072"/><circle cx="350.5" cy="41.7" r="0.40" fill="#1a1520" opacity="0.076"/><circle cx="314.2" cy="151.1" r="0.83" fill="#1a1520" opacity="0.107"/><circle cx="176.2" cy="144.7" r="1.46" fill="#1a1520" opacity="0.048"/><circle cx="371.7" cy="80.7" r="1.23" fill="#1a1520" opacity="0.093"/><circle cx="387.0" cy="102.2" r="0.73" fill="#1a1520" opacity="0.094"/><circle cx="405.9" cy="22.3" r="1.69" fill="#1a1520" opacity="0.045"/><circle cx="14.0" cy="116.4" r="1.20" fill="#1a1520" opacity="0.040"/><circle cx="429.6" cy="4.0" r="1.28" fill="#1a1520" opacity="0.112"/><circle cx="163.6" cy="117.1" r="0.90" fill="#1a1520" opacity="0.137"/><circle cx="475.2" cy="146.2" r="1.49" fill="#1a1520" opacity="0.069"/><circle cx="47.8" cy="255.6" r="1.24" fill="#1a1520" opacity="0.041"/><circle cx="384.7" cy="174.3" r="1.40" fill="#1a1520" opacity="0.109"/><circle cx="167.2" cy="67.8" r="1.36" fill="#1a1520" opacity="0.047"/><circle cx="285.3" cy="112.6" r="1.00" fill="#1a1520" opacity="0.137"/><circle cx="237.6" cy="132.5" r="1.74" fill="#1a1520" opacity="0.083"/><circle cx="180.4" cy="132.7" r="1.74" fill="#1a1520" opacity="0.101"/><circle cx="267.8" cy="143.6" r="0.83" fill="#1a1520" opacity="0.127"/><circle cx="230.9" cy="269.5" r="1.71" fill="#1a1520" opacity="0.102"/><circle cx="48.7" cy="273.9" r="1.11" fill="#1a1520" opacity="0.041"/><circle cx="57.6" cy="128.9" r="1.76" fill="#1a1520" opacity="0.081"/><circle cx="443.8" cy="292.3" r="1.80" fill="#1a1520" opacity="0.076"/><circle cx="125.6" cy="134.2" r="0.41" fill="#1a1520" opacity="0.072"/><circle cx="408.2" cy="150.8" r="1.37" fill="#1a1520" opacity="0.128"/><circle cx="374.6" cy="252.3" r="1.24" fill="#1a1520" opacity="0.108"/><circle cx="371.1" cy="46.8" r="1.26" fill="#1a1520" opacity="0.058"/><circle cx="295.3" cy="184.0" r="1.70" fill="#1a1520" opacity="0.051"/><circle cx="288.7" cy="258.0" r="0.88" fill="#1a1520" opacity="0.115"/><circle cx="168.0" cy="84.2" r="1.33" fill="#1a1520" opacity="0.052"/><circle cx="200.2" cy="56.6" r="1.19" fill="#1a1520" opacity="0.130"/><circle cx="114.2" cy="45.0" r="1.56" fill="#1a1520" opacity="0.058"/><circle cx="182.0" cy="279.3" r="0.88" fill="#1a1520" opacity="0.083"/><circle cx="235.3" cy="117.4" r="1.09" fill="#1a1520" opacity="0.064"/><circle cx="22.7" cy="188.8" r="1.25" fill="#1a1520" opacity="0.137"/><circle cx="229.8" cy="126.5" r="1.46" fill="#1a1520" opacity="0.110"/><circle cx="193.8" cy="85.7" r="1.08" fill="#1a1520" opacity="0.116"/><circle cx="9.0" cy="95.4" r="1.03" fill="#1a1520" opacity="0.050"/><circle cx="59.6" cy="216.7" r="1.50" fill="#1a1520" opacity="0.116"/><circle cx="13.7" cy="123.1" r="0.56" fill="#1a1520" opacity="0.125"/><circle cx="387.5" cy="69.6" r="1.51" fill="#1a1520" opacity="0.105"/><circle cx="444.5" cy="168.7" r="0.78" fill="#1a1520" opacity="0.136"/><circle cx="249.0" cy="280.9" r="1.56" fill="#1a1520" opacity="0.131"/><circle cx="174.0" cy="102.6" r="1.28" fill="#1a1520" opacity="0.078"/><circle cx="441.7" cy="85.6" r="1.27" fill="#1a1520" opacity="0.069"/><circle cx="176.9" cy="267.0" r="0.77" fill="#1a1520" opacity="0.065"/><circle cx="379.5" cy="219.7" r="1.71" fill="#1a1520" opacity="0.077"/><circle cx="127.7" cy="45.3" r="1.77" fill="#1a1520" opacity="0.099"/><circle cx="202.5" cy="117.1" r="0.97" fill="#1a1520" opacity="0.095"/><circle cx="326.5" cy="243.6" r="1.69" fill="#1a1520" opacity="0.057"/><circle cx="344.9" cy="259.5" r="1.57" fill="#1a1520" opacity="0.062"/><circle cx="393.8" cy="225.1" r="1.46" fill="#1a1520" opacity="0.091"/><circle cx="117.6" cy="45.6" r="1.10" fill="#1a1520" opacity="0.088"/><circle cx="123.4" cy="235.2" r="1.62" fill="#1a1520" opacity="0.046"/><circle cx="212.6" cy="217.4" r="1.56" fill="#1a1520" opacity="0.093"/><circle cx="440.8" cy="103.0" r="1.42" fill="#1a1520" opacity="0.087"/><circle cx="283.0" cy="73.4" r="1.30" fill="#1a1520" opacity="0.098"/><circle cx="468.7" cy="184.5" r="1.50" fill="#1a1520" opacity="0.115"/><circle cx="99.1" cy="139.3" r="0.80" fill="#1a1520" opacity="0.069"/><circle cx="428.4" cy="234.6" r="0.62" fill="#1a1520" opacity="0.101"/><circle cx="421.9" cy="96.5" r="1.65" fill="#1a1520" opacity="0.069"/><circle cx="186.2" cy="72.1" r="1.26" fill="#1a1520" opacity="0.088"/><circle cx="57.7" cy="89.0" r="0.91" fill="#1a1520" opacity="0.100"/><circle cx="393.6" cy="264.8" r="1.78" fill="#1a1520" opacity="0.084"/><circle cx="83.9" cy="70.5" r="1.69" fill="#1a1520" opacity="0.053"/><circle cx="219.5" cy="159.8" r="0.99" fill="#1a1520" opacity="0.046"/><circle cx="479.4" cy="223.9" r="0.45" fill="#1a1520" opacity="0.092"/><circle cx="187.9" cy="289.4" r="0.98" fill="#1a1520" opacity="0.103"/><circle cx="450.6" cy="64.9" r="1.61" fill="#1a1520" opacity="0.054"/><circle cx="463.6" cy="35.7" r="1.19" fill="#1a1520" opacity="0.077"/><circle cx="430.4" cy="232.6" r="1.03" fill="#1a1520" opacity="0.134"/><circle cx="294.1" cy="278.0" r="1.41" fill="#1a1520" opacity="0.043"/><circle cx="200.7" cy="249.2" r="1.75" fill="#1a1520" opacity="0.136"/><circle cx="317.1" cy="32.8" r="1.33" fill="#1a1520" opacity="0.064"/><circle cx="127.7" cy="268.2" r="0.44" fill="#1a1520" opacity="0.090"/><circle cx="265.7" cy="22.6" r="0.68" fill="#1a1520" opacity="0.044"/><circle cx="185.0" cy="294.6" r="0.43" fill="#1a1520" opacity="0.098"/><circle cx="461.7" cy="260.0" r="0.81" fill="#1a1520" opacity="0.104"/><circle cx="164.9" cy="19.9" r="1.35" fill="#1a1520" opacity="0.109"/><circle cx="131.5" cy="108.7" r="1.16" fill="#1a1520" opacity="0.042"/><circle cx="479.0" cy="164.6" r="1.68" fill="#1a1520" opacity="0.090"/><circle cx="113.5" cy="232.9" r="0.72" fill="#1a1520" opacity="0.053"/><circle cx="471.7" cy="194.7" r="0.74" fill="#1a1520" opacity="0.126"/><circle cx="240.0" cy="282.3" r="0.54" fill="#1a1520" opacity="0.044"/><circle cx="79.9" cy="282.9" r="1.70" fill="#1a1520" opacity="0.118"/><circle cx="265.4" cy="130.5" r="1.54" fill="#1a1520" opacity="0.043"/><circle cx="76.8" cy="298.4" r="0.85" fill="#1a1520" opacity="0.060"/><circle cx="418.3" cy="51.2" r="0.68" fill="#1a1520" opacity="0.108"/><circle cx="291.1" cy="120.8" r="0.96" fill="#1a1520" opacity="0.057"/><circle cx="89.9" cy="293.3" r="1.42" fill="#1a1520" opacity="0.048"/><circle cx="199.3" cy="38.2" r="0.94" fill="#fff8e7" opacity="0.068"/><circle cx="377.2" cy="14.6" r="0.87" fill="#fff8e7" opacity="0.104"/><circle cx="66.9" cy="229.6" r="0.86" fill="#fff8e7" opacity="0.099"/><circle cx="281.3" cy="211.9" r="0.61" fill="#fff8e7" opacity="0.089"/><circle cx="143.2" cy="173.8" r="1.18" fill="#fff8e7" opacity="0.036"/><circle cx="85.0" cy="274.3" r="0.99" fill="#fff8e7" opacity="0.036"/><circle cx="197.8" cy="3.4" r="0.58" fill="#fff8e7" opacity="0.052"/><circle cx="79.3" cy="241.0" r="0.89" fill="#fff8e7" opacity="0.063"/><circle cx="81.3" cy="199.6" r="0.49" fill="#fff8e7" opacity="0.042"/><circle cx="452.8" cy="64.4" r="0.77" fill="#fff8e7" opacity="0.072"/><circle cx="81.6" cy="149.8" r="1.18" fill="#fff8e7" opacity="0.032"/><circle cx="392.4" cy="18.3" r="0.97" fill="#fff8e7" opacity="0.060"/><circle cx="89.4" cy="257.5" r="0.63" fill="#fff8e7" opacity="0.070"/><circle cx="211.2" cy="263.7" r="0.98" fill="#fff8e7" opacity="0.059"/><circle cx="17.5" cy="93.1" r="0.59" fill="#fff8e7" opacity="0.053"/><circle cx="43.3" cy="84.2" r="0.44" fill="#fff8e7" opacity="0.059"/><circle cx="275.4" cy="111.2" r="0.75" fill="#fff8e7" opacity="0.078"/><circle cx="24.0" cy="69.0" r="0.81" fill="#fff8e7" opacity="0.082"/><circle cx="129.6" cy="294.6" r="1.04" fill="#fff8e7" opacity="0.039"/><circle cx="343.3" cy="292.5" r="0.73" fill="#fff8e7" opacity="0.071"/><circle cx="38.6" cy="293.7" r="0.55" fill="#fff8e7" opacity="0.097"/><circle cx="262.1" cy="190.4" r="0.64" fill="#fff8e7" opacity="0.067"/><circle cx="456.9" cy="31.3" r="0.61" fill="#fff8e7" opacity="0.074"/><circle cx="256.4" cy="278.6" r="1.09" fill="#fff8e7" opacity="0.075"/><circle cx="76.5" cy="191.7" r="0.84" fill="#fff8e7" opacity="0.103"/><circle cx="45.0" cy="161.3" r="0.81" fill="#fff8e7" opacity="0.100"/><circle cx="193.0" cy="18.6" r="0.83" fill="#fff8e7" opacity="0.053"/><circle cx="111.1" cy="41.7" r="0.83" fill="#fff8e7" opacity="0.082"/><circle cx="113.0" cy="44.8" r="0.44" fill="#fff8e7" opacity="0.089"/><circle cx="14.3" cy="98.4" r="1.19" fill="#fff8e7" opacity="0.061"/><circle cx="421.8" cy="296.8" r="1.00" fill="#fff8e7" opacity="0.068"/><circle cx="24.8" cy="286.8" r="0.41" fill="#fff8e7" opacity="0.090"/><circle cx="348.7" cy="4.0" r="0.47" fill="#fff8e7" opacity="0.038"/><circle cx="316.2" cy="51.7" r="1.13" fill="#fff8e7" opacity="0.033"/><circle cx="344.8" cy="273.9" r="0.96" fill="#fff8e7" opacity="0.068"/><circle cx="19.5" cy="10.6" r="1.11" fill="#fff8e7" opacity="0.069"/><circle cx="221.3" cy="4.9" r="1.05" fill="#fff8e7" opacity="0.096"/><circle cx="113.6" cy="15.6" r="0.82" fill="#fff8e7" opacity="0.085"/><circle cx="317.5" cy="172.5" r="0.58" fill="#fff8e7" opacity="0.091"/><circle cx="19.2" cy="15.5" r="0.71" fill="#fff8e7" opacity="0.106"/></g>
<rect x="8" y="8" width="464" height="284" fill="none" stroke="#f5efe0" stroke-opacity="0.22" stroke-width="2" rx="4"/>
</svg>
