<?xml version="1.0" encoding="UTF-8"?>
<svg xmlns="http://www.w3.org/2000/svg" viewBox="0 0 480 300" width="480" height="300" role="img" aria-label="ajman">

    <defs>
      <linearGradient id="sky" x1="0" y1="0" x2="0" y2="1">
        <stop offset="0%" stop-color="#87ceeb"/>
        <stop offset="55%" stop-color="#f0d090"/>
        <stop offset="100%" stop-color="#e0a060"/>
      </linearGradient>
      <radialGradient id="glow" cx="70%" cy="22%" r="45%">
        <stop offset="0%" stop-color="#fff6d8" stop-opacity="0.45"/>
        <stop offset="100%" stop-color="#fff6d8" stop-opacity="0"/>
      </radialGradient>
      <linearGradient id="ground" x1="0" y1="0" x2="0" y2="1">
        <stop offset="0%" stop-color="#2a3340" stop-opacity="0"/>
        <stop offset="100%" stop-color="#121820" stop-opacity="0.55"/>
      </linearGradient>
    </defs>
    <rect width="480" height="300" fill="url(#sky)"/>
    <rect width="480" height="300" fill="url(#glow)"/>
  
<g opacity="0.28" fill="#f7f3ea">
    <ellipse cx="90.2922544348985" cy="51.32391531486064" rx="27.939129236713054" ry="11.97391253001988"/>
    <ellipse cx="108.25312322992832" cy="47.332611138187346" rx="19.956520883366466" ry="9.978260441683233"/>
    <ellipse cx="74.32703772820533" cy="53.31956740319729" rx="15.965216706693173" ry="7.982608353346587"/>
  </g>
<g opacity="0.22" fill="#f7f3ea">
    <ellipse cx="353.56049148365855" cy="35.218256218358874" rx="32.11635023728013" ry="13.764150101691484"/>
    <ellipse cx="374.2067166361958" cy="30.630206184461713" rx="22.940250169485807" ry="11.470125084742904"/>
    <ellipse cx="335.2082913480699" cy="37.512281235307455" rx="18.352200135588646" ry="9.176100067794323"/>
  </g>

    <ellipse cx="240" cy="240" rx="240" ry="50" fill="#c4a06a" opacity="0.55"/>
    <g fill="#e8dcc8">
      <rect x="100" y="175" width="50" height="35" rx="3"/>
      <rect x="170" y="165" width="40" height="45" rx="3"/>
      <rect x="280" y="170" width="55" height="40" rx="3"/>
    </g>
    <path d="M320 175 Q340 140 360 175" fill="#2f7a45" opacity="0.6"/>
    
    <defs>
      <linearGradient id="water" x1="0" y1="0" x2="0" y2="1">
        <stop offset="0%" stop-color="#2a8aaa"/>
        <stop offset="100%" stop-color="#155a6a"/>
      </linearGradient>
    </defs>
    <path d="M0 220 Q120 210 240 224 T480 218 L480 300 L0 300 Z" fill="url(#water)"/>
    <path d="M0 234 Q160 224 320 238 T480 230" fill="none" stroke="#7ec8e8" stroke-opacity="0.25" stroke-width="2"/>
    <path d="M40 248 Q200 238 360 252" fill="none" stroke="#fff" stroke-opacity="0.12" stroke-width="1.5"/>
  
<rect width="480" height="300" fill="url(#ground)"/>
  <rect width="480" height="300" fill="none" stroke="#1a1520" stroke-width="28" stroke-opacity="0.18"/>
<g id="grain-ajman" opacity="0.85"><circle cx="363.5" cy="169.9" r="0.74" fill="#1a1520" opacity="0.132"/><circle cx="100.2" cy="88.2" r="0.78" fill="#1a1520" opacity="0.052"/><circle cx="241.9" cy="276.4" r="1.68" fill="#1a1520" opacity="0.090"/><circle cx="368.8" cy="93.4" r="0.50" fill="#1a1520" opacity="0.120"/><circle cx="443.9" cy="226.0" r="1.35" fill="#1a1520" opacity="0.121"/><circle cx="433.6" cy="199.3" r="1.59" fill="#1a1520" opacity="0.098"/><circle cx="53.0" cy="271.4" r="0.57" fill="#1a1520" opacity="0.093"/><circle cx="179.1" cy="35.7" r="1.13" fill="#1a1520" opacity="0.104"/><circle cx="367.2" cy="3.0" r="1.70" fill="#1a1520" opacity="0.098"/><circle cx="336.2" cy="191.9" r="0.80" fill="#1a1520" opacity="0.086"/><circle cx="401.0" cy="246.7" r="0.58" fill="#1a1520" opacity="0.081"/><circle cx="133.8" cy="213.0" r="0.70" fill="#1a1520" opacity="0.119"/><circle cx="333.1" cy="270.9" r="1.13" fill="#1a1520" opacity="0.048"/><circle cx="24.8" cy="273.0" r="1.61" fill="#1a1520" opacity="0.102"/><circle cx="339.6" cy="252.2" r="0.61" fill="#1a1520" opacity="0.115"/><circle cx="271.4" cy="233.3" r="0.67" fill="#1a1520" opacity="0.122"/><circle cx="370.8" cy="184.6" r="0.79" fill="#1a1520" opacity="0.080"/><circle cx="217.4" cy="53.6" r="0.71" fill="#1a1520" opacity="0.120"/><circle cx="407.7" cy="51.7" r="0.95" fill="#1a1520" opacity="0.065"/><circle cx="420.1" cy="68.9" r="0.47" fill="#1a1520" opacity="0.042"/><circle cx="472.3" cy="92.5" r="1.73" fill="#1a1520" opacity="0.132"/><circle cx="233.4" cy="25.0" r="1.80" fill="#1a1520" opacity="0.059"/><circle cx="389.1" cy="167.7" r="0.77" fill="#1a1520" opacity="0.098"/><circle cx="250.3" cy="160.6" r="1.78" fill="#1a1520" opacity="0.133"/><circle cx="399.3" cy="175.4" r="1.71" fill="#1a1520" opacity="0.088"/><circle cx="135.7" cy="294.4" r="1.45" fill="#1a1520" opacity="0.098"/><circle cx="294.2" cy="140.5" r="1.37" fill="#1a1520" opacity="0.082"/><circle cx="104.8" cy="183.8" r="1.19" fill="#1a1520" opacity="0.055"/><circle cx="360.7" cy="218.6" r="1.76" fill="#1a1520" opacity="0.105"/><circle cx="233.7" cy="136.7" r="1.31" fill="#1a1520" opacity="0.067"/><circle cx="341.4" cy="11.9" r="1.13" fill="#1a1520" opacity="0.083"/><circle cx="165.3" cy="5.1" r="1.58" fill="#1a1520" opacity="0.062"/><circle cx="477.3" cy="69.8" r="0.48" fill="#1a1520" opacity="0.097"/><circle cx="127.1" cy="267.9" r="0.98" fill="#1a1520" opacity="0.100"/><circle cx="20.9" cy="159.4" r="1.60" fill="#1a1520" opacity="0.096"/><circle cx="432.3" cy="72.2" r="1.66" fill="#1a1520" opacity="0.079"/><circle cx="78.7" cy="170.8" r="0.61" fill="#1a1520" opacity="0.133"/><circle cx="66.0" cy="181.0" r="0.71" fill="#1a1520" opacity="0.063"/><circle cx="177.1" cy="161.9" r="1.53" fill="#1a1520" opacity="0.047"/><circle cx="116.8" cy="269.1" r="0.68" fill="#1a1520" opacity="0.097"/><circle cx="69.5" cy="67.0" r="1.30" fill="#1a1520" opacity="0.051"/><circle cx="203.7" cy="137.7" r="1.78" fill="#1a1520" opacity="0.061"/><circle cx="7.4" cy="141.7" r="0.69" fill="#1a1520" opacity="0.052"/><circle cx="217.9" cy="0.6" r="1.23" fill="#1a1520" opacity="0.040"/><circle cx="171.5" cy="106.6" r="1.59" fill="#1a1520" opacity="0.085"/><circle cx="287.6" cy="132.0" r="0.89" fill="#1a1520" opacity="0.049"/><circle cx="335.8" cy="257.7" r="1.27" fill="#1a1520" opacity="0.101"/><circle cx="216.1" cy="148.4" r="1.67" fill="#1a1520" opacity="0.063"/><circle cx="1.8" cy="67.0" r="1.58" fill="#1a1520" opacity="0.066"/><circle cx="21.1" cy="78.0" r="0.84" fill="#1a1520" opacity="0.110"/><circle cx="55.4" cy="194.2" r="1.27" fill="#1a1520" opacity="0.103"/><circle cx="421.4" cy="126.3" r="1.33" fill="#1a1520" opacity="0.121"/><circle cx="87.9" cy="108.7" r="0.57" fill="#1a1520" opacity="0.132"/><circle cx="24.6" cy="162.5" r="1.14" fill="#1a1520" opacity="0.097"/><circle cx="254.5" cy="202.0" r="0.90" fill="#1a1520" opacity="0.111"/><circle cx="61.5" cy="166.3" r="0.94" fill="#1a1520" opacity="0.058"/><circle cx="137.6" cy="26.0" r="0.91" fill="#1a1520" opacity="0.069"/><circle cx="167.8" cy="36.2" r="0.89" fill="#1a1520" opacity="0.063"/><circle cx="311.4" cy="175.5" r="0.80" fill="#1a1520" opacity="0.075"/><circle cx="116.2" cy="32.7" r="0.75" fill="#1a1520" opacity="0.075"/><circle cx="10.2" cy="101.9" r="0.40" fill="#1a1520" opacity="0.099"/><circle cx="192.5" cy="45.5" r="0.72" fill="#1a1520" opacity="0.063"/><circle cx="69.7" cy="130.1" r="1.71" fill="#1a1520" opacity="0.125"/><circle cx="64.3" cy="117.8" r="1.01" fill="#1a1520" opacity="0.092"/><circle cx="192.1" cy="105.0" r="1.02" fill="#1a1520" opacity="0.103"/><circle cx="350.3" cy="284.6" r="1.44" fill="#1a1520" opacity="0.132"/><circle cx="105.1" cy="198.3" r="1.75" fill="#1a1520" opacity="0.113"/><circle cx="372.0" cy="17.6" r="0.65" fill="#1a1520" opacity="0.110"/><circle cx="262.8" cy="194.3" r="0.89" fill="#1a1520" opacity="0.123"/><circle cx="67.4" cy="72.0" r="1.54" fill="#1a1520" opacity="0.121"/><circle cx="392.1" cy="166.7" r="1.47" fill="#1a1520" opacity="0.114"/><circle cx="352.2" cy="233.1" r="0.75" fill="#1a1520" opacity="0.078"/><circle cx="129.0" cy="92.3" r="0.98" fill="#1a1520" opacity="0.093"/><circle cx="198.3" cy="137.3" r="0.52" fill="#1a1520" opacity="0.101"/><circle cx="203.9" cy="180.7" r="1.31" fill="#1a1520" opacity="0.109"/><circle cx="398.6" cy="137.8" r="0.47" fill="#1a1520" opacity="0.062"/><circle cx="372.5" cy="214.4" r="1.26" fill="#1a1520" opacity="0.129"/><circle cx="47.0" cy="97.5" r="1.54" fill="#1a1520" opacity="0.123"/><circle cx="11.9" cy="144.9" r="0.89" fill="#1a1520" opacity="0.079"/><circle cx="324.5" cy="82.9" r="1.64" fill="#1a1520" opacity="0.061"/><circle cx="54.7" cy="72.5" r="0.45" fill="#1a1520" opacity="0.103"/><circle cx="343.1" cy="271.4" r="1.58" fill="#1a1520" opacity="0.086"/><circle cx="52.1" cy="51.6" r="0.75" fill="#1a1520" opacity="0.087"/><circle cx="150.7" cy="156.7" r="1.24" fill="#1a1520" opacity="0.065"/><circle cx="195.6" cy="124.8" r="1.23" fill="#1a1520" opacity="0.058"/><circle cx="342.1" cy="67.2" r="1.63" fill="#1a1520" opacity="0.104"/><circle cx="50.0" cy="266.7" r="0.83" fill="#1a1520" opacity="0.104"/><circle cx="402.5" cy="298.8" r="1.76" fill="#1a1520" opacity="0.048"/><circle cx="136.6" cy="141.2" r="0.59" fill="#1a1520" opacity="0.057"/><circle cx="113.8" cy="213.8" r="0.88" fill="#1a1520" opacity="0.076"/><circle cx="34.2" cy="139.5" r="0.36" fill="#fff8e7" opacity="0.110"/><circle cx="394.7" cy="277.0" r="1.07" fill="#fff8e7" opacity="0.083"/><circle cx="99.5" cy="183.7" r="0.41" fill="#fff8e7" opacity="0.082"/><circle cx="265.4" cy="176.9" r="1.02" fill="#fff8e7" opacity="0.046"/><circle cx="183.7" cy="76.7" r="0.75" fill="#fff8e7" opacity="0.087"/><circle cx="332.3" cy="84.4" r="0.85" fill="#fff8e7" opacity="0.071"/><circle cx="45.3" cy="18.5" r="1.11" fill="#fff8e7" opacity="0.064"/><circle cx="4.4" cy="190.7" r="0.41" fill="#fff8e7" opacity="0.062"/><circle cx="50.4" cy="38.5" r="0.53" fill="#fff8e7" opacity="0.049"/><circle cx="49.7" cy="231.0" r="1.08" fill="#fff8e7" opacity="0.034"/><circle cx="374.9" cy="44.5" r="1.13" fill="#fff8e7" opacity="0.097"/><circle cx="220.0" cy="118.5" r="0.44" fill="#fff8e7" opacity="0.052"/><circle cx="157.6" cy="188.2" r="0.92" fill="#fff8e7" opacity="0.088"/><circle cx="175.9" cy="186.2" r="0.71" fill="#fff8e7" opacity="0.083"/><circle cx="334.2" cy="19.3" r="0.96" fill="#fff8e7" opacity="0.069"/><circle cx="361.1" cy="146.8" r="0.37" fill="#fff8e7" opacity="0.057"/><circle cx="471.9" cy="118.7" r="0.68" fill="#fff8e7" opacity="0.053"/><circle cx="36.0" cy="280.2" r="0.60" fill="#fff8e7" opacity="0.039"/><circle cx="215.0" cy="106.5" r="0.47" fill="#fff8e7" opacity="0.059"/><circle cx="207.8" cy="44.8" r="0.74" fill="#fff8e7" opacity="0.071"/><circle cx="315.4" cy="293.6" r="0.57" fill="#fff8e7" opacity="0.041"/><circle cx="374.2" cy="111.7" r="0.37" fill="#fff8e7" opacity="0.076"/><circle cx="350.3" cy="201.9" r="0.74" fill="#fff8e7" opacity="0.075"/><circle cx="132.8" cy="234.9" r="0.75" fill="#fff8e7" opacity="0.106"/><circle cx="168.5" cy="207.2" r="0.49" fill="#fff8e7" opacity="0.054"/><circle cx="31.0" cy="211.3" r="0.89" fill="#fff8e7" opacity="0.076"/><circle cx="453.2" cy="34.8" r="0.61" fill="#fff8e7" opacity="0.082"/><circle cx="348.4" cy="21.9" r="0.41" fill="#fff8e7" opacity="0.064"/><circle cx="48.7" cy="88.7" r="0.45" fill="#fff8e7" opacity="0.042"/><circle cx="226.4" cy="113.9" r="0.75" fill="#fff8e7" opacity="0.071"/><circle cx="283.1" cy="166.9" r="0.39" fill="#fff8e7" opacity="0.069"/><circle cx="9.5" cy="274.3" r="1.08" fill="#fff8e7" opacity="0.086"/><circle cx="109.0" cy="142.1" r="0.71" fill="#fff8e7" opacity="0.087"/><circle cx="173.5" cy="233.9" r="0.41" fill="#fff8e7" opacity="0.078"/><circle cx="126.5" cy="33.1" r="0.55" fill="#fff8e7" opacity="0.037"/><circle cx="318.0" cy="187.4" r="0.90" fill="#fff8e7" opacity="0.095"/><circle cx="257.6" cy="160.2" r="0.54" fill="#fff8e7" opacity="0.071"/><circle cx="86.4" cy="173.9" r="0.80" fill="#fff8e7" opacity="0.043"/><circle cx="233.1" cy="196.9" r="0.92" fill="#fff8e7" opacity="0.100"/><circle cx="430.8" cy="147.8" r="0.97" fill="#fff8e7" opacity="0.072"/></g>
<rect x="8" y="8" width="464" height="284" fill="none" stroke="#f5efe0" stroke-opacity="0.22" stroke-width="2" rx="4"/>
</svg>
