<?xml version="1.0" encoding="UTF-8"?>
<svg xmlns="http://www.w3.org/2000/svg" viewBox="0 0 480 300" width="480" height="300" role="img" aria-label="belem">

    <defs>
      <linearGradient id="sky" x1="0" y1="0" x2="0" y2="1">
        <stop offset="0%" stop-color="#7ec8e8"/>
        <stop offset="55%" stop-color="#4aa0c8"/>
        <stop offset="100%" stop-color="#2a6a8a"/>
      </linearGradient>
      <radialGradient id="glow" cx="70%" cy="22%" r="45%">
        <stop offset="0%" stop-color="#fff6d8" stop-opacity="0.45"/>
        <stop offset="100%" stop-color="#fff6d8" stop-opacity="0"/>
      </radialGradient>
      <linearGradient id="ground" x1="0" y1="0" x2="0" y2="1">
        <stop offset="0%" stop-color="#2a3340" stop-opacity="0"/>
        <stop offset="100%" stop-color="#121820" stop-opacity="0.55"/>
      </linearGradient>
    </defs>
    <rect width="480" height="300" fill="url(#sky)"/>
    <rect width="480" height="300" fill="url(#glow)"/>
  
<g opacity="0.28" fill="#f7f3ea">
    <ellipse cx="65.34378976561129" cy="52.989189992658794" rx="28.028752358257773" ry="12.012322439253332"/>
    <ellipse cx="83.36227342449129" cy="48.98508251290768" rx="20.02053739875555" ry="10.010268699377775"/>
    <ellipse cx="49.32735984660685" cy="54.99124373253435" rx="16.01642991900444" ry="8.00821495950222"/>
  </g>
<g opacity="0.22" fill="#f7f3ea">
    <ellipse cx="356.1722739227116" cy="38.47952555632219" rx="38.41346155991778" ry="16.46291209710762"/>
    <ellipse cx="380.86664206837304" cy="32.99188819061965" rx="27.4381868285127" ry="13.71909341425635"/>
    <ellipse cx="334.22172445990145" cy="41.22334423917346" rx="21.95054946281016" ry="10.97527473140508"/>
  </g>

    <defs>
      <linearGradient id="water" x1="0" y1="0" x2="0" y2="1">
        <stop offset="0%" stop-color="#1a4a6e"/>
        <stop offset="100%" stop-color="#0e2a42"/>
      </linearGradient>
    </defs>
    <path d="M0 230 Q120 220 240 234 T480 228 L480 300 L0 300 Z" fill="url(#water)"/>
    <path d="M0 244 Q160 234 320 248 T480 240" fill="none" stroke="#7ec8e8" stroke-opacity="0.25" stroke-width="2"/>
    <path d="M40 258 Q200 248 360 262" fill="none" stroke="#fff" stroke-opacity="0.12" stroke-width="1.5"/>
  

    <g fill="#1f4d32">
      <ellipse cx="90" cy="210" rx="70" ry="40"/>
      <ellipse cx="160" cy="200" rx="55" ry="36"/>
      <ellipse cx="230" cy="215" rx="65" ry="38"/>
      <ellipse cx="320" cy="205" rx="80" ry="42"/>
      <ellipse cx="400" cy="218" rx="60" ry="34"/>
    </g>
    <g fill="#2d6b42" opacity="0.85">
      <ellipse cx="120" cy="195" rx="40" ry="28"/>
      <ellipse cx="280" cy="188" rx="48" ry="30"/>
      <ellipse cx="360" cy="198" rx="36" ry="24"/>
    </g>
<rect width="480" height="300" fill="url(#ground)"/>
  <rect width="480" height="300" fill="none" stroke="#1a1520" stroke-width="28" stroke-opacity="0.18"/>
<g id="grain-belem" opacity="0.85"><circle cx="64.1" cy="194.8" r="0.75" fill="#1a1520" opacity="0.135"/><circle cx="162.8" cy="223.1" r="0.90" fill="#1a1520" opacity="0.133"/><circle cx="433.1" cy="154.3" r="1.09" fill="#1a1520" opacity="0.052"/><circle cx="240.3" cy="222.6" r="0.56" fill="#1a1520" opacity="0.054"/><circle cx="330.2" cy="87.4" r="0.71" fill="#1a1520" opacity="0.063"/><circle cx="448.6" cy="195.5" r="1.41" fill="#1a1520" opacity="0.075"/><circle cx="454.9" cy="165.0" r="1.14" fill="#1a1520" opacity="0.103"/><circle cx="236.7" cy="25.1" r="1.51" fill="#1a1520" opacity="0.056"/><circle cx="411.5" cy="69.3" r="0.59" fill="#1a1520" opacity="0.064"/><circle cx="90.8" cy="249.4" r="0.42" fill="#1a1520" opacity="0.047"/><circle cx="64.6" cy="190.2" r="1.63" fill="#1a1520" opacity="0.043"/><circle cx="343.3" cy="148.2" r="1.26" fill="#1a1520" opacity="0.079"/><circle cx="251.9" cy="257.6" r="1.15" fill="#1a1520" opacity="0.118"/><circle cx="337.3" cy="126.2" r="0.70" fill="#1a1520" opacity="0.069"/><circle cx="235.6" cy="59.5" r="1.32" fill="#1a1520" opacity="0.056"/><circle cx="413.6" cy="77.6" r="0.69" fill="#1a1520" opacity="0.055"/><circle cx="206.8" cy="242.7" r="0.60" fill="#1a1520" opacity="0.079"/><circle cx="142.8" cy="167.6" r="0.76" fill="#1a1520" opacity="0.131"/><circle cx="442.6" cy="227.4" r="1.53" fill="#1a1520" opacity="0.106"/><circle cx="77.4" cy="250.0" r="0.95" fill="#1a1520" opacity="0.119"/><circle cx="35.0" cy="84.8" r="0.71" fill="#1a1520" opacity="0.101"/><circle cx="323.4" cy="233.9" r="1.14" fill="#1a1520" opacity="0.040"/><circle cx="199.4" cy="7.6" r="0.85" fill="#1a1520" opacity="0.055"/><circle cx="165.2" cy="115.8" r="0.95" fill="#1a1520" opacity="0.072"/><circle cx="465.5" cy="207.8" r="0.48" fill="#1a1520" opacity="0.072"/><circle cx="427.4" cy="236.0" r="0.65" fill="#1a1520" opacity="0.099"/><circle cx="451.3" cy="93.1" r="0.77" fill="#1a1520" opacity="0.053"/><circle cx="395.7" cy="231.8" r="0.83" fill="#1a1520" opacity="0.112"/><circle cx="56.5" cy="112.3" r="1.72" fill="#1a1520" opacity="0.128"/><circle cx="459.5" cy="241.4" r="0.79" fill="#1a1520" opacity="0.116"/><circle cx="222.7" cy="183.9" r="0.94" fill="#1a1520" opacity="0.062"/><circle cx="473.0" cy="89.8" r="1.72" fill="#1a1520" opacity="0.047"/><circle cx="161.1" cy="150.9" r="1.17" fill="#1a1520" opacity="0.120"/><circle cx="46.2" cy="211.8" r="1.37" fill="#1a1520" opacity="0.048"/><circle cx="373.0" cy="64.4" r="1.75" fill="#1a1520" opacity="0.058"/><circle cx="149.3" cy="126.2" r="0.77" fill="#1a1520" opacity="0.123"/><circle cx="207.2" cy="291.9" r="0.67" fill="#1a1520" opacity="0.077"/><circle cx="318.7" cy="98.8" r="1.59" fill="#1a1520" opacity="0.095"/><circle cx="13.0" cy="79.0" r="1.69" fill="#1a1520" opacity="0.127"/><circle cx="11.8" cy="275.5" r="1.78" fill="#1a1520" opacity="0.093"/><circle cx="58.0" cy="106.7" r="0.97" fill="#1a1520" opacity="0.064"/><circle cx="414.6" cy="82.5" r="0.88" fill="#1a1520" opacity="0.057"/><circle cx="348.3" cy="3.3" r="1.34" fill="#1a1520" opacity="0.060"/><circle cx="280.6" cy="222.2" r="0.92" fill="#1a1520" opacity="0.101"/><circle cx="396.3" cy="45.0" r="0.66" fill="#1a1520" opacity="0.085"/><circle cx="316.5" cy="177.8" r="1.22" fill="#1a1520" opacity="0.055"/><circle cx="18.6" cy="107.4" r="0.44" fill="#1a1520" opacity="0.069"/><circle cx="318.9" cy="291.5" r="0.91" fill="#1a1520" opacity="0.072"/><circle cx="458.3" cy="189.1" r="1.16" fill="#1a1520" opacity="0.092"/><circle cx="201.7" cy="223.8" r="1.03" fill="#1a1520" opacity="0.139"/><circle cx="190.8" cy="39.3" r="0.82" fill="#1a1520" opacity="0.062"/><circle cx="153.5" cy="270.7" r="0.42" fill="#1a1520" opacity="0.092"/><circle cx="56.7" cy="227.0" r="1.27" fill="#1a1520" opacity="0.048"/><circle cx="107.7" cy="157.3" r="0.60" fill="#1a1520" opacity="0.041"/><circle cx="325.1" cy="120.2" r="1.48" fill="#1a1520" opacity="0.120"/><circle cx="385.2" cy="135.9" r="0.63" fill="#1a1520" opacity="0.071"/><circle cx="439.2" cy="93.3" r="1.41" fill="#1a1520" opacity="0.109"/><circle cx="165.7" cy="191.6" r="1.43" fill="#1a1520" opacity="0.077"/><circle cx="336.8" cy="293.4" r="1.08" fill="#1a1520" opacity="0.051"/><circle cx="258.6" cy="175.6" r="1.17" fill="#1a1520" opacity="0.128"/><circle cx="212.5" cy="92.7" r="0.79" fill="#1a1520" opacity="0.099"/><circle cx="311.8" cy="33.7" r="1.54" fill="#1a1520" opacity="0.134"/><circle cx="460.8" cy="227.7" r="1.75" fill="#1a1520" opacity="0.075"/><circle cx="287.8" cy="96.4" r="0.52" fill="#1a1520" opacity="0.082"/><circle cx="198.4" cy="23.9" r="1.69" fill="#1a1520" opacity="0.051"/><circle cx="109.4" cy="284.8" r="1.60" fill="#1a1520" opacity="0.095"/><circle cx="314.5" cy="161.3" r="0.67" fill="#1a1520" opacity="0.102"/><circle cx="170.9" cy="37.2" r="0.81" fill="#1a1520" opacity="0.119"/><circle cx="125.2" cy="281.9" r="1.64" fill="#1a1520" opacity="0.071"/><circle cx="193.5" cy="21.2" r="0.82" fill="#1a1520" opacity="0.105"/><circle cx="19.0" cy="260.8" r="0.42" fill="#1a1520" opacity="0.113"/><circle cx="67.3" cy="159.7" r="1.20" fill="#1a1520" opacity="0.058"/><circle cx="177.3" cy="182.5" r="1.29" fill="#1a1520" opacity="0.066"/><circle cx="180.5" cy="169.9" r="1.28" fill="#1a1520" opacity="0.096"/><circle cx="71.9" cy="34.2" r="1.80" fill="#1a1520" opacity="0.113"/><circle cx="154.4" cy="4.8" r="1.38" fill="#1a1520" opacity="0.100"/><circle cx="53.7" cy="200.7" r="1.20" fill="#1a1520" opacity="0.086"/><circle cx="436.5" cy="169.0" r="0.45" fill="#1a1520" opacity="0.102"/><circle cx="217.4" cy="281.6" r="0.84" fill="#1a1520" opacity="0.101"/><circle cx="324.6" cy="285.8" r="0.70" fill="#1a1520" opacity="0.116"/><circle cx="236.4" cy="29.3" r="1.77" fill="#1a1520" opacity="0.114"/><circle cx="412.6" cy="275.5" r="0.60" fill="#1a1520" opacity="0.130"/><circle cx="83.9" cy="202.7" r="0.93" fill="#1a1520" opacity="0.100"/><circle cx="121.4" cy="91.2" r="0.93" fill="#1a1520" opacity="0.071"/><circle cx="261.2" cy="39.7" r="0.64" fill="#1a1520" opacity="0.044"/><circle cx="226.8" cy="51.0" r="0.59" fill="#1a1520" opacity="0.118"/><circle cx="278.0" cy="84.0" r="1.55" fill="#1a1520" opacity="0.063"/><circle cx="179.7" cy="188.2" r="1.09" fill="#1a1520" opacity="0.059"/><circle cx="118.0" cy="166.7" r="0.66" fill="#1a1520" opacity="0.120"/><circle cx="443.7" cy="205.9" r="0.96" fill="#1a1520" opacity="0.046"/><circle cx="138.4" cy="212.6" r="0.50" fill="#fff8e7" opacity="0.064"/><circle cx="92.7" cy="18.8" r="0.84" fill="#fff8e7" opacity="0.052"/><circle cx="466.7" cy="174.2" r="0.53" fill="#fff8e7" opacity="0.083"/><circle cx="171.5" cy="61.5" r="1.04" fill="#fff8e7" opacity="0.037"/><circle cx="476.8" cy="54.4" r="0.69" fill="#fff8e7" opacity="0.096"/><circle cx="85.9" cy="87.6" r="0.57" fill="#fff8e7" opacity="0.086"/><circle cx="90.0" cy="226.4" r="0.88" fill="#fff8e7" opacity="0.041"/><circle cx="83.6" cy="31.5" r="1.14" fill="#fff8e7" opacity="0.105"/><circle cx="367.5" cy="177.9" r="1.17" fill="#fff8e7" opacity="0.079"/><circle cx="365.1" cy="46.1" r="0.83" fill="#fff8e7" opacity="0.109"/><circle cx="62.4" cy="145.2" r="1.12" fill="#fff8e7" opacity="0.075"/><circle cx="24.0" cy="202.1" r="0.32" fill="#fff8e7" opacity="0.092"/><circle cx="331.8" cy="11.0" r="1.16" fill="#fff8e7" opacity="0.108"/><circle cx="7.4" cy="98.0" r="0.46" fill="#fff8e7" opacity="0.033"/><circle cx="78.0" cy="169.3" r="1.01" fill="#fff8e7" opacity="0.099"/><circle cx="112.8" cy="8.1" r="0.62" fill="#fff8e7" opacity="0.097"/><circle cx="127.7" cy="55.6" r="0.74" fill="#fff8e7" opacity="0.066"/><circle cx="459.9" cy="24.1" r="0.49" fill="#fff8e7" opacity="0.090"/><circle cx="382.1" cy="213.8" r="1.00" fill="#fff8e7" opacity="0.056"/><circle cx="246.2" cy="158.8" r="1.12" fill="#fff8e7" opacity="0.098"/><circle cx="465.7" cy="289.5" r="0.91" fill="#fff8e7" opacity="0.053"/><circle cx="216.1" cy="74.5" r="0.63" fill="#fff8e7" opacity="0.107"/><circle cx="320.0" cy="195.7" r="0.44" fill="#fff8e7" opacity="0.045"/><circle cx="459.6" cy="238.6" r="0.87" fill="#fff8e7" opacity="0.070"/><circle cx="204.1" cy="129.6" r="0.94" fill="#fff8e7" opacity="0.062"/><circle cx="145.6" cy="102.7" r="0.43" fill="#fff8e7" opacity="0.072"/><circle cx="8.4" cy="86.9" r="0.53" fill="#fff8e7" opacity="0.080"/><circle cx="80.0" cy="282.0" r="1.06" fill="#fff8e7" opacity="0.077"/><circle cx="264.5" cy="27.8" r="0.61" fill="#fff8e7" opacity="0.074"/><circle cx="1.0" cy="186.5" r="0.83" fill="#fff8e7" opacity="0.102"/><circle cx="106.5" cy="110.9" r="0.43" fill="#fff8e7" opacity="0.035"/><circle cx="238.6" cy="92.5" r="1.05" fill="#fff8e7" opacity="0.067"/><circle cx="366.8" cy="17.5" r="0.59" fill="#fff8e7" opacity="0.059"/><circle cx="154.6" cy="96.7" r="0.62" fill="#fff8e7" opacity="0.075"/><circle cx="124.4" cy="160.8" r="0.45" fill="#fff8e7" opacity="0.070"/><circle cx="238.1" cy="258.7" r="1.03" fill="#fff8e7" opacity="0.066"/><circle cx="468.3" cy="259.0" r="0.95" fill="#fff8e7" opacity="0.054"/><circle cx="461.1" cy="214.1" r="0.46" fill="#fff8e7" opacity="0.097"/><circle cx="168.0" cy="200.3" r="0.41" fill="#fff8e7" opacity="0.109"/><circle cx="289.4" cy="4.9" r="0.96" fill="#fff8e7" opacity="0.038"/></g>
<rect x="8" y="8" width="464" height="284" fill="none" stroke="#f5efe0" stroke-opacity="0.22" stroke-width="2" rx="4"/>
</svg>
