<?xml version="1.0" encoding="UTF-8"?>
<svg xmlns="http://www.w3.org/2000/svg" viewBox="0 0 480 300" width="480" height="300" role="img" aria-label="boise-rail">

    <defs>
      <linearGradient id="sky" x1="0" y1="0" x2="0" y2="1">
        <stop offset="0%" stop-color="#d0b0c8"/>
        <stop offset="55%" stop-color="#9070a0"/>
        <stop offset="100%" stop-color="#504060"/>
      </linearGradient>
      <radialGradient id="glow" cx="70%" cy="22%" r="45%">
        <stop offset="0%" stop-color="#fff6d8" stop-opacity="0.45"/>
        <stop offset="100%" stop-color="#fff6d8" stop-opacity="0"/>
      </radialGradient>
      <linearGradient id="ground" x1="0" y1="0" x2="0" y2="1">
        <stop offset="0%" stop-color="#2a3340" stop-opacity="0"/>
        <stop offset="100%" stop-color="#121820" stop-opacity="0.55"/>
      </linearGradient>
    </defs>
    <rect width="480" height="300" fill="url(#sky)"/>
    <rect width="480" height="300" fill="url(#glow)"/>
  
<g opacity="0.28" fill="#f7f3ea">
    <ellipse cx="93.32251983694732" cy="46.64897937793285" rx="32.14439108110964" ry="13.776167606189846"/>
    <ellipse cx="113.9867712462321" cy="42.056923509202896" rx="22.960279343649745" ry="11.480139671824872"/>
    <ellipse cx="74.95429636202752" cy="48.94500731229782" rx="18.368223474919795" ry="9.184111737459897"/>
  </g>
<g opacity="0.22" fill="#f7f3ea">
    <ellipse cx="318.30311657860875" cy="47.277633800404146" rx="39.899597072042525" ry="17.099827316589653"/>
    <ellipse cx="343.95285755349323" cy="41.57769136154093" rx="28.49971219431609" ry="14.249856097158045"/>
    <ellipse cx="295.5033468231559" cy="50.127605019835755" rx="22.79976975545287" ry="11.399884877726436"/>
  </g>
<g opacity="0.18" fill="#f7f3ea">
    <ellipse cx="200.72452775202692" cy="67.18848152086139" rx="19.599999999999998" ry="8.399999999999999"/>
    <ellipse cx="213.3245277520269" cy="64.38848152086139" rx="14" ry="7"/>
    <ellipse cx="189.52452775202693" cy="68.5884815208614" rx="11.2" ry="5.6"/>
  </g>

    <g fill="#3a4558">
      <rect x="40" y="140" width="50" height="70"/><rect x="100" y="125" width="40" height="85"/>
      <rect x="340" y="135" width="45" height="75"/><rect x="395" y="150" width="35" height="60"/>
    </g>
    <path d="M0 220 H480" stroke="#5a3a6a" stroke-width="10"/>
    <path d="M0 228 H480" stroke="#2a2a2a" stroke-width="3" stroke-dasharray="18 10"/>
    <g transform="translate(140,175)">
      <rect x="0" y="10" width="160" height="40" rx="6" fill="#d93a96"/>
      <rect x="10" y="18" width="28" height="22" rx="2" fill="#1a2430" opacity="0.5"/>
      <rect x="48" y="18" width="28" height="22" rx="2" fill="#1a2430" opacity="0.5"/>
      <rect x="86" y="18" width="28" height="22" rx="2" fill="#1a2430" opacity="0.5"/>
      <rect x="130" y="0" width="40" height="50" rx="4" fill="#d93a96"/>
      <circle cx="30" cy="55" r="12" fill="#2a2a2a"/><circle cx="100" cy="55" r="12" fill="#2a2a2a"/>
      <circle cx="145" cy="55" r="12" fill="#2a2a2a"/>
      <rect x="148" y="-18" width="8" height="20" fill="#4a5568"/>
      <path d="M152 -18 Q170 -35 165 -10" fill="none" stroke="#8a9aaa" stroke-width="4" opacity="0.6"/>
    </g>
<rect width="480" height="300" fill="url(#ground)"/>
  <rect width="480" height="300" fill="none" stroke="#1a1520" stroke-width="28" stroke-opacity="0.18"/>
<g id="grain-boise-rail" opacity="0.85"><circle cx="399.9" cy="99.7" r="1.27" fill="#1a1520" opacity="0.088"/><circle cx="331.7" cy="255.0" r="1.24" fill="#1a1520" opacity="0.092"/><circle cx="390.0" cy="57.3" r="1.32" fill="#1a1520" opacity="0.087"/><circle cx="181.0" cy="88.5" r="1.15" fill="#1a1520" opacity="0.136"/><circle cx="72.8" cy="56.3" r="1.24" fill="#1a1520" opacity="0.118"/><circle cx="382.7" cy="264.9" r="0.65" fill="#1a1520" opacity="0.068"/><circle cx="6.2" cy="179.3" r="0.47" fill="#1a1520" opacity="0.130"/><circle cx="471.3" cy="241.7" r="0.53" fill="#1a1520" opacity="0.058"/><circle cx="369.2" cy="168.3" r="1.68" fill="#1a1520" opacity="0.135"/><circle cx="360.2" cy="138.7" r="1.75" fill="#1a1520" opacity="0.132"/><circle cx="299.4" cy="15.9" r="0.52" fill="#1a1520" opacity="0.114"/><circle cx="270.6" cy="150.2" r="1.35" fill="#1a1520" opacity="0.044"/><circle cx="36.9" cy="46.6" r="0.52" fill="#1a1520" opacity="0.050"/><circle cx="59.0" cy="284.9" r="0.46" fill="#1a1520" opacity="0.086"/><circle cx="5.4" cy="299.3" r="0.47" fill="#1a1520" opacity="0.066"/><circle cx="130.1" cy="286.8" r="1.13" fill="#1a1520" opacity="0.074"/><circle cx="359.7" cy="287.2" r="1.33" fill="#1a1520" opacity="0.045"/><circle cx="268.7" cy="209.2" r="1.79" fill="#1a1520" opacity="0.050"/><circle cx="381.6" cy="149.6" r="0.72" fill="#1a1520" opacity="0.052"/><circle cx="329.4" cy="7.4" r="1.55" fill="#1a1520" opacity="0.120"/><circle cx="179.6" cy="85.6" r="0.44" fill="#1a1520" opacity="0.082"/><circle cx="242.9" cy="19.1" r="0.56" fill="#1a1520" opacity="0.041"/><circle cx="293.6" cy="173.2" r="1.29" fill="#1a1520" opacity="0.095"/><circle cx="463.6" cy="179.0" r="1.33" fill="#1a1520" opacity="0.104"/><circle cx="180.9" cy="10.4" r="0.60" fill="#1a1520" opacity="0.065"/><circle cx="348.0" cy="278.0" r="0.59" fill="#1a1520" opacity="0.068"/><circle cx="240.3" cy="138.4" r="1.23" fill="#1a1520" opacity="0.134"/><circle cx="244.1" cy="193.7" r="1.77" fill="#1a1520" opacity="0.072"/><circle cx="316.9" cy="87.6" r="1.58" fill="#1a1520" opacity="0.073"/><circle cx="60.3" cy="183.8" r="0.91" fill="#1a1520" opacity="0.072"/><circle cx="159.8" cy="157.3" r="1.08" fill="#1a1520" opacity="0.116"/><circle cx="113.1" cy="111.8" r="0.99" fill="#1a1520" opacity="0.118"/><circle cx="429.5" cy="284.6" r="0.84" fill="#1a1520" opacity="0.109"/><circle cx="156.0" cy="30.6" r="0.45" fill="#1a1520" opacity="0.060"/><circle cx="37.2" cy="284.4" r="1.45" fill="#1a1520" opacity="0.086"/><circle cx="185.0" cy="293.5" r="1.62" fill="#1a1520" opacity="0.061"/><circle cx="146.9" cy="199.2" r="1.76" fill="#1a1520" opacity="0.045"/><circle cx="1.5" cy="55.8" r="1.24" fill="#1a1520" opacity="0.093"/><circle cx="411.2" cy="46.9" r="1.69" fill="#1a1520" opacity="0.054"/><circle cx="114.9" cy="262.5" r="1.09" fill="#1a1520" opacity="0.127"/><circle cx="16.9" cy="219.8" r="1.04" fill="#1a1520" opacity="0.083"/><circle cx="166.5" cy="87.8" r="0.96" fill="#1a1520" opacity="0.107"/><circle cx="5.3" cy="147.7" r="0.81" fill="#1a1520" opacity="0.115"/><circle cx="102.7" cy="109.3" r="0.76" fill="#1a1520" opacity="0.055"/><circle cx="340.7" cy="116.7" r="0.57" fill="#1a1520" opacity="0.055"/><circle cx="1.4" cy="185.7" r="1.54" fill="#1a1520" opacity="0.055"/><circle cx="441.0" cy="50.4" r="0.58" fill="#1a1520" opacity="0.051"/><circle cx="439.4" cy="168.4" r="1.09" fill="#1a1520" opacity="0.101"/><circle cx="234.5" cy="29.1" r="0.77" fill="#1a1520" opacity="0.079"/><circle cx="378.6" cy="271.9" r="1.09" fill="#1a1520" opacity="0.117"/><circle cx="364.5" cy="210.9" r="1.35" fill="#1a1520" opacity="0.052"/><circle cx="447.6" cy="69.5" r="0.51" fill="#1a1520" opacity="0.090"/><circle cx="382.9" cy="256.3" r="1.42" fill="#1a1520" opacity="0.136"/><circle cx="346.7" cy="247.4" r="0.74" fill="#1a1520" opacity="0.099"/><circle cx="159.6" cy="107.3" r="1.23" fill="#1a1520" opacity="0.122"/><circle cx="58.9" cy="240.0" r="1.43" fill="#1a1520" opacity="0.077"/><circle cx="361.8" cy="104.9" r="1.14" fill="#1a1520" opacity="0.104"/><circle cx="222.1" cy="265.2" r="0.63" fill="#1a1520" opacity="0.057"/><circle cx="91.0" cy="263.9" r="1.60" fill="#1a1520" opacity="0.087"/><circle cx="233.6" cy="125.6" r="0.92" fill="#1a1520" opacity="0.070"/><circle cx="318.7" cy="105.9" r="1.31" fill="#1a1520" opacity="0.105"/><circle cx="125.0" cy="79.1" r="1.10" fill="#1a1520" opacity="0.120"/><circle cx="479.9" cy="181.6" r="1.41" fill="#1a1520" opacity="0.046"/><circle cx="352.2" cy="199.5" r="1.16" fill="#1a1520" opacity="0.118"/><circle cx="377.7" cy="227.0" r="1.74" fill="#1a1520" opacity="0.101"/><circle cx="198.7" cy="186.1" r="1.08" fill="#1a1520" opacity="0.051"/><circle cx="425.6" cy="230.7" r="1.62" fill="#1a1520" opacity="0.118"/><circle cx="386.6" cy="68.4" r="0.42" fill="#1a1520" opacity="0.082"/><circle cx="171.9" cy="66.8" r="0.58" fill="#1a1520" opacity="0.098"/><circle cx="326.7" cy="251.7" r="0.67" fill="#1a1520" opacity="0.060"/><circle cx="439.9" cy="196.8" r="1.07" fill="#1a1520" opacity="0.095"/><circle cx="61.5" cy="156.7" r="1.04" fill="#1a1520" opacity="0.128"/><circle cx="167.0" cy="206.6" r="1.13" fill="#1a1520" opacity="0.084"/><circle cx="83.3" cy="117.9" r="1.13" fill="#1a1520" opacity="0.054"/><circle cx="120.0" cy="61.6" r="0.90" fill="#1a1520" opacity="0.058"/><circle cx="386.5" cy="87.9" r="0.55" fill="#1a1520" opacity="0.097"/><circle cx="455.1" cy="120.1" r="1.05" fill="#1a1520" opacity="0.044"/><circle cx="192.1" cy="69.9" r="1.58" fill="#1a1520" opacity="0.081"/><circle cx="351.5" cy="262.9" r="1.72" fill="#1a1520" opacity="0.138"/><circle cx="331.1" cy="208.1" r="0.73" fill="#1a1520" opacity="0.104"/><circle cx="24.5" cy="287.0" r="0.71" fill="#1a1520" opacity="0.049"/><circle cx="258.1" cy="59.4" r="1.33" fill="#1a1520" opacity="0.129"/><circle cx="202.0" cy="25.5" r="0.62" fill="#1a1520" opacity="0.056"/><circle cx="282.1" cy="259.8" r="1.65" fill="#1a1520" opacity="0.069"/><circle cx="364.9" cy="223.3" r="1.03" fill="#1a1520" opacity="0.041"/><circle cx="203.9" cy="56.3" r="0.85" fill="#1a1520" opacity="0.094"/><circle cx="290.8" cy="105.1" r="1.74" fill="#1a1520" opacity="0.139"/><circle cx="442.3" cy="189.5" r="0.54" fill="#1a1520" opacity="0.081"/><circle cx="39.3" cy="53.4" r="1.07" fill="#1a1520" opacity="0.113"/><circle cx="53.2" cy="257.0" r="0.45" fill="#1a1520" opacity="0.118"/><circle cx="13.0" cy="140.7" r="0.64" fill="#fff8e7" opacity="0.074"/><circle cx="41.9" cy="65.7" r="0.38" fill="#fff8e7" opacity="0.031"/><circle cx="20.4" cy="56.0" r="1.10" fill="#fff8e7" opacity="0.048"/><circle cx="331.2" cy="187.8" r="0.59" fill="#fff8e7" opacity="0.077"/><circle cx="288.7" cy="98.9" r="1.02" fill="#fff8e7" opacity="0.057"/><circle cx="133.8" cy="183.6" r="1.19" fill="#fff8e7" opacity="0.041"/><circle cx="413.4" cy="256.5" r="0.31" fill="#fff8e7" opacity="0.108"/><circle cx="240.2" cy="12.6" r="1.03" fill="#fff8e7" opacity="0.047"/><circle cx="176.3" cy="190.0" r="0.54" fill="#fff8e7" opacity="0.032"/><circle cx="179.6" cy="198.6" r="0.46" fill="#fff8e7" opacity="0.051"/><circle cx="375.0" cy="26.0" r="0.92" fill="#fff8e7" opacity="0.097"/><circle cx="55.1" cy="285.9" r="0.55" fill="#fff8e7" opacity="0.110"/><circle cx="228.4" cy="76.8" r="0.68" fill="#fff8e7" opacity="0.099"/><circle cx="397.0" cy="82.7" r="0.40" fill="#fff8e7" opacity="0.070"/><circle cx="204.5" cy="108.1" r="0.66" fill="#fff8e7" opacity="0.083"/><circle cx="427.5" cy="41.8" r="0.82" fill="#fff8e7" opacity="0.074"/><circle cx="363.3" cy="284.4" r="0.98" fill="#fff8e7" opacity="0.043"/><circle cx="42.5" cy="275.8" r="0.45" fill="#fff8e7" opacity="0.090"/><circle cx="255.8" cy="24.4" r="0.49" fill="#fff8e7" opacity="0.099"/><circle cx="460.0" cy="219.3" r="0.85" fill="#fff8e7" opacity="0.109"/><circle cx="100.3" cy="175.6" r="0.90" fill="#fff8e7" opacity="0.077"/><circle cx="451.0" cy="235.3" r="0.42" fill="#fff8e7" opacity="0.053"/><circle cx="396.0" cy="228.1" r="0.34" fill="#fff8e7" opacity="0.074"/><circle cx="296.2" cy="259.9" r="0.66" fill="#fff8e7" opacity="0.078"/><circle cx="66.1" cy="220.8" r="0.84" fill="#fff8e7" opacity="0.107"/><circle cx="19.0" cy="219.0" r="0.86" fill="#fff8e7" opacity="0.078"/><circle cx="297.0" cy="244.5" r="1.02" fill="#fff8e7" opacity="0.037"/><circle cx="33.9" cy="25.1" r="1.02" fill="#fff8e7" opacity="0.052"/><circle cx="408.2" cy="188.8" r="1.12" fill="#fff8e7" opacity="0.044"/><circle cx="37.1" cy="108.6" r="1.03" fill="#fff8e7" opacity="0.069"/><circle cx="84.9" cy="169.5" r="0.97" fill="#fff8e7" opacity="0.076"/><circle cx="280.4" cy="41.8" r="1.14" fill="#fff8e7" opacity="0.043"/><circle cx="233.2" cy="20.8" r="1.19" fill="#fff8e7" opacity="0.077"/><circle cx="123.4" cy="44.2" r="1.06" fill="#fff8e7" opacity="0.040"/><circle cx="328.7" cy="98.7" r="1.08" fill="#fff8e7" opacity="0.052"/><circle cx="65.8" cy="176.4" r="0.77" fill="#fff8e7" opacity="0.081"/><circle cx="292.2" cy="65.4" r="1.07" fill="#fff8e7" opacity="0.055"/><circle cx="245.4" cy="188.5" r="1.00" fill="#fff8e7" opacity="0.074"/><circle cx="380.4" cy="117.3" r="0.37" fill="#fff8e7" opacity="0.042"/><circle cx="388.3" cy="73.0" r="0.34" fill="#fff8e7" opacity="0.084"/></g>
<rect x="8" y="8" width="464" height="284" fill="none" stroke="#f5efe0" stroke-opacity="0.22" stroke-width="2" rx="4"/>
</svg>
