<?xml version="1.0" encoding="UTF-8"?>
<svg xmlns="http://www.w3.org/2000/svg" viewBox="0 0 480 300" width="480" height="300" role="img" aria-label="busan">

    <defs>
      <linearGradient id="sky" x1="0" y1="0" x2="0" y2="1">
        <stop offset="0%" stop-color="#6ab0d8"/>
        <stop offset="55%" stop-color="#3a80b0"/>
        <stop offset="100%" stop-color="#1a4a70"/>
      </linearGradient>
      <radialGradient id="glow" cx="70%" cy="22%" r="45%">
        <stop offset="0%" stop-color="#fff6d8" stop-opacity="0.45"/>
        <stop offset="100%" stop-color="#fff6d8" stop-opacity="0"/>
      </radialGradient>
      <linearGradient id="ground" x1="0" y1="0" x2="0" y2="1">
        <stop offset="0%" stop-color="#2a3340" stop-opacity="0"/>
        <stop offset="100%" stop-color="#121820" stop-opacity="0.55"/>
      </linearGradient>
    </defs>
    <rect width="480" height="300" fill="url(#sky)"/>
    <rect width="480" height="300" fill="url(#glow)"/>
  
<g opacity="0.28" fill="#f7f3ea">
    <ellipse cx="99.28577738814056" cy="56.94987810216844" rx="29.090981315448882" ry="12.467563420906664"/>
    <ellipse cx="117.98712251950056" cy="52.794023628532884" rx="20.77927236817777" ry="10.389636184088886"/>
    <ellipse cx="82.66235949359834" cy="59.02780533898622" rx="16.623417894542218" ry="8.311708947271109"/>
  </g>
<g opacity="0.22" fill="#f7f3ea">
    <ellipse cx="335.087530631572" cy="46.31644847802818" rx="33.1263150786981" ry="14.1969921765849"/>
    <ellipse cx="356.38301889644936" cy="41.58411775249988" rx="23.6616536276415" ry="11.83082681382075"/>
    <ellipse cx="316.1582077294588" cy="48.68261384079233" rx="18.9293229021132" ry="9.4646614510566"/>
  </g>

    <defs>
      <linearGradient id="water" x1="0" y1="0" x2="0" y2="1">
        <stop offset="0%" stop-color="#1a4a6e"/>
        <stop offset="100%" stop-color="#0e2a42"/>
      </linearGradient>
    </defs>
    <path d="M0 230 Q120 220 240 234 T480 228 L480 300 L0 300 Z" fill="url(#water)"/>
    <path d="M0 244 Q160 234 320 248 T480 240" fill="none" stroke="#7ec8e8" stroke-opacity="0.25" stroke-width="2"/>
    <path d="M40 258 Q200 248 360 262" fill="none" stroke="#fff" stroke-opacity="0.12" stroke-width="1.5"/>
  

    <path d="M40 200 Q180 160 320 190 T480 175" fill="none" stroke="#5a6a7a" stroke-width="8"/>
    <g fill="#3a4555">
      <rect x="80" y="150" width="24" height="70"/>
      <rect x="120" y="135" width="30" height="85"/>
      <rect x="170" y="145" width="22" height="75"/>
      <rect x="300" y="140" width="28" height="80"/>
      <rect x="350" y="155" width="36" height="65"/>
    </g>
    <ellipse cx="220" cy="235" rx="14" ry="5" fill="#2a3545"/>
    <path d="M210 235 L218 210 L230 235" fill="#4a5568"/>
<rect width="480" height="300" fill="url(#ground)"/>
  <rect width="480" height="300" fill="none" stroke="#1a1520" stroke-width="28" stroke-opacity="0.18"/>
<g id="grain-busan" opacity="0.85"><circle cx="471.4" cy="254.2" r="0.89" fill="#1a1520" opacity="0.109"/><circle cx="313.3" cy="109.8" r="0.68" fill="#1a1520" opacity="0.099"/><circle cx="4.8" cy="76.7" r="0.82" fill="#1a1520" opacity="0.113"/><circle cx="337.0" cy="233.5" r="1.08" fill="#1a1520" opacity="0.069"/><circle cx="243.1" cy="188.4" r="1.01" fill="#1a1520" opacity="0.095"/><circle cx="336.6" cy="90.8" r="1.57" fill="#1a1520" opacity="0.082"/><circle cx="339.8" cy="25.8" r="1.14" fill="#1a1520" opacity="0.065"/><circle cx="197.3" cy="38.1" r="1.67" fill="#1a1520" opacity="0.043"/><circle cx="70.0" cy="26.7" r="0.72" fill="#1a1520" opacity="0.052"/><circle cx="345.6" cy="99.7" r="1.04" fill="#1a1520" opacity="0.089"/><circle cx="445.2" cy="151.2" r="0.83" fill="#1a1520" opacity="0.046"/><circle cx="340.5" cy="162.3" r="0.92" fill="#1a1520" opacity="0.072"/><circle cx="386.3" cy="287.3" r="0.81" fill="#1a1520" opacity="0.124"/><circle cx="127.6" cy="123.3" r="1.10" fill="#1a1520" opacity="0.070"/><circle cx="2.4" cy="89.2" r="0.60" fill="#1a1520" opacity="0.102"/><circle cx="94.8" cy="3.1" r="1.75" fill="#1a1520" opacity="0.067"/><circle cx="174.5" cy="69.3" r="1.39" fill="#1a1520" opacity="0.087"/><circle cx="209.4" cy="116.3" r="1.57" fill="#1a1520" opacity="0.091"/><circle cx="72.5" cy="130.0" r="1.24" fill="#1a1520" opacity="0.136"/><circle cx="372.0" cy="90.7" r="0.76" fill="#1a1520" opacity="0.089"/><circle cx="187.4" cy="59.8" r="0.84" fill="#1a1520" opacity="0.043"/><circle cx="287.9" cy="293.3" r="1.24" fill="#1a1520" opacity="0.135"/><circle cx="275.9" cy="8.0" r="1.79" fill="#1a1520" opacity="0.100"/><circle cx="425.5" cy="49.6" r="1.21" fill="#1a1520" opacity="0.130"/><circle cx="342.5" cy="192.1" r="1.45" fill="#1a1520" opacity="0.095"/><circle cx="99.5" cy="95.0" r="1.32" fill="#1a1520" opacity="0.134"/><circle cx="246.2" cy="205.0" r="0.72" fill="#1a1520" opacity="0.084"/><circle cx="49.4" cy="78.5" r="1.55" fill="#1a1520" opacity="0.083"/><circle cx="216.0" cy="96.3" r="0.76" fill="#1a1520" opacity="0.131"/><circle cx="11.8" cy="85.6" r="0.74" fill="#1a1520" opacity="0.051"/><circle cx="296.7" cy="20.2" r="1.37" fill="#1a1520" opacity="0.060"/><circle cx="218.9" cy="50.0" r="1.26" fill="#1a1520" opacity="0.095"/><circle cx="422.1" cy="21.9" r="0.40" fill="#1a1520" opacity="0.056"/><circle cx="79.7" cy="8.3" r="0.83" fill="#1a1520" opacity="0.115"/><circle cx="118.2" cy="112.1" r="1.29" fill="#1a1520" opacity="0.103"/><circle cx="280.0" cy="34.9" r="0.83" fill="#1a1520" opacity="0.105"/><circle cx="427.8" cy="175.5" r="1.79" fill="#1a1520" opacity="0.081"/><circle cx="27.8" cy="28.8" r="1.46" fill="#1a1520" opacity="0.091"/><circle cx="347.5" cy="206.0" r="0.96" fill="#1a1520" opacity="0.041"/><circle cx="259.5" cy="73.0" r="0.91" fill="#1a1520" opacity="0.065"/><circle cx="244.7" cy="47.4" r="1.31" fill="#1a1520" opacity="0.123"/><circle cx="150.9" cy="151.7" r="0.59" fill="#1a1520" opacity="0.054"/><circle cx="189.5" cy="152.5" r="0.87" fill="#1a1520" opacity="0.082"/><circle cx="354.9" cy="292.8" r="0.95" fill="#1a1520" opacity="0.053"/><circle cx="234.2" cy="195.8" r="1.78" fill="#1a1520" opacity="0.101"/><circle cx="362.0" cy="138.0" r="0.98" fill="#1a1520" opacity="0.111"/><circle cx="373.9" cy="205.0" r="1.61" fill="#1a1520" opacity="0.077"/><circle cx="113.5" cy="289.1" r="1.70" fill="#1a1520" opacity="0.091"/><circle cx="396.2" cy="221.8" r="0.47" fill="#1a1520" opacity="0.068"/><circle cx="152.8" cy="131.7" r="1.20" fill="#1a1520" opacity="0.046"/><circle cx="163.2" cy="217.1" r="1.58" fill="#1a1520" opacity="0.061"/><circle cx="3.9" cy="44.9" r="1.66" fill="#1a1520" opacity="0.079"/><circle cx="381.1" cy="133.7" r="1.44" fill="#1a1520" opacity="0.140"/><circle cx="349.8" cy="133.6" r="1.77" fill="#1a1520" opacity="0.127"/><circle cx="327.2" cy="221.3" r="1.48" fill="#1a1520" opacity="0.094"/><circle cx="470.0" cy="226.1" r="1.54" fill="#1a1520" opacity="0.083"/><circle cx="173.9" cy="276.0" r="1.13" fill="#1a1520" opacity="0.109"/><circle cx="194.6" cy="132.2" r="1.27" fill="#1a1520" opacity="0.084"/><circle cx="163.3" cy="249.9" r="1.37" fill="#1a1520" opacity="0.061"/><circle cx="0.6" cy="254.2" r="0.90" fill="#1a1520" opacity="0.064"/><circle cx="89.0" cy="242.4" r="1.08" fill="#1a1520" opacity="0.082"/><circle cx="302.3" cy="74.1" r="0.68" fill="#1a1520" opacity="0.064"/><circle cx="362.3" cy="179.0" r="1.65" fill="#1a1520" opacity="0.050"/><circle cx="66.6" cy="197.1" r="1.25" fill="#1a1520" opacity="0.068"/><circle cx="239.9" cy="265.1" r="0.64" fill="#1a1520" opacity="0.081"/><circle cx="213.4" cy="158.6" r="0.68" fill="#1a1520" opacity="0.136"/><circle cx="115.3" cy="70.4" r="1.79" fill="#1a1520" opacity="0.114"/><circle cx="269.6" cy="255.7" r="1.38" fill="#1a1520" opacity="0.072"/><circle cx="456.3" cy="13.8" r="0.60" fill="#1a1520" opacity="0.062"/><circle cx="184.4" cy="164.6" r="1.13" fill="#1a1520" opacity="0.126"/><circle cx="106.5" cy="32.5" r="1.46" fill="#1a1520" opacity="0.110"/><circle cx="222.2" cy="166.3" r="1.76" fill="#1a1520" opacity="0.084"/><circle cx="99.2" cy="218.0" r="1.15" fill="#1a1520" opacity="0.052"/><circle cx="10.5" cy="112.4" r="0.76" fill="#1a1520" opacity="0.115"/><circle cx="331.6" cy="29.9" r="0.76" fill="#1a1520" opacity="0.063"/><circle cx="294.6" cy="206.0" r="1.61" fill="#1a1520" opacity="0.101"/><circle cx="479.2" cy="118.8" r="1.59" fill="#1a1520" opacity="0.083"/><circle cx="307.2" cy="95.4" r="1.74" fill="#1a1520" opacity="0.114"/><circle cx="293.5" cy="30.8" r="1.32" fill="#1a1520" opacity="0.054"/><circle cx="320.8" cy="0.1" r="0.69" fill="#1a1520" opacity="0.052"/><circle cx="42.8" cy="287.9" r="0.68" fill="#1a1520" opacity="0.066"/><circle cx="372.9" cy="103.2" r="1.36" fill="#1a1520" opacity="0.094"/><circle cx="188.3" cy="243.3" r="1.43" fill="#1a1520" opacity="0.042"/><circle cx="140.5" cy="264.8" r="1.48" fill="#1a1520" opacity="0.119"/><circle cx="333.2" cy="292.3" r="0.46" fill="#1a1520" opacity="0.118"/><circle cx="467.3" cy="179.7" r="1.59" fill="#1a1520" opacity="0.102"/><circle cx="307.5" cy="174.3" r="0.80" fill="#1a1520" opacity="0.096"/><circle cx="4.0" cy="249.1" r="1.24" fill="#1a1520" opacity="0.114"/><circle cx="365.1" cy="40.4" r="0.70" fill="#1a1520" opacity="0.053"/><circle cx="447.5" cy="267.9" r="1.28" fill="#1a1520" opacity="0.091"/><circle cx="16.7" cy="6.7" r="0.74" fill="#fff8e7" opacity="0.074"/><circle cx="381.8" cy="59.0" r="0.42" fill="#fff8e7" opacity="0.067"/><circle cx="12.3" cy="172.5" r="0.70" fill="#fff8e7" opacity="0.080"/><circle cx="435.9" cy="257.1" r="0.59" fill="#fff8e7" opacity="0.058"/><circle cx="352.2" cy="250.5" r="0.76" fill="#fff8e7" opacity="0.075"/><circle cx="455.6" cy="86.4" r="0.88" fill="#fff8e7" opacity="0.062"/><circle cx="391.4" cy="279.9" r="0.38" fill="#fff8e7" opacity="0.041"/><circle cx="385.8" cy="193.1" r="0.79" fill="#fff8e7" opacity="0.097"/><circle cx="49.5" cy="52.7" r="0.48" fill="#fff8e7" opacity="0.068"/><circle cx="205.4" cy="85.2" r="0.64" fill="#fff8e7" opacity="0.090"/><circle cx="345.3" cy="282.2" r="0.95" fill="#fff8e7" opacity="0.089"/><circle cx="136.6" cy="116.7" r="0.92" fill="#fff8e7" opacity="0.109"/><circle cx="0.9" cy="281.2" r="0.96" fill="#fff8e7" opacity="0.089"/><circle cx="414.8" cy="110.7" r="0.43" fill="#fff8e7" opacity="0.051"/><circle cx="248.6" cy="268.7" r="1.07" fill="#fff8e7" opacity="0.080"/><circle cx="303.3" cy="145.5" r="1.13" fill="#fff8e7" opacity="0.056"/><circle cx="10.5" cy="61.5" r="0.44" fill="#fff8e7" opacity="0.091"/><circle cx="186.6" cy="250.7" r="0.82" fill="#fff8e7" opacity="0.062"/><circle cx="49.4" cy="25.6" r="1.19" fill="#fff8e7" opacity="0.095"/><circle cx="253.7" cy="84.5" r="0.45" fill="#fff8e7" opacity="0.066"/><circle cx="283.8" cy="41.4" r="0.77" fill="#fff8e7" opacity="0.100"/><circle cx="364.4" cy="172.4" r="0.72" fill="#fff8e7" opacity="0.101"/><circle cx="135.8" cy="278.5" r="0.38" fill="#fff8e7" opacity="0.044"/><circle cx="154.2" cy="71.8" r="0.43" fill="#fff8e7" opacity="0.069"/><circle cx="329.2" cy="272.8" r="0.59" fill="#fff8e7" opacity="0.105"/><circle cx="326.3" cy="103.0" r="0.41" fill="#fff8e7" opacity="0.082"/><circle cx="453.0" cy="296.4" r="0.64" fill="#fff8e7" opacity="0.078"/><circle cx="394.2" cy="171.0" r="0.78" fill="#fff8e7" opacity="0.098"/><circle cx="90.4" cy="92.0" r="0.32" fill="#fff8e7" opacity="0.034"/><circle cx="125.1" cy="93.3" r="0.79" fill="#fff8e7" opacity="0.081"/><circle cx="398.6" cy="210.8" r="0.76" fill="#fff8e7" opacity="0.099"/><circle cx="315.0" cy="56.4" r="0.31" fill="#fff8e7" opacity="0.073"/><circle cx="149.1" cy="184.5" r="0.75" fill="#fff8e7" opacity="0.043"/><circle cx="455.1" cy="158.5" r="0.46" fill="#fff8e7" opacity="0.076"/><circle cx="195.9" cy="196.0" r="0.35" fill="#fff8e7" opacity="0.061"/><circle cx="330.7" cy="121.0" r="0.55" fill="#fff8e7" opacity="0.059"/><circle cx="153.4" cy="278.2" r="0.86" fill="#fff8e7" opacity="0.087"/><circle cx="479.7" cy="297.9" r="0.64" fill="#fff8e7" opacity="0.044"/><circle cx="177.5" cy="44.0" r="0.97" fill="#fff8e7" opacity="0.041"/><circle cx="96.1" cy="0.8" r="0.94" fill="#fff8e7" opacity="0.082"/></g>
<rect x="8" y="8" width="464" height="284" fill="none" stroke="#f5efe0" stroke-opacity="0.22" stroke-width="2" rx="4"/>
</svg>
