<?xml version="1.0" encoding="UTF-8"?>
<svg xmlns="http://www.w3.org/2000/svg" viewBox="0 0 480 300" width="480" height="300" role="img" aria-label="cadiz">

    <defs>
      <linearGradient id="sky" x1="0" y1="0" x2="0" y2="1">
        <stop offset="0%" stop-color="#f0d090"/>
        <stop offset="55%" stop-color="#e0a860"/>
        <stop offset="100%" stop-color="#c07840"/>
      </linearGradient>
      <radialGradient id="glow" cx="70%" cy="22%" r="45%">
        <stop offset="0%" stop-color="#fff6d8" stop-opacity="0.45"/>
        <stop offset="100%" stop-color="#fff6d8" stop-opacity="0"/>
      </radialGradient>
      <linearGradient id="ground" x1="0" y1="0" x2="0" y2="1">
        <stop offset="0%" stop-color="#2a3340" stop-opacity="0"/>
        <stop offset="100%" stop-color="#121820" stop-opacity="0.55"/>
      </linearGradient>
    </defs>
    <rect width="480" height="300" fill="url(#sky)"/>
    <rect width="480" height="300" fill="url(#glow)"/>
  
<g opacity="0.28" fill="#f7f3ea">
    <ellipse cx="85.38885866291821" cy="55.69542926270515" rx="35.159514910727744" ry="15.068363533169032"/>
    <ellipse cx="107.99140396267175" cy="50.67264141831547" rx="25.113939221948385" ry="12.556969610974193"/>
    <ellipse cx="65.29770728535951" cy="58.20682318489999" rx="20.09115137755871" ry="10.045575688779355"/>
  </g>
<g opacity="0.22" fill="#f7f3ea">
    <ellipse cx="293.8597881793976" cy="43.918154750717804" rx="34.72202607104555" ry="14.880868316162378"/>
    <ellipse cx="316.18109065364115" cy="38.95786531199701" rx="24.801447193603963" ry="12.400723596801981"/>
    <ellipse cx="274.0186304245144" cy="46.3982994700782" rx="19.84115775488317" ry="9.920578877441585"/>
  </g>
<g opacity="0.18" fill="#f7f3ea">
    <ellipse cx="198.7233001086861" cy="57.793944851728156" rx="19.599999999999998" ry="8.399999999999999"/>
    <ellipse cx="211.32330010868608" cy="54.99394485172816" rx="14" ry="7"/>
    <ellipse cx="187.5233001086861" cy="59.193944851728155" rx="11.2" ry="5.6"/>
  </g>

    <g fill="#d2c4a8">
      <rect x="60" y="160" width="36" height="50" rx="2"/>
      <rect x="110" y="150" width="28" height="60" rx="2"/>
      <rect x="150" y="165" width="40" height="45" rx="2"/>
      <rect x="300" y="155" width="34" height="55" rx="2"/>
      <rect x="350" y="145" width="42" height="65" rx="2"/>
    </g>
    <g fill="#8b3a2a">
      <path d="M60 160 L78 140 L96 160 Z"/><path d="M110 150 L124 132 L138 150 Z"/>
      <path d="M300 155 L317 135 L334 155 Z"/>
    </g>
    
    <defs>
      <linearGradient id="water" x1="0" y1="0" x2="0" y2="1">
        <stop offset="0%" stop-color="#2a6a7a"/>
        <stop offset="100%" stop-color="#153a4a"/>
      </linearGradient>
    </defs>
    <path d="M0 215 Q120 205 240 219 T480 213 L480 300 L0 300 Z" fill="url(#water)"/>
    <path d="M0 229 Q160 219 320 233 T480 225" fill="none" stroke="#7ec8e8" stroke-opacity="0.25" stroke-width="2"/>
    <path d="M40 243 Q200 233 360 247" fill="none" stroke="#fff" stroke-opacity="0.12" stroke-width="1.5"/>
  
<rect width="480" height="300" fill="url(#ground)"/>
  <rect width="480" height="300" fill="none" stroke="#1a1520" stroke-width="28" stroke-opacity="0.18"/>
<g id="grain-cadiz" opacity="0.85"><circle cx="304.7" cy="235.4" r="1.64" fill="#1a1520" opacity="0.057"/><circle cx="267.2" cy="144.0" r="1.61" fill="#1a1520" opacity="0.087"/><circle cx="89.4" cy="222.1" r="1.23" fill="#1a1520" opacity="0.074"/><circle cx="274.2" cy="280.2" r="1.50" fill="#1a1520" opacity="0.128"/><circle cx="145.5" cy="214.8" r="1.03" fill="#1a1520" opacity="0.057"/><circle cx="229.0" cy="244.2" r="1.04" fill="#1a1520" opacity="0.077"/><circle cx="38.0" cy="251.3" r="1.78" fill="#1a1520" opacity="0.120"/><circle cx="276.6" cy="16.9" r="1.17" fill="#1a1520" opacity="0.107"/><circle cx="320.3" cy="72.3" r="1.66" fill="#1a1520" opacity="0.058"/><circle cx="362.5" cy="249.7" r="0.94" fill="#1a1520" opacity="0.072"/><circle cx="188.5" cy="161.7" r="1.00" fill="#1a1520" opacity="0.089"/><circle cx="195.6" cy="234.8" r="1.79" fill="#1a1520" opacity="0.083"/><circle cx="356.8" cy="207.9" r="0.71" fill="#1a1520" opacity="0.102"/><circle cx="377.2" cy="229.6" r="1.74" fill="#1a1520" opacity="0.110"/><circle cx="92.3" cy="133.0" r="1.24" fill="#1a1520" opacity="0.078"/><circle cx="48.7" cy="276.0" r="0.88" fill="#1a1520" opacity="0.097"/><circle cx="95.3" cy="283.8" r="0.81" fill="#1a1520" opacity="0.082"/><circle cx="297.0" cy="270.1" r="1.02" fill="#1a1520" opacity="0.116"/><circle cx="430.7" cy="0.3" r="0.55" fill="#1a1520" opacity="0.090"/><circle cx="410.1" cy="295.0" r="1.64" fill="#1a1520" opacity="0.073"/><circle cx="53.4" cy="0.6" r="1.16" fill="#1a1520" opacity="0.062"/><circle cx="418.8" cy="134.3" r="1.05" fill="#1a1520" opacity="0.132"/><circle cx="417.6" cy="67.4" r="0.80" fill="#1a1520" opacity="0.050"/><circle cx="220.8" cy="40.1" r="0.65" fill="#1a1520" opacity="0.071"/><circle cx="65.4" cy="154.9" r="1.11" fill="#1a1520" opacity="0.105"/><circle cx="10.9" cy="204.2" r="0.91" fill="#1a1520" opacity="0.055"/><circle cx="58.5" cy="148.3" r="1.23" fill="#1a1520" opacity="0.055"/><circle cx="454.5" cy="152.2" r="1.38" fill="#1a1520" opacity="0.102"/><circle cx="265.0" cy="271.6" r="1.06" fill="#1a1520" opacity="0.128"/><circle cx="0.7" cy="160.7" r="0.71" fill="#1a1520" opacity="0.116"/><circle cx="395.3" cy="103.5" r="0.78" fill="#1a1520" opacity="0.082"/><circle cx="281.8" cy="110.4" r="0.88" fill="#1a1520" opacity="0.073"/><circle cx="239.2" cy="248.4" r="1.17" fill="#1a1520" opacity="0.076"/><circle cx="428.6" cy="277.3" r="1.04" fill="#1a1520" opacity="0.132"/><circle cx="165.0" cy="97.7" r="0.85" fill="#1a1520" opacity="0.076"/><circle cx="199.8" cy="117.1" r="0.73" fill="#1a1520" opacity="0.126"/><circle cx="135.8" cy="137.6" r="0.86" fill="#1a1520" opacity="0.066"/><circle cx="78.8" cy="278.6" r="1.49" fill="#1a1520" opacity="0.136"/><circle cx="312.5" cy="177.7" r="0.87" fill="#1a1520" opacity="0.089"/><circle cx="66.5" cy="210.8" r="1.23" fill="#1a1520" opacity="0.098"/><circle cx="358.0" cy="67.0" r="1.00" fill="#1a1520" opacity="0.106"/><circle cx="358.7" cy="67.8" r="0.50" fill="#1a1520" opacity="0.050"/><circle cx="12.4" cy="204.6" r="1.07" fill="#1a1520" opacity="0.069"/><circle cx="343.4" cy="157.5" r="0.67" fill="#1a1520" opacity="0.115"/><circle cx="18.7" cy="57.0" r="0.78" fill="#1a1520" opacity="0.102"/><circle cx="468.2" cy="250.7" r="1.49" fill="#1a1520" opacity="0.099"/><circle cx="123.9" cy="94.2" r="1.09" fill="#1a1520" opacity="0.121"/><circle cx="324.6" cy="68.3" r="1.56" fill="#1a1520" opacity="0.133"/><circle cx="247.2" cy="120.1" r="1.25" fill="#1a1520" opacity="0.089"/><circle cx="363.2" cy="58.3" r="0.48" fill="#1a1520" opacity="0.137"/><circle cx="191.1" cy="121.7" r="1.50" fill="#1a1520" opacity="0.106"/><circle cx="461.3" cy="219.7" r="1.42" fill="#1a1520" opacity="0.044"/><circle cx="297.2" cy="71.5" r="1.77" fill="#1a1520" opacity="0.107"/><circle cx="364.4" cy="165.3" r="1.23" fill="#1a1520" opacity="0.109"/><circle cx="26.7" cy="43.9" r="1.06" fill="#1a1520" opacity="0.121"/><circle cx="148.3" cy="58.5" r="0.64" fill="#1a1520" opacity="0.054"/><circle cx="272.4" cy="96.1" r="1.20" fill="#1a1520" opacity="0.076"/><circle cx="263.8" cy="96.6" r="0.99" fill="#1a1520" opacity="0.064"/><circle cx="43.4" cy="65.9" r="0.54" fill="#1a1520" opacity="0.120"/><circle cx="163.6" cy="8.2" r="0.50" fill="#1a1520" opacity="0.042"/><circle cx="57.6" cy="233.5" r="1.23" fill="#1a1520" opacity="0.078"/><circle cx="350.7" cy="293.8" r="0.41" fill="#1a1520" opacity="0.140"/><circle cx="335.4" cy="169.2" r="1.64" fill="#1a1520" opacity="0.079"/><circle cx="44.1" cy="271.2" r="1.34" fill="#1a1520" opacity="0.084"/><circle cx="72.7" cy="51.3" r="0.92" fill="#1a1520" opacity="0.070"/><circle cx="419.3" cy="257.2" r="0.42" fill="#1a1520" opacity="0.116"/><circle cx="264.8" cy="257.1" r="1.69" fill="#1a1520" opacity="0.040"/><circle cx="169.6" cy="158.6" r="0.46" fill="#1a1520" opacity="0.066"/><circle cx="389.6" cy="137.8" r="1.78" fill="#1a1520" opacity="0.046"/><circle cx="243.6" cy="148.0" r="0.99" fill="#1a1520" opacity="0.128"/><circle cx="70.5" cy="139.7" r="1.79" fill="#1a1520" opacity="0.081"/><circle cx="282.0" cy="66.0" r="1.45" fill="#1a1520" opacity="0.085"/><circle cx="260.3" cy="27.6" r="1.16" fill="#1a1520" opacity="0.113"/><circle cx="463.7" cy="185.8" r="0.92" fill="#1a1520" opacity="0.072"/><circle cx="410.7" cy="151.9" r="0.51" fill="#1a1520" opacity="0.134"/><circle cx="6.7" cy="99.8" r="1.19" fill="#1a1520" opacity="0.137"/><circle cx="300.0" cy="152.0" r="1.75" fill="#1a1520" opacity="0.094"/><circle cx="53.8" cy="97.1" r="1.79" fill="#1a1520" opacity="0.111"/><circle cx="312.5" cy="26.4" r="0.43" fill="#1a1520" opacity="0.098"/><circle cx="59.1" cy="17.7" r="1.51" fill="#1a1520" opacity="0.079"/><circle cx="358.2" cy="74.8" r="1.17" fill="#1a1520" opacity="0.106"/><circle cx="75.7" cy="267.4" r="0.88" fill="#1a1520" opacity="0.139"/><circle cx="342.1" cy="213.3" r="0.72" fill="#1a1520" opacity="0.128"/><circle cx="370.8" cy="54.6" r="1.54" fill="#1a1520" opacity="0.096"/><circle cx="234.8" cy="13.3" r="0.89" fill="#1a1520" opacity="0.080"/><circle cx="25.3" cy="219.8" r="1.75" fill="#1a1520" opacity="0.074"/><circle cx="208.3" cy="107.0" r="0.59" fill="#1a1520" opacity="0.128"/><circle cx="293.1" cy="91.9" r="0.53" fill="#1a1520" opacity="0.076"/><circle cx="273.1" cy="74.5" r="0.69" fill="#1a1520" opacity="0.131"/><circle cx="167.7" cy="24.2" r="1.73" fill="#1a1520" opacity="0.115"/><circle cx="433.4" cy="105.1" r="0.34" fill="#fff8e7" opacity="0.103"/><circle cx="71.5" cy="266.6" r="0.91" fill="#fff8e7" opacity="0.046"/><circle cx="72.0" cy="154.9" r="1.00" fill="#fff8e7" opacity="0.110"/><circle cx="7.0" cy="194.0" r="1.08" fill="#fff8e7" opacity="0.059"/><circle cx="305.4" cy="96.6" r="0.92" fill="#fff8e7" opacity="0.057"/><circle cx="409.1" cy="22.8" r="0.68" fill="#fff8e7" opacity="0.058"/><circle cx="170.1" cy="164.5" r="0.82" fill="#fff8e7" opacity="0.095"/><circle cx="19.2" cy="3.7" r="0.57" fill="#fff8e7" opacity="0.033"/><circle cx="376.8" cy="185.3" r="0.90" fill="#fff8e7" opacity="0.038"/><circle cx="366.0" cy="225.3" r="1.15" fill="#fff8e7" opacity="0.107"/><circle cx="88.2" cy="298.5" r="0.76" fill="#fff8e7" opacity="0.079"/><circle cx="9.5" cy="264.9" r="0.69" fill="#fff8e7" opacity="0.063"/><circle cx="30.7" cy="236.6" r="0.83" fill="#fff8e7" opacity="0.067"/><circle cx="81.8" cy="242.0" r="0.91" fill="#fff8e7" opacity="0.101"/><circle cx="279.8" cy="22.4" r="0.93" fill="#fff8e7" opacity="0.073"/><circle cx="212.2" cy="111.8" r="0.55" fill="#fff8e7" opacity="0.102"/><circle cx="57.0" cy="155.8" r="0.47" fill="#fff8e7" opacity="0.100"/><circle cx="60.9" cy="290.2" r="1.13" fill="#fff8e7" opacity="0.032"/><circle cx="347.3" cy="83.3" r="0.49" fill="#fff8e7" opacity="0.032"/><circle cx="285.6" cy="196.1" r="0.33" fill="#fff8e7" opacity="0.093"/><circle cx="7.3" cy="254.6" r="0.99" fill="#fff8e7" opacity="0.109"/><circle cx="291.0" cy="282.7" r="0.53" fill="#fff8e7" opacity="0.099"/><circle cx="210.2" cy="188.0" r="0.67" fill="#fff8e7" opacity="0.056"/><circle cx="465.8" cy="230.9" r="0.92" fill="#fff8e7" opacity="0.041"/><circle cx="451.9" cy="20.4" r="1.06" fill="#fff8e7" opacity="0.054"/><circle cx="238.6" cy="234.6" r="0.97" fill="#fff8e7" opacity="0.046"/><circle cx="27.2" cy="0.1" r="0.52" fill="#fff8e7" opacity="0.044"/><circle cx="418.9" cy="40.4" r="1.16" fill="#fff8e7" opacity="0.064"/><circle cx="130.7" cy="109.5" r="0.92" fill="#fff8e7" opacity="0.069"/><circle cx="147.4" cy="81.7" r="1.08" fill="#fff8e7" opacity="0.074"/><circle cx="101.0" cy="150.6" r="0.90" fill="#fff8e7" opacity="0.076"/><circle cx="342.0" cy="35.2" r="0.44" fill="#fff8e7" opacity="0.055"/><circle cx="276.7" cy="248.6" r="0.72" fill="#fff8e7" opacity="0.046"/><circle cx="372.9" cy="277.6" r="0.58" fill="#fff8e7" opacity="0.037"/><circle cx="125.0" cy="62.3" r="1.08" fill="#fff8e7" opacity="0.086"/><circle cx="401.5" cy="89.1" r="0.49" fill="#fff8e7" opacity="0.086"/><circle cx="249.8" cy="192.4" r="0.89" fill="#fff8e7" opacity="0.045"/><circle cx="0.1" cy="115.2" r="0.91" fill="#fff8e7" opacity="0.053"/><circle cx="112.6" cy="117.9" r="1.16" fill="#fff8e7" opacity="0.084"/><circle cx="350.8" cy="40.4" r="0.56" fill="#fff8e7" opacity="0.096"/></g>
<rect x="8" y="8" width="464" height="284" fill="none" stroke="#f5efe0" stroke-opacity="0.22" stroke-width="2" rx="4"/>
</svg>
