<?xml version="1.0" encoding="UTF-8"?>
<svg xmlns="http://www.w3.org/2000/svg" viewBox="0 0 480 300" width="480" height="300" role="img" aria-label="daegu">

    <defs>
      <linearGradient id="sky" x1="0" y1="0" x2="0" y2="1">
        <stop offset="0%" stop-color="#c8a0c8"/>
        <stop offset="55%" stop-color="#8870a8"/>
        <stop offset="100%" stop-color="#4a3a6a"/>
      </linearGradient>
      <radialGradient id="glow" cx="70%" cy="22%" r="45%">
        <stop offset="0%" stop-color="#fff6d8" stop-opacity="0.45"/>
        <stop offset="100%" stop-color="#fff6d8" stop-opacity="0"/>
      </radialGradient>
      <linearGradient id="ground" x1="0" y1="0" x2="0" y2="1">
        <stop offset="0%" stop-color="#2a3340" stop-opacity="0"/>
        <stop offset="100%" stop-color="#121820" stop-opacity="0.55"/>
      </linearGradient>
    </defs>
    <rect width="480" height="300" fill="url(#sky)"/>
    <rect width="480" height="300" fill="url(#glow)"/>
  
<g opacity="0.28" fill="#f7f3ea">
    <ellipse cx="87.82378057017922" cy="53.161271661520004" rx="29.310219214111562" ry="12.561522520333527"/>
    <ellipse cx="106.66606435067952" cy="48.97409748807549" rx="20.935870867222548" ry="10.467935433611274"/>
    <ellipse cx="71.07508387640118" cy="55.254858748242256" rx="16.748696693778037" ry="8.374348346889018"/>
  </g>
<g opacity="0.22" fill="#f7f3ea">
    <ellipse cx="359.3794093094766" cy="35.67940343753435" rx="29.593441146425903" ry="12.682903348468244"/>
    <ellipse cx="378.403764332179" cy="31.451768988044932" rx="21.138172247447073" ry="10.569086123723537"/>
    <ellipse cx="342.46887151151896" cy="37.793220662279055" rx="16.91053779795766" ry="8.45526889897883"/>
  </g>

    <path d="M0 180 L80 90 L140 160 L200 70 L280 150 L360 85 L480 180 L480 300 L0 300 Z" fill="#4a5a6a" opacity="0.55"/>
    <path d="M40 190 L100 120 L150 175 L220 100 L300 170 L380 115 L480 195 L480 300 L0 300 Z" fill="#3a4a58" opacity="0.7"/>
    <g fill="#2e3848">
      <rect x="160" y="175" width="20" height="45"/><rect x="190" y="165" width="26" height="55"/>
      <rect x="250" y="180" width="22" height="40"/>
    </g>
<rect width="480" height="300" fill="url(#ground)"/>
  <rect width="480" height="300" fill="none" stroke="#1a1520" stroke-width="28" stroke-opacity="0.18"/>
<g id="grain-daegu" opacity="0.85"><circle cx="333.9" cy="197.4" r="0.91" fill="#1a1520" opacity="0.139"/><circle cx="109.0" cy="34.1" r="0.40" fill="#1a1520" opacity="0.107"/><circle cx="347.9" cy="51.1" r="0.70" fill="#1a1520" opacity="0.049"/><circle cx="389.5" cy="62.0" r="1.12" fill="#1a1520" opacity="0.047"/><circle cx="223.2" cy="182.3" r="0.95" fill="#1a1520" opacity="0.105"/><circle cx="465.6" cy="24.1" r="1.64" fill="#1a1520" opacity="0.100"/><circle cx="69.3" cy="16.9" r="1.40" fill="#1a1520" opacity="0.059"/><circle cx="292.0" cy="246.5" r="0.89" fill="#1a1520" opacity="0.121"/><circle cx="273.8" cy="164.6" r="0.78" fill="#1a1520" opacity="0.111"/><circle cx="189.9" cy="237.8" r="1.42" fill="#1a1520" opacity="0.074"/><circle cx="107.1" cy="8.9" r="0.80" fill="#1a1520" opacity="0.091"/><circle cx="469.1" cy="167.3" r="0.81" fill="#1a1520" opacity="0.073"/><circle cx="238.8" cy="143.9" r="0.96" fill="#1a1520" opacity="0.140"/><circle cx="441.1" cy="116.5" r="1.69" fill="#1a1520" opacity="0.063"/><circle cx="345.8" cy="223.3" r="0.58" fill="#1a1520" opacity="0.125"/><circle cx="158.0" cy="128.6" r="0.42" fill="#1a1520" opacity="0.100"/><circle cx="324.9" cy="48.6" r="1.59" fill="#1a1520" opacity="0.042"/><circle cx="171.4" cy="67.2" r="1.42" fill="#1a1520" opacity="0.099"/><circle cx="391.8" cy="217.4" r="1.38" fill="#1a1520" opacity="0.080"/><circle cx="24.0" cy="161.6" r="1.39" fill="#1a1520" opacity="0.103"/><circle cx="392.7" cy="52.0" r="1.32" fill="#1a1520" opacity="0.076"/><circle cx="133.0" cy="41.9" r="1.68" fill="#1a1520" opacity="0.098"/><circle cx="182.4" cy="289.7" r="0.98" fill="#1a1520" opacity="0.107"/><circle cx="49.6" cy="162.3" r="1.63" fill="#1a1520" opacity="0.055"/><circle cx="456.4" cy="190.5" r="0.97" fill="#1a1520" opacity="0.091"/><circle cx="142.6" cy="271.7" r="1.20" fill="#1a1520" opacity="0.124"/><circle cx="388.6" cy="155.6" r="0.70" fill="#1a1520" opacity="0.068"/><circle cx="407.9" cy="173.8" r="0.49" fill="#1a1520" opacity="0.059"/><circle cx="286.2" cy="67.6" r="1.07" fill="#1a1520" opacity="0.129"/><circle cx="162.1" cy="182.6" r="0.44" fill="#1a1520" opacity="0.099"/><circle cx="13.8" cy="181.6" r="1.02" fill="#1a1520" opacity="0.057"/><circle cx="262.4" cy="213.5" r="0.82" fill="#1a1520" opacity="0.122"/><circle cx="372.3" cy="9.9" r="1.19" fill="#1a1520" opacity="0.118"/><circle cx="54.5" cy="150.2" r="1.65" fill="#1a1520" opacity="0.073"/><circle cx="62.3" cy="31.1" r="1.07" fill="#1a1520" opacity="0.112"/><circle cx="335.9" cy="150.3" r="0.59" fill="#1a1520" opacity="0.073"/><circle cx="234.4" cy="118.4" r="0.53" fill="#1a1520" opacity="0.105"/><circle cx="129.6" cy="22.4" r="1.16" fill="#1a1520" opacity="0.075"/><circle cx="456.6" cy="64.2" r="1.69" fill="#1a1520" opacity="0.042"/><circle cx="165.4" cy="282.3" r="0.43" fill="#1a1520" opacity="0.059"/><circle cx="384.1" cy="196.4" r="0.43" fill="#1a1520" opacity="0.078"/><circle cx="186.8" cy="139.6" r="1.16" fill="#1a1520" opacity="0.090"/><circle cx="201.3" cy="192.8" r="1.10" fill="#1a1520" opacity="0.045"/><circle cx="310.1" cy="188.9" r="0.66" fill="#1a1520" opacity="0.108"/><circle cx="192.4" cy="13.1" r="0.71" fill="#1a1520" opacity="0.076"/><circle cx="98.6" cy="215.3" r="0.96" fill="#1a1520" opacity="0.125"/><circle cx="221.5" cy="111.1" r="0.72" fill="#1a1520" opacity="0.104"/><circle cx="260.5" cy="192.1" r="0.96" fill="#1a1520" opacity="0.138"/><circle cx="399.4" cy="210.2" r="1.29" fill="#1a1520" opacity="0.057"/><circle cx="304.4" cy="7.2" r="1.57" fill="#1a1520" opacity="0.084"/><circle cx="303.8" cy="142.0" r="0.68" fill="#1a1520" opacity="0.054"/><circle cx="220.6" cy="115.2" r="0.92" fill="#1a1520" opacity="0.061"/><circle cx="334.7" cy="265.5" r="1.66" fill="#1a1520" opacity="0.066"/><circle cx="281.2" cy="173.4" r="1.03" fill="#1a1520" opacity="0.081"/><circle cx="413.0" cy="40.6" r="1.62" fill="#1a1520" opacity="0.134"/><circle cx="235.6" cy="178.9" r="1.63" fill="#1a1520" opacity="0.097"/><circle cx="291.6" cy="100.8" r="1.32" fill="#1a1520" opacity="0.070"/><circle cx="351.5" cy="111.2" r="1.59" fill="#1a1520" opacity="0.095"/><circle cx="211.6" cy="298.0" r="1.18" fill="#1a1520" opacity="0.074"/><circle cx="63.7" cy="28.2" r="0.61" fill="#1a1520" opacity="0.068"/><circle cx="419.4" cy="170.2" r="1.00" fill="#1a1520" opacity="0.140"/><circle cx="333.5" cy="111.9" r="0.92" fill="#1a1520" opacity="0.065"/><circle cx="145.2" cy="68.0" r="1.53" fill="#1a1520" opacity="0.047"/><circle cx="177.3" cy="215.5" r="1.60" fill="#1a1520" opacity="0.074"/><circle cx="452.9" cy="102.4" r="1.36" fill="#1a1520" opacity="0.099"/><circle cx="49.5" cy="236.7" r="0.41" fill="#1a1520" opacity="0.070"/><circle cx="78.3" cy="115.2" r="1.35" fill="#1a1520" opacity="0.099"/><circle cx="19.3" cy="221.6" r="0.73" fill="#1a1520" opacity="0.050"/><circle cx="457.4" cy="81.3" r="1.47" fill="#1a1520" opacity="0.099"/><circle cx="326.1" cy="188.3" r="1.17" fill="#1a1520" opacity="0.129"/><circle cx="60.8" cy="97.8" r="0.61" fill="#1a1520" opacity="0.093"/><circle cx="12.9" cy="197.3" r="1.67" fill="#1a1520" opacity="0.129"/><circle cx="417.0" cy="188.8" r="0.82" fill="#1a1520" opacity="0.132"/><circle cx="469.7" cy="70.7" r="1.24" fill="#1a1520" opacity="0.104"/><circle cx="221.2" cy="150.0" r="0.42" fill="#1a1520" opacity="0.100"/><circle cx="205.2" cy="82.7" r="0.77" fill="#1a1520" opacity="0.107"/><circle cx="267.9" cy="140.7" r="1.18" fill="#1a1520" opacity="0.060"/><circle cx="369.3" cy="76.7" r="1.60" fill="#1a1520" opacity="0.128"/><circle cx="169.8" cy="56.8" r="1.54" fill="#1a1520" opacity="0.043"/><circle cx="431.3" cy="52.2" r="0.75" fill="#1a1520" opacity="0.047"/><circle cx="398.6" cy="135.8" r="0.94" fill="#1a1520" opacity="0.078"/><circle cx="120.8" cy="252.7" r="1.09" fill="#1a1520" opacity="0.128"/><circle cx="371.4" cy="44.1" r="0.85" fill="#1a1520" opacity="0.086"/><circle cx="205.0" cy="94.7" r="0.66" fill="#1a1520" opacity="0.061"/><circle cx="458.4" cy="222.5" r="1.45" fill="#1a1520" opacity="0.138"/><circle cx="19.9" cy="95.7" r="0.73" fill="#1a1520" opacity="0.059"/><circle cx="251.9" cy="177.7" r="0.75" fill="#1a1520" opacity="0.048"/><circle cx="438.5" cy="248.9" r="0.83" fill="#1a1520" opacity="0.092"/><circle cx="21.0" cy="222.0" r="0.50" fill="#1a1520" opacity="0.072"/><circle cx="185.9" cy="237.3" r="0.72" fill="#1a1520" opacity="0.084"/><circle cx="17.5" cy="231.6" r="0.41" fill="#fff8e7" opacity="0.051"/><circle cx="360.2" cy="134.0" r="0.53" fill="#fff8e7" opacity="0.076"/><circle cx="184.5" cy="112.7" r="0.93" fill="#fff8e7" opacity="0.080"/><circle cx="139.3" cy="45.1" r="0.61" fill="#fff8e7" opacity="0.060"/><circle cx="267.7" cy="86.2" r="0.31" fill="#fff8e7" opacity="0.074"/><circle cx="152.1" cy="115.8" r="1.06" fill="#fff8e7" opacity="0.055"/><circle cx="48.6" cy="86.8" r="0.98" fill="#fff8e7" opacity="0.078"/><circle cx="18.5" cy="164.8" r="0.58" fill="#fff8e7" opacity="0.061"/><circle cx="228.8" cy="109.1" r="0.76" fill="#fff8e7" opacity="0.057"/><circle cx="436.2" cy="130.2" r="0.81" fill="#fff8e7" opacity="0.053"/><circle cx="210.1" cy="240.1" r="0.76" fill="#fff8e7" opacity="0.108"/><circle cx="327.6" cy="171.8" r="0.52" fill="#fff8e7" opacity="0.058"/><circle cx="378.5" cy="219.9" r="1.10" fill="#fff8e7" opacity="0.077"/><circle cx="304.4" cy="74.5" r="0.96" fill="#fff8e7" opacity="0.051"/><circle cx="420.2" cy="63.6" r="0.31" fill="#fff8e7" opacity="0.073"/><circle cx="370.8" cy="295.1" r="0.58" fill="#fff8e7" opacity="0.101"/><circle cx="421.3" cy="153.1" r="0.56" fill="#fff8e7" opacity="0.033"/><circle cx="258.7" cy="294.7" r="0.60" fill="#fff8e7" opacity="0.034"/><circle cx="142.1" cy="51.1" r="0.81" fill="#fff8e7" opacity="0.078"/><circle cx="230.0" cy="42.4" r="0.52" fill="#fff8e7" opacity="0.070"/><circle cx="135.5" cy="202.3" r="0.98" fill="#fff8e7" opacity="0.054"/><circle cx="195.4" cy="241.5" r="0.71" fill="#fff8e7" opacity="0.082"/><circle cx="123.3" cy="142.6" r="0.51" fill="#fff8e7" opacity="0.110"/><circle cx="358.0" cy="252.6" r="0.68" fill="#fff8e7" opacity="0.101"/><circle cx="13.8" cy="124.2" r="0.51" fill="#fff8e7" opacity="0.070"/><circle cx="314.7" cy="136.2" r="0.66" fill="#fff8e7" opacity="0.090"/><circle cx="58.7" cy="214.1" r="0.71" fill="#fff8e7" opacity="0.045"/><circle cx="136.7" cy="171.7" r="0.95" fill="#fff8e7" opacity="0.086"/><circle cx="116.8" cy="5.0" r="0.48" fill="#fff8e7" opacity="0.039"/><circle cx="180.6" cy="249.4" r="0.78" fill="#fff8e7" opacity="0.058"/><circle cx="98.3" cy="45.9" r="0.87" fill="#fff8e7" opacity="0.078"/><circle cx="342.6" cy="64.0" r="0.80" fill="#fff8e7" opacity="0.041"/><circle cx="470.8" cy="214.9" r="0.39" fill="#fff8e7" opacity="0.087"/><circle cx="218.3" cy="137.4" r="0.35" fill="#fff8e7" opacity="0.042"/><circle cx="380.8" cy="59.4" r="0.70" fill="#fff8e7" opacity="0.092"/><circle cx="270.6" cy="209.0" r="0.67" fill="#fff8e7" opacity="0.047"/><circle cx="187.2" cy="282.5" r="0.58" fill="#fff8e7" opacity="0.092"/><circle cx="19.7" cy="20.7" r="0.92" fill="#fff8e7" opacity="0.050"/><circle cx="5.5" cy="261.6" r="0.94" fill="#fff8e7" opacity="0.089"/><circle cx="24.5" cy="45.0" r="1.04" fill="#fff8e7" opacity="0.104"/></g>
<rect x="8" y="8" width="464" height="284" fill="none" stroke="#f5efe0" stroke-opacity="0.22" stroke-width="2" rx="4"/>
</svg>
