<?xml version="1.0" encoding="UTF-8"?>
<svg xmlns="http://www.w3.org/2000/svg" viewBox="0 0 480 300" width="480" height="300" role="img" aria-label="dubai">

    <defs>
      <linearGradient id="sky" x1="0" y1="0" x2="0" y2="1">
        <stop offset="0%" stop-color="#f0c878"/>
        <stop offset="55%" stop-color="#e09040"/>
        <stop offset="100%" stop-color="#805030"/>
      </linearGradient>
      <radialGradient id="glow" cx="70%" cy="22%" r="45%">
        <stop offset="0%" stop-color="#fff6d8" stop-opacity="0.45"/>
        <stop offset="100%" stop-color="#fff6d8" stop-opacity="0"/>
      </radialGradient>
      <linearGradient id="ground" x1="0" y1="0" x2="0" y2="1">
        <stop offset="0%" stop-color="#2a3340" stop-opacity="0"/>
        <stop offset="100%" stop-color="#121820" stop-opacity="0.55"/>
      </linearGradient>
    </defs>
    <rect width="480" height="300" fill="url(#sky)"/>
    <rect width="480" height="300" fill="url(#glow)"/>
  
<g opacity="0.28" fill="#f7f3ea">
    <ellipse cx="73.67746336385608" cy="43.39304487220943" rx="30.177330627664926" ry="12.933141697570683"/>
    <ellipse cx="93.0771759102121" cy="39.081997639685866" rx="21.555236162617803" ry="10.777618081308901"/>
    <ellipse cx="56.43327443376184" cy="45.54856848847121" rx="17.244188930094243" ry="8.622094465047121"/>
  </g>
<g opacity="0.22" fill="#f7f3ea">
    <ellipse cx="319.1404562070966" cy="39.075781697174534" rx="28.322057181037962" ry="12.138024506159127"/>
    <ellipse cx="337.34749296633527" cy="35.029773528454825" rx="20.230040843598545" ry="10.115020421799272"/>
    <ellipse cx="302.95642353221774" cy="41.09878578153439" rx="16.184032674878836" ry="8.092016337439418"/>
  </g>
<g opacity="0.18" fill="#f7f3ea">
    <ellipse cx="201.5027456637472" cy="64.13761188043281" rx="19.599999999999998" ry="8.399999999999999"/>
    <ellipse cx="214.10274566374719" cy="61.33761188043282" rx="14" ry="7"/>
    <ellipse cx="190.3027456637472" cy="65.53761188043282" rx="11.2" ry="5.6"/>
  </g>

    <g fill="#2a3548">
      <rect x="40" y="160" width="28" height="70"/><rect x="80" y="140" width="34" height="90"/>
      <rect x="130" y="150" width="30" height="80"/><rect x="350" y="145" width="40" height="85"/>
      <rect x="400" y="165" width="32" height="65"/>
    </g>
    <g fill="#7a8aa0" transform="translate(240,40)">
      <path d="M0 0 L14 190 L-14 190 Z"/>
      <ellipse cx="0" cy="40" rx="18" ry="6" fill="#9aa8b8" opacity="0.5"/>
      <ellipse cx="0" cy="90" rx="14" ry="5" fill="#9aa8b8" opacity="0.45"/>
      <ellipse cx="0" cy="140" rx="10" ry="4" fill="#9aa8b8" opacity="0.4"/>
    </g>
    <ellipse cx="240" cy="245" rx="200" ry="25" fill="#c4a882" opacity="0.35"/>
<rect width="480" height="300" fill="url(#ground)"/>
  <rect width="480" height="300" fill="none" stroke="#1a1520" stroke-width="28" stroke-opacity="0.18"/>
<g id="grain-dubai" opacity="0.85"><circle cx="164.1" cy="50.9" r="1.02" fill="#1a1520" opacity="0.089"/><circle cx="174.3" cy="6.9" r="1.27" fill="#1a1520" opacity="0.094"/><circle cx="292.4" cy="47.8" r="1.35" fill="#1a1520" opacity="0.115"/><circle cx="178.6" cy="173.9" r="1.48" fill="#1a1520" opacity="0.124"/><circle cx="50.8" cy="218.2" r="1.69" fill="#1a1520" opacity="0.065"/><circle cx="45.1" cy="231.5" r="1.46" fill="#1a1520" opacity="0.095"/><circle cx="187.6" cy="85.0" r="1.18" fill="#1a1520" opacity="0.105"/><circle cx="395.5" cy="80.2" r="0.45" fill="#1a1520" opacity="0.072"/><circle cx="343.3" cy="112.6" r="1.19" fill="#1a1520" opacity="0.085"/><circle cx="409.1" cy="48.7" r="0.54" fill="#1a1520" opacity="0.077"/><circle cx="278.1" cy="96.9" r="0.98" fill="#1a1520" opacity="0.107"/><circle cx="11.3" cy="108.0" r="1.79" fill="#1a1520" opacity="0.067"/><circle cx="198.1" cy="267.0" r="0.88" fill="#1a1520" opacity="0.040"/><circle cx="141.8" cy="204.5" r="1.24" fill="#1a1520" opacity="0.107"/><circle cx="371.4" cy="79.7" r="1.13" fill="#1a1520" opacity="0.069"/><circle cx="209.7" cy="43.4" r="1.74" fill="#1a1520" opacity="0.125"/><circle cx="156.3" cy="282.3" r="1.69" fill="#1a1520" opacity="0.124"/><circle cx="120.1" cy="155.0" r="1.71" fill="#1a1520" opacity="0.048"/><circle cx="376.4" cy="174.5" r="0.94" fill="#1a1520" opacity="0.109"/><circle cx="137.0" cy="265.7" r="1.13" fill="#1a1520" opacity="0.132"/><circle cx="237.3" cy="220.3" r="0.65" fill="#1a1520" opacity="0.068"/><circle cx="89.7" cy="46.1" r="1.79" fill="#1a1520" opacity="0.116"/><circle cx="63.0" cy="296.4" r="1.13" fill="#1a1520" opacity="0.107"/><circle cx="288.4" cy="77.7" r="0.60" fill="#1a1520" opacity="0.134"/><circle cx="240.6" cy="55.2" r="0.97" fill="#1a1520" opacity="0.103"/><circle cx="132.2" cy="291.8" r="1.55" fill="#1a1520" opacity="0.126"/><circle cx="427.1" cy="245.7" r="1.61" fill="#1a1520" opacity="0.050"/><circle cx="478.6" cy="147.3" r="1.42" fill="#1a1520" opacity="0.041"/><circle cx="94.3" cy="222.6" r="1.70" fill="#1a1520" opacity="0.122"/><circle cx="146.4" cy="123.8" r="1.71" fill="#1a1520" opacity="0.062"/><circle cx="441.9" cy="61.8" r="0.50" fill="#1a1520" opacity="0.106"/><circle cx="371.9" cy="130.2" r="1.69" fill="#1a1520" opacity="0.129"/><circle cx="343.9" cy="78.4" r="0.71" fill="#1a1520" opacity="0.067"/><circle cx="193.5" cy="126.5" r="1.11" fill="#1a1520" opacity="0.128"/><circle cx="273.3" cy="126.8" r="0.71" fill="#1a1520" opacity="0.106"/><circle cx="349.3" cy="72.0" r="0.44" fill="#1a1520" opacity="0.114"/><circle cx="18.3" cy="68.2" r="0.49" fill="#1a1520" opacity="0.073"/><circle cx="112.3" cy="293.4" r="0.52" fill="#1a1520" opacity="0.057"/><circle cx="310.3" cy="276.1" r="1.28" fill="#1a1520" opacity="0.084"/><circle cx="243.7" cy="293.6" r="0.50" fill="#1a1520" opacity="0.070"/><circle cx="280.5" cy="228.4" r="0.71" fill="#1a1520" opacity="0.122"/><circle cx="203.0" cy="189.9" r="0.70" fill="#1a1520" opacity="0.078"/><circle cx="93.9" cy="142.8" r="1.22" fill="#1a1520" opacity="0.062"/><circle cx="185.6" cy="157.1" r="0.77" fill="#1a1520" opacity="0.095"/><circle cx="370.7" cy="75.2" r="1.21" fill="#1a1520" opacity="0.071"/><circle cx="474.5" cy="60.1" r="0.48" fill="#1a1520" opacity="0.093"/><circle cx="133.4" cy="76.6" r="1.56" fill="#1a1520" opacity="0.046"/><circle cx="133.9" cy="164.4" r="0.49" fill="#1a1520" opacity="0.102"/><circle cx="443.2" cy="288.5" r="1.32" fill="#1a1520" opacity="0.049"/><circle cx="293.1" cy="187.4" r="1.76" fill="#1a1520" opacity="0.136"/><circle cx="49.6" cy="291.1" r="0.76" fill="#1a1520" opacity="0.123"/><circle cx="436.7" cy="230.6" r="0.95" fill="#1a1520" opacity="0.099"/><circle cx="122.9" cy="286.3" r="1.57" fill="#1a1520" opacity="0.114"/><circle cx="414.7" cy="144.3" r="0.43" fill="#1a1520" opacity="0.049"/><circle cx="472.2" cy="268.5" r="1.63" fill="#1a1520" opacity="0.078"/><circle cx="155.1" cy="167.7" r="1.74" fill="#1a1520" opacity="0.124"/><circle cx="464.6" cy="285.7" r="1.63" fill="#1a1520" opacity="0.082"/><circle cx="253.0" cy="48.0" r="1.05" fill="#1a1520" opacity="0.081"/><circle cx="120.1" cy="201.1" r="0.79" fill="#1a1520" opacity="0.054"/><circle cx="365.6" cy="211.8" r="0.85" fill="#1a1520" opacity="0.046"/><circle cx="51.7" cy="211.0" r="1.44" fill="#1a1520" opacity="0.053"/><circle cx="67.3" cy="66.5" r="1.63" fill="#1a1520" opacity="0.080"/><circle cx="33.4" cy="120.5" r="1.00" fill="#1a1520" opacity="0.116"/><circle cx="309.7" cy="13.5" r="0.40" fill="#1a1520" opacity="0.043"/><circle cx="232.2" cy="103.0" r="1.44" fill="#1a1520" opacity="0.056"/><circle cx="315.3" cy="299.8" r="1.08" fill="#1a1520" opacity="0.077"/><circle cx="23.2" cy="199.3" r="1.45" fill="#1a1520" opacity="0.132"/><circle cx="440.7" cy="184.3" r="1.23" fill="#1a1520" opacity="0.048"/><circle cx="12.3" cy="83.9" r="0.64" fill="#1a1520" opacity="0.091"/><circle cx="203.1" cy="239.7" r="1.46" fill="#1a1520" opacity="0.105"/><circle cx="262.2" cy="258.7" r="1.27" fill="#1a1520" opacity="0.069"/><circle cx="301.0" cy="126.3" r="0.96" fill="#1a1520" opacity="0.118"/><circle cx="335.5" cy="79.8" r="0.96" fill="#1a1520" opacity="0.135"/><circle cx="307.6" cy="267.0" r="0.79" fill="#1a1520" opacity="0.078"/><circle cx="97.2" cy="215.2" r="1.42" fill="#1a1520" opacity="0.119"/><circle cx="136.9" cy="117.1" r="0.64" fill="#1a1520" opacity="0.139"/><circle cx="337.9" cy="213.5" r="1.39" fill="#1a1520" opacity="0.111"/><circle cx="421.9" cy="6.1" r="0.80" fill="#1a1520" opacity="0.052"/><circle cx="24.7" cy="149.4" r="0.57" fill="#1a1520" opacity="0.122"/><circle cx="458.6" cy="139.1" r="1.70" fill="#1a1520" opacity="0.115"/><circle cx="115.1" cy="220.3" r="0.87" fill="#1a1520" opacity="0.082"/><circle cx="322.5" cy="214.1" r="1.57" fill="#1a1520" opacity="0.096"/><circle cx="348.9" cy="243.2" r="0.95" fill="#1a1520" opacity="0.092"/><circle cx="467.5" cy="173.6" r="1.59" fill="#1a1520" opacity="0.097"/><circle cx="329.4" cy="188.3" r="1.45" fill="#1a1520" opacity="0.072"/><circle cx="457.7" cy="92.8" r="1.17" fill="#1a1520" opacity="0.050"/><circle cx="315.3" cy="155.1" r="0.84" fill="#1a1520" opacity="0.140"/><circle cx="412.4" cy="80.9" r="1.67" fill="#1a1520" opacity="0.062"/><circle cx="3.9" cy="214.7" r="0.67" fill="#1a1520" opacity="0.126"/><circle cx="143.6" cy="173.7" r="0.61" fill="#1a1520" opacity="0.046"/><circle cx="431.1" cy="128.4" r="0.70" fill="#fff8e7" opacity="0.040"/><circle cx="454.4" cy="108.7" r="0.63" fill="#fff8e7" opacity="0.069"/><circle cx="346.0" cy="122.3" r="0.59" fill="#fff8e7" opacity="0.053"/><circle cx="154.7" cy="99.5" r="1.11" fill="#fff8e7" opacity="0.057"/><circle cx="250.4" cy="29.4" r="0.78" fill="#fff8e7" opacity="0.104"/><circle cx="35.6" cy="33.5" r="0.53" fill="#fff8e7" opacity="0.038"/><circle cx="102.5" cy="3.2" r="1.15" fill="#fff8e7" opacity="0.062"/><circle cx="430.5" cy="92.5" r="0.91" fill="#fff8e7" opacity="0.056"/><circle cx="157.5" cy="221.9" r="0.86" fill="#fff8e7" opacity="0.072"/><circle cx="276.5" cy="120.0" r="1.16" fill="#fff8e7" opacity="0.032"/><circle cx="239.7" cy="56.9" r="0.35" fill="#fff8e7" opacity="0.067"/><circle cx="301.2" cy="105.2" r="0.37" fill="#fff8e7" opacity="0.044"/><circle cx="276.0" cy="54.0" r="0.68" fill="#fff8e7" opacity="0.064"/><circle cx="166.3" cy="33.4" r="0.31" fill="#fff8e7" opacity="0.100"/><circle cx="119.3" cy="119.1" r="0.54" fill="#fff8e7" opacity="0.070"/><circle cx="9.6" cy="275.7" r="0.58" fill="#fff8e7" opacity="0.054"/><circle cx="53.2" cy="230.2" r="0.94" fill="#fff8e7" opacity="0.051"/><circle cx="460.5" cy="248.7" r="1.20" fill="#fff8e7" opacity="0.068"/><circle cx="373.8" cy="297.4" r="0.93" fill="#fff8e7" opacity="0.045"/><circle cx="16.7" cy="189.6" r="0.93" fill="#fff8e7" opacity="0.051"/><circle cx="256.1" cy="230.3" r="0.51" fill="#fff8e7" opacity="0.056"/><circle cx="389.1" cy="169.1" r="0.81" fill="#fff8e7" opacity="0.088"/><circle cx="39.3" cy="114.9" r="0.34" fill="#fff8e7" opacity="0.079"/><circle cx="44.2" cy="148.3" r="0.47" fill="#fff8e7" opacity="0.061"/><circle cx="227.6" cy="32.1" r="0.76" fill="#fff8e7" opacity="0.051"/><circle cx="471.7" cy="19.2" r="0.53" fill="#fff8e7" opacity="0.101"/><circle cx="266.1" cy="36.7" r="0.87" fill="#fff8e7" opacity="0.102"/><circle cx="331.4" cy="180.6" r="0.69" fill="#fff8e7" opacity="0.082"/><circle cx="450.9" cy="66.9" r="0.87" fill="#fff8e7" opacity="0.099"/><circle cx="77.0" cy="162.5" r="1.17" fill="#fff8e7" opacity="0.093"/><circle cx="107.1" cy="107.4" r="0.48" fill="#fff8e7" opacity="0.057"/><circle cx="372.3" cy="61.2" r="0.73" fill="#fff8e7" opacity="0.076"/><circle cx="230.0" cy="278.2" r="1.01" fill="#fff8e7" opacity="0.059"/><circle cx="453.7" cy="151.7" r="0.75" fill="#fff8e7" opacity="0.032"/><circle cx="196.6" cy="7.1" r="0.71" fill="#fff8e7" opacity="0.090"/><circle cx="140.0" cy="184.9" r="0.39" fill="#fff8e7" opacity="0.056"/><circle cx="317.6" cy="49.1" r="0.83" fill="#fff8e7" opacity="0.058"/><circle cx="317.1" cy="145.5" r="0.38" fill="#fff8e7" opacity="0.103"/><circle cx="247.9" cy="209.1" r="0.45" fill="#fff8e7" opacity="0.094"/><circle cx="141.0" cy="170.3" r="0.55" fill="#fff8e7" opacity="0.066"/></g>
<rect x="8" y="8" width="464" height="284" fill="none" stroke="#f5efe0" stroke-opacity="0.22" stroke-width="2" rx="4"/>
</svg>
