<?xml version="1.0" encoding="UTF-8"?>
<svg xmlns="http://www.w3.org/2000/svg" viewBox="0 0 480 300" width="480" height="300" role="img" aria-label="electricity">

    <defs>
      <linearGradient id="sky" x1="0" y1="0" x2="0" y2="1">
        <stop offset="0%" stop-color="#2a3040"/>
        <stop offset="55%" stop-color="#3a4858"/>
        <stop offset="100%" stop-color="#1a2030"/>
      </linearGradient>
      <radialGradient id="glow" cx="70%" cy="22%" r="45%">
        <stop offset="0%" stop-color="#fff6d8" stop-opacity="0.45"/>
        <stop offset="100%" stop-color="#fff6d8" stop-opacity="0"/>
      </radialGradient>
      <linearGradient id="ground" x1="0" y1="0" x2="0" y2="1">
        <stop offset="0%" stop-color="#2a3340" stop-opacity="0"/>
        <stop offset="100%" stop-color="#121820" stop-opacity="0.55"/>
      </linearGradient>
    </defs>
    <rect width="480" height="300" fill="url(#sky)"/>
    <rect width="480" height="300" fill="url(#glow)"/>
  

    <g fill="#3a4558">
      <rect x="180" y="120" width="120" height="100" rx="4"/>
      <rect x="200" y="100" width="20" height="30"/><rect x="260" y="95" width="20" height="35"/>
      <circle cx="210" cy="90" r="12" fill="#4a5568"/><circle cx="270" cy="85" r="14" fill="#4a5568"/>
    </g>
    <g fill="#e8c84a" opacity="0.9">
      <path d="M240 70 L225 110 L245 110 L230 150 L270 100 L248 100 L265 70 Z"/>
    </g>
    <g stroke="#e8c84a" stroke-width="3" opacity="0.5" fill="none">
      <path d="M100 160 L180 140"/><path d="M380 155 L300 135"/>
    </g>
<rect width="480" height="300" fill="url(#ground)"/>
  <rect width="480" height="300" fill="none" stroke="#1a1520" stroke-width="28" stroke-opacity="0.18"/>
<g id="grain-electricity" opacity="0.85"><circle cx="208.8" cy="275.0" r="1.71" fill="#1a1520" opacity="0.111"/><circle cx="147.3" cy="259.9" r="0.51" fill="#1a1520" opacity="0.041"/><circle cx="203.7" cy="9.7" r="0.61" fill="#1a1520" opacity="0.133"/><circle cx="456.1" cy="97.5" r="1.15" fill="#1a1520" opacity="0.114"/><circle cx="201.9" cy="139.1" r="1.32" fill="#1a1520" opacity="0.103"/><circle cx="434.7" cy="154.6" r="1.77" fill="#1a1520" opacity="0.121"/><circle cx="351.5" cy="189.3" r="1.80" fill="#1a1520" opacity="0.062"/><circle cx="368.7" cy="94.8" r="1.22" fill="#1a1520" opacity="0.054"/><circle cx="288.6" cy="175.4" r="1.27" fill="#1a1520" opacity="0.048"/><circle cx="78.5" cy="154.7" r="0.72" fill="#1a1520" opacity="0.052"/><circle cx="116.6" cy="279.4" r="1.24" fill="#1a1520" opacity="0.049"/><circle cx="218.0" cy="216.2" r="0.91" fill="#1a1520" opacity="0.049"/><circle cx="256.1" cy="96.7" r="0.92" fill="#1a1520" opacity="0.117"/><circle cx="386.2" cy="283.8" r="0.97" fill="#1a1520" opacity="0.120"/><circle cx="268.4" cy="19.5" r="1.36" fill="#1a1520" opacity="0.050"/><circle cx="277.9" cy="9.6" r="1.13" fill="#1a1520" opacity="0.121"/><circle cx="9.5" cy="32.6" r="0.53" fill="#1a1520" opacity="0.068"/><circle cx="7.3" cy="167.8" r="0.93" fill="#1a1520" opacity="0.110"/><circle cx="465.5" cy="85.8" r="1.79" fill="#1a1520" opacity="0.140"/><circle cx="177.9" cy="126.7" r="1.04" fill="#1a1520" opacity="0.065"/><circle cx="299.0" cy="83.2" r="0.84" fill="#1a1520" opacity="0.084"/><circle cx="5.2" cy="154.1" r="0.50" fill="#1a1520" opacity="0.049"/><circle cx="211.2" cy="233.7" r="1.35" fill="#1a1520" opacity="0.100"/><circle cx="24.1" cy="133.6" r="0.50" fill="#1a1520" opacity="0.073"/><circle cx="201.1" cy="299.1" r="0.59" fill="#1a1520" opacity="0.058"/><circle cx="37.7" cy="283.7" r="0.97" fill="#1a1520" opacity="0.062"/><circle cx="154.5" cy="69.1" r="1.52" fill="#1a1520" opacity="0.043"/><circle cx="297.0" cy="232.2" r="1.64" fill="#1a1520" opacity="0.083"/><circle cx="477.5" cy="182.8" r="0.69" fill="#1a1520" opacity="0.111"/><circle cx="417.5" cy="26.0" r="1.24" fill="#1a1520" opacity="0.096"/><circle cx="137.6" cy="177.8" r="0.90" fill="#1a1520" opacity="0.081"/><circle cx="153.5" cy="216.5" r="1.70" fill="#1a1520" opacity="0.068"/><circle cx="460.3" cy="43.6" r="0.88" fill="#1a1520" opacity="0.052"/><circle cx="154.0" cy="111.3" r="1.10" fill="#1a1520" opacity="0.065"/><circle cx="31.2" cy="73.1" r="0.86" fill="#1a1520" opacity="0.136"/><circle cx="117.4" cy="177.1" r="1.10" fill="#1a1520" opacity="0.044"/><circle cx="280.3" cy="149.4" r="0.58" fill="#1a1520" opacity="0.043"/><circle cx="288.3" cy="5.6" r="0.97" fill="#1a1520" opacity="0.102"/><circle cx="177.1" cy="230.9" r="0.93" fill="#1a1520" opacity="0.070"/><circle cx="227.3" cy="114.6" r="1.65" fill="#1a1520" opacity="0.095"/><circle cx="135.1" cy="220.4" r="1.54" fill="#1a1520" opacity="0.072"/><circle cx="127.3" cy="100.7" r="1.23" fill="#1a1520" opacity="0.064"/><circle cx="181.4" cy="53.0" r="0.61" fill="#1a1520" opacity="0.108"/><circle cx="106.0" cy="97.6" r="1.13" fill="#1a1520" opacity="0.121"/><circle cx="366.5" cy="294.1" r="0.78" fill="#1a1520" opacity="0.110"/><circle cx="117.0" cy="120.1" r="0.52" fill="#1a1520" opacity="0.057"/><circle cx="193.0" cy="232.3" r="1.01" fill="#1a1520" opacity="0.056"/><circle cx="408.5" cy="62.7" r="1.61" fill="#1a1520" opacity="0.101"/><circle cx="476.9" cy="264.0" r="0.87" fill="#1a1520" opacity="0.134"/><circle cx="142.4" cy="128.1" r="1.17" fill="#1a1520" opacity="0.126"/><circle cx="367.1" cy="72.7" r="1.15" fill="#1a1520" opacity="0.138"/><circle cx="149.3" cy="25.9" r="0.58" fill="#1a1520" opacity="0.090"/><circle cx="204.9" cy="90.7" r="0.51" fill="#1a1520" opacity="0.088"/><circle cx="270.6" cy="255.1" r="1.44" fill="#1a1520" opacity="0.107"/><circle cx="299.2" cy="10.0" r="1.65" fill="#1a1520" opacity="0.096"/><circle cx="174.3" cy="14.1" r="1.49" fill="#1a1520" opacity="0.122"/><circle cx="90.7" cy="276.0" r="1.27" fill="#1a1520" opacity="0.055"/><circle cx="336.6" cy="198.9" r="1.66" fill="#1a1520" opacity="0.074"/><circle cx="328.2" cy="124.6" r="1.04" fill="#1a1520" opacity="0.134"/><circle cx="347.5" cy="214.9" r="0.88" fill="#1a1520" opacity="0.135"/><circle cx="434.7" cy="233.0" r="1.08" fill="#1a1520" opacity="0.079"/><circle cx="56.9" cy="86.1" r="1.05" fill="#1a1520" opacity="0.047"/><circle cx="155.1" cy="295.2" r="0.65" fill="#1a1520" opacity="0.062"/><circle cx="421.3" cy="242.3" r="0.74" fill="#1a1520" opacity="0.114"/><circle cx="377.5" cy="265.5" r="0.84" fill="#1a1520" opacity="0.105"/><circle cx="103.5" cy="201.3" r="1.01" fill="#1a1520" opacity="0.131"/><circle cx="72.2" cy="238.6" r="0.51" fill="#1a1520" opacity="0.110"/><circle cx="367.6" cy="200.0" r="1.71" fill="#1a1520" opacity="0.121"/><circle cx="237.0" cy="147.2" r="0.78" fill="#1a1520" opacity="0.129"/><circle cx="457.8" cy="210.8" r="0.62" fill="#1a1520" opacity="0.115"/><circle cx="461.7" cy="222.1" r="0.67" fill="#1a1520" opacity="0.106"/><circle cx="133.2" cy="138.5" r="1.33" fill="#1a1520" opacity="0.106"/><circle cx="465.3" cy="225.2" r="1.57" fill="#1a1520" opacity="0.119"/><circle cx="237.0" cy="154.8" r="1.39" fill="#1a1520" opacity="0.108"/><circle cx="133.6" cy="83.5" r="1.51" fill="#1a1520" opacity="0.106"/><circle cx="307.7" cy="228.2" r="0.81" fill="#1a1520" opacity="0.091"/><circle cx="182.8" cy="162.0" r="0.67" fill="#1a1520" opacity="0.110"/><circle cx="226.8" cy="56.1" r="0.46" fill="#1a1520" opacity="0.044"/><circle cx="138.9" cy="87.9" r="1.39" fill="#1a1520" opacity="0.097"/><circle cx="446.3" cy="10.4" r="0.96" fill="#1a1520" opacity="0.066"/><circle cx="448.9" cy="143.2" r="0.99" fill="#1a1520" opacity="0.101"/><circle cx="58.5" cy="234.1" r="1.18" fill="#1a1520" opacity="0.076"/><circle cx="259.5" cy="62.0" r="0.47" fill="#1a1520" opacity="0.075"/><circle cx="112.8" cy="60.3" r="0.66" fill="#1a1520" opacity="0.119"/><circle cx="351.8" cy="45.3" r="0.44" fill="#1a1520" opacity="0.126"/><circle cx="297.7" cy="83.4" r="1.15" fill="#1a1520" opacity="0.090"/><circle cx="155.9" cy="279.1" r="0.44" fill="#1a1520" opacity="0.100"/><circle cx="359.5" cy="151.5" r="0.89" fill="#1a1520" opacity="0.108"/><circle cx="179.7" cy="248.3" r="1.65" fill="#1a1520" opacity="0.075"/><circle cx="249.4" cy="257.4" r="1.31" fill="#1a1520" opacity="0.048"/><circle cx="472.4" cy="134.4" r="0.45" fill="#fff8e7" opacity="0.110"/><circle cx="410.2" cy="192.4" r="1.20" fill="#fff8e7" opacity="0.043"/><circle cx="18.0" cy="154.9" r="0.48" fill="#fff8e7" opacity="0.043"/><circle cx="454.7" cy="203.2" r="0.94" fill="#fff8e7" opacity="0.106"/><circle cx="401.1" cy="109.0" r="0.84" fill="#fff8e7" opacity="0.057"/><circle cx="281.0" cy="174.8" r="0.39" fill="#fff8e7" opacity="0.046"/><circle cx="42.7" cy="189.6" r="1.17" fill="#fff8e7" opacity="0.043"/><circle cx="222.1" cy="150.7" r="0.35" fill="#fff8e7" opacity="0.039"/><circle cx="45.2" cy="231.1" r="0.30" fill="#fff8e7" opacity="0.060"/><circle cx="18.8" cy="193.7" r="0.96" fill="#fff8e7" opacity="0.085"/><circle cx="120.1" cy="123.9" r="1.03" fill="#fff8e7" opacity="0.106"/><circle cx="102.2" cy="213.2" r="0.86" fill="#fff8e7" opacity="0.053"/><circle cx="195.1" cy="14.6" r="0.78" fill="#fff8e7" opacity="0.039"/><circle cx="85.6" cy="115.3" r="0.77" fill="#fff8e7" opacity="0.033"/><circle cx="333.7" cy="46.0" r="1.11" fill="#fff8e7" opacity="0.095"/><circle cx="58.6" cy="68.3" r="1.03" fill="#fff8e7" opacity="0.080"/><circle cx="139.6" cy="185.2" r="1.17" fill="#fff8e7" opacity="0.071"/><circle cx="145.6" cy="177.5" r="0.31" fill="#fff8e7" opacity="0.054"/><circle cx="69.9" cy="31.3" r="0.92" fill="#fff8e7" opacity="0.069"/><circle cx="107.3" cy="96.9" r="0.75" fill="#fff8e7" opacity="0.108"/><circle cx="38.9" cy="212.1" r="0.46" fill="#fff8e7" opacity="0.098"/><circle cx="48.2" cy="20.7" r="0.74" fill="#fff8e7" opacity="0.079"/><circle cx="284.8" cy="49.4" r="0.33" fill="#fff8e7" opacity="0.078"/><circle cx="78.4" cy="268.6" r="0.75" fill="#fff8e7" opacity="0.082"/><circle cx="174.2" cy="263.1" r="0.32" fill="#fff8e7" opacity="0.061"/><circle cx="324.0" cy="230.3" r="0.62" fill="#fff8e7" opacity="0.110"/><circle cx="471.2" cy="225.4" r="1.16" fill="#fff8e7" opacity="0.046"/><circle cx="340.9" cy="210.2" r="0.62" fill="#fff8e7" opacity="0.069"/><circle cx="425.9" cy="56.6" r="1.16" fill="#fff8e7" opacity="0.074"/><circle cx="233.5" cy="252.0" r="0.95" fill="#fff8e7" opacity="0.108"/><circle cx="27.0" cy="185.5" r="1.19" fill="#fff8e7" opacity="0.066"/><circle cx="247.1" cy="228.3" r="0.78" fill="#fff8e7" opacity="0.045"/><circle cx="117.8" cy="218.5" r="1.01" fill="#fff8e7" opacity="0.038"/><circle cx="175.5" cy="108.7" r="0.48" fill="#fff8e7" opacity="0.076"/><circle cx="202.6" cy="102.7" r="1.15" fill="#fff8e7" opacity="0.091"/><circle cx="479.3" cy="174.0" r="0.86" fill="#fff8e7" opacity="0.031"/><circle cx="305.1" cy="32.7" r="0.73" fill="#fff8e7" opacity="0.084"/><circle cx="253.6" cy="281.0" r="0.61" fill="#fff8e7" opacity="0.044"/><circle cx="388.1" cy="24.0" r="0.51" fill="#fff8e7" opacity="0.036"/><circle cx="200.9" cy="81.2" r="0.60" fill="#fff8e7" opacity="0.104"/></g>
<rect x="8" y="8" width="464" height="284" fill="none" stroke="#f5efe0" stroke-opacity="0.22" stroke-width="2" rx="4"/>
</svg>
