<?xml version="1.0" encoding="UTF-8"?>
<svg xmlns="http://www.w3.org/2000/svg" viewBox="0 0 480 300" width="480" height="300" role="img" aria-label="goa">

    <defs>
      <linearGradient id="sky" x1="0" y1="0" x2="0" y2="1">
        <stop offset="0%" stop-color="#87ceeb"/>
        <stop offset="55%" stop-color="#5ab0d8"/>
        <stop offset="100%" stop-color="#f0c878"/>
      </linearGradient>
      <radialGradient id="glow" cx="70%" cy="22%" r="45%">
        <stop offset="0%" stop-color="#fff6d8" stop-opacity="0.45"/>
        <stop offset="100%" stop-color="#fff6d8" stop-opacity="0"/>
      </radialGradient>
      <linearGradient id="ground" x1="0" y1="0" x2="0" y2="1">
        <stop offset="0%" stop-color="#2a3340" stop-opacity="0"/>
        <stop offset="100%" stop-color="#121820" stop-opacity="0.55"/>
      </linearGradient>
    </defs>
    <rect width="480" height="300" fill="url(#sky)"/>
    <rect width="480" height="300" fill="url(#glow)"/>
  
<g opacity="0.28" fill="#f7f3ea">
    <ellipse cx="72.8198576439172" cy="54.39038172829896" rx="35.767521428689356" ry="15.328937755152582"/>
    <ellipse cx="95.81326427664608" cy="49.280735809914766" rx="25.548229591920972" ry="12.774114795960486"/>
    <ellipse cx="52.38127397038043" cy="56.94520468749106" rx="20.438583673536776" ry="10.219291836768388"/>
  </g>
<g opacity="0.22" fill="#f7f3ea">
    <ellipse cx="310.60793820768595" cy="43.04129937198013" rx="33.858929828740656" ry="14.510969926603138"/>
    <ellipse cx="332.37439309759066" cy="38.20430939644575" rx="24.184949877671897" ry="12.092474938835949"/>
    <ellipse cx="291.25997830554843" cy="45.45979435974732" rx="19.347959902137518" ry="9.673979951068759"/>
  </g>

    <defs>
      <linearGradient id="water" x1="0" y1="0" x2="0" y2="1">
        <stop offset="0%" stop-color="#1a4a6e"/>
        <stop offset="100%" stop-color="#0e2a42"/>
      </linearGradient>
    </defs>
    <path d="M0 230 Q120 220 240 234 T480 228 L480 300 L0 300 Z" fill="url(#water)"/>
    <path d="M0 244 Q160 234 320 248 T480 240" fill="none" stroke="#7ec8e8" stroke-opacity="0.25" stroke-width="2"/>
    <path d="M40 258 Q200 248 360 262" fill="none" stroke="#fff" stroke-opacity="0.12" stroke-width="1.5"/>
  

    <g transform="translate(70,155)">
      <path d="M8 90 L12 20" stroke="#5a3a22" stroke-width="5" stroke-linecap="round"/>
      <path d="M12 28 C-20 10,-10 -5,18 20 C40 0,50 18,16 30" fill="#2f7a45"/>
      <path d="M12 32 C0 5,30 -8,28 28" fill="#3a9152"/>
    </g>
    <g transform="translate(120,165)">
      <path d="M6 80 L10 18" stroke="#5a3a22" stroke-width="4" stroke-linecap="round"/>
      <path d="M10 24 C-12 8,0 -4,16 18 C32 2,38 20,14 28" fill="#2f7a45"/>
    </g>
    <ellipse cx="200" cy="255" rx="180" ry="28" fill="#d4b56a" opacity="0.55"/>
    <ellipse cx="320" cy="250" rx="120" ry="20" fill="#c9a85a" opacity="0.4"/>
<rect width="480" height="300" fill="url(#ground)"/>
  <rect width="480" height="300" fill="none" stroke="#1a1520" stroke-width="28" stroke-opacity="0.18"/>
<g id="grain-goa" opacity="0.85"><circle cx="153.8" cy="215.9" r="1.72" fill="#1a1520" opacity="0.078"/><circle cx="250.4" cy="125.5" r="0.73" fill="#1a1520" opacity="0.104"/><circle cx="341.5" cy="230.6" r="1.54" fill="#1a1520" opacity="0.065"/><circle cx="75.1" cy="177.1" r="0.57" fill="#1a1520" opacity="0.117"/><circle cx="341.4" cy="162.7" r="0.40" fill="#1a1520" opacity="0.073"/><circle cx="214.6" cy="84.9" r="0.87" fill="#1a1520" opacity="0.107"/><circle cx="34.3" cy="49.1" r="1.13" fill="#1a1520" opacity="0.104"/><circle cx="325.4" cy="7.6" r="1.54" fill="#1a1520" opacity="0.043"/><circle cx="139.4" cy="203.3" r="0.50" fill="#1a1520" opacity="0.134"/><circle cx="189.1" cy="269.3" r="0.43" fill="#1a1520" opacity="0.117"/><circle cx="4.5" cy="209.0" r="1.44" fill="#1a1520" opacity="0.058"/><circle cx="458.9" cy="45.4" r="1.17" fill="#1a1520" opacity="0.102"/><circle cx="295.5" cy="263.8" r="1.55" fill="#1a1520" opacity="0.050"/><circle cx="256.7" cy="131.0" r="1.73" fill="#1a1520" opacity="0.127"/><circle cx="16.1" cy="66.5" r="0.81" fill="#1a1520" opacity="0.072"/><circle cx="353.4" cy="59.7" r="1.57" fill="#1a1520" opacity="0.093"/><circle cx="383.2" cy="290.6" r="0.61" fill="#1a1520" opacity="0.056"/><circle cx="364.2" cy="228.2" r="1.38" fill="#1a1520" opacity="0.135"/><circle cx="215.7" cy="149.3" r="1.06" fill="#1a1520" opacity="0.047"/><circle cx="24.2" cy="256.3" r="0.80" fill="#1a1520" opacity="0.064"/><circle cx="159.0" cy="165.6" r="0.77" fill="#1a1520" opacity="0.057"/><circle cx="413.4" cy="30.8" r="1.01" fill="#1a1520" opacity="0.133"/><circle cx="109.4" cy="173.5" r="1.72" fill="#1a1520" opacity="0.138"/><circle cx="182.5" cy="161.8" r="0.71" fill="#1a1520" opacity="0.109"/><circle cx="450.4" cy="89.8" r="1.13" fill="#1a1520" opacity="0.100"/><circle cx="349.7" cy="291.7" r="1.01" fill="#1a1520" opacity="0.064"/><circle cx="150.9" cy="117.7" r="1.79" fill="#1a1520" opacity="0.137"/><circle cx="130.5" cy="225.9" r="0.40" fill="#1a1520" opacity="0.120"/><circle cx="434.2" cy="115.3" r="0.85" fill="#1a1520" opacity="0.095"/><circle cx="186.8" cy="225.4" r="0.55" fill="#1a1520" opacity="0.102"/><circle cx="342.0" cy="128.8" r="0.74" fill="#1a1520" opacity="0.083"/><circle cx="223.5" cy="151.1" r="1.53" fill="#1a1520" opacity="0.059"/><circle cx="416.4" cy="210.7" r="1.39" fill="#1a1520" opacity="0.083"/><circle cx="272.2" cy="221.8" r="0.46" fill="#1a1520" opacity="0.057"/><circle cx="377.6" cy="46.1" r="1.27" fill="#1a1520" opacity="0.108"/><circle cx="342.9" cy="243.1" r="0.43" fill="#1a1520" opacity="0.050"/><circle cx="60.6" cy="142.6" r="1.70" fill="#1a1520" opacity="0.120"/><circle cx="1.8" cy="255.5" r="1.17" fill="#1a1520" opacity="0.077"/><circle cx="13.4" cy="90.3" r="0.67" fill="#1a1520" opacity="0.093"/><circle cx="302.2" cy="181.8" r="0.69" fill="#1a1520" opacity="0.066"/><circle cx="308.3" cy="216.9" r="1.70" fill="#1a1520" opacity="0.088"/><circle cx="464.9" cy="32.0" r="1.11" fill="#1a1520" opacity="0.107"/><circle cx="16.5" cy="173.8" r="0.58" fill="#1a1520" opacity="0.080"/><circle cx="371.8" cy="268.2" r="0.67" fill="#1a1520" opacity="0.102"/><circle cx="343.1" cy="273.8" r="1.72" fill="#1a1520" opacity="0.104"/><circle cx="99.9" cy="181.9" r="1.53" fill="#1a1520" opacity="0.060"/><circle cx="240.4" cy="12.5" r="1.20" fill="#1a1520" opacity="0.123"/><circle cx="220.0" cy="62.3" r="0.82" fill="#1a1520" opacity="0.100"/><circle cx="134.4" cy="162.3" r="0.99" fill="#1a1520" opacity="0.045"/><circle cx="162.4" cy="42.4" r="1.26" fill="#1a1520" opacity="0.088"/><circle cx="320.0" cy="3.2" r="0.47" fill="#1a1520" opacity="0.111"/><circle cx="390.7" cy="181.4" r="0.97" fill="#1a1520" opacity="0.047"/><circle cx="427.6" cy="114.8" r="1.72" fill="#1a1520" opacity="0.057"/><circle cx="287.7" cy="270.2" r="0.63" fill="#1a1520" opacity="0.127"/><circle cx="473.8" cy="257.0" r="0.93" fill="#1a1520" opacity="0.123"/><circle cx="130.0" cy="146.8" r="0.99" fill="#1a1520" opacity="0.076"/><circle cx="137.8" cy="214.5" r="0.54" fill="#1a1520" opacity="0.139"/><circle cx="267.7" cy="9.9" r="1.46" fill="#1a1520" opacity="0.061"/><circle cx="251.5" cy="275.5" r="0.71" fill="#1a1520" opacity="0.046"/><circle cx="356.6" cy="165.7" r="1.17" fill="#1a1520" opacity="0.041"/><circle cx="455.4" cy="19.1" r="0.99" fill="#1a1520" opacity="0.066"/><circle cx="234.3" cy="199.0" r="1.30" fill="#1a1520" opacity="0.110"/><circle cx="295.8" cy="204.2" r="1.54" fill="#1a1520" opacity="0.133"/><circle cx="316.8" cy="215.7" r="0.79" fill="#1a1520" opacity="0.087"/><circle cx="210.5" cy="134.8" r="1.17" fill="#1a1520" opacity="0.132"/><circle cx="154.0" cy="205.5" r="0.62" fill="#1a1520" opacity="0.095"/><circle cx="279.8" cy="62.9" r="0.48" fill="#1a1520" opacity="0.075"/><circle cx="157.7" cy="88.3" r="0.45" fill="#1a1520" opacity="0.120"/><circle cx="466.6" cy="6.3" r="0.53" fill="#1a1520" opacity="0.109"/><circle cx="311.5" cy="273.2" r="0.78" fill="#1a1520" opacity="0.087"/><circle cx="444.8" cy="232.3" r="0.43" fill="#1a1520" opacity="0.047"/><circle cx="4.2" cy="12.8" r="1.59" fill="#1a1520" opacity="0.092"/><circle cx="3.3" cy="223.0" r="0.42" fill="#1a1520" opacity="0.131"/><circle cx="297.1" cy="221.3" r="0.41" fill="#1a1520" opacity="0.080"/><circle cx="150.9" cy="81.3" r="1.74" fill="#1a1520" opacity="0.100"/><circle cx="351.7" cy="144.1" r="0.74" fill="#1a1520" opacity="0.118"/><circle cx="454.5" cy="240.8" r="0.41" fill="#1a1520" opacity="0.041"/><circle cx="74.5" cy="102.1" r="0.51" fill="#1a1520" opacity="0.074"/><circle cx="26.2" cy="24.9" r="1.06" fill="#1a1520" opacity="0.126"/><circle cx="435.8" cy="91.6" r="1.62" fill="#1a1520" opacity="0.135"/><circle cx="362.2" cy="274.4" r="1.61" fill="#1a1520" opacity="0.131"/><circle cx="152.5" cy="270.7" r="1.26" fill="#1a1520" opacity="0.132"/><circle cx="255.0" cy="171.3" r="1.61" fill="#1a1520" opacity="0.104"/><circle cx="368.3" cy="29.3" r="1.38" fill="#1a1520" opacity="0.082"/><circle cx="90.2" cy="218.3" r="0.61" fill="#1a1520" opacity="0.047"/><circle cx="356.9" cy="104.8" r="0.93" fill="#1a1520" opacity="0.136"/><circle cx="195.0" cy="101.3" r="1.42" fill="#1a1520" opacity="0.136"/><circle cx="13.2" cy="222.2" r="1.00" fill="#1a1520" opacity="0.128"/><circle cx="238.3" cy="218.4" r="1.23" fill="#1a1520" opacity="0.085"/><circle cx="20.6" cy="95.8" r="0.76" fill="#1a1520" opacity="0.054"/><circle cx="421.5" cy="111.4" r="0.45" fill="#fff8e7" opacity="0.034"/><circle cx="234.5" cy="59.8" r="1.06" fill="#fff8e7" opacity="0.079"/><circle cx="337.7" cy="213.7" r="0.66" fill="#fff8e7" opacity="0.063"/><circle cx="205.9" cy="263.4" r="0.69" fill="#fff8e7" opacity="0.065"/><circle cx="268.4" cy="206.6" r="0.84" fill="#fff8e7" opacity="0.053"/><circle cx="345.4" cy="277.2" r="1.11" fill="#fff8e7" opacity="0.087"/><circle cx="134.3" cy="64.2" r="0.55" fill="#fff8e7" opacity="0.057"/><circle cx="371.7" cy="125.8" r="0.85" fill="#fff8e7" opacity="0.052"/><circle cx="322.7" cy="127.7" r="0.50" fill="#fff8e7" opacity="0.063"/><circle cx="465.3" cy="0.9" r="0.48" fill="#fff8e7" opacity="0.047"/><circle cx="113.6" cy="159.5" r="0.48" fill="#fff8e7" opacity="0.039"/><circle cx="59.3" cy="163.6" r="0.68" fill="#fff8e7" opacity="0.059"/><circle cx="193.8" cy="104.2" r="0.89" fill="#fff8e7" opacity="0.058"/><circle cx="102.1" cy="115.7" r="0.91" fill="#fff8e7" opacity="0.065"/><circle cx="322.8" cy="77.0" r="0.73" fill="#fff8e7" opacity="0.082"/><circle cx="147.4" cy="232.2" r="1.13" fill="#fff8e7" opacity="0.099"/><circle cx="230.0" cy="293.9" r="0.68" fill="#fff8e7" opacity="0.068"/><circle cx="196.2" cy="181.7" r="0.89" fill="#fff8e7" opacity="0.083"/><circle cx="406.6" cy="142.5" r="0.82" fill="#fff8e7" opacity="0.081"/><circle cx="355.4" cy="175.5" r="0.32" fill="#fff8e7" opacity="0.070"/><circle cx="383.9" cy="8.3" r="0.36" fill="#fff8e7" opacity="0.034"/><circle cx="190.0" cy="202.2" r="0.69" fill="#fff8e7" opacity="0.040"/><circle cx="303.2" cy="209.0" r="0.33" fill="#fff8e7" opacity="0.070"/><circle cx="65.2" cy="25.4" r="1.09" fill="#fff8e7" opacity="0.032"/><circle cx="284.0" cy="76.2" r="1.14" fill="#fff8e7" opacity="0.073"/><circle cx="356.8" cy="239.1" r="0.60" fill="#fff8e7" opacity="0.102"/><circle cx="468.6" cy="251.0" r="0.74" fill="#fff8e7" opacity="0.104"/><circle cx="438.9" cy="220.4" r="1.19" fill="#fff8e7" opacity="0.101"/><circle cx="340.9" cy="7.0" r="1.07" fill="#fff8e7" opacity="0.064"/><circle cx="94.8" cy="48.0" r="0.55" fill="#fff8e7" opacity="0.063"/><circle cx="313.1" cy="127.5" r="0.71" fill="#fff8e7" opacity="0.080"/><circle cx="349.8" cy="133.5" r="0.33" fill="#fff8e7" opacity="0.069"/><circle cx="256.0" cy="184.1" r="0.34" fill="#fff8e7" opacity="0.042"/><circle cx="390.9" cy="127.2" r="0.54" fill="#fff8e7" opacity="0.079"/><circle cx="361.0" cy="72.1" r="0.93" fill="#fff8e7" opacity="0.064"/><circle cx="154.6" cy="211.1" r="0.44" fill="#fff8e7" opacity="0.072"/><circle cx="59.6" cy="289.6" r="0.88" fill="#fff8e7" opacity="0.056"/><circle cx="48.1" cy="77.0" r="0.58" fill="#fff8e7" opacity="0.106"/><circle cx="178.1" cy="192.7" r="0.50" fill="#fff8e7" opacity="0.094"/><circle cx="315.1" cy="160.0" r="0.94" fill="#fff8e7" opacity="0.105"/></g>
<rect x="8" y="8" width="464" height="284" fill="none" stroke="#f5efe0" stroke-opacity="0.22" stroke-width="2" rx="4"/>
</svg>
