<?xml version="1.0" encoding="UTF-8"?>
<svg xmlns="http://www.w3.org/2000/svg" viewBox="0 0 480 300" width="480" height="300" role="img" aria-label="kyoto">

    <defs>
      <linearGradient id="sky" x1="0" y1="0" x2="0" y2="1">
        <stop offset="0%" stop-color="#f0d0b0"/>
        <stop offset="55%" stop-color="#e0a878"/>
        <stop offset="100%" stop-color="#a07050"/>
      </linearGradient>
      <radialGradient id="glow" cx="70%" cy="22%" r="45%">
        <stop offset="0%" stop-color="#fff6d8" stop-opacity="0.45"/>
        <stop offset="100%" stop-color="#fff6d8" stop-opacity="0"/>
      </radialGradient>
      <linearGradient id="ground" x1="0" y1="0" x2="0" y2="1">
        <stop offset="0%" stop-color="#2a3340" stop-opacity="0"/>
        <stop offset="100%" stop-color="#121820" stop-opacity="0.55"/>
      </linearGradient>
    </defs>
    <rect width="480" height="300" fill="url(#sky)"/>
    <rect width="480" height="300" fill="url(#glow)"/>
  
<g opacity="0.28" fill="#f7f3ea">
    <ellipse cx="74.77491465397179" cy="52.2527985740453" rx="25.66789402216673" ry="11.000526009500028"/>
    <ellipse cx="91.27570366822184" cy="48.58595657087862" rx="18.334210015833378" ry="9.167105007916689"/>
    <ellipse cx="60.10754664130509" cy="54.08621957562864" rx="14.667368012666703" ry="7.3336840063333515"/>
  </g>
<g opacity="0.22" fill="#f7f3ea">
    <ellipse cx="342.5098495744169" cy="38.11060015694238" rx="33.414956397842616" ry="14.320695599075407"/>
    <ellipse cx="363.99089297303" cy="33.33703495725058" rx="23.86782599845901" ry="11.933912999229506"/>
    <ellipse cx="323.41558877564967" cy="40.497382756788284" rx="19.09426079876721" ry="9.547130399383605"/>
  </g>
<g opacity="0.18" fill="#f7f3ea">
    <ellipse cx="215.72393673472106" cy="59.628531547496095" rx="19.599999999999998" ry="8.399999999999999"/>
    <ellipse cx="228.32393673472106" cy="56.8285315474961" rx="14" ry="7"/>
    <ellipse cx="204.52393673472108" cy="61.028531547496094" rx="11.2" ry="5.6"/>
  </g>

    <g transform="translate(240,100)" fill="#8b3a2a">
      <rect x="-16" y="40" width="32" height="90" fill="#5a4030"/>
      <path d="M-60 50 L0 20 L60 50 L45 58 L0 36 L-45 58 Z"/>
      <path d="M-48 85 L0 60 L48 85 L36 92 L0 74 L-36 92 Z" fill="#a04835"/>
      <path d="M-36 118 L0 98 L36 118 L26 124 L0 110 L-26 124 Z" fill="#8b3a2a"/>
      <circle cx="0" cy="12" r="6" fill="#d4af37"/>
    </g>
    <g fill="#2f6b45" opacity="0.7">
      <ellipse cx="120" cy="220" rx="50" ry="25"/><ellipse cx="360" cy="225" rx="55" ry="28"/>
    </g>
<rect width="480" height="300" fill="url(#ground)"/>
  <rect width="480" height="300" fill="none" stroke="#1a1520" stroke-width="28" stroke-opacity="0.18"/>
<g id="grain-kyoto" opacity="0.85"><circle cx="177.3" cy="183.8" r="0.46" fill="#1a1520" opacity="0.118"/><circle cx="155.7" cy="116.0" r="1.41" fill="#1a1520" opacity="0.129"/><circle cx="148.1" cy="59.3" r="1.43" fill="#1a1520" opacity="0.056"/><circle cx="244.8" cy="73.8" r="0.96" fill="#1a1520" opacity="0.114"/><circle cx="136.9" cy="168.7" r="0.47" fill="#1a1520" opacity="0.100"/><circle cx="185.6" cy="24.9" r="0.65" fill="#1a1520" opacity="0.112"/><circle cx="68.2" cy="174.8" r="0.50" fill="#1a1520" opacity="0.129"/><circle cx="96.3" cy="69.9" r="1.26" fill="#1a1520" opacity="0.055"/><circle cx="29.7" cy="242.8" r="0.55" fill="#1a1520" opacity="0.090"/><circle cx="283.8" cy="286.9" r="0.43" fill="#1a1520" opacity="0.052"/><circle cx="133.9" cy="195.0" r="1.64" fill="#1a1520" opacity="0.044"/><circle cx="233.4" cy="118.0" r="1.16" fill="#1a1520" opacity="0.120"/><circle cx="37.4" cy="117.2" r="1.43" fill="#1a1520" opacity="0.112"/><circle cx="50.8" cy="61.3" r="0.51" fill="#1a1520" opacity="0.093"/><circle cx="267.0" cy="214.1" r="1.20" fill="#1a1520" opacity="0.058"/><circle cx="183.8" cy="240.3" r="0.73" fill="#1a1520" opacity="0.084"/><circle cx="135.4" cy="31.5" r="1.14" fill="#1a1520" opacity="0.057"/><circle cx="385.8" cy="104.2" r="0.50" fill="#1a1520" opacity="0.064"/><circle cx="290.9" cy="148.7" r="0.84" fill="#1a1520" opacity="0.127"/><circle cx="102.5" cy="227.0" r="1.57" fill="#1a1520" opacity="0.105"/><circle cx="408.2" cy="184.2" r="1.68" fill="#1a1520" opacity="0.083"/><circle cx="31.0" cy="80.5" r="0.64" fill="#1a1520" opacity="0.046"/><circle cx="6.7" cy="213.1" r="1.20" fill="#1a1520" opacity="0.067"/><circle cx="223.0" cy="48.0" r="1.47" fill="#1a1520" opacity="0.077"/><circle cx="381.8" cy="268.1" r="1.29" fill="#1a1520" opacity="0.139"/><circle cx="166.4" cy="114.0" r="0.62" fill="#1a1520" opacity="0.119"/><circle cx="177.4" cy="230.9" r="1.50" fill="#1a1520" opacity="0.049"/><circle cx="307.6" cy="255.1" r="1.69" fill="#1a1520" opacity="0.073"/><circle cx="237.4" cy="243.2" r="1.48" fill="#1a1520" opacity="0.061"/><circle cx="196.5" cy="35.1" r="1.40" fill="#1a1520" opacity="0.061"/><circle cx="186.3" cy="145.6" r="0.54" fill="#1a1520" opacity="0.124"/><circle cx="476.2" cy="209.7" r="0.59" fill="#1a1520" opacity="0.105"/><circle cx="330.7" cy="83.4" r="0.84" fill="#1a1520" opacity="0.083"/><circle cx="101.4" cy="85.6" r="1.29" fill="#1a1520" opacity="0.124"/><circle cx="166.7" cy="61.6" r="0.81" fill="#1a1520" opacity="0.131"/><circle cx="51.0" cy="192.8" r="0.95" fill="#1a1520" opacity="0.055"/><circle cx="334.3" cy="112.6" r="0.50" fill="#1a1520" opacity="0.062"/><circle cx="437.6" cy="22.3" r="0.43" fill="#1a1520" opacity="0.101"/><circle cx="99.6" cy="264.9" r="0.64" fill="#1a1520" opacity="0.044"/><circle cx="261.5" cy="247.2" r="0.52" fill="#1a1520" opacity="0.092"/><circle cx="219.1" cy="285.4" r="1.60" fill="#1a1520" opacity="0.133"/><circle cx="331.7" cy="140.3" r="0.93" fill="#1a1520" opacity="0.098"/><circle cx="333.8" cy="111.8" r="0.66" fill="#1a1520" opacity="0.123"/><circle cx="414.2" cy="293.2" r="1.20" fill="#1a1520" opacity="0.112"/><circle cx="83.6" cy="98.8" r="1.15" fill="#1a1520" opacity="0.051"/><circle cx="10.9" cy="25.8" r="1.63" fill="#1a1520" opacity="0.051"/><circle cx="193.8" cy="73.4" r="0.53" fill="#1a1520" opacity="0.060"/><circle cx="351.9" cy="129.5" r="0.88" fill="#1a1520" opacity="0.085"/><circle cx="262.6" cy="95.1" r="1.30" fill="#1a1520" opacity="0.123"/><circle cx="148.4" cy="219.6" r="0.94" fill="#1a1520" opacity="0.080"/><circle cx="287.1" cy="251.7" r="1.15" fill="#1a1520" opacity="0.043"/><circle cx="387.4" cy="207.5" r="1.75" fill="#1a1520" opacity="0.054"/><circle cx="442.6" cy="63.5" r="1.52" fill="#1a1520" opacity="0.140"/><circle cx="432.1" cy="299.2" r="1.06" fill="#1a1520" opacity="0.104"/><circle cx="197.6" cy="157.6" r="1.62" fill="#1a1520" opacity="0.067"/><circle cx="397.5" cy="250.7" r="1.10" fill="#1a1520" opacity="0.092"/><circle cx="324.0" cy="69.6" r="1.22" fill="#1a1520" opacity="0.111"/><circle cx="211.3" cy="148.2" r="1.57" fill="#1a1520" opacity="0.134"/><circle cx="374.3" cy="43.6" r="1.33" fill="#1a1520" opacity="0.045"/><circle cx="61.8" cy="262.6" r="1.62" fill="#1a1520" opacity="0.057"/><circle cx="431.4" cy="36.6" r="0.56" fill="#1a1520" opacity="0.124"/><circle cx="400.2" cy="137.1" r="0.90" fill="#1a1520" opacity="0.100"/><circle cx="334.4" cy="255.5" r="1.66" fill="#1a1520" opacity="0.083"/><circle cx="81.3" cy="277.5" r="1.52" fill="#1a1520" opacity="0.080"/><circle cx="308.7" cy="126.0" r="1.06" fill="#1a1520" opacity="0.059"/><circle cx="279.2" cy="270.9" r="0.84" fill="#1a1520" opacity="0.104"/><circle cx="19.9" cy="3.9" r="1.78" fill="#1a1520" opacity="0.067"/><circle cx="286.7" cy="240.9" r="0.65" fill="#1a1520" opacity="0.134"/><circle cx="320.7" cy="256.9" r="1.14" fill="#1a1520" opacity="0.056"/><circle cx="444.9" cy="127.9" r="0.85" fill="#1a1520" opacity="0.115"/><circle cx="284.0" cy="118.8" r="0.51" fill="#1a1520" opacity="0.077"/><circle cx="474.2" cy="258.6" r="1.15" fill="#1a1520" opacity="0.122"/><circle cx="303.4" cy="189.4" r="1.56" fill="#1a1520" opacity="0.121"/><circle cx="14.9" cy="23.9" r="0.48" fill="#1a1520" opacity="0.133"/><circle cx="415.7" cy="43.7" r="1.09" fill="#1a1520" opacity="0.071"/><circle cx="451.9" cy="134.7" r="1.61" fill="#1a1520" opacity="0.120"/><circle cx="285.3" cy="227.5" r="1.55" fill="#1a1520" opacity="0.097"/><circle cx="110.5" cy="272.7" r="1.41" fill="#1a1520" opacity="0.117"/><circle cx="200.3" cy="288.2" r="1.17" fill="#1a1520" opacity="0.042"/><circle cx="188.0" cy="196.9" r="0.67" fill="#1a1520" opacity="0.083"/><circle cx="98.3" cy="98.8" r="1.25" fill="#1a1520" opacity="0.052"/><circle cx="319.5" cy="98.6" r="0.67" fill="#1a1520" opacity="0.051"/><circle cx="406.5" cy="147.4" r="1.17" fill="#1a1520" opacity="0.053"/><circle cx="129.6" cy="169.7" r="0.81" fill="#1a1520" opacity="0.112"/><circle cx="247.9" cy="221.9" r="0.69" fill="#1a1520" opacity="0.133"/><circle cx="351.4" cy="243.1" r="1.54" fill="#1a1520" opacity="0.097"/><circle cx="167.8" cy="254.5" r="1.79" fill="#1a1520" opacity="0.072"/><circle cx="368.1" cy="32.5" r="0.67" fill="#1a1520" opacity="0.103"/><circle cx="61.5" cy="148.7" r="1.12" fill="#1a1520" opacity="0.086"/><circle cx="257.7" cy="159.3" r="1.61" fill="#1a1520" opacity="0.125"/><circle cx="194.3" cy="214.3" r="0.46" fill="#fff8e7" opacity="0.042"/><circle cx="299.5" cy="114.0" r="1.17" fill="#fff8e7" opacity="0.032"/><circle cx="145.3" cy="263.2" r="0.61" fill="#fff8e7" opacity="0.103"/><circle cx="281.1" cy="181.3" r="0.56" fill="#fff8e7" opacity="0.101"/><circle cx="113.8" cy="248.5" r="0.58" fill="#fff8e7" opacity="0.030"/><circle cx="453.7" cy="70.7" r="0.92" fill="#fff8e7" opacity="0.065"/><circle cx="354.7" cy="200.1" r="0.81" fill="#fff8e7" opacity="0.085"/><circle cx="30.5" cy="15.1" r="1.08" fill="#fff8e7" opacity="0.042"/><circle cx="414.4" cy="208.0" r="0.94" fill="#fff8e7" opacity="0.034"/><circle cx="227.7" cy="195.3" r="0.97" fill="#fff8e7" opacity="0.044"/><circle cx="239.0" cy="78.8" r="0.95" fill="#fff8e7" opacity="0.068"/><circle cx="479.0" cy="1.8" r="0.85" fill="#fff8e7" opacity="0.068"/><circle cx="56.9" cy="164.2" r="0.55" fill="#fff8e7" opacity="0.079"/><circle cx="333.6" cy="197.6" r="1.04" fill="#fff8e7" opacity="0.051"/><circle cx="391.0" cy="256.4" r="0.52" fill="#fff8e7" opacity="0.084"/><circle cx="374.9" cy="244.6" r="0.76" fill="#fff8e7" opacity="0.106"/><circle cx="411.3" cy="160.6" r="1.03" fill="#fff8e7" opacity="0.093"/><circle cx="15.3" cy="221.1" r="1.01" fill="#fff8e7" opacity="0.094"/><circle cx="298.6" cy="99.5" r="0.32" fill="#fff8e7" opacity="0.101"/><circle cx="317.6" cy="282.2" r="0.46" fill="#fff8e7" opacity="0.076"/><circle cx="377.3" cy="189.6" r="0.95" fill="#fff8e7" opacity="0.107"/><circle cx="64.0" cy="137.4" r="0.50" fill="#fff8e7" opacity="0.103"/><circle cx="166.9" cy="28.0" r="1.04" fill="#fff8e7" opacity="0.109"/><circle cx="292.7" cy="36.1" r="0.56" fill="#fff8e7" opacity="0.073"/><circle cx="280.7" cy="65.1" r="1.14" fill="#fff8e7" opacity="0.079"/><circle cx="15.5" cy="243.7" r="0.43" fill="#fff8e7" opacity="0.042"/><circle cx="218.9" cy="39.9" r="1.18" fill="#fff8e7" opacity="0.090"/><circle cx="56.0" cy="201.2" r="1.17" fill="#fff8e7" opacity="0.109"/><circle cx="280.2" cy="122.0" r="0.47" fill="#fff8e7" opacity="0.100"/><circle cx="84.7" cy="16.7" r="1.08" fill="#fff8e7" opacity="0.094"/><circle cx="131.7" cy="266.4" r="1.00" fill="#fff8e7" opacity="0.035"/><circle cx="12.2" cy="179.4" r="0.32" fill="#fff8e7" opacity="0.068"/><circle cx="279.9" cy="221.4" r="1.11" fill="#fff8e7" opacity="0.034"/><circle cx="62.3" cy="238.8" r="0.89" fill="#fff8e7" opacity="0.055"/><circle cx="328.6" cy="191.4" r="1.07" fill="#fff8e7" opacity="0.044"/><circle cx="462.2" cy="228.0" r="0.44" fill="#fff8e7" opacity="0.065"/><circle cx="317.9" cy="24.2" r="0.68" fill="#fff8e7" opacity="0.045"/><circle cx="355.8" cy="211.7" r="0.79" fill="#fff8e7" opacity="0.054"/><circle cx="16.6" cy="45.6" r="0.37" fill="#fff8e7" opacity="0.052"/><circle cx="211.1" cy="130.8" r="0.49" fill="#fff8e7" opacity="0.068"/></g>
<rect x="8" y="8" width="464" height="284" fill="none" stroke="#f5efe0" stroke-opacity="0.22" stroke-width="2" rx="4"/>
</svg>
