<?xml version="1.0" encoding="UTF-8"?>
<svg xmlns="http://www.w3.org/2000/svg" viewBox="0 0 480 300" width="480" height="300" role="img" aria-label="leon">

    <defs>
      <linearGradient id="sky" x1="0" y1="0" x2="0" y2="1">
        <stop offset="0%" stop-color="#d0e0c8"/>
        <stop offset="55%" stop-color="#90b080"/>
        <stop offset="100%" stop-color="#507050"/>
      </linearGradient>
      <radialGradient id="glow" cx="70%" cy="22%" r="45%">
        <stop offset="0%" stop-color="#fff6d8" stop-opacity="0.45"/>
        <stop offset="100%" stop-color="#fff6d8" stop-opacity="0"/>
      </radialGradient>
      <linearGradient id="ground" x1="0" y1="0" x2="0" y2="1">
        <stop offset="0%" stop-color="#2a3340" stop-opacity="0"/>
        <stop offset="100%" stop-color="#121820" stop-opacity="0.55"/>
      </linearGradient>
    </defs>
    <rect width="480" height="300" fill="url(#sky)"/>
    <rect width="480" height="300" fill="url(#glow)"/>
  
<g opacity="0.28" fill="#f7f3ea">
    <ellipse cx="77.2599686961621" cy="45.23959204554558" rx="27.46132133454085" ry="11.76913771480322"/>
    <ellipse cx="94.91367526836693" cy="41.31654614061117" rx="19.61522952467203" ry="9.807614762336016"/>
    <ellipse cx="61.56778507642448" cy="47.201114998012784" rx="15.692183619737627" ry="7.846091809868813"/>
  </g>
<g opacity="0.22" fill="#f7f3ea">
    <ellipse cx="294.2636482231319" cy="42.028190155979246" rx="41.097412625327706" ry="17.61317683942616"/>
    <ellipse cx="320.68341348227113" cy="36.15713120950386" rx="29.355294732376933" ry="14.677647366188467"/>
    <ellipse cx="270.77941243723035" cy="44.96371962921694" rx="23.484235785901546" ry="11.742117892950773"/>
  </g>
<g opacity="0.18" fill="#f7f3ea">
    <ellipse cx="191.36109923943877" cy="61.07681712717749" rx="19.599999999999998" ry="8.399999999999999"/>
    <ellipse cx="203.96109923943877" cy="58.276817127177495" rx="14" ry="7"/>
    <ellipse cx="180.16109923943878" cy="62.47681712717749" rx="11.2" ry="5.6"/>
  </g>
<path d="M0 210 C80 182 160 228 240 198 S400 180 480 216 L480 300 L0 300 Z" fill="#5a7a4a" opacity="0.55"/>
<path d="M0 218 C80 176 160 228 240 194 S400 180 480 216 L480 300 L0 300 Z" fill="#3a5a30" opacity="0.67"/>

    <g fill="#c8c0b0" transform="translate(240,120)">
      <rect x="-50" y="40" width="100" height="90"/>
      <path d="M-50 40 L0 -20 L50 40 Z"/>
      <rect x="-70" y="30" width="24" height="100"/><rect x="46" y="30" width="24" height="100"/>
      <path d="M-70 30 L-58 5 L-46 30 Z"/><path d="M46 30 L58 5 L70 30 Z"/>
      <rect x="-12" y="80" width="24" height="50" fill="#4a3a32"/>
      <circle cx="0" cy="55" r="14" fill="#6a8aaa" opacity="0.6"/>
    </g>
<rect width="480" height="300" fill="url(#ground)"/>
  <rect width="480" height="300" fill="none" stroke="#1a1520" stroke-width="28" stroke-opacity="0.18"/>
<g id="grain-leon" opacity="0.85"><circle cx="207.1" cy="78.6" r="0.68" fill="#1a1520" opacity="0.058"/><circle cx="230.9" cy="280.7" r="0.96" fill="#1a1520" opacity="0.068"/><circle cx="194.5" cy="169.1" r="1.49" fill="#1a1520" opacity="0.129"/><circle cx="243.3" cy="230.9" r="0.95" fill="#1a1520" opacity="0.083"/><circle cx="320.8" cy="214.0" r="1.70" fill="#1a1520" opacity="0.054"/><circle cx="85.9" cy="153.1" r="0.85" fill="#1a1520" opacity="0.090"/><circle cx="320.6" cy="23.2" r="1.08" fill="#1a1520" opacity="0.123"/><circle cx="261.4" cy="110.0" r="0.63" fill="#1a1520" opacity="0.052"/><circle cx="271.8" cy="33.0" r="0.55" fill="#1a1520" opacity="0.099"/><circle cx="58.4" cy="28.5" r="1.49" fill="#1a1520" opacity="0.074"/><circle cx="123.1" cy="86.0" r="1.17" fill="#1a1520" opacity="0.114"/><circle cx="315.4" cy="169.6" r="0.43" fill="#1a1520" opacity="0.077"/><circle cx="127.2" cy="137.5" r="0.55" fill="#1a1520" opacity="0.129"/><circle cx="343.9" cy="91.7" r="1.26" fill="#1a1520" opacity="0.062"/><circle cx="356.8" cy="36.7" r="1.59" fill="#1a1520" opacity="0.089"/><circle cx="369.4" cy="77.3" r="1.61" fill="#1a1520" opacity="0.072"/><circle cx="284.5" cy="66.3" r="0.95" fill="#1a1520" opacity="0.090"/><circle cx="308.0" cy="286.2" r="1.00" fill="#1a1520" opacity="0.047"/><circle cx="21.8" cy="293.1" r="1.22" fill="#1a1520" opacity="0.113"/><circle cx="251.5" cy="128.1" r="1.16" fill="#1a1520" opacity="0.095"/><circle cx="185.0" cy="97.1" r="1.33" fill="#1a1520" opacity="0.137"/><circle cx="392.3" cy="144.2" r="1.20" fill="#1a1520" opacity="0.119"/><circle cx="248.7" cy="167.2" r="1.54" fill="#1a1520" opacity="0.077"/><circle cx="389.9" cy="143.9" r="1.37" fill="#1a1520" opacity="0.120"/><circle cx="300.0" cy="188.4" r="1.46" fill="#1a1520" opacity="0.088"/><circle cx="51.3" cy="272.7" r="1.37" fill="#1a1520" opacity="0.101"/><circle cx="137.4" cy="235.0" r="1.12" fill="#1a1520" opacity="0.044"/><circle cx="413.5" cy="218.7" r="0.99" fill="#1a1520" opacity="0.103"/><circle cx="364.2" cy="182.0" r="0.81" fill="#1a1520" opacity="0.090"/><circle cx="107.1" cy="219.3" r="0.95" fill="#1a1520" opacity="0.137"/><circle cx="350.2" cy="195.2" r="0.90" fill="#1a1520" opacity="0.135"/><circle cx="288.0" cy="81.6" r="1.47" fill="#1a1520" opacity="0.124"/><circle cx="444.9" cy="155.4" r="1.69" fill="#1a1520" opacity="0.128"/><circle cx="292.9" cy="258.5" r="0.99" fill="#1a1520" opacity="0.076"/><circle cx="315.8" cy="232.8" r="1.68" fill="#1a1520" opacity="0.059"/><circle cx="288.9" cy="157.5" r="0.95" fill="#1a1520" opacity="0.059"/><circle cx="306.6" cy="43.4" r="1.67" fill="#1a1520" opacity="0.093"/><circle cx="445.1" cy="181.6" r="1.30" fill="#1a1520" opacity="0.067"/><circle cx="270.6" cy="4.1" r="0.99" fill="#1a1520" opacity="0.099"/><circle cx="79.6" cy="290.0" r="1.49" fill="#1a1520" opacity="0.097"/><circle cx="432.0" cy="26.4" r="0.89" fill="#1a1520" opacity="0.080"/><circle cx="295.4" cy="162.0" r="0.57" fill="#1a1520" opacity="0.069"/><circle cx="464.6" cy="268.9" r="1.36" fill="#1a1520" opacity="0.083"/><circle cx="114.9" cy="130.5" r="1.63" fill="#1a1520" opacity="0.128"/><circle cx="318.2" cy="121.1" r="1.61" fill="#1a1520" opacity="0.080"/><circle cx="476.5" cy="139.7" r="1.20" fill="#1a1520" opacity="0.062"/><circle cx="220.1" cy="195.9" r="0.45" fill="#1a1520" opacity="0.112"/><circle cx="7.0" cy="20.4" r="1.48" fill="#1a1520" opacity="0.081"/><circle cx="449.1" cy="158.1" r="1.77" fill="#1a1520" opacity="0.067"/><circle cx="223.6" cy="38.6" r="0.45" fill="#1a1520" opacity="0.101"/><circle cx="204.6" cy="245.8" r="1.19" fill="#1a1520" opacity="0.128"/><circle cx="432.4" cy="229.8" r="0.90" fill="#1a1520" opacity="0.051"/><circle cx="62.5" cy="132.6" r="1.28" fill="#1a1520" opacity="0.080"/><circle cx="356.2" cy="155.8" r="0.89" fill="#1a1520" opacity="0.137"/><circle cx="247.2" cy="45.4" r="0.83" fill="#1a1520" opacity="0.094"/><circle cx="96.9" cy="157.1" r="1.40" fill="#1a1520" opacity="0.103"/><circle cx="75.4" cy="276.2" r="1.47" fill="#1a1520" opacity="0.077"/><circle cx="428.1" cy="172.0" r="1.31" fill="#1a1520" opacity="0.046"/><circle cx="288.5" cy="172.0" r="0.86" fill="#1a1520" opacity="0.048"/><circle cx="466.3" cy="11.9" r="0.49" fill="#1a1520" opacity="0.123"/><circle cx="368.3" cy="133.0" r="1.52" fill="#1a1520" opacity="0.122"/><circle cx="327.1" cy="175.4" r="1.52" fill="#1a1520" opacity="0.121"/><circle cx="159.2" cy="264.0" r="0.43" fill="#1a1520" opacity="0.063"/><circle cx="172.9" cy="189.7" r="1.30" fill="#1a1520" opacity="0.055"/><circle cx="79.5" cy="191.5" r="1.74" fill="#1a1520" opacity="0.094"/><circle cx="285.4" cy="157.9" r="0.49" fill="#1a1520" opacity="0.100"/><circle cx="467.1" cy="16.8" r="1.50" fill="#1a1520" opacity="0.108"/><circle cx="325.5" cy="164.4" r="0.86" fill="#1a1520" opacity="0.064"/><circle cx="97.3" cy="77.4" r="0.78" fill="#1a1520" opacity="0.061"/><circle cx="245.7" cy="156.1" r="1.60" fill="#1a1520" opacity="0.078"/><circle cx="226.4" cy="142.7" r="1.44" fill="#1a1520" opacity="0.091"/><circle cx="417.5" cy="249.8" r="1.35" fill="#1a1520" opacity="0.093"/><circle cx="14.6" cy="47.7" r="0.90" fill="#1a1520" opacity="0.096"/><circle cx="51.3" cy="225.7" r="0.82" fill="#1a1520" opacity="0.069"/><circle cx="379.9" cy="262.3" r="0.43" fill="#1a1520" opacity="0.107"/><circle cx="331.0" cy="228.3" r="1.31" fill="#1a1520" opacity="0.109"/><circle cx="277.4" cy="37.2" r="1.72" fill="#1a1520" opacity="0.076"/><circle cx="415.9" cy="122.8" r="1.40" fill="#1a1520" opacity="0.106"/><circle cx="283.1" cy="219.4" r="0.72" fill="#1a1520" opacity="0.072"/><circle cx="211.4" cy="215.4" r="1.02" fill="#1a1520" opacity="0.064"/><circle cx="134.4" cy="243.5" r="1.37" fill="#1a1520" opacity="0.124"/><circle cx="121.5" cy="86.4" r="1.16" fill="#1a1520" opacity="0.099"/><circle cx="256.9" cy="287.9" r="1.55" fill="#1a1520" opacity="0.125"/><circle cx="12.3" cy="268.8" r="1.56" fill="#1a1520" opacity="0.072"/><circle cx="149.6" cy="298.0" r="0.82" fill="#1a1520" opacity="0.050"/><circle cx="442.8" cy="201.1" r="0.68" fill="#1a1520" opacity="0.122"/><circle cx="342.3" cy="4.2" r="1.57" fill="#1a1520" opacity="0.094"/><circle cx="4.5" cy="266.3" r="1.46" fill="#1a1520" opacity="0.077"/><circle cx="345.0" cy="248.5" r="1.01" fill="#1a1520" opacity="0.133"/><circle cx="231.9" cy="279.6" r="1.24" fill="#1a1520" opacity="0.065"/><circle cx="239.9" cy="166.2" r="0.46" fill="#fff8e7" opacity="0.093"/><circle cx="406.5" cy="139.5" r="0.82" fill="#fff8e7" opacity="0.110"/><circle cx="73.0" cy="283.5" r="0.82" fill="#fff8e7" opacity="0.094"/><circle cx="256.6" cy="292.8" r="1.16" fill="#fff8e7" opacity="0.108"/><circle cx="452.3" cy="172.9" r="0.88" fill="#fff8e7" opacity="0.048"/><circle cx="77.0" cy="273.4" r="0.43" fill="#fff8e7" opacity="0.047"/><circle cx="129.7" cy="204.3" r="0.45" fill="#fff8e7" opacity="0.031"/><circle cx="63.1" cy="289.0" r="1.08" fill="#fff8e7" opacity="0.036"/><circle cx="169.7" cy="153.8" r="0.70" fill="#fff8e7" opacity="0.062"/><circle cx="34.2" cy="255.8" r="0.71" fill="#fff8e7" opacity="0.071"/><circle cx="136.8" cy="5.0" r="0.91" fill="#fff8e7" opacity="0.087"/><circle cx="3.9" cy="46.6" r="1.20" fill="#fff8e7" opacity="0.108"/><circle cx="134.4" cy="170.4" r="0.94" fill="#fff8e7" opacity="0.083"/><circle cx="130.9" cy="180.2" r="0.83" fill="#fff8e7" opacity="0.073"/><circle cx="293.4" cy="36.0" r="0.57" fill="#fff8e7" opacity="0.092"/><circle cx="420.1" cy="156.4" r="1.14" fill="#fff8e7" opacity="0.082"/><circle cx="466.1" cy="122.4" r="1.05" fill="#fff8e7" opacity="0.053"/><circle cx="388.6" cy="137.4" r="0.96" fill="#fff8e7" opacity="0.109"/><circle cx="386.1" cy="272.3" r="0.71" fill="#fff8e7" opacity="0.066"/><circle cx="437.0" cy="24.7" r="0.76" fill="#fff8e7" opacity="0.074"/><circle cx="25.6" cy="217.2" r="0.75" fill="#fff8e7" opacity="0.085"/><circle cx="39.9" cy="0.0" r="0.96" fill="#fff8e7" opacity="0.036"/><circle cx="273.8" cy="141.9" r="0.89" fill="#fff8e7" opacity="0.093"/><circle cx="147.6" cy="6.5" r="0.85" fill="#fff8e7" opacity="0.098"/><circle cx="363.3" cy="295.6" r="1.02" fill="#fff8e7" opacity="0.070"/><circle cx="101.6" cy="212.8" r="0.70" fill="#fff8e7" opacity="0.106"/><circle cx="478.3" cy="30.1" r="0.58" fill="#fff8e7" opacity="0.082"/><circle cx="477.2" cy="289.6" r="0.70" fill="#fff8e7" opacity="0.073"/><circle cx="313.9" cy="141.2" r="0.81" fill="#fff8e7" opacity="0.070"/><circle cx="21.5" cy="125.8" r="0.86" fill="#fff8e7" opacity="0.067"/><circle cx="248.2" cy="207.3" r="0.58" fill="#fff8e7" opacity="0.074"/><circle cx="446.6" cy="54.8" r="1.12" fill="#fff8e7" opacity="0.099"/><circle cx="292.2" cy="72.2" r="0.58" fill="#fff8e7" opacity="0.056"/><circle cx="211.0" cy="149.6" r="1.04" fill="#fff8e7" opacity="0.040"/><circle cx="344.3" cy="30.3" r="0.60" fill="#fff8e7" opacity="0.101"/><circle cx="444.9" cy="127.0" r="1.12" fill="#fff8e7" opacity="0.103"/><circle cx="228.7" cy="89.4" r="0.76" fill="#fff8e7" opacity="0.052"/><circle cx="441.7" cy="217.1" r="0.87" fill="#fff8e7" opacity="0.069"/><circle cx="393.5" cy="148.4" r="0.40" fill="#fff8e7" opacity="0.053"/><circle cx="270.4" cy="197.9" r="0.88" fill="#fff8e7" opacity="0.063"/></g>
<rect x="8" y="8" width="464" height="284" fill="none" stroke="#f5efe0" stroke-opacity="0.22" stroke-width="2" rx="4"/>
</svg>
