<?xml version="1.0" encoding="UTF-8"?>
<svg xmlns="http://www.w3.org/2000/svg" viewBox="0 0 480 300" width="480" height="300" role="img" aria-label="lyon">

    <defs>
      <linearGradient id="sky" x1="0" y1="0" x2="0" y2="1">
        <stop offset="0%" stop-color="#f0c8a0"/>
        <stop offset="55%" stop-color="#d09870"/>
        <stop offset="100%" stop-color="#806050"/>
      </linearGradient>
      <radialGradient id="glow" cx="70%" cy="22%" r="45%">
        <stop offset="0%" stop-color="#fff6d8" stop-opacity="0.45"/>
        <stop offset="100%" stop-color="#fff6d8" stop-opacity="0"/>
      </radialGradient>
      <linearGradient id="ground" x1="0" y1="0" x2="0" y2="1">
        <stop offset="0%" stop-color="#2a3340" stop-opacity="0"/>
        <stop offset="100%" stop-color="#121820" stop-opacity="0.55"/>
      </linearGradient>
    </defs>
    <rect width="480" height="300" fill="url(#sky)"/>
    <rect width="480" height="300" fill="url(#glow)"/>
  
<g opacity="0.28" fill="#f7f3ea">
    <ellipse cx="61.58200358040631" cy="47.04072017688304" rx="35.45186340399086" ry="15.193655744567515"/>
    <ellipse cx="84.37248719725758" cy="41.9761682620272" rx="25.32275957427919" ry="12.661379787139595"/>
    <ellipse cx="41.32379592098296" cy="49.57299613431096" rx="20.258207659423352" ry="10.129103829711676"/>
  </g>
<g opacity="0.22" fill="#f7f3ea">
    <ellipse cx="286.87687093392015" cy="35.029559042304754" rx="29.398847833275795" ry="12.599506214261055"/>
    <ellipse cx="305.7761302553117" cy="30.82972363755107" rx="20.999177023768425" ry="10.499588511884212"/>
    <ellipse cx="270.0775293149054" cy="37.1294767446816" rx="16.79934161901474" ry="8.39967080950737"/>
  </g>

    <g fill="#4a5568">
      <rect x="50" y="150" width="40" height="70"/><rect x="100" y="135" width="32" height="85"/>
      <rect x="300" y="140" width="36" height="80"/><rect x="350" y="155" width="44" height="65"/>
    </g>
    <path d="M140 200 Q240 170 340 200" fill="none" stroke="#6a7a8a" stroke-width="10"/>
    <path d="M150 200 Q240 178 330 200" fill="none" stroke="#8a9aaa" stroke-width="3" opacity="0.5"/>
    
    <defs>
      <linearGradient id="water" x1="0" y1="0" x2="0" y2="1">
        <stop offset="0%" stop-color="#3a6a7a"/>
        <stop offset="100%" stop-color="#1a3a4a"/>
      </linearGradient>
    </defs>
    <path d="M0 220 Q120 210 240 224 T480 218 L480 300 L0 300 Z" fill="url(#water)"/>
    <path d="M0 234 Q160 224 320 238 T480 230" fill="none" stroke="#7ec8e8" stroke-opacity="0.25" stroke-width="2"/>
    <path d="M40 248 Q200 238 360 252" fill="none" stroke="#fff" stroke-opacity="0.12" stroke-width="1.5"/>
  
<rect width="480" height="300" fill="url(#ground)"/>
  <rect width="480" height="300" fill="none" stroke="#1a1520" stroke-width="28" stroke-opacity="0.18"/>
<g id="grain-lyon" opacity="0.85"><circle cx="19.0" cy="105.6" r="1.68" fill="#1a1520" opacity="0.049"/><circle cx="96.6" cy="30.0" r="0.89" fill="#1a1520" opacity="0.052"/><circle cx="396.3" cy="115.7" r="0.45" fill="#1a1520" opacity="0.061"/><circle cx="340.5" cy="183.0" r="1.74" fill="#1a1520" opacity="0.058"/><circle cx="328.7" cy="235.8" r="0.58" fill="#1a1520" opacity="0.105"/><circle cx="140.3" cy="86.4" r="1.05" fill="#1a1520" opacity="0.112"/><circle cx="170.6" cy="233.2" r="0.43" fill="#1a1520" opacity="0.113"/><circle cx="216.8" cy="18.8" r="0.89" fill="#1a1520" opacity="0.139"/><circle cx="65.9" cy="128.4" r="0.78" fill="#1a1520" opacity="0.049"/><circle cx="60.7" cy="219.7" r="1.46" fill="#1a1520" opacity="0.139"/><circle cx="368.1" cy="108.2" r="1.05" fill="#1a1520" opacity="0.044"/><circle cx="65.1" cy="218.9" r="0.45" fill="#1a1520" opacity="0.054"/><circle cx="76.8" cy="284.4" r="1.44" fill="#1a1520" opacity="0.111"/><circle cx="49.0" cy="7.9" r="0.60" fill="#1a1520" opacity="0.065"/><circle cx="81.5" cy="192.4" r="1.29" fill="#1a1520" opacity="0.040"/><circle cx="359.5" cy="181.5" r="0.79" fill="#1a1520" opacity="0.110"/><circle cx="141.2" cy="271.3" r="1.33" fill="#1a1520" opacity="0.052"/><circle cx="392.7" cy="272.7" r="1.41" fill="#1a1520" opacity="0.043"/><circle cx="231.7" cy="168.8" r="0.81" fill="#1a1520" opacity="0.122"/><circle cx="116.8" cy="107.2" r="1.52" fill="#1a1520" opacity="0.101"/><circle cx="40.7" cy="155.4" r="1.58" fill="#1a1520" opacity="0.086"/><circle cx="276.1" cy="251.4" r="0.50" fill="#1a1520" opacity="0.065"/><circle cx="223.3" cy="211.4" r="1.52" fill="#1a1520" opacity="0.091"/><circle cx="65.1" cy="236.8" r="0.66" fill="#1a1520" opacity="0.067"/><circle cx="7.9" cy="142.3" r="0.91" fill="#1a1520" opacity="0.089"/><circle cx="219.6" cy="133.0" r="1.66" fill="#1a1520" opacity="0.041"/><circle cx="151.7" cy="210.6" r="1.66" fill="#1a1520" opacity="0.124"/><circle cx="377.2" cy="220.0" r="1.10" fill="#1a1520" opacity="0.118"/><circle cx="254.5" cy="235.0" r="1.71" fill="#1a1520" opacity="0.054"/><circle cx="429.7" cy="182.9" r="0.69" fill="#1a1520" opacity="0.119"/><circle cx="292.0" cy="100.0" r="0.64" fill="#1a1520" opacity="0.082"/><circle cx="177.1" cy="95.1" r="1.76" fill="#1a1520" opacity="0.118"/><circle cx="12.7" cy="195.9" r="1.59" fill="#1a1520" opacity="0.125"/><circle cx="429.7" cy="134.4" r="0.41" fill="#1a1520" opacity="0.080"/><circle cx="264.5" cy="260.4" r="0.74" fill="#1a1520" opacity="0.097"/><circle cx="461.8" cy="162.7" r="0.57" fill="#1a1520" opacity="0.095"/><circle cx="75.2" cy="74.1" r="0.44" fill="#1a1520" opacity="0.139"/><circle cx="326.7" cy="252.9" r="0.77" fill="#1a1520" opacity="0.103"/><circle cx="5.3" cy="118.9" r="0.62" fill="#1a1520" opacity="0.133"/><circle cx="178.9" cy="158.8" r="0.70" fill="#1a1520" opacity="0.072"/><circle cx="13.3" cy="76.7" r="0.58" fill="#1a1520" opacity="0.070"/><circle cx="312.7" cy="274.4" r="0.42" fill="#1a1520" opacity="0.086"/><circle cx="468.5" cy="228.2" r="0.87" fill="#1a1520" opacity="0.046"/><circle cx="426.9" cy="46.3" r="0.83" fill="#1a1520" opacity="0.120"/><circle cx="271.6" cy="245.2" r="1.35" fill="#1a1520" opacity="0.086"/><circle cx="195.1" cy="31.5" r="0.77" fill="#1a1520" opacity="0.114"/><circle cx="301.2" cy="96.1" r="1.54" fill="#1a1520" opacity="0.106"/><circle cx="464.5" cy="118.1" r="0.53" fill="#1a1520" opacity="0.043"/><circle cx="192.3" cy="121.5" r="0.42" fill="#1a1520" opacity="0.055"/><circle cx="71.9" cy="261.2" r="1.43" fill="#1a1520" opacity="0.086"/><circle cx="26.3" cy="182.9" r="1.09" fill="#1a1520" opacity="0.132"/><circle cx="196.4" cy="264.2" r="1.08" fill="#1a1520" opacity="0.083"/><circle cx="138.8" cy="37.1" r="0.61" fill="#1a1520" opacity="0.040"/><circle cx="336.8" cy="212.9" r="1.43" fill="#1a1520" opacity="0.060"/><circle cx="116.0" cy="158.0" r="1.79" fill="#1a1520" opacity="0.114"/><circle cx="468.3" cy="70.3" r="0.89" fill="#1a1520" opacity="0.059"/><circle cx="260.4" cy="143.3" r="0.52" fill="#1a1520" opacity="0.089"/><circle cx="82.0" cy="248.3" r="1.14" fill="#1a1520" opacity="0.117"/><circle cx="459.4" cy="193.1" r="0.72" fill="#1a1520" opacity="0.066"/><circle cx="289.9" cy="42.7" r="1.74" fill="#1a1520" opacity="0.051"/><circle cx="468.3" cy="220.2" r="0.78" fill="#1a1520" opacity="0.069"/><circle cx="362.6" cy="91.0" r="1.25" fill="#1a1520" opacity="0.070"/><circle cx="60.6" cy="212.6" r="1.45" fill="#1a1520" opacity="0.089"/><circle cx="380.7" cy="148.7" r="1.67" fill="#1a1520" opacity="0.116"/><circle cx="221.7" cy="206.2" r="0.49" fill="#1a1520" opacity="0.089"/><circle cx="1.2" cy="18.4" r="1.35" fill="#1a1520" opacity="0.120"/><circle cx="146.1" cy="105.1" r="1.52" fill="#1a1520" opacity="0.095"/><circle cx="381.8" cy="113.9" r="1.07" fill="#1a1520" opacity="0.048"/><circle cx="399.2" cy="175.9" r="1.50" fill="#1a1520" opacity="0.043"/><circle cx="203.2" cy="82.1" r="0.71" fill="#1a1520" opacity="0.070"/><circle cx="81.1" cy="127.0" r="1.36" fill="#1a1520" opacity="0.067"/><circle cx="17.3" cy="195.2" r="0.83" fill="#1a1520" opacity="0.101"/><circle cx="4.7" cy="157.5" r="0.64" fill="#1a1520" opacity="0.125"/><circle cx="340.7" cy="212.3" r="1.15" fill="#1a1520" opacity="0.066"/><circle cx="211.2" cy="135.1" r="1.27" fill="#1a1520" opacity="0.103"/><circle cx="478.9" cy="263.8" r="1.21" fill="#1a1520" opacity="0.120"/><circle cx="320.8" cy="275.9" r="0.80" fill="#1a1520" opacity="0.077"/><circle cx="36.4" cy="210.6" r="1.50" fill="#1a1520" opacity="0.068"/><circle cx="302.9" cy="42.5" r="1.58" fill="#1a1520" opacity="0.051"/><circle cx="407.3" cy="257.1" r="0.91" fill="#1a1520" opacity="0.094"/><circle cx="54.4" cy="142.1" r="1.40" fill="#1a1520" opacity="0.046"/><circle cx="347.6" cy="253.6" r="0.64" fill="#1a1520" opacity="0.121"/><circle cx="191.9" cy="122.6" r="0.70" fill="#1a1520" opacity="0.089"/><circle cx="442.6" cy="142.7" r="1.16" fill="#1a1520" opacity="0.125"/><circle cx="72.8" cy="129.6" r="1.62" fill="#1a1520" opacity="0.048"/><circle cx="342.5" cy="94.1" r="1.52" fill="#1a1520" opacity="0.052"/><circle cx="6.4" cy="267.9" r="0.91" fill="#1a1520" opacity="0.129"/><circle cx="377.7" cy="230.9" r="1.17" fill="#1a1520" opacity="0.126"/><circle cx="145.8" cy="182.5" r="0.70" fill="#1a1520" opacity="0.061"/><circle cx="239.3" cy="273.7" r="0.87" fill="#1a1520" opacity="0.097"/><circle cx="44.4" cy="201.1" r="0.50" fill="#fff8e7" opacity="0.108"/><circle cx="331.2" cy="279.3" r="1.02" fill="#fff8e7" opacity="0.060"/><circle cx="321.5" cy="26.2" r="0.95" fill="#fff8e7" opacity="0.071"/><circle cx="449.2" cy="186.3" r="0.74" fill="#fff8e7" opacity="0.095"/><circle cx="254.3" cy="43.3" r="0.71" fill="#fff8e7" opacity="0.103"/><circle cx="58.7" cy="276.5" r="0.47" fill="#fff8e7" opacity="0.073"/><circle cx="272.0" cy="187.8" r="0.84" fill="#fff8e7" opacity="0.091"/><circle cx="478.2" cy="14.2" r="0.72" fill="#fff8e7" opacity="0.052"/><circle cx="438.9" cy="40.9" r="0.62" fill="#fff8e7" opacity="0.098"/><circle cx="83.6" cy="30.8" r="1.09" fill="#fff8e7" opacity="0.073"/><circle cx="305.0" cy="243.7" r="0.91" fill="#fff8e7" opacity="0.050"/><circle cx="426.8" cy="168.7" r="1.09" fill="#fff8e7" opacity="0.077"/><circle cx="43.3" cy="234.4" r="1.15" fill="#fff8e7" opacity="0.041"/><circle cx="333.8" cy="175.2" r="0.66" fill="#fff8e7" opacity="0.046"/><circle cx="139.8" cy="71.9" r="0.58" fill="#fff8e7" opacity="0.109"/><circle cx="209.5" cy="119.5" r="0.84" fill="#fff8e7" opacity="0.086"/><circle cx="266.7" cy="271.9" r="0.88" fill="#fff8e7" opacity="0.109"/><circle cx="145.0" cy="168.0" r="0.98" fill="#fff8e7" opacity="0.046"/><circle cx="327.9" cy="64.0" r="0.93" fill="#fff8e7" opacity="0.059"/><circle cx="472.5" cy="15.9" r="0.64" fill="#fff8e7" opacity="0.049"/><circle cx="282.3" cy="238.8" r="0.67" fill="#fff8e7" opacity="0.100"/><circle cx="374.6" cy="37.5" r="1.00" fill="#fff8e7" opacity="0.038"/><circle cx="54.6" cy="195.4" r="0.56" fill="#fff8e7" opacity="0.058"/><circle cx="470.3" cy="148.8" r="0.92" fill="#fff8e7" opacity="0.053"/><circle cx="258.7" cy="256.5" r="1.14" fill="#fff8e7" opacity="0.076"/><circle cx="100.5" cy="114.3" r="0.72" fill="#fff8e7" opacity="0.077"/><circle cx="225.4" cy="206.5" r="0.67" fill="#fff8e7" opacity="0.036"/><circle cx="335.3" cy="63.7" r="0.91" fill="#fff8e7" opacity="0.051"/><circle cx="330.5" cy="157.2" r="0.41" fill="#fff8e7" opacity="0.034"/><circle cx="420.4" cy="90.2" r="1.02" fill="#fff8e7" opacity="0.068"/><circle cx="474.7" cy="0.4" r="1.08" fill="#fff8e7" opacity="0.084"/><circle cx="180.0" cy="120.5" r="0.88" fill="#fff8e7" opacity="0.034"/><circle cx="118.7" cy="241.6" r="0.94" fill="#fff8e7" opacity="0.032"/><circle cx="92.5" cy="94.5" r="0.73" fill="#fff8e7" opacity="0.105"/><circle cx="429.5" cy="74.4" r="0.69" fill="#fff8e7" opacity="0.055"/><circle cx="412.4" cy="218.4" r="0.66" fill="#fff8e7" opacity="0.076"/><circle cx="208.0" cy="18.2" r="1.13" fill="#fff8e7" opacity="0.054"/><circle cx="238.8" cy="14.5" r="0.54" fill="#fff8e7" opacity="0.058"/><circle cx="402.6" cy="160.6" r="0.92" fill="#fff8e7" opacity="0.090"/><circle cx="2.1" cy="239.4" r="1.07" fill="#fff8e7" opacity="0.041"/></g>
<rect x="8" y="8" width="464" height="284" fill="none" stroke="#f5efe0" stroke-opacity="0.22" stroke-width="2" rx="4"/>
</svg>
