<?xml version="1.0" encoding="UTF-8"?>
<svg xmlns="http://www.w3.org/2000/svg" viewBox="0 0 480 300" width="480" height="300" role="img" aria-label="milan">

    <defs>
      <linearGradient id="sky" x1="0" y1="0" x2="0" y2="1">
        <stop offset="0%" stop-color="#b0c8e0"/>
        <stop offset="55%" stop-color="#8098b8"/>
        <stop offset="100%" stop-color="#4a6080"/>
      </linearGradient>
      <radialGradient id="glow" cx="70%" cy="22%" r="45%">
        <stop offset="0%" stop-color="#fff6d8" stop-opacity="0.45"/>
        <stop offset="100%" stop-color="#fff6d8" stop-opacity="0"/>
      </radialGradient>
      <linearGradient id="ground" x1="0" y1="0" x2="0" y2="1">
        <stop offset="0%" stop-color="#2a3340" stop-opacity="0"/>
        <stop offset="100%" stop-color="#121820" stop-opacity="0.55"/>
      </linearGradient>
    </defs>
    <rect width="480" height="300" fill="url(#sky)"/>
    <rect width="480" height="300" fill="url(#glow)"/>
  
<g opacity="0.28" fill="#f7f3ea">
    <ellipse cx="96.92887054756284" cy="52.41124755702913" rx="36.36891576051712" ry="15.586678183078767"/>
    <ellipse cx="120.30888782218099" cy="47.21568816266954" rx="25.977796971797943" ry="12.988898485898972"/>
    <ellipse cx="76.14663297012449" cy="55.009027254208924" rx="20.782237577438355" ry="10.391118788719178"/>
  </g>
<g opacity="0.22" fill="#f7f3ea">
    <ellipse cx="336.30062440410256" cy="54.790064757689834" rx="35.18566164281219" ry="15.07956927549094"/>
    <ellipse cx="358.919978317339" cy="49.76354166585952" rx="25.132615459151566" ry="12.566307729575783"/>
    <ellipse cx="316.1945320367813" cy="57.30332630360499" rx="20.106092367321253" ry="10.053046183660626"/>
  </g>
<g opacity="0.18" fill="#f7f3ea">
    <ellipse cx="200.93724803067744" cy="69.4644809467718" rx="19.599999999999998" ry="8.399999999999999"/>
    <ellipse cx="213.53724803067743" cy="66.6644809467718" rx="14" ry="7"/>
    <ellipse cx="189.73724803067745" cy="70.8644809467718" rx="11.2" ry="5.6"/>
  </g>

    <g fill="#d8d2c8" transform="translate(240,115)">
      <rect x="-90" y="50" width="180" height="80"/>
      <path d="M-40 50 L0 -10 L40 50 Z" fill="#e8e2d8"/>
      <rect x="-12" y="-30" width="24" height="40" fill="#cfc8ba"/>
      <path d="M-12 -30 L0 -55 L12 -30 Z" fill="#b8c4d0"/>
      <rect x="-100" y="40" width="22" height="90"/><rect x="78" y="40" width="22" height="90"/>
      <g fill="#6a7a8a" opacity="0.5">
        <rect x="-70" y="70" width="14" height="28"/><rect x="-40" y="70" width="14" height="28"/>
        <rect x="26" y="70" width="14" height="28"/><rect x="56" y="70" width="14" height="28"/>
      </g>
    </g>
<rect width="480" height="300" fill="url(#ground)"/>
  <rect width="480" height="300" fill="none" stroke="#1a1520" stroke-width="28" stroke-opacity="0.18"/>
<g id="grain-milan" opacity="0.85"><circle cx="443.1" cy="186.2" r="1.80" fill="#1a1520" opacity="0.110"/><circle cx="476.0" cy="154.0" r="1.22" fill="#1a1520" opacity="0.092"/><circle cx="462.9" cy="3.1" r="1.28" fill="#1a1520" opacity="0.068"/><circle cx="218.6" cy="188.8" r="1.23" fill="#1a1520" opacity="0.055"/><circle cx="147.5" cy="24.7" r="0.44" fill="#1a1520" opacity="0.110"/><circle cx="441.1" cy="130.8" r="1.34" fill="#1a1520" opacity="0.100"/><circle cx="219.7" cy="263.3" r="1.71" fill="#1a1520" opacity="0.097"/><circle cx="398.5" cy="19.3" r="1.00" fill="#1a1520" opacity="0.111"/><circle cx="90.0" cy="57.7" r="0.79" fill="#1a1520" opacity="0.106"/><circle cx="136.8" cy="80.9" r="1.72" fill="#1a1520" opacity="0.073"/><circle cx="244.5" cy="37.1" r="1.24" fill="#1a1520" opacity="0.129"/><circle cx="45.6" cy="97.9" r="1.34" fill="#1a1520" opacity="0.102"/><circle cx="449.1" cy="36.1" r="1.19" fill="#1a1520" opacity="0.099"/><circle cx="395.2" cy="81.9" r="1.32" fill="#1a1520" opacity="0.059"/><circle cx="175.2" cy="211.7" r="1.52" fill="#1a1520" opacity="0.076"/><circle cx="177.1" cy="68.9" r="0.62" fill="#1a1520" opacity="0.088"/><circle cx="156.6" cy="260.3" r="1.08" fill="#1a1520" opacity="0.081"/><circle cx="125.5" cy="170.9" r="0.66" fill="#1a1520" opacity="0.067"/><circle cx="436.6" cy="90.3" r="1.35" fill="#1a1520" opacity="0.092"/><circle cx="426.0" cy="115.8" r="1.34" fill="#1a1520" opacity="0.075"/><circle cx="344.5" cy="216.4" r="0.87" fill="#1a1520" opacity="0.112"/><circle cx="141.3" cy="297.6" r="1.46" fill="#1a1520" opacity="0.120"/><circle cx="243.0" cy="89.8" r="1.32" fill="#1a1520" opacity="0.059"/><circle cx="290.4" cy="241.5" r="1.70" fill="#1a1520" opacity="0.127"/><circle cx="153.8" cy="37.6" r="0.46" fill="#1a1520" opacity="0.049"/><circle cx="188.8" cy="55.4" r="0.52" fill="#1a1520" opacity="0.122"/><circle cx="248.1" cy="263.3" r="0.70" fill="#1a1520" opacity="0.094"/><circle cx="122.6" cy="104.2" r="0.52" fill="#1a1520" opacity="0.066"/><circle cx="224.7" cy="144.8" r="1.04" fill="#1a1520" opacity="0.127"/><circle cx="234.8" cy="237.2" r="1.47" fill="#1a1520" opacity="0.115"/><circle cx="121.2" cy="6.8" r="0.77" fill="#1a1520" opacity="0.124"/><circle cx="316.8" cy="289.1" r="0.44" fill="#1a1520" opacity="0.083"/><circle cx="405.6" cy="181.9" r="1.80" fill="#1a1520" opacity="0.103"/><circle cx="135.2" cy="231.9" r="0.87" fill="#1a1520" opacity="0.055"/><circle cx="15.1" cy="120.2" r="1.42" fill="#1a1520" opacity="0.132"/><circle cx="285.6" cy="33.0" r="0.44" fill="#1a1520" opacity="0.084"/><circle cx="474.8" cy="116.2" r="0.53" fill="#1a1520" opacity="0.117"/><circle cx="125.0" cy="114.6" r="0.83" fill="#1a1520" opacity="0.053"/><circle cx="94.0" cy="83.9" r="1.05" fill="#1a1520" opacity="0.058"/><circle cx="315.9" cy="253.8" r="0.74" fill="#1a1520" opacity="0.094"/><circle cx="139.0" cy="295.4" r="1.62" fill="#1a1520" opacity="0.103"/><circle cx="332.7" cy="82.3" r="1.09" fill="#1a1520" opacity="0.070"/><circle cx="60.7" cy="170.0" r="1.75" fill="#1a1520" opacity="0.057"/><circle cx="186.2" cy="209.8" r="1.29" fill="#1a1520" opacity="0.122"/><circle cx="231.7" cy="220.3" r="1.15" fill="#1a1520" opacity="0.106"/><circle cx="183.2" cy="91.8" r="1.29" fill="#1a1520" opacity="0.105"/><circle cx="473.9" cy="98.3" r="1.65" fill="#1a1520" opacity="0.071"/><circle cx="274.2" cy="194.4" r="1.30" fill="#1a1520" opacity="0.128"/><circle cx="343.9" cy="31.7" r="1.30" fill="#1a1520" opacity="0.078"/><circle cx="103.4" cy="276.8" r="0.60" fill="#1a1520" opacity="0.079"/><circle cx="445.3" cy="169.3" r="0.77" fill="#1a1520" opacity="0.063"/><circle cx="381.9" cy="36.8" r="1.32" fill="#1a1520" opacity="0.051"/><circle cx="15.4" cy="249.1" r="1.53" fill="#1a1520" opacity="0.053"/><circle cx="134.7" cy="25.7" r="1.33" fill="#1a1520" opacity="0.053"/><circle cx="460.3" cy="287.4" r="0.51" fill="#1a1520" opacity="0.130"/><circle cx="123.0" cy="95.0" r="0.87" fill="#1a1520" opacity="0.073"/><circle cx="240.4" cy="207.2" r="1.68" fill="#1a1520" opacity="0.046"/><circle cx="432.6" cy="128.1" r="0.60" fill="#1a1520" opacity="0.068"/><circle cx="448.1" cy="8.3" r="0.47" fill="#1a1520" opacity="0.043"/><circle cx="1.2" cy="74.5" r="1.44" fill="#1a1520" opacity="0.071"/><circle cx="211.9" cy="58.1" r="1.77" fill="#1a1520" opacity="0.068"/><circle cx="59.0" cy="85.8" r="1.10" fill="#1a1520" opacity="0.062"/><circle cx="248.8" cy="279.0" r="1.68" fill="#1a1520" opacity="0.113"/><circle cx="313.5" cy="175.8" r="0.71" fill="#1a1520" opacity="0.092"/><circle cx="165.7" cy="41.6" r="0.97" fill="#1a1520" opacity="0.084"/><circle cx="145.5" cy="127.8" r="0.45" fill="#1a1520" opacity="0.117"/><circle cx="320.9" cy="204.3" r="1.79" fill="#1a1520" opacity="0.049"/><circle cx="401.7" cy="136.9" r="1.06" fill="#1a1520" opacity="0.110"/><circle cx="370.9" cy="292.2" r="1.14" fill="#1a1520" opacity="0.067"/><circle cx="179.3" cy="155.6" r="0.58" fill="#1a1520" opacity="0.091"/><circle cx="118.0" cy="212.3" r="1.23" fill="#1a1520" opacity="0.117"/><circle cx="174.8" cy="197.2" r="1.12" fill="#1a1520" opacity="0.063"/><circle cx="93.5" cy="81.6" r="1.17" fill="#1a1520" opacity="0.092"/><circle cx="15.0" cy="241.4" r="1.07" fill="#1a1520" opacity="0.050"/><circle cx="28.6" cy="24.3" r="0.66" fill="#1a1520" opacity="0.086"/><circle cx="75.9" cy="224.8" r="1.37" fill="#1a1520" opacity="0.094"/><circle cx="249.5" cy="162.1" r="1.13" fill="#1a1520" opacity="0.138"/><circle cx="382.5" cy="272.2" r="1.47" fill="#1a1520" opacity="0.110"/><circle cx="355.4" cy="75.0" r="0.61" fill="#1a1520" opacity="0.079"/><circle cx="466.5" cy="113.3" r="0.55" fill="#1a1520" opacity="0.078"/><circle cx="195.9" cy="120.1" r="1.18" fill="#1a1520" opacity="0.076"/><circle cx="374.5" cy="188.9" r="1.79" fill="#1a1520" opacity="0.071"/><circle cx="319.0" cy="83.2" r="1.24" fill="#1a1520" opacity="0.056"/><circle cx="117.9" cy="298.1" r="1.11" fill="#1a1520" opacity="0.061"/><circle cx="428.8" cy="163.8" r="1.61" fill="#1a1520" opacity="0.128"/><circle cx="86.8" cy="272.2" r="1.37" fill="#1a1520" opacity="0.100"/><circle cx="154.9" cy="23.5" r="0.53" fill="#1a1520" opacity="0.042"/><circle cx="258.8" cy="214.9" r="0.59" fill="#1a1520" opacity="0.137"/><circle cx="88.1" cy="263.5" r="0.67" fill="#1a1520" opacity="0.086"/><circle cx="98.0" cy="255.3" r="0.93" fill="#1a1520" opacity="0.042"/><circle cx="29.9" cy="287.8" r="0.96" fill="#fff8e7" opacity="0.064"/><circle cx="460.8" cy="8.9" r="1.09" fill="#fff8e7" opacity="0.076"/><circle cx="298.2" cy="185.7" r="0.54" fill="#fff8e7" opacity="0.103"/><circle cx="85.6" cy="190.6" r="0.49" fill="#fff8e7" opacity="0.092"/><circle cx="121.9" cy="248.3" r="0.41" fill="#fff8e7" opacity="0.033"/><circle cx="368.6" cy="10.4" r="0.32" fill="#fff8e7" opacity="0.088"/><circle cx="198.1" cy="179.9" r="1.13" fill="#fff8e7" opacity="0.105"/><circle cx="404.0" cy="172.4" r="0.40" fill="#fff8e7" opacity="0.071"/><circle cx="114.9" cy="143.7" r="1.07" fill="#fff8e7" opacity="0.103"/><circle cx="310.2" cy="136.7" r="0.71" fill="#fff8e7" opacity="0.063"/><circle cx="453.9" cy="150.9" r="0.75" fill="#fff8e7" opacity="0.097"/><circle cx="307.0" cy="279.7" r="0.79" fill="#fff8e7" opacity="0.031"/><circle cx="32.7" cy="239.4" r="0.38" fill="#fff8e7" opacity="0.054"/><circle cx="299.1" cy="68.0" r="0.35" fill="#fff8e7" opacity="0.094"/><circle cx="48.1" cy="233.0" r="0.98" fill="#fff8e7" opacity="0.060"/><circle cx="6.0" cy="97.6" r="0.37" fill="#fff8e7" opacity="0.104"/><circle cx="375.1" cy="294.4" r="1.15" fill="#fff8e7" opacity="0.093"/><circle cx="49.5" cy="221.0" r="0.73" fill="#fff8e7" opacity="0.107"/><circle cx="394.3" cy="96.2" r="0.79" fill="#fff8e7" opacity="0.083"/><circle cx="411.2" cy="251.7" r="0.60" fill="#fff8e7" opacity="0.035"/><circle cx="189.4" cy="134.1" r="0.52" fill="#fff8e7" opacity="0.060"/><circle cx="347.2" cy="270.8" r="0.40" fill="#fff8e7" opacity="0.101"/><circle cx="3.0" cy="218.1" r="0.76" fill="#fff8e7" opacity="0.074"/><circle cx="86.9" cy="190.5" r="0.36" fill="#fff8e7" opacity="0.101"/><circle cx="140.1" cy="206.5" r="0.83" fill="#fff8e7" opacity="0.080"/><circle cx="460.7" cy="228.2" r="0.81" fill="#fff8e7" opacity="0.097"/><circle cx="81.6" cy="72.5" r="1.09" fill="#fff8e7" opacity="0.098"/><circle cx="174.7" cy="51.6" r="0.66" fill="#fff8e7" opacity="0.044"/><circle cx="38.8" cy="207.4" r="0.67" fill="#fff8e7" opacity="0.032"/><circle cx="441.1" cy="93.3" r="0.66" fill="#fff8e7" opacity="0.101"/><circle cx="237.0" cy="84.4" r="0.85" fill="#fff8e7" opacity="0.056"/><circle cx="276.9" cy="252.3" r="1.19" fill="#fff8e7" opacity="0.089"/><circle cx="3.5" cy="144.2" r="1.19" fill="#fff8e7" opacity="0.086"/><circle cx="157.2" cy="118.7" r="0.58" fill="#fff8e7" opacity="0.052"/><circle cx="427.3" cy="233.4" r="0.94" fill="#fff8e7" opacity="0.093"/><circle cx="279.6" cy="230.3" r="1.08" fill="#fff8e7" opacity="0.051"/><circle cx="379.4" cy="173.7" r="0.66" fill="#fff8e7" opacity="0.072"/><circle cx="412.2" cy="210.0" r="1.14" fill="#fff8e7" opacity="0.061"/><circle cx="322.0" cy="157.3" r="0.59" fill="#fff8e7" opacity="0.038"/><circle cx="350.2" cy="3.5" r="1.13" fill="#fff8e7" opacity="0.081"/></g>
<rect x="8" y="8" width="464" height="284" fill="none" stroke="#f5efe0" stroke-opacity="0.22" stroke-width="2" rx="4"/>
</svg>
