<?xml version="1.0" encoding="UTF-8"?>
<svg xmlns="http://www.w3.org/2000/svg" viewBox="0 0 480 300" width="480" height="300" role="img" aria-label="nice">

    <defs>
      <linearGradient id="sky" x1="0" y1="0" x2="0" y2="1">
        <stop offset="0%" stop-color="#6ab8e8"/>
        <stop offset="55%" stop-color="#f0c878"/>
        <stop offset="100%" stop-color="#e89850"/>
      </linearGradient>
      <radialGradient id="glow" cx="70%" cy="22%" r="45%">
        <stop offset="0%" stop-color="#fff6d8" stop-opacity="0.45"/>
        <stop offset="100%" stop-color="#fff6d8" stop-opacity="0"/>
      </radialGradient>
      <linearGradient id="ground" x1="0" y1="0" x2="0" y2="1">
        <stop offset="0%" stop-color="#2a3340" stop-opacity="0"/>
        <stop offset="100%" stop-color="#121820" stop-opacity="0.55"/>
      </linearGradient>
    </defs>
    <rect width="480" height="300" fill="url(#sky)"/>
    <rect width="480" height="300" fill="url(#glow)"/>
  
<g opacity="0.28" fill="#f7f3ea">
    <ellipse cx="86.32056316360831" cy="48.25567493215203" rx="35.68563585802912" ry="15.29384393915534"/>
    <ellipse cx="109.26132907234133" cy="43.157726952433585" rx="25.489739898592234" ry="12.744869949296117"/>
    <ellipse cx="65.92877124473452" cy="50.80464892201125" rx="20.391791918873786" ry="10.195895959436893"/>
  </g>
<g opacity="0.22" fill="#f7f3ea">
    <ellipse cx="352.5266399420798" cy="43.66218762123026" rx="37.0883993441239" ry="15.895028290338814"/>
    <ellipse cx="376.369182377588" cy="38.36384485778399" rx="26.491713817231357" ry="13.245856908615679"/>
    <ellipse cx="331.3332688882947" cy="46.311359002953395" rx="21.193371053785086" ry="10.596685526892543"/>
  </g>

    <ellipse cx="240" cy="250" rx="220" ry="40" fill="#d4b56a" opacity="0.5"/>
    <g fill="#e8dcc8">
      <rect x="80" y="170" width="50" height="40" rx="3"/>
      <rect x="150" y="160" width="40" height="50" rx="3"/>
      <rect x="280" y="165" width="55" height="45" rx="3"/>
      <rect x="350" y="155" width="45" height="55" rx="3"/>
    </g>
    <g fill="#2f7a45">
      <ellipse cx="100" cy="165" rx="20" ry="12"/><ellipse cx="310" cy="158" rx="24" ry="14"/>
    </g>
    
    <defs>
      <linearGradient id="water" x1="0" y1="0" x2="0" y2="1">
        <stop offset="0%" stop-color="#2a7aaa"/>
        <stop offset="100%" stop-color="#154a6a"/>
      </linearGradient>
    </defs>
    <path d="M0 215 Q120 205 240 219 T480 213 L480 300 L0 300 Z" fill="url(#water)"/>
    <path d="M0 229 Q160 219 320 233 T480 225" fill="none" stroke="#7ec8e8" stroke-opacity="0.25" stroke-width="2"/>
    <path d="M40 243 Q200 233 360 247" fill="none" stroke="#fff" stroke-opacity="0.12" stroke-width="1.5"/>
  
<rect width="480" height="300" fill="url(#ground)"/>
  <rect width="480" height="300" fill="none" stroke="#1a1520" stroke-width="28" stroke-opacity="0.18"/>
<g id="grain-nice" opacity="0.85"><circle cx="315.8" cy="123.8" r="1.71" fill="#1a1520" opacity="0.131"/><circle cx="262.3" cy="194.8" r="0.62" fill="#1a1520" opacity="0.129"/><circle cx="378.7" cy="226.3" r="0.60" fill="#1a1520" opacity="0.100"/><circle cx="439.1" cy="299.7" r="1.26" fill="#1a1520" opacity="0.095"/><circle cx="125.6" cy="257.0" r="1.21" fill="#1a1520" opacity="0.113"/><circle cx="54.6" cy="214.9" r="1.64" fill="#1a1520" opacity="0.076"/><circle cx="436.7" cy="276.1" r="0.44" fill="#1a1520" opacity="0.073"/><circle cx="86.6" cy="245.4" r="1.23" fill="#1a1520" opacity="0.063"/><circle cx="297.8" cy="232.5" r="0.49" fill="#1a1520" opacity="0.084"/><circle cx="228.4" cy="20.1" r="1.50" fill="#1a1520" opacity="0.115"/><circle cx="466.5" cy="292.8" r="0.58" fill="#1a1520" opacity="0.060"/><circle cx="378.3" cy="227.1" r="0.73" fill="#1a1520" opacity="0.042"/><circle cx="112.5" cy="212.7" r="1.29" fill="#1a1520" opacity="0.139"/><circle cx="38.7" cy="245.9" r="0.49" fill="#1a1520" opacity="0.065"/><circle cx="417.5" cy="280.9" r="1.18" fill="#1a1520" opacity="0.067"/><circle cx="425.9" cy="208.0" r="0.81" fill="#1a1520" opacity="0.095"/><circle cx="192.2" cy="218.9" r="1.33" fill="#1a1520" opacity="0.106"/><circle cx="135.2" cy="294.5" r="1.03" fill="#1a1520" opacity="0.077"/><circle cx="338.3" cy="38.2" r="0.42" fill="#1a1520" opacity="0.133"/><circle cx="355.4" cy="73.9" r="1.09" fill="#1a1520" opacity="0.108"/><circle cx="341.4" cy="239.2" r="1.79" fill="#1a1520" opacity="0.134"/><circle cx="152.5" cy="139.9" r="1.79" fill="#1a1520" opacity="0.128"/><circle cx="390.3" cy="223.7" r="1.22" fill="#1a1520" opacity="0.088"/><circle cx="429.4" cy="189.5" r="1.67" fill="#1a1520" opacity="0.055"/><circle cx="75.8" cy="189.6" r="0.57" fill="#1a1520" opacity="0.108"/><circle cx="38.5" cy="268.7" r="1.11" fill="#1a1520" opacity="0.102"/><circle cx="175.1" cy="10.9" r="1.47" fill="#1a1520" opacity="0.104"/><circle cx="346.3" cy="253.9" r="0.63" fill="#1a1520" opacity="0.073"/><circle cx="325.6" cy="93.7" r="1.14" fill="#1a1520" opacity="0.083"/><circle cx="7.8" cy="269.8" r="1.69" fill="#1a1520" opacity="0.085"/><circle cx="106.4" cy="248.7" r="1.52" fill="#1a1520" opacity="0.077"/><circle cx="339.9" cy="114.9" r="1.32" fill="#1a1520" opacity="0.132"/><circle cx="101.6" cy="183.8" r="0.75" fill="#1a1520" opacity="0.046"/><circle cx="150.5" cy="214.9" r="0.87" fill="#1a1520" opacity="0.136"/><circle cx="463.7" cy="24.0" r="1.29" fill="#1a1520" opacity="0.090"/><circle cx="471.4" cy="149.8" r="0.54" fill="#1a1520" opacity="0.124"/><circle cx="175.5" cy="60.9" r="1.47" fill="#1a1520" opacity="0.075"/><circle cx="444.2" cy="211.5" r="0.97" fill="#1a1520" opacity="0.053"/><circle cx="234.6" cy="168.7" r="1.65" fill="#1a1520" opacity="0.078"/><circle cx="192.4" cy="117.9" r="1.55" fill="#1a1520" opacity="0.139"/><circle cx="430.3" cy="174.7" r="1.79" fill="#1a1520" opacity="0.111"/><circle cx="250.4" cy="101.8" r="1.35" fill="#1a1520" opacity="0.043"/><circle cx="275.5" cy="112.5" r="0.53" fill="#1a1520" opacity="0.129"/><circle cx="438.0" cy="160.7" r="1.05" fill="#1a1520" opacity="0.136"/><circle cx="286.3" cy="210.9" r="0.88" fill="#1a1520" opacity="0.087"/><circle cx="331.2" cy="96.6" r="1.43" fill="#1a1520" opacity="0.051"/><circle cx="68.5" cy="148.9" r="1.42" fill="#1a1520" opacity="0.090"/><circle cx="42.8" cy="54.5" r="1.10" fill="#1a1520" opacity="0.079"/><circle cx="417.0" cy="46.6" r="0.48" fill="#1a1520" opacity="0.131"/><circle cx="312.6" cy="214.3" r="1.23" fill="#1a1520" opacity="0.053"/><circle cx="56.0" cy="221.6" r="1.29" fill="#1a1520" opacity="0.110"/><circle cx="420.3" cy="254.0" r="1.57" fill="#1a1520" opacity="0.047"/><circle cx="89.5" cy="20.2" r="1.77" fill="#1a1520" opacity="0.054"/><circle cx="44.3" cy="152.2" r="0.76" fill="#1a1520" opacity="0.050"/><circle cx="187.1" cy="286.9" r="0.91" fill="#1a1520" opacity="0.129"/><circle cx="1.5" cy="58.4" r="1.64" fill="#1a1520" opacity="0.111"/><circle cx="211.5" cy="259.2" r="0.58" fill="#1a1520" opacity="0.121"/><circle cx="416.2" cy="200.8" r="0.59" fill="#1a1520" opacity="0.129"/><circle cx="137.9" cy="87.5" r="0.84" fill="#1a1520" opacity="0.117"/><circle cx="390.2" cy="285.8" r="1.76" fill="#1a1520" opacity="0.058"/><circle cx="81.2" cy="190.7" r="0.93" fill="#1a1520" opacity="0.071"/><circle cx="436.0" cy="198.2" r="0.44" fill="#1a1520" opacity="0.057"/><circle cx="85.0" cy="274.2" r="0.62" fill="#1a1520" opacity="0.085"/><circle cx="256.4" cy="70.8" r="1.05" fill="#1a1520" opacity="0.124"/><circle cx="81.1" cy="31.5" r="0.49" fill="#1a1520" opacity="0.123"/><circle cx="407.8" cy="255.5" r="0.52" fill="#1a1520" opacity="0.065"/><circle cx="138.0" cy="108.2" r="0.80" fill="#1a1520" opacity="0.096"/><circle cx="280.3" cy="34.3" r="1.29" fill="#1a1520" opacity="0.060"/><circle cx="233.1" cy="293.8" r="1.55" fill="#1a1520" opacity="0.130"/><circle cx="393.7" cy="10.8" r="0.71" fill="#1a1520" opacity="0.069"/><circle cx="333.1" cy="139.0" r="1.57" fill="#1a1520" opacity="0.117"/><circle cx="474.7" cy="233.2" r="1.24" fill="#1a1520" opacity="0.065"/><circle cx="280.5" cy="113.0" r="1.60" fill="#1a1520" opacity="0.046"/><circle cx="281.5" cy="154.0" r="1.67" fill="#1a1520" opacity="0.083"/><circle cx="81.5" cy="109.8" r="0.45" fill="#1a1520" opacity="0.072"/><circle cx="282.8" cy="182.5" r="1.45" fill="#1a1520" opacity="0.049"/><circle cx="152.3" cy="154.3" r="1.66" fill="#1a1520" opacity="0.084"/><circle cx="85.7" cy="159.7" r="0.88" fill="#1a1520" opacity="0.079"/><circle cx="317.6" cy="30.0" r="1.47" fill="#1a1520" opacity="0.098"/><circle cx="310.4" cy="82.2" r="1.77" fill="#1a1520" opacity="0.070"/><circle cx="409.1" cy="237.9" r="0.90" fill="#1a1520" opacity="0.055"/><circle cx="47.7" cy="181.6" r="0.51" fill="#1a1520" opacity="0.078"/><circle cx="35.0" cy="260.0" r="1.66" fill="#1a1520" opacity="0.042"/><circle cx="25.4" cy="140.9" r="1.05" fill="#1a1520" opacity="0.041"/><circle cx="137.8" cy="75.6" r="0.65" fill="#1a1520" opacity="0.133"/><circle cx="443.1" cy="58.2" r="1.03" fill="#1a1520" opacity="0.127"/><circle cx="144.8" cy="185.9" r="1.77" fill="#1a1520" opacity="0.076"/><circle cx="22.2" cy="124.5" r="1.64" fill="#1a1520" opacity="0.069"/><circle cx="427.1" cy="182.2" r="1.31" fill="#1a1520" opacity="0.108"/><circle cx="465.7" cy="289.6" r="1.74" fill="#1a1520" opacity="0.059"/><circle cx="116.3" cy="68.5" r="0.59" fill="#fff8e7" opacity="0.070"/><circle cx="70.4" cy="155.0" r="0.65" fill="#fff8e7" opacity="0.052"/><circle cx="221.8" cy="272.2" r="0.78" fill="#fff8e7" opacity="0.082"/><circle cx="131.8" cy="229.7" r="0.34" fill="#fff8e7" opacity="0.040"/><circle cx="207.5" cy="103.3" r="0.62" fill="#fff8e7" opacity="0.094"/><circle cx="367.2" cy="135.1" r="0.66" fill="#fff8e7" opacity="0.089"/><circle cx="64.6" cy="197.3" r="0.53" fill="#fff8e7" opacity="0.076"/><circle cx="167.7" cy="229.9" r="0.63" fill="#fff8e7" opacity="0.096"/><circle cx="302.1" cy="274.8" r="0.76" fill="#fff8e7" opacity="0.094"/><circle cx="432.9" cy="142.8" r="1.06" fill="#fff8e7" opacity="0.084"/><circle cx="314.0" cy="96.5" r="0.78" fill="#fff8e7" opacity="0.040"/><circle cx="64.5" cy="129.5" r="0.49" fill="#fff8e7" opacity="0.096"/><circle cx="51.7" cy="136.1" r="1.03" fill="#fff8e7" opacity="0.033"/><circle cx="53.6" cy="186.2" r="0.37" fill="#fff8e7" opacity="0.044"/><circle cx="247.7" cy="45.8" r="1.04" fill="#fff8e7" opacity="0.079"/><circle cx="327.7" cy="149.8" r="0.72" fill="#fff8e7" opacity="0.073"/><circle cx="32.6" cy="243.4" r="0.77" fill="#fff8e7" opacity="0.080"/><circle cx="218.2" cy="129.4" r="0.64" fill="#fff8e7" opacity="0.044"/><circle cx="160.2" cy="267.7" r="0.98" fill="#fff8e7" opacity="0.048"/><circle cx="391.5" cy="273.9" r="0.77" fill="#fff8e7" opacity="0.103"/><circle cx="199.4" cy="17.4" r="0.84" fill="#fff8e7" opacity="0.052"/><circle cx="375.0" cy="228.9" r="1.10" fill="#fff8e7" opacity="0.048"/><circle cx="330.5" cy="267.4" r="0.90" fill="#fff8e7" opacity="0.096"/><circle cx="45.9" cy="235.4" r="0.39" fill="#fff8e7" opacity="0.097"/><circle cx="62.6" cy="25.4" r="0.98" fill="#fff8e7" opacity="0.079"/><circle cx="251.1" cy="152.0" r="0.61" fill="#fff8e7" opacity="0.057"/><circle cx="368.9" cy="94.9" r="0.95" fill="#fff8e7" opacity="0.062"/><circle cx="415.1" cy="291.8" r="0.49" fill="#fff8e7" opacity="0.094"/><circle cx="233.7" cy="185.8" r="0.43" fill="#fff8e7" opacity="0.059"/><circle cx="232.4" cy="157.1" r="0.94" fill="#fff8e7" opacity="0.053"/><circle cx="435.1" cy="281.5" r="0.40" fill="#fff8e7" opacity="0.050"/><circle cx="215.8" cy="37.4" r="0.69" fill="#fff8e7" opacity="0.036"/><circle cx="241.0" cy="250.8" r="0.97" fill="#fff8e7" opacity="0.106"/><circle cx="211.5" cy="138.9" r="0.34" fill="#fff8e7" opacity="0.062"/><circle cx="70.7" cy="125.0" r="0.64" fill="#fff8e7" opacity="0.047"/><circle cx="129.2" cy="150.3" r="0.37" fill="#fff8e7" opacity="0.058"/><circle cx="156.7" cy="66.4" r="1.17" fill="#fff8e7" opacity="0.099"/><circle cx="140.5" cy="79.5" r="1.07" fill="#fff8e7" opacity="0.094"/><circle cx="430.7" cy="193.3" r="0.53" fill="#fff8e7" opacity="0.054"/><circle cx="52.3" cy="23.5" r="0.48" fill="#fff8e7" opacity="0.063"/></g>
<rect x="8" y="8" width="464" height="284" fill="none" stroke="#f5efe0" stroke-opacity="0.22" stroke-width="2" rx="4"/>
</svg>
