<?xml version="1.0" encoding="UTF-8"?>
<svg xmlns="http://www.w3.org/2000/svg" viewBox="0 0 480 300" width="480" height="300" role="img" aria-label="osaka">

    <defs>
      <linearGradient id="sky" x1="0" y1="0" x2="0" y2="1">
        <stop offset="0%" stop-color="#f0c0a0"/>
        <stop offset="55%" stop-color="#d09070"/>
        <stop offset="100%" stop-color="#806050"/>
      </linearGradient>
      <radialGradient id="glow" cx="70%" cy="22%" r="45%">
        <stop offset="0%" stop-color="#fff6d8" stop-opacity="0.45"/>
        <stop offset="100%" stop-color="#fff6d8" stop-opacity="0"/>
      </radialGradient>
      <linearGradient id="ground" x1="0" y1="0" x2="0" y2="1">
        <stop offset="0%" stop-color="#2a3340" stop-opacity="0"/>
        <stop offset="100%" stop-color="#121820" stop-opacity="0.55"/>
      </linearGradient>
    </defs>
    <rect width="480" height="300" fill="url(#sky)"/>
    <rect width="480" height="300" fill="url(#glow)"/>
  
<g opacity="0.28" fill="#f7f3ea">
    <ellipse cx="95.04665293730795" cy="40.39000956341624" rx="29.716466386616226" ry="12.735628451406955"/>
    <ellipse cx="114.15009561441839" cy="36.14480007961392" rx="21.226047419011593" ry="10.613023709505796"/>
    <ellipse cx="78.06581500209867" cy="42.5126143053174" rx="16.980837935209273" ry="8.490418967604636"/>
  </g>
<g opacity="0.22" fill="#f7f3ea">
    <ellipse cx="312.4437743239105" cy="47.207695642719045" rx="35.47630614414811" ry="15.204131204634905"/>
    <ellipse cx="335.24997113086283" cy="42.139651907840744" rx="25.340218674391508" ry="12.670109337195754"/>
    <ellipse cx="292.17159938439727" cy="49.741717510158196" rx="20.272174939513206" ry="10.136087469756603"/>
  </g>
<path d="M0 210 C80 182 160 228 240 198 S400 180 480 216 L480 300 L0 300 Z" fill="#5a6a5a" opacity="0.55"/>
<path d="M0 218 C80 176 160 228 240 194 S400 180 480 216 L480 300 L0 300 Z" fill="#3a4a3a" opacity="0.67"/>

    <g fill="#d9cfc0" transform="translate(240,130)">
      <rect x="-70" y="40" width="140" height="70"/>
      <rect x="-80" y="20" width="30" height="90"/><rect x="50" y="20" width="30" height="90"/>
      <rect x="-20" y="0" width="40" height="110"/>
      <path d="M-80 20 L-65 0 L-50 20 Z"/><path d="M50 20 L65 0 L80 20 Z"/>
      <path d="M-20 0 L0 -28 L20 0 Z" fill="#c45c48"/>
      <rect x="-10" y="70" width="20" height="40" fill="#4a3a32"/>
    </g>
<rect width="480" height="300" fill="url(#ground)"/>
  <rect width="480" height="300" fill="none" stroke="#1a1520" stroke-width="28" stroke-opacity="0.18"/>
<g id="grain-osaka" opacity="0.85"><circle cx="420.6" cy="5.9" r="0.96" fill="#1a1520" opacity="0.081"/><circle cx="330.4" cy="160.2" r="0.73" fill="#1a1520" opacity="0.061"/><circle cx="119.1" cy="50.9" r="1.73" fill="#1a1520" opacity="0.086"/><circle cx="62.4" cy="85.9" r="0.51" fill="#1a1520" opacity="0.091"/><circle cx="339.1" cy="88.0" r="1.64" fill="#1a1520" opacity="0.137"/><circle cx="338.4" cy="221.9" r="1.44" fill="#1a1520" opacity="0.090"/><circle cx="437.9" cy="236.3" r="1.05" fill="#1a1520" opacity="0.060"/><circle cx="339.4" cy="42.4" r="1.39" fill="#1a1520" opacity="0.044"/><circle cx="85.5" cy="205.3" r="1.00" fill="#1a1520" opacity="0.111"/><circle cx="294.7" cy="3.2" r="1.50" fill="#1a1520" opacity="0.101"/><circle cx="138.1" cy="292.7" r="1.46" fill="#1a1520" opacity="0.046"/><circle cx="73.3" cy="284.5" r="0.73" fill="#1a1520" opacity="0.047"/><circle cx="261.3" cy="91.6" r="0.48" fill="#1a1520" opacity="0.090"/><circle cx="363.9" cy="120.2" r="0.84" fill="#1a1520" opacity="0.107"/><circle cx="398.5" cy="117.5" r="0.44" fill="#1a1520" opacity="0.065"/><circle cx="63.9" cy="37.5" r="1.22" fill="#1a1520" opacity="0.112"/><circle cx="94.5" cy="113.9" r="0.93" fill="#1a1520" opacity="0.096"/><circle cx="64.6" cy="187.5" r="1.55" fill="#1a1520" opacity="0.042"/><circle cx="4.7" cy="154.2" r="1.09" fill="#1a1520" opacity="0.111"/><circle cx="308.7" cy="163.7" r="1.12" fill="#1a1520" opacity="0.061"/><circle cx="30.5" cy="198.5" r="1.10" fill="#1a1520" opacity="0.047"/><circle cx="299.5" cy="42.7" r="0.62" fill="#1a1520" opacity="0.126"/><circle cx="240.4" cy="26.0" r="1.25" fill="#1a1520" opacity="0.123"/><circle cx="419.0" cy="168.1" r="1.39" fill="#1a1520" opacity="0.096"/><circle cx="231.2" cy="48.6" r="1.55" fill="#1a1520" opacity="0.046"/><circle cx="62.2" cy="295.9" r="1.32" fill="#1a1520" opacity="0.114"/><circle cx="282.5" cy="293.1" r="1.39" fill="#1a1520" opacity="0.053"/><circle cx="360.9" cy="243.6" r="0.80" fill="#1a1520" opacity="0.134"/><circle cx="228.9" cy="72.4" r="1.68" fill="#1a1520" opacity="0.104"/><circle cx="270.1" cy="258.1" r="0.82" fill="#1a1520" opacity="0.072"/><circle cx="95.1" cy="254.3" r="1.68" fill="#1a1520" opacity="0.080"/><circle cx="81.5" cy="250.8" r="0.57" fill="#1a1520" opacity="0.137"/><circle cx="48.5" cy="265.2" r="1.48" fill="#1a1520" opacity="0.134"/><circle cx="92.4" cy="125.6" r="1.16" fill="#1a1520" opacity="0.083"/><circle cx="410.5" cy="235.7" r="0.44" fill="#1a1520" opacity="0.124"/><circle cx="441.6" cy="221.6" r="1.34" fill="#1a1520" opacity="0.064"/><circle cx="219.1" cy="101.6" r="0.87" fill="#1a1520" opacity="0.071"/><circle cx="128.9" cy="222.4" r="1.74" fill="#1a1520" opacity="0.053"/><circle cx="114.5" cy="45.1" r="0.61" fill="#1a1520" opacity="0.130"/><circle cx="321.0" cy="40.3" r="0.41" fill="#1a1520" opacity="0.106"/><circle cx="72.5" cy="80.2" r="1.02" fill="#1a1520" opacity="0.061"/><circle cx="169.3" cy="145.0" r="1.19" fill="#1a1520" opacity="0.045"/><circle cx="365.7" cy="252.6" r="0.79" fill="#1a1520" opacity="0.118"/><circle cx="94.6" cy="273.4" r="1.74" fill="#1a1520" opacity="0.059"/><circle cx="177.0" cy="229.1" r="0.73" fill="#1a1520" opacity="0.102"/><circle cx="164.0" cy="239.5" r="1.60" fill="#1a1520" opacity="0.044"/><circle cx="216.4" cy="92.1" r="1.31" fill="#1a1520" opacity="0.045"/><circle cx="39.4" cy="197.2" r="1.00" fill="#1a1520" opacity="0.122"/><circle cx="450.9" cy="108.2" r="0.92" fill="#1a1520" opacity="0.098"/><circle cx="345.2" cy="197.2" r="1.00" fill="#1a1520" opacity="0.090"/><circle cx="335.1" cy="180.5" r="1.35" fill="#1a1520" opacity="0.048"/><circle cx="296.4" cy="39.6" r="1.14" fill="#1a1520" opacity="0.113"/><circle cx="52.7" cy="206.9" r="0.87" fill="#1a1520" opacity="0.049"/><circle cx="334.1" cy="111.2" r="1.33" fill="#1a1520" opacity="0.069"/><circle cx="352.6" cy="135.8" r="1.49" fill="#1a1520" opacity="0.050"/><circle cx="289.4" cy="68.1" r="0.85" fill="#1a1520" opacity="0.051"/><circle cx="10.6" cy="192.1" r="0.79" fill="#1a1520" opacity="0.058"/><circle cx="212.0" cy="273.1" r="1.04" fill="#1a1520" opacity="0.130"/><circle cx="140.3" cy="238.7" r="1.60" fill="#1a1520" opacity="0.106"/><circle cx="81.1" cy="270.3" r="1.70" fill="#1a1520" opacity="0.089"/><circle cx="449.2" cy="249.6" r="0.63" fill="#1a1520" opacity="0.098"/><circle cx="441.7" cy="177.5" r="0.75" fill="#1a1520" opacity="0.091"/><circle cx="30.5" cy="287.4" r="0.56" fill="#1a1520" opacity="0.120"/><circle cx="154.0" cy="57.8" r="0.56" fill="#1a1520" opacity="0.128"/><circle cx="33.8" cy="83.2" r="0.48" fill="#1a1520" opacity="0.050"/><circle cx="174.7" cy="232.3" r="1.37" fill="#1a1520" opacity="0.090"/><circle cx="374.4" cy="91.0" r="1.22" fill="#1a1520" opacity="0.119"/><circle cx="335.3" cy="294.8" r="0.66" fill="#1a1520" opacity="0.117"/><circle cx="281.2" cy="113.9" r="1.36" fill="#1a1520" opacity="0.130"/><circle cx="277.6" cy="41.0" r="1.32" fill="#1a1520" opacity="0.131"/><circle cx="435.4" cy="132.7" r="1.53" fill="#1a1520" opacity="0.074"/><circle cx="35.6" cy="159.6" r="1.28" fill="#1a1520" opacity="0.056"/><circle cx="136.6" cy="155.4" r="0.72" fill="#1a1520" opacity="0.112"/><circle cx="316.6" cy="230.2" r="1.65" fill="#1a1520" opacity="0.134"/><circle cx="83.1" cy="168.2" r="1.40" fill="#1a1520" opacity="0.121"/><circle cx="428.1" cy="187.7" r="1.12" fill="#1a1520" opacity="0.133"/><circle cx="355.3" cy="199.1" r="0.73" fill="#1a1520" opacity="0.086"/><circle cx="314.7" cy="41.1" r="0.85" fill="#1a1520" opacity="0.090"/><circle cx="384.5" cy="185.1" r="1.09" fill="#1a1520" opacity="0.061"/><circle cx="331.6" cy="267.0" r="0.93" fill="#1a1520" opacity="0.076"/><circle cx="47.9" cy="247.3" r="0.76" fill="#1a1520" opacity="0.055"/><circle cx="238.7" cy="93.1" r="0.69" fill="#1a1520" opacity="0.058"/><circle cx="70.0" cy="262.0" r="1.28" fill="#1a1520" opacity="0.099"/><circle cx="296.9" cy="52.9" r="0.71" fill="#1a1520" opacity="0.098"/><circle cx="189.4" cy="283.2" r="1.22" fill="#1a1520" opacity="0.104"/><circle cx="362.8" cy="17.7" r="1.75" fill="#1a1520" opacity="0.080"/><circle cx="251.5" cy="179.4" r="0.89" fill="#1a1520" opacity="0.084"/><circle cx="84.8" cy="128.0" r="1.16" fill="#1a1520" opacity="0.121"/><circle cx="5.9" cy="35.4" r="1.50" fill="#1a1520" opacity="0.041"/><circle cx="453.9" cy="200.4" r="1.23" fill="#1a1520" opacity="0.101"/><circle cx="312.0" cy="101.8" r="1.03" fill="#fff8e7" opacity="0.080"/><circle cx="185.5" cy="270.6" r="0.83" fill="#fff8e7" opacity="0.061"/><circle cx="110.5" cy="146.9" r="1.08" fill="#fff8e7" opacity="0.072"/><circle cx="276.5" cy="110.0" r="1.04" fill="#fff8e7" opacity="0.047"/><circle cx="293.0" cy="127.7" r="1.00" fill="#fff8e7" opacity="0.078"/><circle cx="451.2" cy="280.0" r="0.48" fill="#fff8e7" opacity="0.033"/><circle cx="344.0" cy="91.6" r="0.98" fill="#fff8e7" opacity="0.053"/><circle cx="6.0" cy="282.6" r="0.30" fill="#fff8e7" opacity="0.081"/><circle cx="63.6" cy="93.1" r="0.57" fill="#fff8e7" opacity="0.072"/><circle cx="91.3" cy="214.6" r="0.39" fill="#fff8e7" opacity="0.054"/><circle cx="374.6" cy="233.2" r="0.35" fill="#fff8e7" opacity="0.069"/><circle cx="301.0" cy="241.2" r="0.40" fill="#fff8e7" opacity="0.084"/><circle cx="171.4" cy="222.5" r="0.56" fill="#fff8e7" opacity="0.076"/><circle cx="306.9" cy="292.0" r="0.62" fill="#fff8e7" opacity="0.057"/><circle cx="400.1" cy="77.5" r="0.62" fill="#fff8e7" opacity="0.048"/><circle cx="241.1" cy="0.1" r="0.97" fill="#fff8e7" opacity="0.097"/><circle cx="30.6" cy="250.4" r="1.18" fill="#fff8e7" opacity="0.041"/><circle cx="56.0" cy="78.7" r="1.09" fill="#fff8e7" opacity="0.068"/><circle cx="165.9" cy="275.4" r="0.64" fill="#fff8e7" opacity="0.036"/><circle cx="336.0" cy="145.5" r="0.54" fill="#fff8e7" opacity="0.090"/><circle cx="143.4" cy="210.0" r="0.57" fill="#fff8e7" opacity="0.031"/><circle cx="364.5" cy="18.6" r="0.56" fill="#fff8e7" opacity="0.105"/><circle cx="87.3" cy="200.2" r="0.37" fill="#fff8e7" opacity="0.040"/><circle cx="83.9" cy="184.0" r="0.85" fill="#fff8e7" opacity="0.097"/><circle cx="448.4" cy="252.3" r="1.09" fill="#fff8e7" opacity="0.094"/><circle cx="416.4" cy="45.4" r="0.79" fill="#fff8e7" opacity="0.076"/><circle cx="389.3" cy="39.8" r="0.41" fill="#fff8e7" opacity="0.093"/><circle cx="177.9" cy="176.2" r="0.75" fill="#fff8e7" opacity="0.098"/><circle cx="277.7" cy="157.6" r="1.06" fill="#fff8e7" opacity="0.044"/><circle cx="407.1" cy="70.8" r="0.86" fill="#fff8e7" opacity="0.091"/><circle cx="348.0" cy="240.3" r="0.53" fill="#fff8e7" opacity="0.038"/><circle cx="242.6" cy="147.3" r="0.86" fill="#fff8e7" opacity="0.046"/><circle cx="390.9" cy="184.6" r="0.62" fill="#fff8e7" opacity="0.055"/><circle cx="210.0" cy="230.2" r="0.66" fill="#fff8e7" opacity="0.097"/><circle cx="3.3" cy="215.0" r="0.41" fill="#fff8e7" opacity="0.094"/><circle cx="87.3" cy="130.4" r="1.06" fill="#fff8e7" opacity="0.034"/><circle cx="211.4" cy="164.4" r="0.57" fill="#fff8e7" opacity="0.105"/><circle cx="374.1" cy="196.5" r="0.64" fill="#fff8e7" opacity="0.098"/><circle cx="425.6" cy="163.0" r="1.12" fill="#fff8e7" opacity="0.055"/><circle cx="437.8" cy="94.2" r="0.46" fill="#fff8e7" opacity="0.081"/></g>
<rect x="8" y="8" width="464" height="284" fill="none" stroke="#f5efe0" stroke-opacity="0.22" stroke-width="2" rx="4"/>
</svg>
