<?xml version="1.0" encoding="UTF-8"?>
<svg xmlns="http://www.w3.org/2000/svg" viewBox="0 0 480 300" width="480" height="300" role="img" aria-label="paris">

    <defs>
      <linearGradient id="sky" x1="0" y1="0" x2="0" y2="1">
        <stop offset="0%" stop-color="#c8d8f0"/>
        <stop offset="55%" stop-color="#90a8c8"/>
        <stop offset="100%" stop-color="#607088"/>
      </linearGradient>
      <radialGradient id="glow" cx="70%" cy="22%" r="45%">
        <stop offset="0%" stop-color="#fff6d8" stop-opacity="0.45"/>
        <stop offset="100%" stop-color="#fff6d8" stop-opacity="0"/>
      </radialGradient>
      <linearGradient id="ground" x1="0" y1="0" x2="0" y2="1">
        <stop offset="0%" stop-color="#2a3340" stop-opacity="0"/>
        <stop offset="100%" stop-color="#121820" stop-opacity="0.55"/>
      </linearGradient>
    </defs>
    <rect width="480" height="300" fill="url(#sky)"/>
    <rect width="480" height="300" fill="url(#glow)"/>
  
<g opacity="0.28" fill="#f7f3ea">
    <ellipse cx="96.30805631168187" cy="47.702704523690045" rx="36.35485703796149" ry="15.580653016269208"/>
    <ellipse cx="119.67903583608567" cy="42.50915351826698" rx="25.967755027115345" ry="12.983877513557673"/>
    <ellipse cx="75.5338522899896" cy="50.29948002640158" rx="20.774204021692277" ry="10.387102010846139"/>
  </g>
<g opacity="0.22" fill="#f7f3ea">
    <ellipse cx="314.63732255622745" cy="30.775508070364594" rx="30.218963924329728" ry="12.950984538998455"/>
    <ellipse cx="334.0637993647251" cy="26.458513224031776" rx="21.58497423166409" ry="10.792487115832046"/>
    <ellipse cx="297.3693431708962" cy="32.934005493531004" rx="17.267979385331273" ry="8.633989692665637"/>
  </g>

    <g fill="#3a4558" opacity="0.85">
      <rect x="40" y="170" width="28" height="60"/><rect x="80" y="150" width="22" height="80"/>
      <rect x="360" y="160" width="30" height="70"/><rect x="400" y="175" width="36" height="55"/>
    </g>
    <g fill="#5a4a3a" transform="translate(240,55)">
      <path d="M0 0 L8 40 L-8 40 Z"/>
      <path d="M-8 40 L-35 175 L-22 175 L0 55 L22 175 L35 175 L8 40 Z"/>
      <rect x="-28" y="90" width="56" height="5"/>
      <rect x="-18" y="130" width="36" height="4"/>
    </g>
<rect width="480" height="300" fill="url(#ground)"/>
  <rect width="480" height="300" fill="none" stroke="#1a1520" stroke-width="28" stroke-opacity="0.18"/>
<g id="grain-paris" opacity="0.85"><circle cx="435.7" cy="115.5" r="1.79" fill="#1a1520" opacity="0.083"/><circle cx="14.9" cy="47.5" r="0.71" fill="#1a1520" opacity="0.048"/><circle cx="45.8" cy="288.4" r="0.67" fill="#1a1520" opacity="0.043"/><circle cx="434.9" cy="238.6" r="1.37" fill="#1a1520" opacity="0.045"/><circle cx="345.7" cy="50.2" r="0.85" fill="#1a1520" opacity="0.138"/><circle cx="466.8" cy="46.3" r="0.52" fill="#1a1520" opacity="0.048"/><circle cx="173.9" cy="84.5" r="1.46" fill="#1a1520" opacity="0.052"/><circle cx="248.1" cy="270.4" r="1.06" fill="#1a1520" opacity="0.051"/><circle cx="280.8" cy="115.9" r="0.94" fill="#1a1520" opacity="0.079"/><circle cx="193.1" cy="227.0" r="0.66" fill="#1a1520" opacity="0.064"/><circle cx="136.6" cy="268.1" r="1.34" fill="#1a1520" opacity="0.060"/><circle cx="161.0" cy="10.8" r="1.45" fill="#1a1520" opacity="0.088"/><circle cx="453.5" cy="189.3" r="1.62" fill="#1a1520" opacity="0.041"/><circle cx="134.2" cy="183.2" r="0.81" fill="#1a1520" opacity="0.067"/><circle cx="278.2" cy="118.5" r="0.99" fill="#1a1520" opacity="0.110"/><circle cx="448.0" cy="275.0" r="0.52" fill="#1a1520" opacity="0.115"/><circle cx="471.7" cy="265.7" r="1.64" fill="#1a1520" opacity="0.071"/><circle cx="248.4" cy="295.7" r="1.36" fill="#1a1520" opacity="0.053"/><circle cx="83.8" cy="140.0" r="1.14" fill="#1a1520" opacity="0.111"/><circle cx="355.3" cy="190.7" r="1.60" fill="#1a1520" opacity="0.098"/><circle cx="365.7" cy="158.3" r="1.03" fill="#1a1520" opacity="0.140"/><circle cx="119.9" cy="194.1" r="0.67" fill="#1a1520" opacity="0.103"/><circle cx="116.6" cy="16.3" r="1.17" fill="#1a1520" opacity="0.093"/><circle cx="29.1" cy="64.1" r="1.01" fill="#1a1520" opacity="0.097"/><circle cx="117.5" cy="286.5" r="0.58" fill="#1a1520" opacity="0.135"/><circle cx="347.5" cy="33.3" r="1.42" fill="#1a1520" opacity="0.116"/><circle cx="231.9" cy="31.8" r="0.42" fill="#1a1520" opacity="0.127"/><circle cx="349.8" cy="14.5" r="0.49" fill="#1a1520" opacity="0.136"/><circle cx="453.3" cy="33.6" r="1.09" fill="#1a1520" opacity="0.054"/><circle cx="127.3" cy="257.6" r="0.66" fill="#1a1520" opacity="0.129"/><circle cx="86.7" cy="186.0" r="0.72" fill="#1a1520" opacity="0.064"/><circle cx="71.8" cy="15.5" r="1.65" fill="#1a1520" opacity="0.061"/><circle cx="83.3" cy="240.7" r="0.88" fill="#1a1520" opacity="0.081"/><circle cx="401.1" cy="250.6" r="0.69" fill="#1a1520" opacity="0.107"/><circle cx="479.2" cy="262.3" r="1.76" fill="#1a1520" opacity="0.139"/><circle cx="42.2" cy="155.0" r="0.60" fill="#1a1520" opacity="0.066"/><circle cx="8.5" cy="292.4" r="1.63" fill="#1a1520" opacity="0.074"/><circle cx="449.5" cy="97.5" r="1.28" fill="#1a1520" opacity="0.115"/><circle cx="41.0" cy="213.2" r="0.99" fill="#1a1520" opacity="0.063"/><circle cx="337.6" cy="102.3" r="1.53" fill="#1a1520" opacity="0.066"/><circle cx="413.4" cy="298.1" r="1.09" fill="#1a1520" opacity="0.135"/><circle cx="442.6" cy="210.3" r="0.85" fill="#1a1520" opacity="0.115"/><circle cx="137.1" cy="221.5" r="0.97" fill="#1a1520" opacity="0.126"/><circle cx="28.6" cy="46.1" r="0.51" fill="#1a1520" opacity="0.061"/><circle cx="296.5" cy="113.9" r="0.62" fill="#1a1520" opacity="0.081"/><circle cx="68.1" cy="257.8" r="1.40" fill="#1a1520" opacity="0.108"/><circle cx="21.0" cy="236.4" r="1.22" fill="#1a1520" opacity="0.042"/><circle cx="64.9" cy="242.8" r="1.45" fill="#1a1520" opacity="0.071"/><circle cx="259.7" cy="85.6" r="0.71" fill="#1a1520" opacity="0.124"/><circle cx="80.1" cy="213.2" r="1.08" fill="#1a1520" opacity="0.077"/><circle cx="212.5" cy="271.3" r="1.46" fill="#1a1520" opacity="0.081"/><circle cx="155.6" cy="269.4" r="1.05" fill="#1a1520" opacity="0.067"/><circle cx="121.6" cy="108.3" r="1.18" fill="#1a1520" opacity="0.108"/><circle cx="139.6" cy="66.2" r="0.49" fill="#1a1520" opacity="0.068"/><circle cx="34.4" cy="147.8" r="1.61" fill="#1a1520" opacity="0.129"/><circle cx="180.2" cy="204.4" r="1.01" fill="#1a1520" opacity="0.123"/><circle cx="85.9" cy="268.0" r="0.81" fill="#1a1520" opacity="0.082"/><circle cx="358.6" cy="232.8" r="1.13" fill="#1a1520" opacity="0.084"/><circle cx="308.3" cy="11.2" r="0.54" fill="#1a1520" opacity="0.063"/><circle cx="317.9" cy="60.0" r="0.73" fill="#1a1520" opacity="0.128"/><circle cx="385.7" cy="109.9" r="0.70" fill="#1a1520" opacity="0.055"/><circle cx="364.0" cy="187.8" r="0.41" fill="#1a1520" opacity="0.099"/><circle cx="29.1" cy="208.5" r="1.27" fill="#1a1520" opacity="0.113"/><circle cx="153.8" cy="159.5" r="1.13" fill="#1a1520" opacity="0.043"/><circle cx="20.6" cy="80.1" r="0.78" fill="#1a1520" opacity="0.135"/><circle cx="164.1" cy="10.5" r="0.74" fill="#1a1520" opacity="0.085"/><circle cx="103.5" cy="29.5" r="0.63" fill="#1a1520" opacity="0.097"/><circle cx="17.7" cy="207.3" r="0.50" fill="#1a1520" opacity="0.078"/><circle cx="103.1" cy="35.1" r="0.84" fill="#1a1520" opacity="0.046"/><circle cx="122.2" cy="55.9" r="0.98" fill="#1a1520" opacity="0.078"/><circle cx="170.5" cy="86.5" r="0.79" fill="#1a1520" opacity="0.139"/><circle cx="107.2" cy="221.6" r="0.76" fill="#1a1520" opacity="0.121"/><circle cx="15.8" cy="254.3" r="1.54" fill="#1a1520" opacity="0.056"/><circle cx="143.1" cy="136.0" r="0.99" fill="#1a1520" opacity="0.099"/><circle cx="352.2" cy="98.0" r="0.43" fill="#1a1520" opacity="0.104"/><circle cx="179.2" cy="138.8" r="1.28" fill="#1a1520" opacity="0.051"/><circle cx="456.7" cy="298.5" r="1.76" fill="#1a1520" opacity="0.133"/><circle cx="111.4" cy="56.3" r="0.45" fill="#1a1520" opacity="0.121"/><circle cx="233.2" cy="207.8" r="0.55" fill="#1a1520" opacity="0.098"/><circle cx="388.0" cy="161.9" r="0.85" fill="#1a1520" opacity="0.115"/><circle cx="52.7" cy="71.3" r="0.58" fill="#1a1520" opacity="0.097"/><circle cx="6.6" cy="149.1" r="1.60" fill="#1a1520" opacity="0.067"/><circle cx="365.2" cy="67.9" r="1.00" fill="#1a1520" opacity="0.095"/><circle cx="225.9" cy="62.2" r="1.42" fill="#1a1520" opacity="0.117"/><circle cx="339.7" cy="53.9" r="0.62" fill="#1a1520" opacity="0.106"/><circle cx="6.0" cy="181.8" r="0.42" fill="#1a1520" opacity="0.044"/><circle cx="397.6" cy="195.9" r="1.25" fill="#1a1520" opacity="0.072"/><circle cx="285.6" cy="112.4" r="0.54" fill="#1a1520" opacity="0.057"/><circle cx="305.5" cy="221.8" r="0.68" fill="#1a1520" opacity="0.085"/><circle cx="171.1" cy="91.6" r="1.64" fill="#1a1520" opacity="0.130"/><circle cx="228.3" cy="73.4" r="0.76" fill="#fff8e7" opacity="0.066"/><circle cx="390.2" cy="129.0" r="0.66" fill="#fff8e7" opacity="0.046"/><circle cx="28.6" cy="120.6" r="1.13" fill="#fff8e7" opacity="0.099"/><circle cx="474.5" cy="276.8" r="0.68" fill="#fff8e7" opacity="0.055"/><circle cx="331.5" cy="138.1" r="0.49" fill="#fff8e7" opacity="0.070"/><circle cx="361.7" cy="205.4" r="0.51" fill="#fff8e7" opacity="0.063"/><circle cx="110.0" cy="170.2" r="1.00" fill="#fff8e7" opacity="0.064"/><circle cx="245.6" cy="221.4" r="0.75" fill="#fff8e7" opacity="0.063"/><circle cx="450.7" cy="32.5" r="0.61" fill="#fff8e7" opacity="0.043"/><circle cx="463.8" cy="186.7" r="0.36" fill="#fff8e7" opacity="0.052"/><circle cx="428.3" cy="230.0" r="0.82" fill="#fff8e7" opacity="0.078"/><circle cx="328.1" cy="128.3" r="0.60" fill="#fff8e7" opacity="0.106"/><circle cx="474.0" cy="178.0" r="1.04" fill="#fff8e7" opacity="0.049"/><circle cx="464.9" cy="230.6" r="0.48" fill="#fff8e7" opacity="0.091"/><circle cx="169.8" cy="36.1" r="0.99" fill="#fff8e7" opacity="0.062"/><circle cx="427.0" cy="240.4" r="1.14" fill="#fff8e7" opacity="0.031"/><circle cx="4.6" cy="43.7" r="0.90" fill="#fff8e7" opacity="0.071"/><circle cx="150.1" cy="112.7" r="0.75" fill="#fff8e7" opacity="0.038"/><circle cx="289.6" cy="149.2" r="1.18" fill="#fff8e7" opacity="0.096"/><circle cx="19.4" cy="160.7" r="1.01" fill="#fff8e7" opacity="0.088"/><circle cx="32.7" cy="222.8" r="0.91" fill="#fff8e7" opacity="0.061"/><circle cx="9.3" cy="282.0" r="1.14" fill="#fff8e7" opacity="0.092"/><circle cx="263.0" cy="273.6" r="0.86" fill="#fff8e7" opacity="0.092"/><circle cx="381.5" cy="220.0" r="0.55" fill="#fff8e7" opacity="0.059"/><circle cx="238.3" cy="2.0" r="0.87" fill="#fff8e7" opacity="0.078"/><circle cx="361.1" cy="191.5" r="0.64" fill="#fff8e7" opacity="0.036"/><circle cx="5.4" cy="286.7" r="0.58" fill="#fff8e7" opacity="0.037"/><circle cx="162.5" cy="233.6" r="0.40" fill="#fff8e7" opacity="0.052"/><circle cx="354.1" cy="33.8" r="0.98" fill="#fff8e7" opacity="0.090"/><circle cx="0.6" cy="195.5" r="0.74" fill="#fff8e7" opacity="0.091"/><circle cx="447.6" cy="90.9" r="1.07" fill="#fff8e7" opacity="0.051"/><circle cx="73.1" cy="213.6" r="1.09" fill="#fff8e7" opacity="0.074"/><circle cx="10.1" cy="180.6" r="0.77" fill="#fff8e7" opacity="0.094"/><circle cx="71.8" cy="152.3" r="0.67" fill="#fff8e7" opacity="0.045"/><circle cx="317.9" cy="272.5" r="0.40" fill="#fff8e7" opacity="0.069"/><circle cx="54.2" cy="219.1" r="1.15" fill="#fff8e7" opacity="0.048"/><circle cx="431.8" cy="123.3" r="0.73" fill="#fff8e7" opacity="0.110"/><circle cx="185.8" cy="98.6" r="0.51" fill="#fff8e7" opacity="0.053"/><circle cx="237.1" cy="239.7" r="0.49" fill="#fff8e7" opacity="0.074"/><circle cx="213.3" cy="109.0" r="0.90" fill="#fff8e7" opacity="0.095"/></g>
<rect x="8" y="8" width="464" height="284" fill="none" stroke="#f5efe0" stroke-opacity="0.22" stroke-width="2" rx="4"/>
</svg>
