<?xml version="1.0" encoding="UTF-8"?>
<svg xmlns="http://www.w3.org/2000/svg" viewBox="0 0 480 300" width="480" height="300" role="img" aria-label="pisa">

    <defs>
      <linearGradient id="sky" x1="0" y1="0" x2="0" y2="1">
        <stop offset="0%" stop-color="#87ceeb"/>
        <stop offset="55%" stop-color="#6ab0d0"/>
        <stop offset="100%" stop-color="#e8c878"/>
      </linearGradient>
      <radialGradient id="glow" cx="70%" cy="22%" r="45%">
        <stop offset="0%" stop-color="#fff6d8" stop-opacity="0.45"/>
        <stop offset="100%" stop-color="#fff6d8" stop-opacity="0"/>
      </radialGradient>
      <linearGradient id="ground" x1="0" y1="0" x2="0" y2="1">
        <stop offset="0%" stop-color="#2a3340" stop-opacity="0"/>
        <stop offset="100%" stop-color="#121820" stop-opacity="0.55"/>
      </linearGradient>
    </defs>
    <rect width="480" height="300" fill="url(#sky)"/>
    <rect width="480" height="300" fill="url(#glow)"/>
  
<g opacity="0.28" fill="#f7f3ea">
    <ellipse cx="97.2904621809721" cy="49.77200957015157" rx="33.93504231087864" ry="14.543589561805131"/>
    <ellipse cx="119.10584652367979" cy="44.924146382883194" rx="24.239315936341885" ry="12.119657968170943"/>
    <ellipse cx="77.89900943189859" cy="52.195941163785754" rx="19.39145274907351" ry="9.695726374536754"/>
  </g>
<g opacity="0.22" fill="#f7f3ea">
    <ellipse cx="281.15046598017216" cy="51.44986107596196" rx="41.219263271894306" ry="17.66539854509756"/>
    <ellipse cx="307.6485637978185" cy="45.561394894262776" rx="29.442330908495933" ry="14.721165454247966"/>
    <ellipse cx="257.5966012533754" cy="54.394094166811556" rx="23.553864726796746" ry="11.776932363398373"/>
  </g>

    <g transform="translate(300,90) rotate(6)">
      <rect x="-22" y="20" width="44" height="140" fill="#e8dfd0" rx="4"/>
      <ellipse cx="0" cy="20" rx="28" ry="10" fill="#f0e8da"/>
      <g fill="none" stroke="#c8b8a0" stroke-width="3">
        <ellipse cx="0" cy="50" rx="22" ry="6"/><ellipse cx="0" cy="80" rx="22" ry="6"/>
        <ellipse cx="0" cy="110" rx="22" ry="6"/><ellipse cx="0" cy="140" rx="22" ry="6"/>
      </g>
    </g>
    <g fill="#3a4a3a" opacity="0.5">
      <ellipse cx="120" cy="230" rx="60" ry="20"/><ellipse cx="200" cy="235" rx="40" ry="14"/>
    </g>
<rect width="480" height="300" fill="url(#ground)"/>
  <rect width="480" height="300" fill="none" stroke="#1a1520" stroke-width="28" stroke-opacity="0.18"/>
<g id="grain-pisa" opacity="0.85"><circle cx="447.5" cy="146.6" r="1.49" fill="#1a1520" opacity="0.041"/><circle cx="411.8" cy="283.3" r="0.67" fill="#1a1520" opacity="0.109"/><circle cx="301.3" cy="273.5" r="0.70" fill="#1a1520" opacity="0.091"/><circle cx="89.9" cy="26.4" r="1.37" fill="#1a1520" opacity="0.077"/><circle cx="150.0" cy="30.7" r="0.54" fill="#1a1520" opacity="0.085"/><circle cx="427.0" cy="128.6" r="0.71" fill="#1a1520" opacity="0.140"/><circle cx="71.4" cy="10.8" r="0.85" fill="#1a1520" opacity="0.132"/><circle cx="289.8" cy="286.6" r="1.65" fill="#1a1520" opacity="0.100"/><circle cx="12.5" cy="262.7" r="0.74" fill="#1a1520" opacity="0.065"/><circle cx="87.9" cy="199.7" r="1.67" fill="#1a1520" opacity="0.081"/><circle cx="61.4" cy="294.0" r="0.95" fill="#1a1520" opacity="0.094"/><circle cx="226.3" cy="240.8" r="1.58" fill="#1a1520" opacity="0.134"/><circle cx="448.1" cy="181.1" r="0.75" fill="#1a1520" opacity="0.072"/><circle cx="347.6" cy="237.6" r="1.24" fill="#1a1520" opacity="0.135"/><circle cx="349.9" cy="65.1" r="0.48" fill="#1a1520" opacity="0.056"/><circle cx="219.4" cy="168.6" r="0.80" fill="#1a1520" opacity="0.072"/><circle cx="173.6" cy="109.3" r="1.39" fill="#1a1520" opacity="0.089"/><circle cx="401.1" cy="232.7" r="0.94" fill="#1a1520" opacity="0.108"/><circle cx="250.4" cy="219.4" r="1.73" fill="#1a1520" opacity="0.082"/><circle cx="377.1" cy="223.8" r="1.59" fill="#1a1520" opacity="0.086"/><circle cx="184.8" cy="113.2" r="0.50" fill="#1a1520" opacity="0.126"/><circle cx="379.6" cy="12.6" r="1.33" fill="#1a1520" opacity="0.091"/><circle cx="129.9" cy="191.1" r="0.94" fill="#1a1520" opacity="0.114"/><circle cx="147.3" cy="189.1" r="0.56" fill="#1a1520" opacity="0.061"/><circle cx="407.4" cy="47.9" r="0.89" fill="#1a1520" opacity="0.106"/><circle cx="214.6" cy="18.2" r="1.33" fill="#1a1520" opacity="0.087"/><circle cx="358.6" cy="211.4" r="1.44" fill="#1a1520" opacity="0.089"/><circle cx="214.0" cy="29.8" r="0.71" fill="#1a1520" opacity="0.042"/><circle cx="396.7" cy="78.2" r="0.66" fill="#1a1520" opacity="0.098"/><circle cx="210.5" cy="270.8" r="1.78" fill="#1a1520" opacity="0.071"/><circle cx="221.9" cy="202.6" r="0.61" fill="#1a1520" opacity="0.054"/><circle cx="473.6" cy="134.4" r="0.88" fill="#1a1520" opacity="0.094"/><circle cx="267.1" cy="88.2" r="0.65" fill="#1a1520" opacity="0.107"/><circle cx="309.7" cy="195.0" r="0.48" fill="#1a1520" opacity="0.127"/><circle cx="28.7" cy="227.5" r="0.85" fill="#1a1520" opacity="0.045"/><circle cx="339.4" cy="33.5" r="1.57" fill="#1a1520" opacity="0.102"/><circle cx="442.9" cy="264.7" r="1.48" fill="#1a1520" opacity="0.108"/><circle cx="190.0" cy="213.4" r="1.78" fill="#1a1520" opacity="0.086"/><circle cx="91.4" cy="229.0" r="0.66" fill="#1a1520" opacity="0.133"/><circle cx="327.9" cy="57.5" r="0.50" fill="#1a1520" opacity="0.103"/><circle cx="326.7" cy="56.4" r="1.11" fill="#1a1520" opacity="0.090"/><circle cx="311.4" cy="93.8" r="1.11" fill="#1a1520" opacity="0.096"/><circle cx="342.2" cy="20.1" r="0.78" fill="#1a1520" opacity="0.090"/><circle cx="466.4" cy="283.3" r="1.26" fill="#1a1520" opacity="0.099"/><circle cx="121.3" cy="272.4" r="0.61" fill="#1a1520" opacity="0.079"/><circle cx="429.3" cy="203.1" r="0.60" fill="#1a1520" opacity="0.069"/><circle cx="295.5" cy="226.4" r="1.26" fill="#1a1520" opacity="0.066"/><circle cx="429.3" cy="78.5" r="1.21" fill="#1a1520" opacity="0.048"/><circle cx="189.0" cy="227.2" r="0.44" fill="#1a1520" opacity="0.126"/><circle cx="356.4" cy="264.1" r="1.47" fill="#1a1520" opacity="0.138"/><circle cx="234.4" cy="281.9" r="1.34" fill="#1a1520" opacity="0.092"/><circle cx="187.6" cy="187.5" r="1.56" fill="#1a1520" opacity="0.112"/><circle cx="110.1" cy="166.3" r="1.16" fill="#1a1520" opacity="0.055"/><circle cx="58.0" cy="118.6" r="1.47" fill="#1a1520" opacity="0.127"/><circle cx="305.4" cy="38.4" r="0.56" fill="#1a1520" opacity="0.077"/><circle cx="46.7" cy="79.1" r="1.45" fill="#1a1520" opacity="0.137"/><circle cx="103.2" cy="25.6" r="1.65" fill="#1a1520" opacity="0.094"/><circle cx="268.7" cy="107.6" r="0.63" fill="#1a1520" opacity="0.104"/><circle cx="320.8" cy="149.0" r="1.03" fill="#1a1520" opacity="0.053"/><circle cx="66.4" cy="149.5" r="0.49" fill="#1a1520" opacity="0.080"/><circle cx="188.1" cy="286.5" r="1.09" fill="#1a1520" opacity="0.054"/><circle cx="320.2" cy="17.0" r="1.46" fill="#1a1520" opacity="0.066"/><circle cx="352.0" cy="203.8" r="1.06" fill="#1a1520" opacity="0.097"/><circle cx="375.7" cy="167.4" r="0.48" fill="#1a1520" opacity="0.088"/><circle cx="1.5" cy="299.6" r="0.71" fill="#1a1520" opacity="0.099"/><circle cx="102.2" cy="96.2" r="1.54" fill="#1a1520" opacity="0.139"/><circle cx="144.9" cy="209.3" r="0.99" fill="#1a1520" opacity="0.100"/><circle cx="163.3" cy="284.6" r="0.69" fill="#1a1520" opacity="0.096"/><circle cx="146.2" cy="107.9" r="0.55" fill="#1a1520" opacity="0.139"/><circle cx="56.2" cy="103.2" r="1.42" fill="#1a1520" opacity="0.080"/><circle cx="9.8" cy="91.2" r="0.87" fill="#1a1520" opacity="0.092"/><circle cx="137.8" cy="157.5" r="1.20" fill="#1a1520" opacity="0.085"/><circle cx="441.0" cy="269.6" r="1.20" fill="#1a1520" opacity="0.099"/><circle cx="357.6" cy="77.0" r="0.66" fill="#1a1520" opacity="0.137"/><circle cx="73.2" cy="290.0" r="0.94" fill="#1a1520" opacity="0.071"/><circle cx="282.6" cy="68.3" r="0.67" fill="#1a1520" opacity="0.129"/><circle cx="43.3" cy="152.8" r="0.78" fill="#1a1520" opacity="0.110"/><circle cx="291.2" cy="269.0" r="0.47" fill="#1a1520" opacity="0.079"/><circle cx="293.5" cy="291.1" r="1.34" fill="#1a1520" opacity="0.085"/><circle cx="138.3" cy="202.2" r="1.20" fill="#1a1520" opacity="0.083"/><circle cx="26.9" cy="113.6" r="0.61" fill="#1a1520" opacity="0.118"/><circle cx="348.6" cy="125.6" r="1.70" fill="#1a1520" opacity="0.063"/><circle cx="107.1" cy="287.6" r="1.00" fill="#1a1520" opacity="0.061"/><circle cx="116.4" cy="65.3" r="0.53" fill="#1a1520" opacity="0.140"/><circle cx="428.2" cy="53.6" r="0.95" fill="#1a1520" opacity="0.108"/><circle cx="320.9" cy="186.9" r="0.48" fill="#1a1520" opacity="0.073"/><circle cx="55.3" cy="217.4" r="0.59" fill="#1a1520" opacity="0.057"/><circle cx="39.0" cy="259.3" r="1.59" fill="#1a1520" opacity="0.058"/><circle cx="62.5" cy="286.5" r="1.76" fill="#1a1520" opacity="0.062"/><circle cx="123.6" cy="48.8" r="1.21" fill="#1a1520" opacity="0.096"/><circle cx="7.2" cy="246.7" r="0.34" fill="#fff8e7" opacity="0.071"/><circle cx="143.8" cy="281.6" r="1.00" fill="#fff8e7" opacity="0.106"/><circle cx="470.8" cy="8.7" r="0.81" fill="#fff8e7" opacity="0.091"/><circle cx="143.5" cy="276.3" r="1.16" fill="#fff8e7" opacity="0.081"/><circle cx="458.8" cy="234.9" r="0.68" fill="#fff8e7" opacity="0.062"/><circle cx="357.2" cy="203.7" r="0.37" fill="#fff8e7" opacity="0.095"/><circle cx="406.2" cy="190.2" r="0.36" fill="#fff8e7" opacity="0.082"/><circle cx="60.2" cy="48.7" r="0.69" fill="#fff8e7" opacity="0.079"/><circle cx="9.8" cy="136.9" r="1.03" fill="#fff8e7" opacity="0.062"/><circle cx="434.2" cy="156.6" r="0.67" fill="#fff8e7" opacity="0.069"/><circle cx="397.8" cy="19.5" r="0.57" fill="#fff8e7" opacity="0.081"/><circle cx="73.6" cy="133.3" r="0.90" fill="#fff8e7" opacity="0.031"/><circle cx="58.7" cy="134.7" r="0.86" fill="#fff8e7" opacity="0.093"/><circle cx="404.1" cy="221.1" r="0.69" fill="#fff8e7" opacity="0.096"/><circle cx="154.7" cy="101.1" r="1.12" fill="#fff8e7" opacity="0.104"/><circle cx="160.6" cy="198.4" r="0.44" fill="#fff8e7" opacity="0.045"/><circle cx="263.0" cy="286.9" r="0.67" fill="#fff8e7" opacity="0.084"/><circle cx="33.2" cy="168.5" r="1.06" fill="#fff8e7" opacity="0.048"/><circle cx="77.9" cy="137.8" r="0.96" fill="#fff8e7" opacity="0.077"/><circle cx="1.0" cy="66.8" r="1.04" fill="#fff8e7" opacity="0.109"/><circle cx="444.0" cy="67.2" r="1.11" fill="#fff8e7" opacity="0.101"/><circle cx="264.6" cy="64.2" r="0.31" fill="#fff8e7" opacity="0.052"/><circle cx="236.9" cy="100.1" r="0.77" fill="#fff8e7" opacity="0.085"/><circle cx="456.7" cy="41.0" r="1.04" fill="#fff8e7" opacity="0.102"/><circle cx="211.8" cy="46.6" r="0.94" fill="#fff8e7" opacity="0.031"/><circle cx="25.6" cy="14.2" r="0.59" fill="#fff8e7" opacity="0.091"/><circle cx="276.6" cy="140.7" r="0.49" fill="#fff8e7" opacity="0.051"/><circle cx="20.5" cy="132.6" r="0.65" fill="#fff8e7" opacity="0.071"/><circle cx="460.1" cy="230.2" r="0.98" fill="#fff8e7" opacity="0.101"/><circle cx="248.7" cy="78.5" r="1.07" fill="#fff8e7" opacity="0.036"/><circle cx="245.9" cy="185.2" r="1.10" fill="#fff8e7" opacity="0.087"/><circle cx="68.7" cy="25.7" r="0.93" fill="#fff8e7" opacity="0.081"/><circle cx="168.7" cy="289.4" r="0.31" fill="#fff8e7" opacity="0.039"/><circle cx="423.2" cy="204.0" r="1.08" fill="#fff8e7" opacity="0.094"/><circle cx="27.1" cy="116.3" r="0.40" fill="#fff8e7" opacity="0.083"/><circle cx="301.7" cy="19.0" r="0.88" fill="#fff8e7" opacity="0.101"/><circle cx="61.2" cy="205.3" r="0.31" fill="#fff8e7" opacity="0.061"/><circle cx="31.2" cy="168.3" r="0.42" fill="#fff8e7" opacity="0.033"/><circle cx="57.4" cy="158.3" r="0.51" fill="#fff8e7" opacity="0.054"/><circle cx="152.2" cy="84.4" r="1.15" fill="#fff8e7" opacity="0.048"/></g>
<rect x="8" y="8" width="464" height="284" fill="none" stroke="#f5efe0" stroke-opacity="0.22" stroke-width="2" rx="4"/>
</svg>
