<?xml version="1.0" encoding="UTF-8"?>
<svg xmlns="http://www.w3.org/2000/svg" viewBox="0 0 480 300" width="480" height="300" role="img" aria-label="pune">

    <defs>
      <linearGradient id="sky" x1="0" y1="0" x2="0" y2="1">
        <stop offset="0%" stop-color="#f0c878"/>
        <stop offset="55%" stop-color="#e8a050"/>
        <stop offset="100%" stop-color="#c07040"/>
      </linearGradient>
      <radialGradient id="glow" cx="70%" cy="22%" r="45%">
        <stop offset="0%" stop-color="#fff6d8" stop-opacity="0.45"/>
        <stop offset="100%" stop-color="#fff6d8" stop-opacity="0"/>
      </radialGradient>
      <linearGradient id="ground" x1="0" y1="0" x2="0" y2="1">
        <stop offset="0%" stop-color="#2a3340" stop-opacity="0"/>
        <stop offset="100%" stop-color="#121820" stop-opacity="0.55"/>
      </linearGradient>
    </defs>
    <rect width="480" height="300" fill="url(#sky)"/>
    <rect width="480" height="300" fill="url(#glow)"/>
  
<g opacity="0.28" fill="#f7f3ea">
    <ellipse cx="79.5791719853878" cy="43.9420435577631" rx="26.974172574281692" ry="11.560359674692155"/>
    <ellipse cx="96.91971149742604" cy="40.088590332865714" rx="19.267266124486923" ry="9.633633062243462"/>
    <ellipse cx="64.16535908579826" cy="45.86877017021179" rx="15.413812899589539" ry="7.7069064497947695"/>
  </g>
<g opacity="0.22" fill="#f7f3ea">
    <ellipse cx="306.1072435043752" cy="35.27659607469104" rx="40.232448540627956" ry="17.24247794598341"/>
    <ellipse cx="331.97096042335033" cy="29.529103426029906" rx="28.737463243305683" ry="14.368731621652842"/>
    <ellipse cx="283.1172729097307" cy="38.15034239902161" rx="22.989970594644547" ry="11.494985297322273"/>
  </g>
<g opacity="0.18" fill="#f7f3ea">
    <ellipse cx="200.9814083762467" cy="61.498562360648066" rx="19.599999999999998" ry="8.399999999999999"/>
    <ellipse cx="213.58140837624669" cy="58.69856236064807" rx="14" ry="7"/>
    <ellipse cx="189.7814083762467" cy="62.898562360648064" rx="11.2" ry="5.6"/>
  </g>
<path d="M0 210 C80 182 160 228 240 198 S400 180 480 216 L480 300 L0 300 Z" fill="#8a6a4a" opacity="0.55"/>
<path d="M0 218 C80 176 160 228 240 194 S400 180 480 216 L480 300 L0 300 Z" fill="#6a5040" opacity="0.67"/>

    <g fill="#4a5568">
      <rect x="80" y="160" width="36" height="70" rx="2"/>
      <rect x="124" y="145" width="28" height="85" rx="2"/>
      <rect x="160" y="155" width="40" height="75" rx="2"/>
      <rect x="210" y="140" width="32" height="90" rx="2"/>
      <rect x="250" y="165" width="44" height="65" rx="2"/>
    </g>
    <g fill="#e8c84a" opacity="0.55">
      <rect x="88" y="172" width="6" height="6"/><rect x="100" y="172" width="6" height="6"/>
      <rect x="132" y="158" width="5" height="5"/><rect x="142" y="158" width="5" height="5"/>
      <rect x="172" y="168" width="6" height="6"/><rect x="220" y="152" width="5" height="5"/>
    </g>
<rect width="480" height="300" fill="url(#ground)"/>
  <rect width="480" height="300" fill="none" stroke="#1a1520" stroke-width="28" stroke-opacity="0.18"/>
<g id="grain-pune" opacity="0.85"><circle cx="235.0" cy="59.1" r="0.62" fill="#1a1520" opacity="0.073"/><circle cx="101.3" cy="262.1" r="1.22" fill="#1a1520" opacity="0.092"/><circle cx="208.0" cy="99.2" r="0.53" fill="#1a1520" opacity="0.120"/><circle cx="192.0" cy="210.1" r="1.30" fill="#1a1520" opacity="0.084"/><circle cx="341.6" cy="127.4" r="0.44" fill="#1a1520" opacity="0.068"/><circle cx="440.9" cy="294.3" r="1.50" fill="#1a1520" opacity="0.069"/><circle cx="365.5" cy="190.9" r="1.39" fill="#1a1520" opacity="0.058"/><circle cx="248.7" cy="141.3" r="0.50" fill="#1a1520" opacity="0.060"/><circle cx="90.1" cy="110.7" r="1.44" fill="#1a1520" opacity="0.105"/><circle cx="253.1" cy="121.4" r="0.61" fill="#1a1520" opacity="0.105"/><circle cx="307.0" cy="16.9" r="0.75" fill="#1a1520" opacity="0.131"/><circle cx="141.2" cy="231.7" r="1.14" fill="#1a1520" opacity="0.111"/><circle cx="85.3" cy="147.6" r="1.50" fill="#1a1520" opacity="0.043"/><circle cx="22.4" cy="49.5" r="1.36" fill="#1a1520" opacity="0.102"/><circle cx="412.8" cy="293.7" r="1.15" fill="#1a1520" opacity="0.125"/><circle cx="117.5" cy="86.0" r="0.71" fill="#1a1520" opacity="0.071"/><circle cx="204.9" cy="179.5" r="1.40" fill="#1a1520" opacity="0.106"/><circle cx="53.6" cy="248.4" r="1.70" fill="#1a1520" opacity="0.041"/><circle cx="23.8" cy="2.1" r="1.16" fill="#1a1520" opacity="0.092"/><circle cx="34.5" cy="29.7" r="1.72" fill="#1a1520" opacity="0.136"/><circle cx="27.4" cy="84.8" r="1.34" fill="#1a1520" opacity="0.109"/><circle cx="83.0" cy="288.2" r="1.69" fill="#1a1520" opacity="0.089"/><circle cx="208.1" cy="203.7" r="0.44" fill="#1a1520" opacity="0.064"/><circle cx="72.0" cy="68.6" r="0.96" fill="#1a1520" opacity="0.043"/><circle cx="75.3" cy="287.0" r="0.84" fill="#1a1520" opacity="0.061"/><circle cx="317.8" cy="197.5" r="1.37" fill="#1a1520" opacity="0.110"/><circle cx="388.0" cy="29.6" r="0.85" fill="#1a1520" opacity="0.055"/><circle cx="418.9" cy="177.8" r="0.54" fill="#1a1520" opacity="0.127"/><circle cx="267.8" cy="222.4" r="1.08" fill="#1a1520" opacity="0.084"/><circle cx="269.9" cy="195.0" r="0.87" fill="#1a1520" opacity="0.082"/><circle cx="384.4" cy="249.7" r="1.15" fill="#1a1520" opacity="0.075"/><circle cx="123.6" cy="165.2" r="0.41" fill="#1a1520" opacity="0.073"/><circle cx="467.7" cy="99.3" r="0.62" fill="#1a1520" opacity="0.102"/><circle cx="407.3" cy="145.2" r="0.53" fill="#1a1520" opacity="0.130"/><circle cx="2.5" cy="48.9" r="1.20" fill="#1a1520" opacity="0.106"/><circle cx="457.9" cy="80.5" r="0.64" fill="#1a1520" opacity="0.125"/><circle cx="36.9" cy="65.0" r="0.52" fill="#1a1520" opacity="0.111"/><circle cx="417.7" cy="193.4" r="1.66" fill="#1a1520" opacity="0.096"/><circle cx="432.8" cy="182.6" r="1.36" fill="#1a1520" opacity="0.066"/><circle cx="347.3" cy="140.8" r="0.86" fill="#1a1520" opacity="0.114"/><circle cx="191.9" cy="101.1" r="1.76" fill="#1a1520" opacity="0.106"/><circle cx="349.1" cy="82.0" r="1.14" fill="#1a1520" opacity="0.114"/><circle cx="352.1" cy="224.0" r="0.77" fill="#1a1520" opacity="0.092"/><circle cx="14.9" cy="267.6" r="0.57" fill="#1a1520" opacity="0.103"/><circle cx="281.9" cy="109.2" r="1.41" fill="#1a1520" opacity="0.129"/><circle cx="227.4" cy="10.9" r="0.51" fill="#1a1520" opacity="0.057"/><circle cx="347.6" cy="274.8" r="0.59" fill="#1a1520" opacity="0.075"/><circle cx="235.5" cy="87.0" r="1.35" fill="#1a1520" opacity="0.130"/><circle cx="270.5" cy="298.2" r="1.66" fill="#1a1520" opacity="0.095"/><circle cx="449.8" cy="269.5" r="1.09" fill="#1a1520" opacity="0.083"/><circle cx="125.7" cy="274.3" r="1.72" fill="#1a1520" opacity="0.133"/><circle cx="44.1" cy="96.8" r="1.44" fill="#1a1520" opacity="0.054"/><circle cx="284.4" cy="79.4" r="0.57" fill="#1a1520" opacity="0.079"/><circle cx="325.2" cy="219.3" r="1.08" fill="#1a1520" opacity="0.041"/><circle cx="2.7" cy="21.7" r="1.76" fill="#1a1520" opacity="0.105"/><circle cx="338.4" cy="120.3" r="0.87" fill="#1a1520" opacity="0.076"/><circle cx="88.7" cy="229.2" r="0.76" fill="#1a1520" opacity="0.049"/><circle cx="123.1" cy="155.7" r="0.54" fill="#1a1520" opacity="0.055"/><circle cx="72.1" cy="246.1" r="1.11" fill="#1a1520" opacity="0.131"/><circle cx="364.7" cy="47.4" r="0.99" fill="#1a1520" opacity="0.114"/><circle cx="30.6" cy="35.6" r="0.86" fill="#1a1520" opacity="0.126"/><circle cx="444.9" cy="251.2" r="1.71" fill="#1a1520" opacity="0.116"/><circle cx="168.5" cy="39.4" r="1.76" fill="#1a1520" opacity="0.136"/><circle cx="156.2" cy="245.9" r="1.33" fill="#1a1520" opacity="0.102"/><circle cx="424.7" cy="239.4" r="0.88" fill="#1a1520" opacity="0.133"/><circle cx="203.0" cy="248.8" r="0.58" fill="#1a1520" opacity="0.063"/><circle cx="21.2" cy="70.5" r="1.67" fill="#1a1520" opacity="0.139"/><circle cx="295.5" cy="119.6" r="1.51" fill="#1a1520" opacity="0.093"/><circle cx="112.7" cy="219.9" r="0.68" fill="#1a1520" opacity="0.081"/><circle cx="366.7" cy="118.3" r="1.69" fill="#1a1520" opacity="0.064"/><circle cx="407.0" cy="226.1" r="1.25" fill="#1a1520" opacity="0.120"/><circle cx="460.9" cy="127.3" r="0.82" fill="#1a1520" opacity="0.103"/><circle cx="294.7" cy="54.1" r="1.13" fill="#1a1520" opacity="0.106"/><circle cx="415.4" cy="33.2" r="1.45" fill="#1a1520" opacity="0.131"/><circle cx="12.0" cy="277.1" r="0.50" fill="#1a1520" opacity="0.097"/><circle cx="272.1" cy="125.5" r="0.86" fill="#1a1520" opacity="0.081"/><circle cx="64.8" cy="137.6" r="0.83" fill="#1a1520" opacity="0.069"/><circle cx="408.9" cy="264.7" r="0.66" fill="#1a1520" opacity="0.107"/><circle cx="467.7" cy="103.9" r="1.58" fill="#1a1520" opacity="0.074"/><circle cx="469.9" cy="59.1" r="0.48" fill="#1a1520" opacity="0.064"/><circle cx="263.3" cy="140.0" r="1.17" fill="#1a1520" opacity="0.072"/><circle cx="171.3" cy="12.0" r="0.88" fill="#1a1520" opacity="0.093"/><circle cx="414.5" cy="26.9" r="0.69" fill="#1a1520" opacity="0.051"/><circle cx="400.9" cy="262.6" r="0.65" fill="#1a1520" opacity="0.124"/><circle cx="300.2" cy="7.3" r="1.28" fill="#1a1520" opacity="0.101"/><circle cx="429.6" cy="130.5" r="1.57" fill="#1a1520" opacity="0.055"/><circle cx="307.4" cy="162.2" r="1.25" fill="#1a1520" opacity="0.064"/><circle cx="24.2" cy="202.1" r="1.71" fill="#1a1520" opacity="0.046"/><circle cx="11.6" cy="280.2" r="0.41" fill="#1a1520" opacity="0.132"/><circle cx="31.4" cy="21.3" r="1.66" fill="#1a1520" opacity="0.095"/><circle cx="184.7" cy="47.7" r="0.50" fill="#fff8e7" opacity="0.072"/><circle cx="66.6" cy="146.9" r="0.67" fill="#fff8e7" opacity="0.063"/><circle cx="156.8" cy="102.4" r="1.18" fill="#fff8e7" opacity="0.078"/><circle cx="54.1" cy="61.0" r="0.80" fill="#fff8e7" opacity="0.072"/><circle cx="259.4" cy="85.8" r="0.48" fill="#fff8e7" opacity="0.110"/><circle cx="57.3" cy="221.6" r="0.71" fill="#fff8e7" opacity="0.042"/><circle cx="58.7" cy="236.4" r="0.80" fill="#fff8e7" opacity="0.067"/><circle cx="61.4" cy="263.8" r="0.56" fill="#fff8e7" opacity="0.092"/><circle cx="456.8" cy="75.4" r="0.73" fill="#fff8e7" opacity="0.104"/><circle cx="62.8" cy="181.1" r="1.15" fill="#fff8e7" opacity="0.032"/><circle cx="94.1" cy="176.5" r="0.39" fill="#fff8e7" opacity="0.105"/><circle cx="239.2" cy="77.5" r="1.18" fill="#fff8e7" opacity="0.086"/><circle cx="230.1" cy="145.0" r="1.06" fill="#fff8e7" opacity="0.110"/><circle cx="32.3" cy="41.8" r="1.16" fill="#fff8e7" opacity="0.071"/><circle cx="249.0" cy="49.5" r="0.57" fill="#fff8e7" opacity="0.056"/><circle cx="302.6" cy="159.6" r="0.62" fill="#fff8e7" opacity="0.097"/><circle cx="221.3" cy="245.0" r="0.76" fill="#fff8e7" opacity="0.037"/><circle cx="380.2" cy="90.0" r="0.79" fill="#fff8e7" opacity="0.109"/><circle cx="381.9" cy="21.4" r="1.20" fill="#fff8e7" opacity="0.052"/><circle cx="191.1" cy="67.4" r="0.68" fill="#fff8e7" opacity="0.092"/><circle cx="244.3" cy="270.0" r="0.59" fill="#fff8e7" opacity="0.087"/><circle cx="63.5" cy="294.9" r="1.15" fill="#fff8e7" opacity="0.098"/><circle cx="103.9" cy="51.8" r="0.52" fill="#fff8e7" opacity="0.096"/><circle cx="427.4" cy="203.1" r="0.71" fill="#fff8e7" opacity="0.072"/><circle cx="75.0" cy="122.0" r="0.83" fill="#fff8e7" opacity="0.066"/><circle cx="304.2" cy="92.0" r="0.60" fill="#fff8e7" opacity="0.078"/><circle cx="1.6" cy="272.6" r="0.50" fill="#fff8e7" opacity="0.070"/><circle cx="401.0" cy="158.1" r="1.10" fill="#fff8e7" opacity="0.095"/><circle cx="375.1" cy="73.5" r="1.15" fill="#fff8e7" opacity="0.033"/><circle cx="208.9" cy="86.2" r="0.74" fill="#fff8e7" opacity="0.082"/><circle cx="40.1" cy="16.8" r="0.71" fill="#fff8e7" opacity="0.109"/><circle cx="169.5" cy="208.9" r="0.36" fill="#fff8e7" opacity="0.043"/><circle cx="295.3" cy="286.8" r="0.42" fill="#fff8e7" opacity="0.101"/><circle cx="344.4" cy="288.1" r="0.90" fill="#fff8e7" opacity="0.064"/><circle cx="322.6" cy="162.4" r="0.50" fill="#fff8e7" opacity="0.055"/><circle cx="324.2" cy="3.2" r="1.13" fill="#fff8e7" opacity="0.069"/><circle cx="67.8" cy="203.6" r="1.20" fill="#fff8e7" opacity="0.105"/><circle cx="264.1" cy="148.5" r="1.13" fill="#fff8e7" opacity="0.068"/><circle cx="197.2" cy="211.9" r="0.55" fill="#fff8e7" opacity="0.102"/><circle cx="159.2" cy="23.7" r="0.75" fill="#fff8e7" opacity="0.099"/></g>
<rect x="8" y="8" width="464" height="284" fill="none" stroke="#f5efe0" stroke-opacity="0.22" stroke-width="2" rx="4"/>
</svg>
