<?xml version="1.0" encoding="UTF-8"?>
<svg xmlns="http://www.w3.org/2000/svg" viewBox="0 0 480 300" width="480" height="300" role="img" aria-label="reno-rail">

    <defs>
      <linearGradient id="sky" x1="0" y1="0" x2="0" y2="1">
        <stop offset="0%" stop-color="#c8d0d8"/>
        <stop offset="55%" stop-color="#8890a0"/>
        <stop offset="100%" stop-color="#4a5060"/>
      </linearGradient>
      <radialGradient id="glow" cx="70%" cy="22%" r="45%">
        <stop offset="0%" stop-color="#fff6d8" stop-opacity="0.45"/>
        <stop offset="100%" stop-color="#fff6d8" stop-opacity="0"/>
      </radialGradient>
      <linearGradient id="ground" x1="0" y1="0" x2="0" y2="1">
        <stop offset="0%" stop-color="#2a3340" stop-opacity="0"/>
        <stop offset="100%" stop-color="#121820" stop-opacity="0.55"/>
      </linearGradient>
    </defs>
    <rect width="480" height="300" fill="url(#sky)"/>
    <rect width="480" height="300" fill="url(#glow)"/>
  
<g opacity="0.28" fill="#f7f3ea">
    <ellipse cx="89.36836103908718" cy="58.68488500826061" rx="32.40954771786928" ry="13.889806164801122"/>
    <ellipse cx="110.20307028628886" cy="54.054949619993565" rx="23.1496769413352" ry="11.5748384706676"/>
    <ellipse cx="70.84861948601902" cy="60.99985270239413" rx="18.51974155306816" ry="9.25987077653408"/>
  </g>
<g opacity="0.22" fill="#f7f3ea">
    <ellipse cx="323.1106239557266" cy="47.177573149092495" rx="37.94039382459596" ry="16.260168781969696"/>
    <ellipse cx="347.50087712868117" cy="41.75751688843593" rx="27.100281303282827" ry="13.550140651641414"/>
    <ellipse cx="301.43039891310036" cy="49.88760127942078" rx="21.68022504262626" ry="10.84011252131313"/>
  </g>

    <g fill="#3a4558">
      <rect x="40" y="140" width="50" height="70"/><rect x="100" y="125" width="40" height="85"/>
      <rect x="340" y="135" width="45" height="75"/><rect x="395" y="150" width="35" height="60"/>
    </g>
    <path d="M0 220 H480" stroke="#6b3a2a" stroke-width="10"/>
    <path d="M0 228 H480" stroke="#2a2a2a" stroke-width="3" stroke-dasharray="18 10"/>
    <g transform="translate(140,175)">
      <rect x="0" y="10" width="160" height="40" rx="6" fill="#c45c48"/>
      <rect x="10" y="18" width="28" height="22" rx="2" fill="#1a2430" opacity="0.5"/>
      <rect x="48" y="18" width="28" height="22" rx="2" fill="#1a2430" opacity="0.5"/>
      <rect x="86" y="18" width="28" height="22" rx="2" fill="#1a2430" opacity="0.5"/>
      <rect x="130" y="0" width="40" height="50" rx="4" fill="#c45c48"/>
      <circle cx="30" cy="55" r="12" fill="#2a2a2a"/><circle cx="100" cy="55" r="12" fill="#2a2a2a"/>
      <circle cx="145" cy="55" r="12" fill="#2a2a2a"/>
      <rect x="148" y="-18" width="8" height="20" fill="#4a5568"/>
      <path d="M152 -18 Q170 -35 165 -10" fill="none" stroke="#8a9aaa" stroke-width="4" opacity="0.6"/>
    </g>
<rect width="480" height="300" fill="url(#ground)"/>
  <rect width="480" height="300" fill="none" stroke="#1a1520" stroke-width="28" stroke-opacity="0.18"/>
<g id="grain-reno-rail" opacity="0.85"><circle cx="352.4" cy="280.3" r="1.30" fill="#1a1520" opacity="0.094"/><circle cx="329.8" cy="213.0" r="0.73" fill="#1a1520" opacity="0.088"/><circle cx="477.1" cy="160.1" r="1.45" fill="#1a1520" opacity="0.138"/><circle cx="85.0" cy="219.9" r="1.02" fill="#1a1520" opacity="0.126"/><circle cx="452.5" cy="18.7" r="1.45" fill="#1a1520" opacity="0.045"/><circle cx="346.2" cy="174.9" r="1.09" fill="#1a1520" opacity="0.094"/><circle cx="60.6" cy="20.4" r="1.72" fill="#1a1520" opacity="0.138"/><circle cx="69.8" cy="102.9" r="1.23" fill="#1a1520" opacity="0.041"/><circle cx="140.3" cy="219.6" r="1.11" fill="#1a1520" opacity="0.041"/><circle cx="180.9" cy="87.0" r="0.74" fill="#1a1520" opacity="0.091"/><circle cx="381.4" cy="235.0" r="1.03" fill="#1a1520" opacity="0.062"/><circle cx="179.2" cy="248.7" r="1.72" fill="#1a1520" opacity="0.090"/><circle cx="17.1" cy="30.6" r="0.53" fill="#1a1520" opacity="0.060"/><circle cx="133.9" cy="75.0" r="1.73" fill="#1a1520" opacity="0.042"/><circle cx="57.9" cy="143.3" r="1.57" fill="#1a1520" opacity="0.090"/><circle cx="207.8" cy="169.0" r="0.70" fill="#1a1520" opacity="0.129"/><circle cx="272.2" cy="199.8" r="1.60" fill="#1a1520" opacity="0.058"/><circle cx="378.9" cy="281.3" r="0.83" fill="#1a1520" opacity="0.054"/><circle cx="188.3" cy="293.5" r="1.16" fill="#1a1520" opacity="0.081"/><circle cx="408.2" cy="37.5" r="1.33" fill="#1a1520" opacity="0.073"/><circle cx="265.6" cy="187.6" r="1.72" fill="#1a1520" opacity="0.138"/><circle cx="257.7" cy="17.1" r="1.65" fill="#1a1520" opacity="0.083"/><circle cx="365.1" cy="177.0" r="0.56" fill="#1a1520" opacity="0.114"/><circle cx="84.2" cy="260.6" r="1.80" fill="#1a1520" opacity="0.116"/><circle cx="114.1" cy="129.4" r="0.93" fill="#1a1520" opacity="0.120"/><circle cx="182.1" cy="269.7" r="1.42" fill="#1a1520" opacity="0.054"/><circle cx="74.1" cy="247.8" r="1.74" fill="#1a1520" opacity="0.136"/><circle cx="253.6" cy="104.4" r="0.69" fill="#1a1520" opacity="0.140"/><circle cx="121.3" cy="266.1" r="1.41" fill="#1a1520" opacity="0.064"/><circle cx="325.5" cy="228.9" r="1.45" fill="#1a1520" opacity="0.133"/><circle cx="408.4" cy="188.9" r="1.45" fill="#1a1520" opacity="0.123"/><circle cx="162.3" cy="154.4" r="1.23" fill="#1a1520" opacity="0.043"/><circle cx="429.4" cy="54.3" r="1.53" fill="#1a1520" opacity="0.073"/><circle cx="35.6" cy="40.8" r="1.04" fill="#1a1520" opacity="0.121"/><circle cx="213.5" cy="72.2" r="0.48" fill="#1a1520" opacity="0.108"/><circle cx="471.9" cy="54.0" r="0.97" fill="#1a1520" opacity="0.103"/><circle cx="287.3" cy="123.1" r="0.69" fill="#1a1520" opacity="0.094"/><circle cx="117.5" cy="35.1" r="0.84" fill="#1a1520" opacity="0.127"/><circle cx="386.9" cy="192.1" r="1.79" fill="#1a1520" opacity="0.062"/><circle cx="245.0" cy="100.8" r="1.77" fill="#1a1520" opacity="0.126"/><circle cx="476.0" cy="103.5" r="1.39" fill="#1a1520" opacity="0.127"/><circle cx="231.9" cy="55.7" r="0.94" fill="#1a1520" opacity="0.071"/><circle cx="195.2" cy="161.1" r="1.09" fill="#1a1520" opacity="0.134"/><circle cx="317.6" cy="132.3" r="1.37" fill="#1a1520" opacity="0.085"/><circle cx="381.8" cy="128.3" r="1.72" fill="#1a1520" opacity="0.131"/><circle cx="137.9" cy="201.2" r="0.83" fill="#1a1520" opacity="0.043"/><circle cx="291.5" cy="125.9" r="1.49" fill="#1a1520" opacity="0.110"/><circle cx="413.1" cy="106.9" r="1.01" fill="#1a1520" opacity="0.054"/><circle cx="51.4" cy="124.3" r="0.69" fill="#1a1520" opacity="0.069"/><circle cx="237.6" cy="114.2" r="0.65" fill="#1a1520" opacity="0.127"/><circle cx="77.3" cy="218.9" r="0.89" fill="#1a1520" opacity="0.051"/><circle cx="341.7" cy="103.6" r="0.81" fill="#1a1520" opacity="0.064"/><circle cx="243.9" cy="168.3" r="1.77" fill="#1a1520" opacity="0.071"/><circle cx="325.9" cy="2.3" r="0.54" fill="#1a1520" opacity="0.076"/><circle cx="36.4" cy="265.4" r="0.72" fill="#1a1520" opacity="0.136"/><circle cx="57.0" cy="139.2" r="1.02" fill="#1a1520" opacity="0.087"/><circle cx="155.5" cy="104.1" r="0.93" fill="#1a1520" opacity="0.099"/><circle cx="193.3" cy="164.2" r="1.76" fill="#1a1520" opacity="0.072"/><circle cx="40.0" cy="193.4" r="1.00" fill="#1a1520" opacity="0.095"/><circle cx="349.1" cy="84.2" r="1.37" fill="#1a1520" opacity="0.099"/><circle cx="6.1" cy="26.5" r="1.06" fill="#1a1520" opacity="0.099"/><circle cx="65.7" cy="5.9" r="0.44" fill="#1a1520" opacity="0.093"/><circle cx="310.8" cy="127.7" r="1.73" fill="#1a1520" opacity="0.097"/><circle cx="282.4" cy="112.7" r="0.92" fill="#1a1520" opacity="0.064"/><circle cx="84.5" cy="87.2" r="1.71" fill="#1a1520" opacity="0.104"/><circle cx="133.3" cy="54.1" r="1.21" fill="#1a1520" opacity="0.058"/><circle cx="73.2" cy="3.9" r="0.83" fill="#1a1520" opacity="0.103"/><circle cx="252.8" cy="80.6" r="1.26" fill="#1a1520" opacity="0.099"/><circle cx="353.9" cy="21.1" r="1.48" fill="#1a1520" opacity="0.090"/><circle cx="232.0" cy="45.0" r="0.85" fill="#1a1520" opacity="0.061"/><circle cx="260.2" cy="285.0" r="0.48" fill="#1a1520" opacity="0.062"/><circle cx="195.0" cy="247.9" r="0.57" fill="#1a1520" opacity="0.079"/><circle cx="215.7" cy="150.9" r="0.52" fill="#1a1520" opacity="0.080"/><circle cx="339.2" cy="256.5" r="0.74" fill="#1a1520" opacity="0.067"/><circle cx="197.3" cy="0.9" r="0.48" fill="#1a1520" opacity="0.047"/><circle cx="52.0" cy="192.1" r="0.80" fill="#1a1520" opacity="0.047"/><circle cx="438.5" cy="6.6" r="0.80" fill="#1a1520" opacity="0.050"/><circle cx="46.4" cy="110.9" r="1.17" fill="#1a1520" opacity="0.112"/><circle cx="253.1" cy="52.8" r="0.75" fill="#1a1520" opacity="0.124"/><circle cx="464.1" cy="52.7" r="1.24" fill="#1a1520" opacity="0.049"/><circle cx="149.0" cy="97.7" r="1.41" fill="#1a1520" opacity="0.095"/><circle cx="231.7" cy="8.0" r="1.18" fill="#1a1520" opacity="0.063"/><circle cx="198.1" cy="237.9" r="1.80" fill="#1a1520" opacity="0.096"/><circle cx="372.8" cy="96.6" r="1.33" fill="#1a1520" opacity="0.106"/><circle cx="22.7" cy="264.5" r="1.23" fill="#1a1520" opacity="0.116"/><circle cx="212.9" cy="182.3" r="1.36" fill="#1a1520" opacity="0.132"/><circle cx="35.3" cy="58.2" r="1.55" fill="#1a1520" opacity="0.052"/><circle cx="260.6" cy="182.8" r="0.95" fill="#1a1520" opacity="0.087"/><circle cx="449.6" cy="277.0" r="0.43" fill="#1a1520" opacity="0.063"/><circle cx="364.4" cy="32.0" r="0.66" fill="#1a1520" opacity="0.131"/><circle cx="419.9" cy="246.2" r="0.42" fill="#fff8e7" opacity="0.056"/><circle cx="205.9" cy="37.1" r="0.67" fill="#fff8e7" opacity="0.092"/><circle cx="82.6" cy="213.9" r="0.90" fill="#fff8e7" opacity="0.033"/><circle cx="259.9" cy="260.8" r="0.36" fill="#fff8e7" opacity="0.044"/><circle cx="397.7" cy="80.3" r="0.57" fill="#fff8e7" opacity="0.059"/><circle cx="423.4" cy="37.5" r="0.94" fill="#fff8e7" opacity="0.081"/><circle cx="321.9" cy="97.1" r="0.40" fill="#fff8e7" opacity="0.069"/><circle cx="302.6" cy="152.1" r="0.60" fill="#fff8e7" opacity="0.105"/><circle cx="17.9" cy="117.5" r="0.66" fill="#fff8e7" opacity="0.078"/><circle cx="55.6" cy="124.5" r="0.58" fill="#fff8e7" opacity="0.110"/><circle cx="353.4" cy="221.7" r="0.94" fill="#fff8e7" opacity="0.101"/><circle cx="51.9" cy="249.4" r="0.34" fill="#fff8e7" opacity="0.039"/><circle cx="186.2" cy="139.2" r="1.07" fill="#fff8e7" opacity="0.044"/><circle cx="437.4" cy="114.8" r="0.43" fill="#fff8e7" opacity="0.045"/><circle cx="450.9" cy="163.9" r="0.35" fill="#fff8e7" opacity="0.033"/><circle cx="31.2" cy="21.4" r="0.93" fill="#fff8e7" opacity="0.104"/><circle cx="11.1" cy="93.6" r="0.99" fill="#fff8e7" opacity="0.094"/><circle cx="93.4" cy="76.0" r="0.96" fill="#fff8e7" opacity="0.046"/><circle cx="400.2" cy="29.0" r="0.56" fill="#fff8e7" opacity="0.101"/><circle cx="409.3" cy="211.1" r="0.56" fill="#fff8e7" opacity="0.040"/><circle cx="362.8" cy="99.1" r="1.02" fill="#fff8e7" opacity="0.047"/><circle cx="301.1" cy="16.1" r="0.87" fill="#fff8e7" opacity="0.066"/><circle cx="344.3" cy="286.5" r="0.81" fill="#fff8e7" opacity="0.100"/><circle cx="278.8" cy="186.3" r="0.65" fill="#fff8e7" opacity="0.101"/><circle cx="109.2" cy="279.6" r="0.51" fill="#fff8e7" opacity="0.083"/><circle cx="465.2" cy="21.8" r="1.13" fill="#fff8e7" opacity="0.077"/><circle cx="403.9" cy="133.5" r="0.61" fill="#fff8e7" opacity="0.092"/><circle cx="156.8" cy="0.1" r="0.67" fill="#fff8e7" opacity="0.051"/><circle cx="304.9" cy="132.7" r="0.82" fill="#fff8e7" opacity="0.092"/><circle cx="326.0" cy="140.6" r="1.13" fill="#fff8e7" opacity="0.090"/><circle cx="103.5" cy="161.0" r="0.78" fill="#fff8e7" opacity="0.053"/><circle cx="359.2" cy="205.4" r="0.52" fill="#fff8e7" opacity="0.054"/><circle cx="96.4" cy="297.5" r="1.08" fill="#fff8e7" opacity="0.060"/><circle cx="62.5" cy="65.2" r="1.19" fill="#fff8e7" opacity="0.075"/><circle cx="216.4" cy="91.0" r="0.38" fill="#fff8e7" opacity="0.103"/><circle cx="252.8" cy="195.9" r="0.65" fill="#fff8e7" opacity="0.047"/><circle cx="176.8" cy="1.8" r="0.54" fill="#fff8e7" opacity="0.100"/><circle cx="371.3" cy="179.1" r="1.03" fill="#fff8e7" opacity="0.043"/><circle cx="145.3" cy="47.1" r="1.11" fill="#fff8e7" opacity="0.100"/><circle cx="311.6" cy="127.0" r="0.57" fill="#fff8e7" opacity="0.082"/></g>
<rect x="8" y="8" width="464" height="284" fill="none" stroke="#f5efe0" stroke-opacity="0.22" stroke-width="2" rx="4"/>
</svg>
