<?xml version="1.0" encoding="UTF-8"?>
<svg xmlns="http://www.w3.org/2000/svg" viewBox="0 0 480 300" width="480" height="300" role="img" aria-label="rio">

    <defs>
      <linearGradient id="sky" x1="0" y1="0" x2="0" y2="1">
        <stop offset="0%" stop-color="#f0b070"/>
        <stop offset="55%" stop-color="#e87850"/>
        <stop offset="100%" stop-color="#7a3a4a"/>
      </linearGradient>
      <radialGradient id="glow" cx="70%" cy="22%" r="45%">
        <stop offset="0%" stop-color="#fff6d8" stop-opacity="0.45"/>
        <stop offset="100%" stop-color="#fff6d8" stop-opacity="0"/>
      </radialGradient>
      <linearGradient id="ground" x1="0" y1="0" x2="0" y2="1">
        <stop offset="0%" stop-color="#2a3340" stop-opacity="0"/>
        <stop offset="100%" stop-color="#121820" stop-opacity="0.55"/>
      </linearGradient>
    </defs>
    <rect width="480" height="300" fill="url(#sky)"/>
    <rect width="480" height="300" fill="url(#glow)"/>
  
<g opacity="0.28" fill="#f7f3ea">
    <ellipse cx="97.44799591600895" cy="54.471825803630054" rx="32.07928712107241" ry="13.748265909031034"/>
    <ellipse cx="118.0703947795555" cy="49.88907050061971" rx="22.913776515051723" ry="11.456888257525861"/>
    <ellipse cx="79.11697470396757" cy="56.763203455135226" rx="18.331021212041378" ry="9.165510606020689"/>
  </g>
<g opacity="0.22" fill="#f7f3ea">
    <ellipse cx="346.7658278159797" cy="41.25902538187802" rx="36.81857539713383" ry="15.779389455914497"/>
    <ellipse cx="370.43491199985147" cy="35.999228896573186" rx="26.298982426524162" ry="13.149491213262081"/>
    <ellipse cx="325.7266418747604" cy="43.888923624530435" rx="21.03918594121933" ry="10.519592970609665"/>
  </g>
<path d="M0 210 C80 182 160 228 240 198 S400 180 480 216 L480 300 L0 300 Z" fill="#2a5a3a" opacity="0.55"/>
<path d="M0 218 C80 176 160 228 240 194 S400 180 480 216 L480 300 L0 300 Z" fill="#1f4a30" opacity="0.67"/>

    <g fill="#3d2f28" opacity="0.92" transform="translate(300,95)">
      <rect x="-6" y="20" width="12" height="90" rx="2"/>
      <rect x="-48" y="28" width="96" height="10" rx="3"/>
      <circle cx="0" cy="14" r="10"/>
      <ellipse cx="0" cy="110" rx="36" ry="10" fill="#2a5a3a" opacity="0.7"/>
    </g>
<rect width="480" height="300" fill="url(#ground)"/>
  <rect width="480" height="300" fill="none" stroke="#1a1520" stroke-width="28" stroke-opacity="0.18"/>
<g id="grain-rio" opacity="0.85"><circle cx="449.4" cy="217.1" r="1.26" fill="#1a1520" opacity="0.123"/><circle cx="216.2" cy="189.0" r="0.73" fill="#1a1520" opacity="0.055"/><circle cx="161.1" cy="186.0" r="0.50" fill="#1a1520" opacity="0.087"/><circle cx="268.6" cy="84.6" r="1.01" fill="#1a1520" opacity="0.052"/><circle cx="263.5" cy="248.3" r="1.08" fill="#1a1520" opacity="0.078"/><circle cx="16.1" cy="30.0" r="0.51" fill="#1a1520" opacity="0.085"/><circle cx="353.2" cy="181.2" r="0.61" fill="#1a1520" opacity="0.070"/><circle cx="218.2" cy="33.5" r="1.59" fill="#1a1520" opacity="0.125"/><circle cx="227.7" cy="295.2" r="1.37" fill="#1a1520" opacity="0.048"/><circle cx="206.7" cy="289.2" r="1.79" fill="#1a1520" opacity="0.094"/><circle cx="138.4" cy="165.4" r="0.92" fill="#1a1520" opacity="0.134"/><circle cx="404.6" cy="191.7" r="0.50" fill="#1a1520" opacity="0.049"/><circle cx="461.0" cy="232.5" r="1.53" fill="#1a1520" opacity="0.126"/><circle cx="300.6" cy="196.7" r="1.20" fill="#1a1520" opacity="0.049"/><circle cx="50.2" cy="37.5" r="1.49" fill="#1a1520" opacity="0.083"/><circle cx="465.0" cy="215.5" r="1.33" fill="#1a1520" opacity="0.045"/><circle cx="196.7" cy="165.5" r="1.71" fill="#1a1520" opacity="0.101"/><circle cx="316.7" cy="189.0" r="0.89" fill="#1a1520" opacity="0.122"/><circle cx="23.0" cy="12.6" r="1.39" fill="#1a1520" opacity="0.079"/><circle cx="329.8" cy="215.9" r="1.25" fill="#1a1520" opacity="0.139"/><circle cx="165.5" cy="285.0" r="1.41" fill="#1a1520" opacity="0.047"/><circle cx="2.6" cy="13.8" r="0.42" fill="#1a1520" opacity="0.062"/><circle cx="347.6" cy="37.1" r="1.70" fill="#1a1520" opacity="0.123"/><circle cx="137.3" cy="242.8" r="1.04" fill="#1a1520" opacity="0.043"/><circle cx="422.1" cy="286.7" r="0.68" fill="#1a1520" opacity="0.096"/><circle cx="312.5" cy="276.9" r="1.46" fill="#1a1520" opacity="0.046"/><circle cx="305.2" cy="165.4" r="1.66" fill="#1a1520" opacity="0.109"/><circle cx="276.9" cy="180.3" r="1.04" fill="#1a1520" opacity="0.107"/><circle cx="206.7" cy="52.5" r="1.26" fill="#1a1520" opacity="0.044"/><circle cx="30.8" cy="245.0" r="1.05" fill="#1a1520" opacity="0.122"/><circle cx="9.8" cy="151.2" r="1.39" fill="#1a1520" opacity="0.102"/><circle cx="364.3" cy="198.4" r="0.67" fill="#1a1520" opacity="0.083"/><circle cx="157.2" cy="121.5" r="0.93" fill="#1a1520" opacity="0.049"/><circle cx="429.7" cy="225.0" r="1.03" fill="#1a1520" opacity="0.105"/><circle cx="439.7" cy="286.7" r="1.19" fill="#1a1520" opacity="0.133"/><circle cx="417.6" cy="90.0" r="0.89" fill="#1a1520" opacity="0.048"/><circle cx="23.9" cy="295.8" r="0.66" fill="#1a1520" opacity="0.055"/><circle cx="285.5" cy="261.3" r="0.68" fill="#1a1520" opacity="0.062"/><circle cx="139.5" cy="114.9" r="1.64" fill="#1a1520" opacity="0.074"/><circle cx="217.7" cy="162.4" r="1.43" fill="#1a1520" opacity="0.119"/><circle cx="425.7" cy="42.6" r="0.40" fill="#1a1520" opacity="0.057"/><circle cx="270.1" cy="27.7" r="0.82" fill="#1a1520" opacity="0.073"/><circle cx="272.6" cy="209.9" r="1.19" fill="#1a1520" opacity="0.063"/><circle cx="426.6" cy="193.8" r="1.62" fill="#1a1520" opacity="0.098"/><circle cx="219.3" cy="112.3" r="1.40" fill="#1a1520" opacity="0.060"/><circle cx="217.3" cy="128.4" r="0.81" fill="#1a1520" opacity="0.092"/><circle cx="401.8" cy="177.0" r="0.54" fill="#1a1520" opacity="0.113"/><circle cx="19.1" cy="229.8" r="1.26" fill="#1a1520" opacity="0.139"/><circle cx="171.6" cy="43.8" r="1.11" fill="#1a1520" opacity="0.139"/><circle cx="227.4" cy="4.9" r="1.29" fill="#1a1520" opacity="0.055"/><circle cx="412.4" cy="116.9" r="0.54" fill="#1a1520" opacity="0.059"/><circle cx="109.6" cy="131.0" r="0.62" fill="#1a1520" opacity="0.070"/><circle cx="170.1" cy="101.8" r="1.04" fill="#1a1520" opacity="0.047"/><circle cx="353.4" cy="124.8" r="1.10" fill="#1a1520" opacity="0.099"/><circle cx="180.6" cy="178.5" r="0.74" fill="#1a1520" opacity="0.087"/><circle cx="320.9" cy="228.5" r="0.80" fill="#1a1520" opacity="0.115"/><circle cx="296.1" cy="111.5" r="1.36" fill="#1a1520" opacity="0.082"/><circle cx="298.5" cy="233.6" r="0.64" fill="#1a1520" opacity="0.098"/><circle cx="129.9" cy="84.5" r="0.70" fill="#1a1520" opacity="0.107"/><circle cx="239.7" cy="42.8" r="1.40" fill="#1a1520" opacity="0.050"/><circle cx="433.5" cy="196.6" r="1.64" fill="#1a1520" opacity="0.076"/><circle cx="138.3" cy="2.1" r="0.73" fill="#1a1520" opacity="0.060"/><circle cx="296.7" cy="281.3" r="0.68" fill="#1a1520" opacity="0.093"/><circle cx="166.7" cy="230.2" r="0.63" fill="#1a1520" opacity="0.102"/><circle cx="234.9" cy="255.8" r="1.08" fill="#1a1520" opacity="0.047"/><circle cx="225.5" cy="204.0" r="0.84" fill="#1a1520" opacity="0.130"/><circle cx="147.8" cy="290.0" r="1.43" fill="#1a1520" opacity="0.139"/><circle cx="207.2" cy="153.7" r="0.63" fill="#1a1520" opacity="0.042"/><circle cx="385.4" cy="234.8" r="1.08" fill="#1a1520" opacity="0.099"/><circle cx="315.7" cy="189.2" r="1.12" fill="#1a1520" opacity="0.088"/><circle cx="400.2" cy="286.1" r="1.29" fill="#1a1520" opacity="0.088"/><circle cx="456.9" cy="57.8" r="1.23" fill="#1a1520" opacity="0.083"/><circle cx="280.8" cy="25.4" r="1.18" fill="#1a1520" opacity="0.137"/><circle cx="312.5" cy="261.4" r="0.91" fill="#1a1520" opacity="0.069"/><circle cx="5.8" cy="202.0" r="1.01" fill="#1a1520" opacity="0.131"/><circle cx="199.1" cy="231.8" r="1.27" fill="#1a1520" opacity="0.132"/><circle cx="34.0" cy="211.1" r="0.99" fill="#1a1520" opacity="0.096"/><circle cx="216.0" cy="266.2" r="1.39" fill="#1a1520" opacity="0.122"/><circle cx="238.7" cy="154.8" r="0.45" fill="#1a1520" opacity="0.087"/><circle cx="411.6" cy="170.5" r="1.41" fill="#1a1520" opacity="0.125"/><circle cx="99.5" cy="244.4" r="0.43" fill="#1a1520" opacity="0.060"/><circle cx="334.9" cy="115.4" r="1.27" fill="#1a1520" opacity="0.081"/><circle cx="297.9" cy="91.4" r="0.51" fill="#1a1520" opacity="0.081"/><circle cx="388.3" cy="135.1" r="1.11" fill="#1a1520" opacity="0.122"/><circle cx="284.5" cy="228.1" r="1.25" fill="#1a1520" opacity="0.110"/><circle cx="357.8" cy="32.9" r="0.63" fill="#1a1520" opacity="0.053"/><circle cx="71.6" cy="247.6" r="0.86" fill="#1a1520" opacity="0.134"/><circle cx="287.0" cy="233.6" r="1.44" fill="#1a1520" opacity="0.091"/><circle cx="40.0" cy="84.0" r="0.98" fill="#1a1520" opacity="0.075"/><circle cx="343.5" cy="185.2" r="1.53" fill="#1a1520" opacity="0.118"/><circle cx="254.8" cy="221.1" r="0.77" fill="#fff8e7" opacity="0.077"/><circle cx="377.7" cy="283.0" r="0.63" fill="#fff8e7" opacity="0.032"/><circle cx="313.6" cy="76.2" r="0.88" fill="#fff8e7" opacity="0.068"/><circle cx="395.3" cy="133.9" r="0.68" fill="#fff8e7" opacity="0.064"/><circle cx="211.0" cy="252.3" r="0.46" fill="#fff8e7" opacity="0.038"/><circle cx="91.1" cy="247.3" r="0.88" fill="#fff8e7" opacity="0.030"/><circle cx="350.3" cy="171.2" r="0.59" fill="#fff8e7" opacity="0.049"/><circle cx="190.9" cy="29.1" r="0.81" fill="#fff8e7" opacity="0.086"/><circle cx="101.0" cy="43.9" r="0.40" fill="#fff8e7" opacity="0.081"/><circle cx="233.7" cy="274.5" r="0.70" fill="#fff8e7" opacity="0.100"/><circle cx="60.5" cy="31.6" r="1.09" fill="#fff8e7" opacity="0.085"/><circle cx="41.2" cy="268.2" r="0.44" fill="#fff8e7" opacity="0.092"/><circle cx="434.0" cy="167.2" r="0.41" fill="#fff8e7" opacity="0.064"/><circle cx="48.6" cy="231.5" r="1.10" fill="#fff8e7" opacity="0.105"/><circle cx="424.0" cy="256.5" r="0.33" fill="#fff8e7" opacity="0.103"/><circle cx="318.6" cy="174.8" r="0.93" fill="#fff8e7" opacity="0.096"/><circle cx="206.5" cy="117.8" r="0.72" fill="#fff8e7" opacity="0.094"/><circle cx="384.4" cy="273.3" r="0.38" fill="#fff8e7" opacity="0.063"/><circle cx="328.8" cy="51.9" r="0.79" fill="#fff8e7" opacity="0.031"/><circle cx="163.9" cy="262.0" r="1.05" fill="#fff8e7" opacity="0.033"/><circle cx="210.4" cy="101.3" r="0.66" fill="#fff8e7" opacity="0.104"/><circle cx="29.7" cy="265.5" r="0.96" fill="#fff8e7" opacity="0.047"/><circle cx="388.9" cy="183.5" r="0.49" fill="#fff8e7" opacity="0.093"/><circle cx="44.4" cy="290.1" r="0.59" fill="#fff8e7" opacity="0.109"/><circle cx="333.1" cy="59.9" r="1.05" fill="#fff8e7" opacity="0.063"/><circle cx="422.0" cy="70.7" r="0.41" fill="#fff8e7" opacity="0.067"/><circle cx="422.4" cy="192.6" r="1.13" fill="#fff8e7" opacity="0.080"/><circle cx="65.3" cy="215.3" r="1.02" fill="#fff8e7" opacity="0.055"/><circle cx="87.6" cy="252.4" r="0.82" fill="#fff8e7" opacity="0.063"/><circle cx="233.5" cy="28.7" r="0.95" fill="#fff8e7" opacity="0.079"/><circle cx="21.9" cy="254.6" r="0.97" fill="#fff8e7" opacity="0.034"/><circle cx="286.1" cy="94.1" r="0.67" fill="#fff8e7" opacity="0.079"/><circle cx="274.4" cy="294.5" r="0.84" fill="#fff8e7" opacity="0.044"/><circle cx="303.1" cy="183.9" r="0.61" fill="#fff8e7" opacity="0.036"/><circle cx="413.1" cy="1.4" r="0.85" fill="#fff8e7" opacity="0.056"/><circle cx="194.7" cy="224.7" r="1.00" fill="#fff8e7" opacity="0.095"/><circle cx="455.4" cy="253.9" r="0.44" fill="#fff8e7" opacity="0.099"/><circle cx="58.0" cy="52.8" r="0.67" fill="#fff8e7" opacity="0.063"/><circle cx="289.8" cy="228.4" r="0.94" fill="#fff8e7" opacity="0.102"/><circle cx="302.8" cy="11.8" r="0.51" fill="#fff8e7" opacity="0.107"/></g>
<rect x="8" y="8" width="464" height="284" fill="none" stroke="#f5efe0" stroke-opacity="0.22" stroke-width="2" rx="4"/>
</svg>
