<?xml version="1.0" encoding="UTF-8"?>
<svg xmlns="http://www.w3.org/2000/svg" viewBox="0 0 480 300" width="480" height="300" role="img" aria-label="rome">

    <defs>
      <linearGradient id="sky" x1="0" y1="0" x2="0" y2="1">
        <stop offset="0%" stop-color="#f0c878"/>
        <stop offset="55%" stop-color="#e09850"/>
        <stop offset="100%" stop-color="#a06040"/>
      </linearGradient>
      <radialGradient id="glow" cx="70%" cy="22%" r="45%">
        <stop offset="0%" stop-color="#fff6d8" stop-opacity="0.45"/>
        <stop offset="100%" stop-color="#fff6d8" stop-opacity="0"/>
      </radialGradient>
      <linearGradient id="ground" x1="0" y1="0" x2="0" y2="1">
        <stop offset="0%" stop-color="#2a3340" stop-opacity="0"/>
        <stop offset="100%" stop-color="#121820" stop-opacity="0.55"/>
      </linearGradient>
    </defs>
    <rect width="480" height="300" fill="url(#sky)"/>
    <rect width="480" height="300" fill="url(#glow)"/>
  
<g opacity="0.28" fill="#f7f3ea">
    <ellipse cx="60.76358778402209" cy="54.34122850187123" rx="27.9300060749054" ry="11.970002603530885"/>
    <ellipse cx="78.71859168931842" cy="50.3512276340276" rx="19.95000433921814" ry="9.97500216960907"/>
    <ellipse cx="44.80358431264758" cy="56.336228935793045" rx="15.960003471374513" ry="7.980001735687257"/>
  </g>
<g opacity="0.22" fill="#f7f3ea">
    <ellipse cx="356.6616535000503" cy="48.181475810706615" rx="35.11330042453483" ry="15.04855732480064"/>
    <ellipse cx="379.23448948725127" cy="43.16529003577307" rx="25.080928874667734" ry="12.540464437333867"/>
    <ellipse cx="336.5969104003161" cy="50.68956869817339" rx="20.064743099734187" ry="10.032371549867094"/>
  </g>
<g opacity="0.18" fill="#f7f3ea">
    <ellipse cx="181.19023777544498" cy="63.52937190677039" rx="19.599999999999998" ry="8.399999999999999"/>
    <ellipse cx="193.79023777544498" cy="60.729371906770396" rx="14" ry="7"/>
    <ellipse cx="169.990237775445" cy="64.9293719067704" rx="11.2" ry="5.6"/>
  </g>
<path d="M0 210 C80 182 160 228 240 198 S400 180 480 216 L480 300 L0 300 Z" fill="#6a7a4a" opacity="0.55"/>
<path d="M0 218 C80 176 160 228 240 194 S400 180 480 216 L480 300 L0 300 Z" fill="#4a5a3a" opacity="0.67"/>

    <g fill="#c4a882" transform="translate(240,145)">
      <ellipse cx="0" cy="55" rx="110" ry="35" fill="#a88860"/>
      <path d="M-100 55 Q-100 -10 0 -20 Q100 -10 100 55" fill="#d2b896"/>
      <g fill="#8a6a48" opacity="0.75">
        <ellipse cx="-60" cy="10" rx="10" ry="18"/><ellipse cx="-30" cy="5" rx="10" ry="18"/>
        <ellipse cx="0" cy="2" rx="10" ry="18"/><ellipse cx="30" cy="5" rx="10" ry="18"/>
        <ellipse cx="60" cy="10" rx="10" ry="18"/>
      </g>
      <path d="M-95 40 Q-40 20 0 18 Q40 20 95 40" fill="none" stroke="#8a6a48" stroke-width="3" opacity="0.5"/>
    </g>
<rect width="480" height="300" fill="url(#ground)"/>
  <rect width="480" height="300" fill="none" stroke="#1a1520" stroke-width="28" stroke-opacity="0.18"/>
<g id="grain-rome" opacity="0.85"><circle cx="9.2" cy="215.1" r="0.74" fill="#1a1520" opacity="0.136"/><circle cx="349.1" cy="152.4" r="1.34" fill="#1a1520" opacity="0.043"/><circle cx="272.9" cy="49.8" r="1.38" fill="#1a1520" opacity="0.129"/><circle cx="310.1" cy="83.5" r="1.52" fill="#1a1520" opacity="0.124"/><circle cx="337.1" cy="96.0" r="1.02" fill="#1a1520" opacity="0.051"/><circle cx="149.7" cy="262.2" r="0.74" fill="#1a1520" opacity="0.116"/><circle cx="100.3" cy="299.5" r="0.44" fill="#1a1520" opacity="0.074"/><circle cx="35.4" cy="138.0" r="0.50" fill="#1a1520" opacity="0.115"/><circle cx="153.1" cy="297.2" r="1.15" fill="#1a1520" opacity="0.066"/><circle cx="331.5" cy="267.1" r="0.85" fill="#1a1520" opacity="0.077"/><circle cx="217.0" cy="288.7" r="1.18" fill="#1a1520" opacity="0.122"/><circle cx="330.0" cy="220.8" r="0.62" fill="#1a1520" opacity="0.078"/><circle cx="176.3" cy="134.8" r="1.68" fill="#1a1520" opacity="0.064"/><circle cx="45.1" cy="177.8" r="0.74" fill="#1a1520" opacity="0.064"/><circle cx="117.2" cy="200.5" r="1.52" fill="#1a1520" opacity="0.126"/><circle cx="225.4" cy="225.4" r="1.18" fill="#1a1520" opacity="0.068"/><circle cx="320.2" cy="82.3" r="1.06" fill="#1a1520" opacity="0.119"/><circle cx="95.4" cy="234.7" r="0.87" fill="#1a1520" opacity="0.079"/><circle cx="236.2" cy="86.8" r="0.78" fill="#1a1520" opacity="0.098"/><circle cx="78.4" cy="120.9" r="0.84" fill="#1a1520" opacity="0.083"/><circle cx="326.4" cy="12.2" r="0.61" fill="#1a1520" opacity="0.116"/><circle cx="99.2" cy="139.6" r="0.90" fill="#1a1520" opacity="0.097"/><circle cx="115.5" cy="205.2" r="0.64" fill="#1a1520" opacity="0.052"/><circle cx="459.9" cy="151.9" r="1.23" fill="#1a1520" opacity="0.080"/><circle cx="78.0" cy="85.7" r="0.76" fill="#1a1520" opacity="0.049"/><circle cx="327.2" cy="175.2" r="1.46" fill="#1a1520" opacity="0.102"/><circle cx="476.0" cy="151.5" r="1.18" fill="#1a1520" opacity="0.121"/><circle cx="439.2" cy="254.3" r="0.54" fill="#1a1520" opacity="0.046"/><circle cx="119.8" cy="218.1" r="1.67" fill="#1a1520" opacity="0.041"/><circle cx="363.5" cy="271.5" r="0.57" fill="#1a1520" opacity="0.076"/><circle cx="254.4" cy="63.3" r="0.48" fill="#1a1520" opacity="0.050"/><circle cx="447.8" cy="104.6" r="0.45" fill="#1a1520" opacity="0.050"/><circle cx="385.6" cy="135.8" r="0.63" fill="#1a1520" opacity="0.061"/><circle cx="26.8" cy="231.8" r="0.87" fill="#1a1520" opacity="0.085"/><circle cx="416.3" cy="276.1" r="0.95" fill="#1a1520" opacity="0.081"/><circle cx="331.8" cy="128.2" r="0.54" fill="#1a1520" opacity="0.125"/><circle cx="212.5" cy="234.8" r="0.89" fill="#1a1520" opacity="0.102"/><circle cx="369.5" cy="138.1" r="1.00" fill="#1a1520" opacity="0.057"/><circle cx="260.3" cy="141.6" r="0.96" fill="#1a1520" opacity="0.057"/><circle cx="111.1" cy="136.7" r="0.90" fill="#1a1520" opacity="0.065"/><circle cx="423.3" cy="124.6" r="0.72" fill="#1a1520" opacity="0.102"/><circle cx="160.2" cy="65.0" r="1.70" fill="#1a1520" opacity="0.067"/><circle cx="229.3" cy="140.8" r="1.23" fill="#1a1520" opacity="0.113"/><circle cx="429.5" cy="98.3" r="1.03" fill="#1a1520" opacity="0.129"/><circle cx="394.3" cy="72.4" r="0.84" fill="#1a1520" opacity="0.088"/><circle cx="304.2" cy="43.6" r="1.35" fill="#1a1520" opacity="0.106"/><circle cx="95.7" cy="42.3" r="1.35" fill="#1a1520" opacity="0.086"/><circle cx="358.8" cy="232.8" r="1.39" fill="#1a1520" opacity="0.096"/><circle cx="254.1" cy="113.0" r="0.79" fill="#1a1520" opacity="0.080"/><circle cx="337.7" cy="2.2" r="0.50" fill="#1a1520" opacity="0.086"/><circle cx="194.5" cy="73.4" r="0.91" fill="#1a1520" opacity="0.088"/><circle cx="426.0" cy="63.1" r="0.55" fill="#1a1520" opacity="0.078"/><circle cx="350.8" cy="297.5" r="0.74" fill="#1a1520" opacity="0.126"/><circle cx="95.9" cy="255.0" r="1.41" fill="#1a1520" opacity="0.107"/><circle cx="303.5" cy="104.3" r="1.21" fill="#1a1520" opacity="0.120"/><circle cx="327.1" cy="200.5" r="1.63" fill="#1a1520" opacity="0.107"/><circle cx="133.2" cy="18.8" r="1.29" fill="#1a1520" opacity="0.059"/><circle cx="370.0" cy="112.6" r="0.64" fill="#1a1520" opacity="0.106"/><circle cx="230.4" cy="194.3" r="0.43" fill="#1a1520" opacity="0.051"/><circle cx="15.5" cy="71.0" r="0.83" fill="#1a1520" opacity="0.053"/><circle cx="470.5" cy="284.0" r="0.44" fill="#1a1520" opacity="0.116"/><circle cx="100.2" cy="232.9" r="1.17" fill="#1a1520" opacity="0.055"/><circle cx="38.9" cy="160.2" r="0.79" fill="#1a1520" opacity="0.079"/><circle cx="110.4" cy="285.0" r="0.51" fill="#1a1520" opacity="0.113"/><circle cx="319.2" cy="95.4" r="0.54" fill="#1a1520" opacity="0.127"/><circle cx="393.5" cy="168.0" r="0.43" fill="#1a1520" opacity="0.131"/><circle cx="477.6" cy="181.2" r="1.74" fill="#1a1520" opacity="0.127"/><circle cx="47.3" cy="123.8" r="1.17" fill="#1a1520" opacity="0.121"/><circle cx="300.4" cy="11.7" r="1.63" fill="#1a1520" opacity="0.058"/><circle cx="23.6" cy="260.5" r="1.64" fill="#1a1520" opacity="0.053"/><circle cx="473.0" cy="207.4" r="1.27" fill="#1a1520" opacity="0.139"/><circle cx="407.7" cy="195.9" r="0.74" fill="#1a1520" opacity="0.070"/><circle cx="463.3" cy="23.4" r="1.33" fill="#1a1520" opacity="0.136"/><circle cx="395.0" cy="230.4" r="1.61" fill="#1a1520" opacity="0.117"/><circle cx="459.5" cy="150.6" r="1.43" fill="#1a1520" opacity="0.138"/><circle cx="344.2" cy="8.3" r="1.62" fill="#1a1520" opacity="0.050"/><circle cx="48.9" cy="201.8" r="0.54" fill="#1a1520" opacity="0.099"/><circle cx="165.6" cy="259.8" r="1.21" fill="#1a1520" opacity="0.120"/><circle cx="283.8" cy="156.9" r="1.62" fill="#1a1520" opacity="0.048"/><circle cx="183.1" cy="13.0" r="1.12" fill="#1a1520" opacity="0.054"/><circle cx="154.0" cy="216.9" r="0.54" fill="#1a1520" opacity="0.076"/><circle cx="93.2" cy="274.6" r="1.77" fill="#1a1520" opacity="0.050"/><circle cx="365.4" cy="40.3" r="1.36" fill="#1a1520" opacity="0.112"/><circle cx="211.8" cy="246.5" r="0.83" fill="#1a1520" opacity="0.108"/><circle cx="102.2" cy="186.9" r="1.54" fill="#1a1520" opacity="0.098"/><circle cx="248.3" cy="53.1" r="0.71" fill="#1a1520" opacity="0.077"/><circle cx="253.9" cy="145.0" r="1.76" fill="#1a1520" opacity="0.075"/><circle cx="469.5" cy="116.6" r="1.72" fill="#1a1520" opacity="0.094"/><circle cx="17.5" cy="139.7" r="0.95" fill="#1a1520" opacity="0.076"/><circle cx="201.6" cy="4.1" r="1.45" fill="#1a1520" opacity="0.053"/><circle cx="305.8" cy="208.6" r="0.40" fill="#fff8e7" opacity="0.069"/><circle cx="12.5" cy="244.9" r="0.95" fill="#fff8e7" opacity="0.076"/><circle cx="80.9" cy="43.0" r="0.89" fill="#fff8e7" opacity="0.052"/><circle cx="373.7" cy="41.7" r="0.58" fill="#fff8e7" opacity="0.075"/><circle cx="343.0" cy="40.7" r="0.55" fill="#fff8e7" opacity="0.032"/><circle cx="462.5" cy="48.2" r="0.87" fill="#fff8e7" opacity="0.099"/><circle cx="400.5" cy="23.4" r="1.11" fill="#fff8e7" opacity="0.049"/><circle cx="166.2" cy="253.4" r="0.61" fill="#fff8e7" opacity="0.079"/><circle cx="3.8" cy="47.1" r="0.32" fill="#fff8e7" opacity="0.073"/><circle cx="208.5" cy="134.6" r="0.90" fill="#fff8e7" opacity="0.067"/><circle cx="177.1" cy="55.1" r="0.83" fill="#fff8e7" opacity="0.076"/><circle cx="341.6" cy="17.1" r="0.58" fill="#fff8e7" opacity="0.091"/><circle cx="473.3" cy="22.4" r="0.56" fill="#fff8e7" opacity="0.093"/><circle cx="471.1" cy="23.6" r="0.66" fill="#fff8e7" opacity="0.083"/><circle cx="414.3" cy="69.1" r="0.87" fill="#fff8e7" opacity="0.085"/><circle cx="154.9" cy="122.8" r="1.11" fill="#fff8e7" opacity="0.037"/><circle cx="91.2" cy="57.2" r="0.79" fill="#fff8e7" opacity="0.091"/><circle cx="455.3" cy="129.1" r="0.55" fill="#fff8e7" opacity="0.088"/><circle cx="331.9" cy="266.2" r="1.13" fill="#fff8e7" opacity="0.104"/><circle cx="458.8" cy="207.1" r="0.65" fill="#fff8e7" opacity="0.086"/><circle cx="152.9" cy="13.6" r="0.76" fill="#fff8e7" opacity="0.094"/><circle cx="6.7" cy="143.8" r="0.47" fill="#fff8e7" opacity="0.048"/><circle cx="459.6" cy="39.5" r="0.46" fill="#fff8e7" opacity="0.043"/><circle cx="33.6" cy="178.0" r="1.18" fill="#fff8e7" opacity="0.059"/><circle cx="464.9" cy="247.4" r="1.14" fill="#fff8e7" opacity="0.086"/><circle cx="83.8" cy="183.2" r="0.70" fill="#fff8e7" opacity="0.050"/><circle cx="240.9" cy="84.8" r="1.12" fill="#fff8e7" opacity="0.095"/><circle cx="362.0" cy="216.0" r="0.47" fill="#fff8e7" opacity="0.079"/><circle cx="320.6" cy="174.7" r="0.57" fill="#fff8e7" opacity="0.073"/><circle cx="327.2" cy="96.4" r="0.60" fill="#fff8e7" opacity="0.035"/><circle cx="145.5" cy="132.9" r="0.79" fill="#fff8e7" opacity="0.083"/><circle cx="67.8" cy="102.4" r="0.77" fill="#fff8e7" opacity="0.102"/><circle cx="145.2" cy="95.3" r="1.19" fill="#fff8e7" opacity="0.059"/><circle cx="106.6" cy="99.5" r="0.80" fill="#fff8e7" opacity="0.057"/><circle cx="233.8" cy="86.6" r="1.08" fill="#fff8e7" opacity="0.036"/><circle cx="47.0" cy="143.0" r="1.03" fill="#fff8e7" opacity="0.065"/><circle cx="161.2" cy="280.4" r="0.50" fill="#fff8e7" opacity="0.060"/><circle cx="49.3" cy="110.7" r="0.97" fill="#fff8e7" opacity="0.080"/><circle cx="115.7" cy="127.5" r="0.39" fill="#fff8e7" opacity="0.065"/><circle cx="177.9" cy="202.5" r="0.61" fill="#fff8e7" opacity="0.052"/></g>
<rect x="8" y="8" width="464" height="284" fill="none" stroke="#f5efe0" stroke-opacity="0.22" stroke-width="2" rx="4"/>
</svg>
