<?xml version="1.0" encoding="UTF-8"?>
<svg xmlns="http://www.w3.org/2000/svg" viewBox="0 0 480 300" width="480" height="300" role="img" aria-label="seoul">

    <defs>
      <linearGradient id="sky" x1="0" y1="0" x2="0" y2="1">
        <stop offset="0%" stop-color="#2a1a3a"/>
        <stop offset="55%" stop-color="#4a2a5a"/>
        <stop offset="100%" stop-color="#1a1028"/>
      </linearGradient>
      <radialGradient id="glow" cx="70%" cy="22%" r="45%">
        <stop offset="0%" stop-color="#fff6d8" stop-opacity="0.45"/>
        <stop offset="100%" stop-color="#fff6d8" stop-opacity="0"/>
      </radialGradient>
      <linearGradient id="ground" x1="0" y1="0" x2="0" y2="1">
        <stop offset="0%" stop-color="#2a3340" stop-opacity="0"/>
        <stop offset="100%" stop-color="#121820" stop-opacity="0.55"/>
      </linearGradient>
    </defs>
    <rect width="480" height="300" fill="url(#sky)"/>
    <rect width="480" height="300" fill="url(#glow)"/>
  

    <g fill="#2a2438">
      <rect x="60" y="110" width="40" height="120" rx="2"/>
      <rect x="110" y="90" width="34" height="140" rx="2"/>
      <rect x="155" y="130" width="50" height="100" rx="2"/>
      <rect x="215" y="80" width="38" height="150" rx="2"/>
      <rect x="265" y="105" width="46" height="125" rx="2"/>
      <rect x="325" y="95" width="32" height="135" rx="2"/>
      <rect x="370" y="120" width="42" height="110" rx="2"/>
    </g>
    <g opacity="0.7">
      <rect x="70" y="120" width="8" height="8" fill="#ff6bcb"/>
      <rect x="85" y="140" width="8" height="8" fill="#6bffef"/>
      <rect x="120" y="105" width="7" height="7" fill="#ffd56b"/>
      <rect x="225" y="95" width="8" height="8" fill="#ff6bcb"/>
      <rect x="280" y="120" width="8" height="8" fill="#6bffef"/>
      <rect x="335" y="110" width="7" height="7" fill="#ffd56b"/>
    </g>
<rect width="480" height="300" fill="url(#ground)"/>
  <rect width="480" height="300" fill="none" stroke="#1a1520" stroke-width="28" stroke-opacity="0.18"/>
<g id="grain-seoul" opacity="0.85"><circle cx="237.0" cy="12.3" r="1.48" fill="#1a1520" opacity="0.058"/><circle cx="449.0" cy="67.4" r="1.53" fill="#1a1520" opacity="0.071"/><circle cx="380.7" cy="284.4" r="1.06" fill="#1a1520" opacity="0.123"/><circle cx="36.6" cy="110.2" r="1.80" fill="#1a1520" opacity="0.084"/><circle cx="473.6" cy="2.3" r="1.42" fill="#1a1520" opacity="0.042"/><circle cx="126.2" cy="249.7" r="0.44" fill="#1a1520" opacity="0.107"/><circle cx="344.9" cy="192.3" r="1.19" fill="#1a1520" opacity="0.055"/><circle cx="26.5" cy="117.9" r="0.62" fill="#1a1520" opacity="0.068"/><circle cx="386.5" cy="119.1" r="1.30" fill="#1a1520" opacity="0.068"/><circle cx="410.4" cy="96.5" r="1.28" fill="#1a1520" opacity="0.103"/><circle cx="410.7" cy="64.2" r="1.41" fill="#1a1520" opacity="0.099"/><circle cx="58.3" cy="95.2" r="1.19" fill="#1a1520" opacity="0.069"/><circle cx="429.2" cy="34.2" r="1.23" fill="#1a1520" opacity="0.079"/><circle cx="103.8" cy="35.6" r="0.52" fill="#1a1520" opacity="0.095"/><circle cx="465.5" cy="50.4" r="0.46" fill="#1a1520" opacity="0.105"/><circle cx="327.0" cy="31.7" r="1.00" fill="#1a1520" opacity="0.113"/><circle cx="180.2" cy="44.1" r="0.42" fill="#1a1520" opacity="0.057"/><circle cx="60.7" cy="43.4" r="1.23" fill="#1a1520" opacity="0.086"/><circle cx="422.3" cy="291.8" r="1.50" fill="#1a1520" opacity="0.107"/><circle cx="24.1" cy="11.0" r="0.46" fill="#1a1520" opacity="0.114"/><circle cx="131.3" cy="276.8" r="1.34" fill="#1a1520" opacity="0.067"/><circle cx="405.2" cy="206.1" r="0.91" fill="#1a1520" opacity="0.111"/><circle cx="15.8" cy="274.9" r="0.77" fill="#1a1520" opacity="0.091"/><circle cx="297.8" cy="245.5" r="0.89" fill="#1a1520" opacity="0.103"/><circle cx="27.8" cy="100.5" r="1.36" fill="#1a1520" opacity="0.092"/><circle cx="50.6" cy="152.2" r="1.75" fill="#1a1520" opacity="0.075"/><circle cx="123.0" cy="110.2" r="0.49" fill="#1a1520" opacity="0.076"/><circle cx="19.9" cy="72.4" r="1.01" fill="#1a1520" opacity="0.092"/><circle cx="34.5" cy="172.0" r="1.13" fill="#1a1520" opacity="0.046"/><circle cx="349.3" cy="50.2" r="0.72" fill="#1a1520" opacity="0.045"/><circle cx="184.2" cy="83.3" r="0.69" fill="#1a1520" opacity="0.102"/><circle cx="2.7" cy="122.0" r="0.95" fill="#1a1520" opacity="0.130"/><circle cx="303.4" cy="183.4" r="0.66" fill="#1a1520" opacity="0.070"/><circle cx="231.6" cy="124.0" r="1.10" fill="#1a1520" opacity="0.077"/><circle cx="337.2" cy="268.0" r="1.20" fill="#1a1520" opacity="0.108"/><circle cx="202.7" cy="63.3" r="1.42" fill="#1a1520" opacity="0.115"/><circle cx="237.9" cy="272.3" r="0.92" fill="#1a1520" opacity="0.059"/><circle cx="314.7" cy="100.7" r="0.53" fill="#1a1520" opacity="0.076"/><circle cx="354.8" cy="19.5" r="1.67" fill="#1a1520" opacity="0.137"/><circle cx="17.9" cy="182.4" r="0.48" fill="#1a1520" opacity="0.117"/><circle cx="218.9" cy="68.2" r="1.50" fill="#1a1520" opacity="0.106"/><circle cx="163.5" cy="79.5" r="1.17" fill="#1a1520" opacity="0.073"/><circle cx="343.5" cy="254.5" r="1.38" fill="#1a1520" opacity="0.065"/><circle cx="391.3" cy="76.5" r="1.03" fill="#1a1520" opacity="0.047"/><circle cx="348.8" cy="235.5" r="1.71" fill="#1a1520" opacity="0.129"/><circle cx="17.8" cy="249.8" r="1.78" fill="#1a1520" opacity="0.052"/><circle cx="421.5" cy="113.2" r="0.59" fill="#1a1520" opacity="0.060"/><circle cx="173.7" cy="123.4" r="1.72" fill="#1a1520" opacity="0.134"/><circle cx="87.0" cy="273.7" r="0.84" fill="#1a1520" opacity="0.131"/><circle cx="138.8" cy="120.4" r="1.60" fill="#1a1520" opacity="0.067"/><circle cx="147.6" cy="219.9" r="0.70" fill="#1a1520" opacity="0.134"/><circle cx="17.2" cy="128.2" r="1.72" fill="#1a1520" opacity="0.137"/><circle cx="383.2" cy="259.1" r="1.05" fill="#1a1520" opacity="0.130"/><circle cx="467.1" cy="223.5" r="0.50" fill="#1a1520" opacity="0.131"/><circle cx="478.8" cy="135.6" r="0.51" fill="#1a1520" opacity="0.131"/><circle cx="369.8" cy="5.8" r="1.73" fill="#1a1520" opacity="0.055"/><circle cx="397.4" cy="227.8" r="1.02" fill="#1a1520" opacity="0.061"/><circle cx="115.9" cy="171.8" r="1.79" fill="#1a1520" opacity="0.104"/><circle cx="246.6" cy="198.5" r="0.75" fill="#1a1520" opacity="0.123"/><circle cx="38.9" cy="223.8" r="0.65" fill="#1a1520" opacity="0.091"/><circle cx="440.0" cy="259.8" r="0.61" fill="#1a1520" opacity="0.120"/><circle cx="388.3" cy="30.0" r="1.46" fill="#1a1520" opacity="0.062"/><circle cx="441.1" cy="154.6" r="0.48" fill="#1a1520" opacity="0.077"/><circle cx="34.3" cy="177.5" r="0.41" fill="#1a1520" opacity="0.064"/><circle cx="100.7" cy="54.9" r="0.71" fill="#1a1520" opacity="0.083"/><circle cx="171.2" cy="220.3" r="0.62" fill="#1a1520" opacity="0.046"/><circle cx="175.8" cy="29.4" r="1.40" fill="#1a1520" opacity="0.137"/><circle cx="40.4" cy="165.5" r="1.12" fill="#1a1520" opacity="0.082"/><circle cx="161.6" cy="58.9" r="1.09" fill="#1a1520" opacity="0.048"/><circle cx="108.5" cy="211.9" r="1.21" fill="#1a1520" opacity="0.139"/><circle cx="345.8" cy="8.2" r="1.79" fill="#1a1520" opacity="0.062"/><circle cx="59.5" cy="221.8" r="1.41" fill="#1a1520" opacity="0.105"/><circle cx="461.6" cy="129.7" r="1.07" fill="#1a1520" opacity="0.056"/><circle cx="37.3" cy="152.7" r="1.47" fill="#1a1520" opacity="0.076"/><circle cx="332.4" cy="272.6" r="0.57" fill="#1a1520" opacity="0.046"/><circle cx="289.3" cy="166.6" r="1.53" fill="#1a1520" opacity="0.075"/><circle cx="411.6" cy="204.9" r="0.50" fill="#1a1520" opacity="0.075"/><circle cx="456.2" cy="159.2" r="1.16" fill="#1a1520" opacity="0.100"/><circle cx="433.7" cy="28.0" r="1.32" fill="#1a1520" opacity="0.115"/><circle cx="353.3" cy="165.0" r="0.79" fill="#1a1520" opacity="0.117"/><circle cx="378.8" cy="6.0" r="1.46" fill="#1a1520" opacity="0.073"/><circle cx="263.8" cy="42.9" r="0.93" fill="#1a1520" opacity="0.101"/><circle cx="444.8" cy="81.0" r="1.77" fill="#1a1520" opacity="0.069"/><circle cx="30.0" cy="1.6" r="0.99" fill="#1a1520" opacity="0.113"/><circle cx="322.2" cy="154.7" r="0.71" fill="#1a1520" opacity="0.139"/><circle cx="222.3" cy="265.9" r="1.38" fill="#1a1520" opacity="0.046"/><circle cx="411.6" cy="220.4" r="1.20" fill="#1a1520" opacity="0.096"/><circle cx="318.9" cy="105.2" r="1.47" fill="#1a1520" opacity="0.123"/><circle cx="333.4" cy="87.9" r="1.61" fill="#1a1520" opacity="0.106"/><circle cx="178.6" cy="95.1" r="1.27" fill="#1a1520" opacity="0.104"/><circle cx="453.8" cy="216.1" r="0.77" fill="#fff8e7" opacity="0.038"/><circle cx="103.0" cy="279.5" r="0.61" fill="#fff8e7" opacity="0.045"/><circle cx="451.0" cy="221.7" r="0.58" fill="#fff8e7" opacity="0.085"/><circle cx="452.5" cy="242.3" r="0.34" fill="#fff8e7" opacity="0.095"/><circle cx="137.2" cy="267.2" r="0.76" fill="#fff8e7" opacity="0.086"/><circle cx="34.5" cy="63.7" r="0.32" fill="#fff8e7" opacity="0.098"/><circle cx="310.0" cy="235.8" r="1.04" fill="#fff8e7" opacity="0.040"/><circle cx="231.4" cy="261.5" r="0.33" fill="#fff8e7" opacity="0.059"/><circle cx="174.5" cy="148.3" r="0.85" fill="#fff8e7" opacity="0.051"/><circle cx="269.2" cy="263.8" r="0.59" fill="#fff8e7" opacity="0.054"/><circle cx="292.9" cy="136.0" r="0.66" fill="#fff8e7" opacity="0.065"/><circle cx="254.6" cy="73.8" r="0.66" fill="#fff8e7" opacity="0.044"/><circle cx="265.1" cy="147.7" r="1.12" fill="#fff8e7" opacity="0.044"/><circle cx="232.7" cy="70.0" r="1.16" fill="#fff8e7" opacity="0.074"/><circle cx="243.3" cy="73.8" r="0.78" fill="#fff8e7" opacity="0.063"/><circle cx="460.7" cy="269.2" r="0.41" fill="#fff8e7" opacity="0.041"/><circle cx="429.4" cy="64.7" r="0.77" fill="#fff8e7" opacity="0.052"/><circle cx="147.6" cy="118.4" r="0.32" fill="#fff8e7" opacity="0.044"/><circle cx="253.5" cy="107.7" r="0.54" fill="#fff8e7" opacity="0.098"/><circle cx="407.8" cy="246.2" r="0.69" fill="#fff8e7" opacity="0.084"/><circle cx="115.1" cy="275.9" r="0.32" fill="#fff8e7" opacity="0.075"/><circle cx="315.5" cy="267.8" r="0.88" fill="#fff8e7" opacity="0.045"/><circle cx="309.8" cy="258.1" r="1.14" fill="#fff8e7" opacity="0.044"/><circle cx="232.3" cy="37.2" r="0.34" fill="#fff8e7" opacity="0.050"/><circle cx="178.9" cy="289.8" r="0.52" fill="#fff8e7" opacity="0.098"/><circle cx="439.1" cy="54.6" r="1.05" fill="#fff8e7" opacity="0.049"/><circle cx="42.7" cy="158.5" r="0.71" fill="#fff8e7" opacity="0.086"/><circle cx="155.1" cy="61.1" r="0.75" fill="#fff8e7" opacity="0.090"/><circle cx="271.8" cy="169.0" r="0.87" fill="#fff8e7" opacity="0.081"/><circle cx="175.8" cy="257.7" r="0.41" fill="#fff8e7" opacity="0.097"/><circle cx="89.6" cy="65.0" r="0.40" fill="#fff8e7" opacity="0.053"/><circle cx="324.0" cy="228.9" r="1.12" fill="#fff8e7" opacity="0.064"/><circle cx="200.5" cy="223.4" r="1.07" fill="#fff8e7" opacity="0.091"/><circle cx="207.2" cy="262.1" r="0.71" fill="#fff8e7" opacity="0.070"/><circle cx="127.0" cy="143.5" r="0.66" fill="#fff8e7" opacity="0.095"/><circle cx="401.8" cy="132.3" r="0.93" fill="#fff8e7" opacity="0.081"/><circle cx="267.8" cy="275.9" r="1.20" fill="#fff8e7" opacity="0.101"/><circle cx="320.4" cy="140.8" r="0.40" fill="#fff8e7" opacity="0.085"/><circle cx="38.2" cy="54.1" r="0.50" fill="#fff8e7" opacity="0.076"/><circle cx="244.9" cy="127.9" r="0.58" fill="#fff8e7" opacity="0.080"/></g>
<rect x="8" y="8" width="464" height="284" fill="none" stroke="#f5efe0" stroke-opacity="0.22" stroke-width="2" rx="4"/>
</svg>
