<?xml version="1.0" encoding="UTF-8"?>
<svg xmlns="http://www.w3.org/2000/svg" viewBox="0 0 480 300" width="480" height="300" role="img" aria-label="tokyo">

    <defs>
      <linearGradient id="sky" x1="0" y1="0" x2="0" y2="1">
        <stop offset="0%" stop-color="#f0a060"/>
        <stop offset="55%" stop-color="#d07050"/>
        <stop offset="100%" stop-color="#503040"/>
      </linearGradient>
      <radialGradient id="glow" cx="70%" cy="22%" r="45%">
        <stop offset="0%" stop-color="#fff6d8" stop-opacity="0.45"/>
        <stop offset="100%" stop-color="#fff6d8" stop-opacity="0"/>
      </radialGradient>
      <linearGradient id="ground" x1="0" y1="0" x2="0" y2="1">
        <stop offset="0%" stop-color="#2a3340" stop-opacity="0"/>
        <stop offset="100%" stop-color="#121820" stop-opacity="0.55"/>
      </linearGradient>
    </defs>
    <rect width="480" height="300" fill="url(#sky)"/>
    <rect width="480" height="300" fill="url(#glow)"/>
  
<g opacity="0.28" fill="#f7f3ea">
    <ellipse cx="76.12716855481267" cy="42.10944316815585" rx="25.90781000852585" ry="11.103347146511078"/>
    <ellipse cx="92.78218927457928" cy="38.40832745265216" rx="18.505578577518463" ry="9.252789288759232"/>
    <ellipse cx="61.322705692797896" cy="43.960001025907694" rx="14.804462862014772" ry="7.402231431007386"/>
  </g>
<g opacity="0.22" fill="#f7f3ea">
    <ellipse cx="310.4304607398808" cy="46.14181218901649" rx="38.61869381321594" ry="16.550868777092546"/>
    <ellipse cx="335.2567639055196" cy="40.62485592998564" rx="27.584781295154244" ry="13.792390647577122"/>
    <ellipse cx="288.3626357037574" cy="48.900290318531916" rx="22.067825036123395" ry="11.033912518061697"/>
  </g>

    <g fill="#3a4558">
      <rect x="50" y="140" width="30" height="90"/><rect x="90" y="120" width="24" height="110"/>
      <rect x="130" y="150" width="36" height="80"/><rect x="180" y="110" width="28" height="120"/>
      <rect x="320" y="130" width="34" height="100"/><rect x="370" y="145" width="40" height="85"/>
    </g>
    <g fill="#c45c48" transform="translate(250,70)">
      <path d="M0 0 L18 140 L-18 140 Z"/>
      <rect x="-22" y="55" width="44" height="8"/>
      <rect x="-16" y="95" width="32" height="6"/>
      <rect x="-3" y="-18" width="6" height="22" fill="#e8c84a"/>
    </g>
<rect width="480" height="300" fill="url(#ground)"/>
  <rect width="480" height="300" fill="none" stroke="#1a1520" stroke-width="28" stroke-opacity="0.18"/>
<g id="grain-tokyo" opacity="0.85"><circle cx="193.5" cy="31.6" r="0.49" fill="#1a1520" opacity="0.078"/><circle cx="309.9" cy="227.5" r="0.68" fill="#1a1520" opacity="0.087"/><circle cx="407.7" cy="67.5" r="1.18" fill="#1a1520" opacity="0.040"/><circle cx="128.5" cy="19.6" r="0.80" fill="#1a1520" opacity="0.106"/><circle cx="270.0" cy="274.1" r="0.55" fill="#1a1520" opacity="0.095"/><circle cx="1.1" cy="193.5" r="1.24" fill="#1a1520" opacity="0.132"/><circle cx="144.5" cy="165.9" r="1.49" fill="#1a1520" opacity="0.067"/><circle cx="317.3" cy="258.9" r="1.42" fill="#1a1520" opacity="0.098"/><circle cx="461.2" cy="173.5" r="1.20" fill="#1a1520" opacity="0.098"/><circle cx="329.8" cy="95.9" r="0.62" fill="#1a1520" opacity="0.042"/><circle cx="384.5" cy="116.6" r="1.08" fill="#1a1520" opacity="0.041"/><circle cx="412.0" cy="198.8" r="1.12" fill="#1a1520" opacity="0.098"/><circle cx="248.2" cy="262.7" r="1.49" fill="#1a1520" opacity="0.040"/><circle cx="421.7" cy="141.7" r="1.43" fill="#1a1520" opacity="0.117"/><circle cx="290.7" cy="152.3" r="0.76" fill="#1a1520" opacity="0.135"/><circle cx="98.3" cy="26.0" r="0.66" fill="#1a1520" opacity="0.109"/><circle cx="89.0" cy="63.0" r="0.90" fill="#1a1520" opacity="0.103"/><circle cx="476.8" cy="268.8" r="1.70" fill="#1a1520" opacity="0.062"/><circle cx="35.6" cy="17.6" r="1.40" fill="#1a1520" opacity="0.136"/><circle cx="395.5" cy="112.1" r="1.30" fill="#1a1520" opacity="0.050"/><circle cx="121.5" cy="15.2" r="0.68" fill="#1a1520" opacity="0.056"/><circle cx="479.4" cy="102.2" r="1.13" fill="#1a1520" opacity="0.066"/><circle cx="112.8" cy="252.1" r="1.34" fill="#1a1520" opacity="0.061"/><circle cx="110.7" cy="272.0" r="1.59" fill="#1a1520" opacity="0.104"/><circle cx="30.9" cy="186.6" r="0.80" fill="#1a1520" opacity="0.135"/><circle cx="76.9" cy="155.9" r="0.87" fill="#1a1520" opacity="0.091"/><circle cx="330.6" cy="106.1" r="0.49" fill="#1a1520" opacity="0.096"/><circle cx="113.9" cy="20.5" r="0.83" fill="#1a1520" opacity="0.087"/><circle cx="356.8" cy="152.0" r="0.54" fill="#1a1520" opacity="0.094"/><circle cx="191.1" cy="123.1" r="1.20" fill="#1a1520" opacity="0.101"/><circle cx="392.8" cy="180.2" r="1.71" fill="#1a1520" opacity="0.054"/><circle cx="276.6" cy="37.5" r="1.59" fill="#1a1520" opacity="0.100"/><circle cx="10.7" cy="51.2" r="0.90" fill="#1a1520" opacity="0.119"/><circle cx="101.7" cy="8.4" r="0.56" fill="#1a1520" opacity="0.124"/><circle cx="437.5" cy="115.0" r="1.28" fill="#1a1520" opacity="0.112"/><circle cx="92.9" cy="80.8" r="0.43" fill="#1a1520" opacity="0.100"/><circle cx="241.8" cy="84.3" r="0.97" fill="#1a1520" opacity="0.091"/><circle cx="240.5" cy="225.0" r="0.78" fill="#1a1520" opacity="0.054"/><circle cx="343.0" cy="247.1" r="0.95" fill="#1a1520" opacity="0.062"/><circle cx="304.9" cy="227.3" r="1.39" fill="#1a1520" opacity="0.129"/><circle cx="433.9" cy="180.4" r="1.62" fill="#1a1520" opacity="0.103"/><circle cx="354.3" cy="89.3" r="1.05" fill="#1a1520" opacity="0.084"/><circle cx="417.9" cy="170.7" r="0.90" fill="#1a1520" opacity="0.062"/><circle cx="124.3" cy="297.4" r="0.89" fill="#1a1520" opacity="0.123"/><circle cx="144.5" cy="271.8" r="1.54" fill="#1a1520" opacity="0.126"/><circle cx="73.7" cy="200.6" r="1.72" fill="#1a1520" opacity="0.046"/><circle cx="122.5" cy="128.6" r="1.61" fill="#1a1520" opacity="0.066"/><circle cx="292.1" cy="28.6" r="0.95" fill="#1a1520" opacity="0.051"/><circle cx="398.5" cy="103.4" r="1.70" fill="#1a1520" opacity="0.045"/><circle cx="129.2" cy="53.0" r="1.75" fill="#1a1520" opacity="0.139"/><circle cx="327.4" cy="257.7" r="0.95" fill="#1a1520" opacity="0.131"/><circle cx="30.4" cy="58.9" r="1.20" fill="#1a1520" opacity="0.129"/><circle cx="327.6" cy="125.7" r="1.77" fill="#1a1520" opacity="0.132"/><circle cx="294.3" cy="214.5" r="0.47" fill="#1a1520" opacity="0.113"/><circle cx="15.6" cy="68.2" r="0.43" fill="#1a1520" opacity="0.104"/><circle cx="219.7" cy="236.0" r="1.45" fill="#1a1520" opacity="0.107"/><circle cx="418.4" cy="13.4" r="1.63" fill="#1a1520" opacity="0.069"/><circle cx="7.7" cy="192.7" r="0.97" fill="#1a1520" opacity="0.055"/><circle cx="87.3" cy="295.9" r="0.62" fill="#1a1520" opacity="0.087"/><circle cx="97.2" cy="40.7" r="0.90" fill="#1a1520" opacity="0.070"/><circle cx="130.3" cy="13.5" r="1.78" fill="#1a1520" opacity="0.107"/><circle cx="114.1" cy="95.7" r="1.54" fill="#1a1520" opacity="0.062"/><circle cx="440.5" cy="161.0" r="1.75" fill="#1a1520" opacity="0.098"/><circle cx="39.6" cy="222.8" r="1.20" fill="#1a1520" opacity="0.109"/><circle cx="409.4" cy="182.9" r="0.44" fill="#1a1520" opacity="0.105"/><circle cx="139.3" cy="153.0" r="0.87" fill="#1a1520" opacity="0.073"/><circle cx="46.4" cy="214.1" r="0.90" fill="#1a1520" opacity="0.078"/><circle cx="109.7" cy="242.8" r="1.42" fill="#1a1520" opacity="0.069"/><circle cx="29.2" cy="39.8" r="0.76" fill="#1a1520" opacity="0.081"/><circle cx="415.3" cy="18.1" r="0.84" fill="#1a1520" opacity="0.112"/><circle cx="330.2" cy="63.5" r="1.02" fill="#1a1520" opacity="0.085"/><circle cx="94.5" cy="118.6" r="1.53" fill="#1a1520" opacity="0.099"/><circle cx="213.4" cy="170.3" r="1.30" fill="#1a1520" opacity="0.133"/><circle cx="192.9" cy="158.5" r="0.47" fill="#1a1520" opacity="0.081"/><circle cx="212.2" cy="253.0" r="0.88" fill="#1a1520" opacity="0.096"/><circle cx="97.9" cy="287.2" r="1.16" fill="#1a1520" opacity="0.053"/><circle cx="320.6" cy="259.9" r="1.30" fill="#1a1520" opacity="0.046"/><circle cx="367.2" cy="122.2" r="0.51" fill="#1a1520" opacity="0.101"/><circle cx="174.2" cy="24.4" r="1.49" fill="#1a1520" opacity="0.056"/><circle cx="386.9" cy="290.3" r="1.36" fill="#1a1520" opacity="0.114"/><circle cx="107.0" cy="60.0" r="0.54" fill="#1a1520" opacity="0.126"/><circle cx="349.5" cy="2.4" r="0.72" fill="#1a1520" opacity="0.084"/><circle cx="249.8" cy="185.1" r="1.01" fill="#1a1520" opacity="0.116"/><circle cx="335.1" cy="205.6" r="1.76" fill="#1a1520" opacity="0.044"/><circle cx="407.9" cy="80.0" r="0.79" fill="#1a1520" opacity="0.095"/><circle cx="441.1" cy="139.9" r="1.14" fill="#1a1520" opacity="0.082"/><circle cx="465.8" cy="63.9" r="1.22" fill="#1a1520" opacity="0.133"/><circle cx="85.1" cy="173.2" r="1.38" fill="#1a1520" opacity="0.064"/><circle cx="58.2" cy="247.3" r="0.92" fill="#1a1520" opacity="0.108"/><circle cx="41.8" cy="83.5" r="0.68" fill="#1a1520" opacity="0.057"/><circle cx="127.0" cy="87.4" r="0.79" fill="#fff8e7" opacity="0.096"/><circle cx="423.8" cy="30.5" r="0.37" fill="#fff8e7" opacity="0.079"/><circle cx="137.8" cy="276.6" r="0.86" fill="#fff8e7" opacity="0.035"/><circle cx="122.0" cy="296.9" r="0.71" fill="#fff8e7" opacity="0.052"/><circle cx="276.3" cy="230.6" r="0.70" fill="#fff8e7" opacity="0.083"/><circle cx="135.4" cy="12.6" r="0.41" fill="#fff8e7" opacity="0.093"/><circle cx="432.3" cy="97.0" r="0.61" fill="#fff8e7" opacity="0.063"/><circle cx="125.3" cy="234.4" r="0.71" fill="#fff8e7" opacity="0.103"/><circle cx="209.2" cy="194.1" r="0.54" fill="#fff8e7" opacity="0.083"/><circle cx="384.8" cy="278.1" r="1.12" fill="#fff8e7" opacity="0.050"/><circle cx="291.6" cy="62.7" r="0.91" fill="#fff8e7" opacity="0.051"/><circle cx="122.5" cy="3.5" r="0.41" fill="#fff8e7" opacity="0.046"/><circle cx="192.4" cy="69.0" r="0.32" fill="#fff8e7" opacity="0.040"/><circle cx="172.1" cy="197.4" r="0.98" fill="#fff8e7" opacity="0.099"/><circle cx="70.3" cy="86.4" r="0.30" fill="#fff8e7" opacity="0.109"/><circle cx="12.4" cy="55.9" r="0.35" fill="#fff8e7" opacity="0.055"/><circle cx="130.0" cy="112.6" r="0.38" fill="#fff8e7" opacity="0.069"/><circle cx="38.8" cy="103.4" r="0.50" fill="#fff8e7" opacity="0.085"/><circle cx="233.5" cy="210.3" r="0.71" fill="#fff8e7" opacity="0.079"/><circle cx="160.1" cy="119.5" r="1.20" fill="#fff8e7" opacity="0.078"/><circle cx="47.1" cy="39.5" r="0.47" fill="#fff8e7" opacity="0.059"/><circle cx="225.6" cy="80.8" r="0.81" fill="#fff8e7" opacity="0.032"/><circle cx="393.1" cy="242.2" r="0.79" fill="#fff8e7" opacity="0.046"/><circle cx="51.5" cy="152.9" r="0.63" fill="#fff8e7" opacity="0.071"/><circle cx="8.6" cy="232.2" r="1.13" fill="#fff8e7" opacity="0.070"/><circle cx="9.5" cy="160.0" r="0.88" fill="#fff8e7" opacity="0.096"/><circle cx="414.8" cy="50.4" r="0.31" fill="#fff8e7" opacity="0.095"/><circle cx="332.2" cy="41.7" r="0.45" fill="#fff8e7" opacity="0.086"/><circle cx="89.7" cy="228.0" r="0.83" fill="#fff8e7" opacity="0.031"/><circle cx="26.0" cy="255.5" r="1.07" fill="#fff8e7" opacity="0.094"/><circle cx="418.1" cy="252.7" r="1.02" fill="#fff8e7" opacity="0.051"/><circle cx="242.5" cy="227.1" r="0.57" fill="#fff8e7" opacity="0.038"/><circle cx="134.2" cy="142.4" r="0.82" fill="#fff8e7" opacity="0.040"/><circle cx="211.9" cy="35.8" r="0.83" fill="#fff8e7" opacity="0.104"/><circle cx="95.0" cy="229.0" r="0.97" fill="#fff8e7" opacity="0.104"/><circle cx="49.2" cy="174.7" r="1.16" fill="#fff8e7" opacity="0.095"/><circle cx="253.2" cy="229.4" r="0.34" fill="#fff8e7" opacity="0.038"/><circle cx="423.8" cy="77.6" r="0.62" fill="#fff8e7" opacity="0.093"/><circle cx="254.8" cy="253.9" r="0.47" fill="#fff8e7" opacity="0.070"/><circle cx="119.3" cy="224.3" r="0.58" fill="#fff8e7" opacity="0.052"/></g>
<rect x="8" y="8" width="464" height="284" fill="none" stroke="#f5efe0" stroke-opacity="0.22" stroke-width="2" rx="4"/>
</svg>
