<?xml version="1.0" encoding="UTF-8"?>
<svg xmlns="http://www.w3.org/2000/svg" viewBox="0 0 480 300" width="480" height="300" role="img" aria-label="tulsa-rail">

    <defs>
      <linearGradient id="sky" x1="0" y1="0" x2="0" y2="1">
        <stop offset="0%" stop-color="#e0c8a0"/>
        <stop offset="55%" stop-color="#b09070"/>
        <stop offset="100%" stop-color="#605040"/>
      </linearGradient>
      <radialGradient id="glow" cx="70%" cy="22%" r="45%">
        <stop offset="0%" stop-color="#fff6d8" stop-opacity="0.45"/>
        <stop offset="100%" stop-color="#fff6d8" stop-opacity="0"/>
      </radialGradient>
      <linearGradient id="ground" x1="0" y1="0" x2="0" y2="1">
        <stop offset="0%" stop-color="#2a3340" stop-opacity="0"/>
        <stop offset="100%" stop-color="#121820" stop-opacity="0.55"/>
      </linearGradient>
    </defs>
    <rect width="480" height="300" fill="url(#sky)"/>
    <rect width="480" height="300" fill="url(#glow)"/>
  
<g opacity="0.28" fill="#f7f3ea">
    <ellipse cx="60.20604282617569" cy="59.34817921370268" rx="27.097387815639376" ry="11.61316620670259"/>
    <ellipse cx="77.62579213622958" cy="55.47712381146848" rx="19.355277011170983" ry="9.677638505585492"/>
    <ellipse cx="44.721821217238904" cy="61.283706914819774" rx="15.484221608936787" ry="7.7421108044683935"/>
  </g>
<g opacity="0.22" fill="#f7f3ea">
    <ellipse cx="307.89690900593996" cy="44.764510974055156" rx="38.589904613327235" ry="16.538530548568815"/>
    <ellipse cx="332.7047048287932" cy="39.25166745786555" rx="27.564217580948025" ry="13.782108790474012"/>
    <ellipse cx="285.84553494118154" cy="47.52093273214996" rx="22.05137406475842" ry="11.02568703237921"/>
  </g>

    <g fill="#3a4558">
      <rect x="40" y="140" width="50" height="70"/><rect x="100" y="125" width="40" height="85"/>
      <rect x="340" y="135" width="45" height="75"/><rect x="395" y="150" width="35" height="60"/>
    </g>
    <path d="M0 220 H480" stroke="#2a4a6a" stroke-width="10"/>
    <path d="M0 228 H480" stroke="#2a2a2a" stroke-width="3" stroke-dasharray="18 10"/>
    <g transform="translate(140,175)">
      <rect x="0" y="10" width="160" height="40" rx="6" fill="#4fc3f7"/>
      <rect x="10" y="18" width="28" height="22" rx="2" fill="#1a2430" opacity="0.5"/>
      <rect x="48" y="18" width="28" height="22" rx="2" fill="#1a2430" opacity="0.5"/>
      <rect x="86" y="18" width="28" height="22" rx="2" fill="#1a2430" opacity="0.5"/>
      <rect x="130" y="0" width="40" height="50" rx="4" fill="#4fc3f7"/>
      <circle cx="30" cy="55" r="12" fill="#2a2a2a"/><circle cx="100" cy="55" r="12" fill="#2a2a2a"/>
      <circle cx="145" cy="55" r="12" fill="#2a2a2a"/>
      <rect x="148" y="-18" width="8" height="20" fill="#4a5568"/>
      <path d="M152 -18 Q170 -35 165 -10" fill="none" stroke="#8a9aaa" stroke-width="4" opacity="0.6"/>
    </g>
<rect width="480" height="300" fill="url(#ground)"/>
  <rect width="480" height="300" fill="none" stroke="#1a1520" stroke-width="28" stroke-opacity="0.18"/>
<g id="grain-tulsa-rail" opacity="0.85"><circle cx="2.5" cy="290.2" r="0.64" fill="#1a1520" opacity="0.075"/><circle cx="283.5" cy="226.9" r="0.60" fill="#1a1520" opacity="0.112"/><circle cx="347.3" cy="133.9" r="1.33" fill="#1a1520" opacity="0.048"/><circle cx="105.0" cy="265.4" r="1.35" fill="#1a1520" opacity="0.066"/><circle cx="92.8" cy="22.9" r="1.04" fill="#1a1520" opacity="0.058"/><circle cx="220.7" cy="135.0" r="1.29" fill="#1a1520" opacity="0.131"/><circle cx="36.5" cy="246.7" r="0.60" fill="#1a1520" opacity="0.110"/><circle cx="191.3" cy="186.9" r="0.57" fill="#1a1520" opacity="0.138"/><circle cx="393.7" cy="252.1" r="0.56" fill="#1a1520" opacity="0.066"/><circle cx="307.3" cy="294.2" r="1.20" fill="#1a1520" opacity="0.067"/><circle cx="238.6" cy="122.3" r="1.16" fill="#1a1520" opacity="0.094"/><circle cx="41.6" cy="281.2" r="1.03" fill="#1a1520" opacity="0.073"/><circle cx="177.3" cy="46.6" r="1.66" fill="#1a1520" opacity="0.132"/><circle cx="345.9" cy="222.5" r="0.83" fill="#1a1520" opacity="0.133"/><circle cx="299.8" cy="254.6" r="1.10" fill="#1a1520" opacity="0.138"/><circle cx="471.9" cy="263.7" r="1.37" fill="#1a1520" opacity="0.049"/><circle cx="310.8" cy="109.1" r="0.91" fill="#1a1520" opacity="0.048"/><circle cx="130.7" cy="66.5" r="1.02" fill="#1a1520" opacity="0.121"/><circle cx="344.9" cy="191.7" r="0.50" fill="#1a1520" opacity="0.070"/><circle cx="193.2" cy="156.1" r="0.45" fill="#1a1520" opacity="0.073"/><circle cx="129.3" cy="197.6" r="0.89" fill="#1a1520" opacity="0.110"/><circle cx="106.0" cy="163.9" r="1.50" fill="#1a1520" opacity="0.079"/><circle cx="246.6" cy="79.6" r="1.34" fill="#1a1520" opacity="0.115"/><circle cx="286.8" cy="109.1" r="1.76" fill="#1a1520" opacity="0.062"/><circle cx="424.8" cy="79.8" r="0.67" fill="#1a1520" opacity="0.097"/><circle cx="260.3" cy="98.7" r="1.28" fill="#1a1520" opacity="0.054"/><circle cx="120.3" cy="199.1" r="1.59" fill="#1a1520" opacity="0.094"/><circle cx="11.3" cy="187.7" r="0.79" fill="#1a1520" opacity="0.054"/><circle cx="439.2" cy="254.5" r="1.41" fill="#1a1520" opacity="0.121"/><circle cx="196.9" cy="37.3" r="0.52" fill="#1a1520" opacity="0.100"/><circle cx="428.8" cy="15.5" r="0.67" fill="#1a1520" opacity="0.047"/><circle cx="252.6" cy="241.9" r="0.50" fill="#1a1520" opacity="0.132"/><circle cx="273.1" cy="131.7" r="1.42" fill="#1a1520" opacity="0.096"/><circle cx="83.4" cy="234.9" r="0.63" fill="#1a1520" opacity="0.132"/><circle cx="17.3" cy="114.3" r="1.65" fill="#1a1520" opacity="0.079"/><circle cx="292.1" cy="289.3" r="0.88" fill="#1a1520" opacity="0.068"/><circle cx="173.8" cy="136.7" r="1.28" fill="#1a1520" opacity="0.082"/><circle cx="140.6" cy="59.8" r="1.71" fill="#1a1520" opacity="0.062"/><circle cx="134.0" cy="170.3" r="1.20" fill="#1a1520" opacity="0.132"/><circle cx="298.0" cy="104.4" r="1.30" fill="#1a1520" opacity="0.103"/><circle cx="65.9" cy="51.6" r="0.90" fill="#1a1520" opacity="0.075"/><circle cx="321.8" cy="9.6" r="1.65" fill="#1a1520" opacity="0.052"/><circle cx="130.7" cy="4.6" r="0.94" fill="#1a1520" opacity="0.071"/><circle cx="226.2" cy="9.7" r="1.78" fill="#1a1520" opacity="0.085"/><circle cx="331.0" cy="0.8" r="1.50" fill="#1a1520" opacity="0.053"/><circle cx="281.3" cy="164.7" r="1.44" fill="#1a1520" opacity="0.081"/><circle cx="27.4" cy="85.3" r="1.65" fill="#1a1520" opacity="0.056"/><circle cx="139.8" cy="240.3" r="0.46" fill="#1a1520" opacity="0.050"/><circle cx="110.4" cy="55.4" r="1.79" fill="#1a1520" opacity="0.058"/><circle cx="117.0" cy="128.1" r="1.21" fill="#1a1520" opacity="0.045"/><circle cx="207.8" cy="79.7" r="0.58" fill="#1a1520" opacity="0.117"/><circle cx="403.1" cy="86.2" r="0.48" fill="#1a1520" opacity="0.083"/><circle cx="384.3" cy="195.9" r="1.51" fill="#1a1520" opacity="0.072"/><circle cx="72.2" cy="129.9" r="0.60" fill="#1a1520" opacity="0.132"/><circle cx="104.7" cy="97.8" r="1.01" fill="#1a1520" opacity="0.090"/><circle cx="330.5" cy="78.1" r="0.62" fill="#1a1520" opacity="0.136"/><circle cx="229.6" cy="190.6" r="1.30" fill="#1a1520" opacity="0.050"/><circle cx="112.0" cy="277.6" r="1.11" fill="#1a1520" opacity="0.052"/><circle cx="306.3" cy="89.9" r="1.71" fill="#1a1520" opacity="0.125"/><circle cx="257.5" cy="131.8" r="1.28" fill="#1a1520" opacity="0.121"/><circle cx="293.5" cy="70.9" r="0.92" fill="#1a1520" opacity="0.098"/><circle cx="265.7" cy="108.1" r="1.40" fill="#1a1520" opacity="0.044"/><circle cx="422.4" cy="117.0" r="1.36" fill="#1a1520" opacity="0.041"/><circle cx="319.9" cy="120.1" r="0.52" fill="#1a1520" opacity="0.136"/><circle cx="310.8" cy="20.8" r="1.44" fill="#1a1520" opacity="0.099"/><circle cx="134.2" cy="254.1" r="0.51" fill="#1a1520" opacity="0.084"/><circle cx="356.6" cy="236.5" r="1.70" fill="#1a1520" opacity="0.048"/><circle cx="460.6" cy="33.6" r="1.80" fill="#1a1520" opacity="0.069"/><circle cx="356.8" cy="287.5" r="1.30" fill="#1a1520" opacity="0.056"/><circle cx="381.7" cy="155.0" r="1.15" fill="#1a1520" opacity="0.133"/><circle cx="2.0" cy="165.5" r="0.87" fill="#1a1520" opacity="0.134"/><circle cx="409.5" cy="3.3" r="1.53" fill="#1a1520" opacity="0.099"/><circle cx="191.1" cy="222.8" r="1.18" fill="#1a1520" opacity="0.078"/><circle cx="133.6" cy="257.1" r="0.78" fill="#1a1520" opacity="0.126"/><circle cx="202.9" cy="135.7" r="0.94" fill="#1a1520" opacity="0.120"/><circle cx="144.8" cy="267.4" r="1.22" fill="#1a1520" opacity="0.125"/><circle cx="183.5" cy="109.9" r="1.71" fill="#1a1520" opacity="0.111"/><circle cx="314.8" cy="74.9" r="1.15" fill="#1a1520" opacity="0.091"/><circle cx="285.6" cy="180.7" r="1.41" fill="#1a1520" opacity="0.091"/><circle cx="37.1" cy="161.2" r="0.94" fill="#1a1520" opacity="0.049"/><circle cx="219.9" cy="288.1" r="1.26" fill="#1a1520" opacity="0.091"/><circle cx="414.8" cy="39.0" r="0.47" fill="#1a1520" opacity="0.102"/><circle cx="211.8" cy="272.5" r="0.89" fill="#1a1520" opacity="0.069"/><circle cx="86.7" cy="255.9" r="0.82" fill="#1a1520" opacity="0.074"/><circle cx="364.3" cy="178.8" r="0.50" fill="#1a1520" opacity="0.055"/><circle cx="231.4" cy="263.7" r="0.48" fill="#1a1520" opacity="0.102"/><circle cx="182.4" cy="93.4" r="0.83" fill="#1a1520" opacity="0.077"/><circle cx="430.7" cy="191.4" r="0.65" fill="#1a1520" opacity="0.112"/><circle cx="456.8" cy="55.5" r="1.33" fill="#1a1520" opacity="0.096"/><circle cx="389.8" cy="22.5" r="1.66" fill="#1a1520" opacity="0.107"/><circle cx="344.4" cy="86.8" r="0.92" fill="#fff8e7" opacity="0.039"/><circle cx="70.0" cy="131.9" r="0.88" fill="#fff8e7" opacity="0.089"/><circle cx="124.2" cy="231.6" r="0.33" fill="#fff8e7" opacity="0.034"/><circle cx="381.1" cy="250.0" r="0.32" fill="#fff8e7" opacity="0.034"/><circle cx="337.0" cy="157.7" r="0.77" fill="#fff8e7" opacity="0.055"/><circle cx="45.0" cy="137.9" r="0.88" fill="#fff8e7" opacity="0.045"/><circle cx="415.9" cy="68.2" r="1.15" fill="#fff8e7" opacity="0.097"/><circle cx="72.7" cy="279.1" r="0.73" fill="#fff8e7" opacity="0.087"/><circle cx="436.0" cy="191.8" r="1.09" fill="#fff8e7" opacity="0.034"/><circle cx="416.3" cy="169.2" r="0.48" fill="#fff8e7" opacity="0.108"/><circle cx="20.1" cy="260.7" r="0.50" fill="#fff8e7" opacity="0.030"/><circle cx="85.1" cy="198.1" r="0.48" fill="#fff8e7" opacity="0.064"/><circle cx="477.8" cy="48.1" r="0.34" fill="#fff8e7" opacity="0.036"/><circle cx="40.6" cy="251.4" r="1.02" fill="#fff8e7" opacity="0.089"/><circle cx="68.1" cy="233.8" r="1.03" fill="#fff8e7" opacity="0.038"/><circle cx="222.6" cy="149.2" r="1.06" fill="#fff8e7" opacity="0.062"/><circle cx="382.8" cy="41.9" r="1.19" fill="#fff8e7" opacity="0.040"/><circle cx="2.7" cy="162.0" r="1.06" fill="#fff8e7" opacity="0.045"/><circle cx="189.9" cy="262.9" r="0.88" fill="#fff8e7" opacity="0.080"/><circle cx="114.4" cy="40.2" r="1.13" fill="#fff8e7" opacity="0.082"/><circle cx="387.8" cy="143.3" r="1.00" fill="#fff8e7" opacity="0.037"/><circle cx="421.5" cy="158.1" r="0.85" fill="#fff8e7" opacity="0.080"/><circle cx="124.6" cy="184.9" r="0.85" fill="#fff8e7" opacity="0.069"/><circle cx="130.2" cy="216.9" r="0.95" fill="#fff8e7" opacity="0.045"/><circle cx="277.5" cy="203.2" r="0.62" fill="#fff8e7" opacity="0.102"/><circle cx="99.3" cy="91.6" r="1.19" fill="#fff8e7" opacity="0.077"/><circle cx="75.4" cy="266.0" r="0.97" fill="#fff8e7" opacity="0.084"/><circle cx="260.9" cy="128.4" r="0.31" fill="#fff8e7" opacity="0.058"/><circle cx="133.5" cy="7.0" r="1.19" fill="#fff8e7" opacity="0.042"/><circle cx="178.0" cy="6.4" r="0.72" fill="#fff8e7" opacity="0.089"/><circle cx="410.0" cy="112.0" r="1.11" fill="#fff8e7" opacity="0.069"/><circle cx="77.7" cy="144.2" r="0.45" fill="#fff8e7" opacity="0.065"/><circle cx="447.4" cy="69.7" r="0.69" fill="#fff8e7" opacity="0.039"/><circle cx="35.5" cy="126.1" r="0.91" fill="#fff8e7" opacity="0.056"/><circle cx="191.7" cy="294.2" r="0.31" fill="#fff8e7" opacity="0.053"/><circle cx="255.6" cy="237.5" r="0.46" fill="#fff8e7" opacity="0.066"/><circle cx="182.4" cy="288.2" r="0.78" fill="#fff8e7" opacity="0.051"/><circle cx="413.4" cy="51.0" r="0.52" fill="#fff8e7" opacity="0.075"/><circle cx="279.7" cy="159.0" r="0.79" fill="#fff8e7" opacity="0.086"/><circle cx="35.3" cy="145.3" r="0.75" fill="#fff8e7" opacity="0.094"/></g>
<rect x="8" y="8" width="464" height="284" fill="none" stroke="#f5efe0" stroke-opacity="0.22" stroke-width="2" rx="4"/>
</svg>
