<?xml version="1.0" encoding="UTF-8"?>
<svg xmlns="http://www.w3.org/2000/svg" viewBox="0 0 480 300" width="480" height="300" role="img" aria-label="vigo">

    <defs>
      <linearGradient id="sky" x1="0" y1="0" x2="0" y2="1">
        <stop offset="0%" stop-color="#7ab8d0"/>
        <stop offset="55%" stop-color="#4a88a8"/>
        <stop offset="100%" stop-color="#2a5068"/>
      </linearGradient>
      <radialGradient id="glow" cx="70%" cy="22%" r="45%">
        <stop offset="0%" stop-color="#fff6d8" stop-opacity="0.45"/>
        <stop offset="100%" stop-color="#fff6d8" stop-opacity="0"/>
      </radialGradient>
      <linearGradient id="ground" x1="0" y1="0" x2="0" y2="1">
        <stop offset="0%" stop-color="#2a3340" stop-opacity="0"/>
        <stop offset="100%" stop-color="#121820" stop-opacity="0.55"/>
      </linearGradient>
    </defs>
    <rect width="480" height="300" fill="url(#sky)"/>
    <rect width="480" height="300" fill="url(#glow)"/>
  
<g opacity="0.28" fill="#f7f3ea">
    <ellipse cx="69.45866086520255" cy="57.7154004573822" rx="35.10344699434937" ry="15.044334426149728"/>
    <ellipse cx="92.02516250442713" cy="52.700622315332296" rx="25.073890710249547" ry="12.536945355124773"/>
    <ellipse cx="49.39954829700291" cy="60.222789528407155" rx="20.059112568199637" ry="10.029556284099819"/>
  </g>
<g opacity="0.22" fill="#f7f3ea">
    <ellipse cx="313.49065942689776" cy="46.62665876792744" rx="41.497934265993536" ry="17.784828971140087"/>
    <ellipse cx="340.1679028836079" cy="40.698382444214076" rx="29.64138161856681" ry="14.820690809283406"/>
    <ellipse cx="289.7775541320443" cy="49.59079692978412" rx="23.71310529485345" ry="11.856552647426724"/>
  </g>

    <path d="M0 160 L60 100 L120 150 L180 90 L260 145 L340 85 L420 140 L480 110 L480 300 L0 300 Z" fill="#5a6a5a" opacity="0.45"/>
    <g fill="#6a7a8a">
      <rect x="200" y="165" width="30" height="50"/><rect x="245" y="155" width="36" height="60"/>
      <rect x="300" y="170" width="28" height="45"/>
    </g>
    
    <defs>
      <linearGradient id="water" x1="0" y1="0" x2="0" y2="1">
        <stop offset="0%" stop-color="#2a6a8a"/>
        <stop offset="100%" stop-color="#143a52"/>
      </linearGradient>
    </defs>
    <path d="M0 210 Q120 200 240 214 T480 208 L480 300 L0 300 Z" fill="url(#water)"/>
    <path d="M0 224 Q160 214 320 228 T480 220" fill="none" stroke="#7ec8e8" stroke-opacity="0.25" stroke-width="2"/>
    <path d="M40 238 Q200 228 360 242" fill="none" stroke="#fff" stroke-opacity="0.12" stroke-width="1.5"/>
  
<rect width="480" height="300" fill="url(#ground)"/>
  <rect width="480" height="300" fill="none" stroke="#1a1520" stroke-width="28" stroke-opacity="0.18"/>
<g id="grain-vigo" opacity="0.85"><circle cx="113.5" cy="265.7" r="1.64" fill="#1a1520" opacity="0.082"/><circle cx="319.2" cy="289.2" r="0.50" fill="#1a1520" opacity="0.073"/><circle cx="49.8" cy="141.8" r="0.75" fill="#1a1520" opacity="0.054"/><circle cx="330.5" cy="11.0" r="1.57" fill="#1a1520" opacity="0.091"/><circle cx="188.6" cy="216.9" r="1.16" fill="#1a1520" opacity="0.127"/><circle cx="162.1" cy="268.2" r="0.49" fill="#1a1520" opacity="0.138"/><circle cx="158.5" cy="197.5" r="0.51" fill="#1a1520" opacity="0.075"/><circle cx="14.6" cy="111.1" r="1.27" fill="#1a1520" opacity="0.090"/><circle cx="219.5" cy="162.2" r="0.68" fill="#1a1520" opacity="0.137"/><circle cx="165.2" cy="152.5" r="1.73" fill="#1a1520" opacity="0.050"/><circle cx="364.7" cy="136.1" r="1.41" fill="#1a1520" opacity="0.112"/><circle cx="308.1" cy="291.9" r="0.75" fill="#1a1520" opacity="0.089"/><circle cx="101.6" cy="108.7" r="1.30" fill="#1a1520" opacity="0.140"/><circle cx="65.5" cy="259.1" r="0.77" fill="#1a1520" opacity="0.137"/><circle cx="86.7" cy="119.7" r="1.21" fill="#1a1520" opacity="0.088"/><circle cx="212.2" cy="258.3" r="1.49" fill="#1a1520" opacity="0.044"/><circle cx="269.1" cy="67.8" r="0.83" fill="#1a1520" opacity="0.114"/><circle cx="307.9" cy="204.9" r="1.41" fill="#1a1520" opacity="0.112"/><circle cx="400.1" cy="24.7" r="0.51" fill="#1a1520" opacity="0.072"/><circle cx="76.8" cy="264.2" r="1.20" fill="#1a1520" opacity="0.067"/><circle cx="343.8" cy="158.9" r="0.70" fill="#1a1520" opacity="0.138"/><circle cx="175.2" cy="187.3" r="1.65" fill="#1a1520" opacity="0.119"/><circle cx="436.9" cy="191.6" r="1.15" fill="#1a1520" opacity="0.068"/><circle cx="206.7" cy="18.0" r="1.60" fill="#1a1520" opacity="0.092"/><circle cx="2.6" cy="246.3" r="0.65" fill="#1a1520" opacity="0.110"/><circle cx="463.1" cy="273.9" r="0.78" fill="#1a1520" opacity="0.081"/><circle cx="381.3" cy="49.2" r="1.38" fill="#1a1520" opacity="0.135"/><circle cx="155.2" cy="77.7" r="1.77" fill="#1a1520" opacity="0.112"/><circle cx="135.4" cy="114.4" r="0.87" fill="#1a1520" opacity="0.062"/><circle cx="71.1" cy="83.9" r="1.33" fill="#1a1520" opacity="0.097"/><circle cx="54.8" cy="289.7" r="0.59" fill="#1a1520" opacity="0.117"/><circle cx="477.9" cy="49.0" r="1.28" fill="#1a1520" opacity="0.062"/><circle cx="453.9" cy="235.0" r="1.48" fill="#1a1520" opacity="0.130"/><circle cx="424.5" cy="97.3" r="0.53" fill="#1a1520" opacity="0.097"/><circle cx="448.6" cy="25.5" r="1.40" fill="#1a1520" opacity="0.065"/><circle cx="256.8" cy="126.0" r="0.50" fill="#1a1520" opacity="0.108"/><circle cx="428.1" cy="65.0" r="1.77" fill="#1a1520" opacity="0.050"/><circle cx="222.8" cy="99.9" r="1.56" fill="#1a1520" opacity="0.077"/><circle cx="32.5" cy="139.4" r="1.12" fill="#1a1520" opacity="0.115"/><circle cx="415.3" cy="167.5" r="1.41" fill="#1a1520" opacity="0.090"/><circle cx="89.4" cy="14.5" r="1.42" fill="#1a1520" opacity="0.138"/><circle cx="142.5" cy="235.4" r="0.66" fill="#1a1520" opacity="0.077"/><circle cx="311.9" cy="142.2" r="1.26" fill="#1a1520" opacity="0.120"/><circle cx="435.4" cy="73.6" r="1.44" fill="#1a1520" opacity="0.069"/><circle cx="137.6" cy="79.6" r="0.78" fill="#1a1520" opacity="0.079"/><circle cx="446.4" cy="109.4" r="0.85" fill="#1a1520" opacity="0.140"/><circle cx="454.8" cy="69.8" r="0.61" fill="#1a1520" opacity="0.054"/><circle cx="63.2" cy="54.8" r="1.58" fill="#1a1520" opacity="0.112"/><circle cx="148.6" cy="28.6" r="0.76" fill="#1a1520" opacity="0.097"/><circle cx="189.9" cy="65.6" r="1.20" fill="#1a1520" opacity="0.041"/><circle cx="240.8" cy="263.3" r="0.74" fill="#1a1520" opacity="0.120"/><circle cx="411.1" cy="288.8" r="0.65" fill="#1a1520" opacity="0.048"/><circle cx="289.4" cy="267.3" r="0.75" fill="#1a1520" opacity="0.100"/><circle cx="318.2" cy="6.3" r="1.32" fill="#1a1520" opacity="0.126"/><circle cx="36.7" cy="97.3" r="0.61" fill="#1a1520" opacity="0.085"/><circle cx="144.5" cy="193.8" r="1.36" fill="#1a1520" opacity="0.059"/><circle cx="217.5" cy="102.0" r="1.00" fill="#1a1520" opacity="0.096"/><circle cx="223.4" cy="134.8" r="0.64" fill="#1a1520" opacity="0.110"/><circle cx="338.5" cy="107.8" r="0.88" fill="#1a1520" opacity="0.078"/><circle cx="227.2" cy="245.1" r="1.61" fill="#1a1520" opacity="0.091"/><circle cx="471.2" cy="35.6" r="0.71" fill="#1a1520" opacity="0.123"/><circle cx="186.9" cy="253.8" r="0.53" fill="#1a1520" opacity="0.081"/><circle cx="479.4" cy="27.2" r="1.03" fill="#1a1520" opacity="0.056"/><circle cx="184.8" cy="224.7" r="1.02" fill="#1a1520" opacity="0.125"/><circle cx="322.4" cy="161.2" r="0.96" fill="#1a1520" opacity="0.139"/><circle cx="123.0" cy="105.7" r="0.49" fill="#1a1520" opacity="0.110"/><circle cx="299.6" cy="197.0" r="0.45" fill="#1a1520" opacity="0.042"/><circle cx="201.1" cy="200.2" r="0.90" fill="#1a1520" opacity="0.102"/><circle cx="433.2" cy="171.6" r="0.94" fill="#1a1520" opacity="0.042"/><circle cx="192.5" cy="211.0" r="1.33" fill="#1a1520" opacity="0.062"/><circle cx="104.8" cy="298.0" r="1.77" fill="#1a1520" opacity="0.042"/><circle cx="142.1" cy="33.6" r="1.68" fill="#1a1520" opacity="0.066"/><circle cx="387.9" cy="258.8" r="1.01" fill="#1a1520" opacity="0.052"/><circle cx="0.7" cy="192.6" r="1.05" fill="#1a1520" opacity="0.096"/><circle cx="386.7" cy="106.1" r="1.43" fill="#1a1520" opacity="0.134"/><circle cx="330.9" cy="129.1" r="1.01" fill="#1a1520" opacity="0.070"/><circle cx="358.1" cy="235.8" r="0.61" fill="#1a1520" opacity="0.084"/><circle cx="357.4" cy="140.4" r="1.14" fill="#1a1520" opacity="0.060"/><circle cx="227.3" cy="196.2" r="0.51" fill="#1a1520" opacity="0.078"/><circle cx="447.2" cy="122.2" r="0.59" fill="#1a1520" opacity="0.050"/><circle cx="382.3" cy="151.3" r="0.54" fill="#1a1520" opacity="0.080"/><circle cx="47.3" cy="130.3" r="0.94" fill="#1a1520" opacity="0.070"/><circle cx="478.4" cy="212.9" r="0.92" fill="#1a1520" opacity="0.063"/><circle cx="204.0" cy="269.0" r="1.63" fill="#1a1520" opacity="0.138"/><circle cx="57.2" cy="157.2" r="0.49" fill="#1a1520" opacity="0.123"/><circle cx="473.4" cy="284.1" r="0.66" fill="#1a1520" opacity="0.131"/><circle cx="415.3" cy="165.3" r="0.94" fill="#1a1520" opacity="0.106"/><circle cx="283.0" cy="124.8" r="1.09" fill="#1a1520" opacity="0.102"/><circle cx="88.6" cy="27.5" r="0.70" fill="#1a1520" opacity="0.134"/><circle cx="419.3" cy="181.7" r="0.63" fill="#1a1520" opacity="0.118"/><circle cx="276.8" cy="102.2" r="1.16" fill="#fff8e7" opacity="0.072"/><circle cx="81.7" cy="250.5" r="0.81" fill="#fff8e7" opacity="0.100"/><circle cx="205.2" cy="204.0" r="0.92" fill="#fff8e7" opacity="0.068"/><circle cx="424.0" cy="92.7" r="1.09" fill="#fff8e7" opacity="0.091"/><circle cx="100.2" cy="227.6" r="0.77" fill="#fff8e7" opacity="0.073"/><circle cx="465.7" cy="188.2" r="0.35" fill="#fff8e7" opacity="0.035"/><circle cx="181.4" cy="67.2" r="0.55" fill="#fff8e7" opacity="0.042"/><circle cx="380.9" cy="149.4" r="0.46" fill="#fff8e7" opacity="0.045"/><circle cx="103.9" cy="131.9" r="1.13" fill="#fff8e7" opacity="0.103"/><circle cx="453.6" cy="249.3" r="1.06" fill="#fff8e7" opacity="0.086"/><circle cx="191.9" cy="239.2" r="0.92" fill="#fff8e7" opacity="0.059"/><circle cx="157.8" cy="290.8" r="0.31" fill="#fff8e7" opacity="0.071"/><circle cx="383.2" cy="202.3" r="0.55" fill="#fff8e7" opacity="0.107"/><circle cx="229.7" cy="156.6" r="0.50" fill="#fff8e7" opacity="0.046"/><circle cx="308.4" cy="212.5" r="1.15" fill="#fff8e7" opacity="0.092"/><circle cx="213.2" cy="114.0" r="0.91" fill="#fff8e7" opacity="0.036"/><circle cx="101.4" cy="23.1" r="0.55" fill="#fff8e7" opacity="0.054"/><circle cx="82.7" cy="250.8" r="0.96" fill="#fff8e7" opacity="0.045"/><circle cx="368.9" cy="6.0" r="1.08" fill="#fff8e7" opacity="0.038"/><circle cx="109.6" cy="76.3" r="0.67" fill="#fff8e7" opacity="0.065"/><circle cx="13.6" cy="264.5" r="0.73" fill="#fff8e7" opacity="0.064"/><circle cx="325.1" cy="202.7" r="0.33" fill="#fff8e7" opacity="0.096"/><circle cx="120.3" cy="27.5" r="1.01" fill="#fff8e7" opacity="0.100"/><circle cx="402.6" cy="26.4" r="0.43" fill="#fff8e7" opacity="0.085"/><circle cx="109.0" cy="75.3" r="0.41" fill="#fff8e7" opacity="0.108"/><circle cx="74.0" cy="298.4" r="0.69" fill="#fff8e7" opacity="0.095"/><circle cx="465.0" cy="37.0" r="0.67" fill="#fff8e7" opacity="0.035"/><circle cx="39.3" cy="55.2" r="0.56" fill="#fff8e7" opacity="0.098"/><circle cx="158.2" cy="47.9" r="0.86" fill="#fff8e7" opacity="0.097"/><circle cx="238.4" cy="108.4" r="0.98" fill="#fff8e7" opacity="0.073"/><circle cx="429.0" cy="133.8" r="0.42" fill="#fff8e7" opacity="0.055"/><circle cx="280.6" cy="111.6" r="0.70" fill="#fff8e7" opacity="0.053"/><circle cx="91.8" cy="237.8" r="0.77" fill="#fff8e7" opacity="0.092"/><circle cx="12.0" cy="187.2" r="1.19" fill="#fff8e7" opacity="0.080"/><circle cx="462.0" cy="177.1" r="1.08" fill="#fff8e7" opacity="0.042"/><circle cx="473.3" cy="191.1" r="0.83" fill="#fff8e7" opacity="0.067"/><circle cx="253.1" cy="128.3" r="0.53" fill="#fff8e7" opacity="0.076"/><circle cx="426.3" cy="197.9" r="1.12" fill="#fff8e7" opacity="0.086"/><circle cx="173.2" cy="236.6" r="0.42" fill="#fff8e7" opacity="0.053"/><circle cx="3.8" cy="83.0" r="1.07" fill="#fff8e7" opacity="0.106"/></g>
<rect x="8" y="8" width="464" height="284" fill="none" stroke="#f5efe0" stroke-opacity="0.22" stroke-width="2" rx="4"/>
</svg>
