<?xml version="1.0" encoding="UTF-8"?>
<svg xmlns="http://www.w3.org/2000/svg" viewBox="0 0 480 300" width="480" height="300" role="img" aria-label="water-co">

    <defs>
      <linearGradient id="sky" x1="0" y1="0" x2="0" y2="1">
        <stop offset="0%" stop-color="#6ab0d0"/>
        <stop offset="55%" stop-color="#3a80a0"/>
        <stop offset="100%" stop-color="#1a4a68"/>
      </linearGradient>
      <radialGradient id="glow" cx="70%" cy="22%" r="45%">
        <stop offset="0%" stop-color="#fff6d8" stop-opacity="0.45"/>
        <stop offset="100%" stop-color="#fff6d8" stop-opacity="0"/>
      </radialGradient>
      <linearGradient id="ground" x1="0" y1="0" x2="0" y2="1">
        <stop offset="0%" stop-color="#2a3340" stop-opacity="0"/>
        <stop offset="100%" stop-color="#121820" stop-opacity="0.55"/>
      </linearGradient>
    </defs>
    <rect width="480" height="300" fill="url(#sky)"/>
    <rect width="480" height="300" fill="url(#glow)"/>
  
<g opacity="0.28" fill="#f7f3ea">
    <ellipse cx="75.4895815718919" cy="57.12491501122713" rx="31.414581776410337" ry="13.463392189890145"/>
    <ellipse cx="95.68466985672713" cy="52.63711761459708" rx="22.438986983150244" ry="11.219493491575122"/>
    <ellipse cx="57.53839198537171" cy="59.36881370954215" rx="17.951189586520194" ry="8.975594793260097"/>
  </g>
<g opacity="0.22" fill="#f7f3ea">
    <ellipse cx="342.98004500567913" cy="54.50237412704155" rx="29.65994884353131" ry="12.711406647227705"/>
    <ellipse cx="362.0471549765207" cy="50.26523857796565" rx="21.185677745379508" ry="10.592838872689754"/>
    <ellipse cx="326.0315028093755" cy="56.6209419015795" rx="16.948542196303606" ry="8.474271098151803"/>
  </g>

    <g fill="#4a6a7a">
      <ellipse cx="240" cy="200" rx="90" ry="30"/>
      <rect x="200" y="100" width="80" height="100" rx="40"/>
      <rect x="220" y="80" width="40" height="30" rx="4"/>
    </g>
    <g fill="#7ec8e8" opacity="0.55">
      <path d="M230 160 Q220 190 235 210"/><path d="M250 155 Q265 185 248 208"/>
      <path d="M240 150 Q235 195 242 215"/>
    </g>
    <g fill="#3a5568">
      <rect x="100" y="180" width="50" height="40" rx="3"/>
      <rect x="330" y="175" width="55" height="45" rx="3"/>
    </g>
    
    <defs>
      <linearGradient id="water" x1="0" y1="0" x2="0" y2="1">
        <stop offset="0%" stop-color="#2a6a8a"/>
        <stop offset="100%" stop-color="#143a52"/>
      </linearGradient>
    </defs>
    <path d="M0 230 Q120 220 240 234 T480 228 L480 300 L0 300 Z" fill="url(#water)"/>
    <path d="M0 244 Q160 234 320 248 T480 240" fill="none" stroke="#7ec8e8" stroke-opacity="0.25" stroke-width="2"/>
    <path d="M40 258 Q200 248 360 262" fill="none" stroke="#fff" stroke-opacity="0.12" stroke-width="1.5"/>
  
<rect width="480" height="300" fill="url(#ground)"/>
  <rect width="480" height="300" fill="none" stroke="#1a1520" stroke-width="28" stroke-opacity="0.18"/>
<g id="grain-water-co" opacity="0.85"><circle cx="185.9" cy="256.9" r="1.18" fill="#1a1520" opacity="0.119"/><circle cx="470.4" cy="35.6" r="0.52" fill="#1a1520" opacity="0.081"/><circle cx="254.0" cy="290.3" r="0.48" fill="#1a1520" opacity="0.064"/><circle cx="399.7" cy="16.4" r="0.50" fill="#1a1520" opacity="0.060"/><circle cx="347.5" cy="261.9" r="1.01" fill="#1a1520" opacity="0.138"/><circle cx="227.7" cy="127.5" r="1.10" fill="#1a1520" opacity="0.090"/><circle cx="269.4" cy="139.6" r="0.50" fill="#1a1520" opacity="0.139"/><circle cx="30.8" cy="199.9" r="0.83" fill="#1a1520" opacity="0.092"/><circle cx="150.1" cy="84.2" r="0.69" fill="#1a1520" opacity="0.136"/><circle cx="32.4" cy="8.9" r="1.60" fill="#1a1520" opacity="0.091"/><circle cx="260.2" cy="28.3" r="1.18" fill="#1a1520" opacity="0.077"/><circle cx="441.4" cy="82.2" r="0.75" fill="#1a1520" opacity="0.123"/><circle cx="325.6" cy="152.7" r="0.56" fill="#1a1520" opacity="0.054"/><circle cx="65.0" cy="144.9" r="0.90" fill="#1a1520" opacity="0.087"/><circle cx="454.8" cy="237.1" r="1.73" fill="#1a1520" opacity="0.058"/><circle cx="23.2" cy="65.9" r="1.39" fill="#1a1520" opacity="0.095"/><circle cx="97.3" cy="239.3" r="1.53" fill="#1a1520" opacity="0.119"/><circle cx="19.8" cy="229.1" r="0.60" fill="#1a1520" opacity="0.138"/><circle cx="411.4" cy="279.9" r="1.67" fill="#1a1520" opacity="0.075"/><circle cx="304.5" cy="233.9" r="1.25" fill="#1a1520" opacity="0.043"/><circle cx="358.5" cy="25.9" r="1.73" fill="#1a1520" opacity="0.041"/><circle cx="240.0" cy="248.9" r="0.46" fill="#1a1520" opacity="0.139"/><circle cx="102.1" cy="19.8" r="1.41" fill="#1a1520" opacity="0.091"/><circle cx="303.1" cy="164.1" r="1.49" fill="#1a1520" opacity="0.073"/><circle cx="334.7" cy="154.3" r="0.60" fill="#1a1520" opacity="0.098"/><circle cx="468.1" cy="177.3" r="1.32" fill="#1a1520" opacity="0.042"/><circle cx="330.4" cy="30.0" r="0.78" fill="#1a1520" opacity="0.136"/><circle cx="232.3" cy="270.8" r="0.84" fill="#1a1520" opacity="0.085"/><circle cx="430.7" cy="78.9" r="0.85" fill="#1a1520" opacity="0.059"/><circle cx="331.1" cy="274.4" r="1.31" fill="#1a1520" opacity="0.102"/><circle cx="401.9" cy="47.3" r="0.75" fill="#1a1520" opacity="0.066"/><circle cx="71.2" cy="108.6" r="1.06" fill="#1a1520" opacity="0.116"/><circle cx="307.7" cy="209.1" r="1.56" fill="#1a1520" opacity="0.100"/><circle cx="7.2" cy="279.4" r="1.50" fill="#1a1520" opacity="0.092"/><circle cx="376.5" cy="23.0" r="0.64" fill="#1a1520" opacity="0.069"/><circle cx="329.6" cy="268.0" r="1.49" fill="#1a1520" opacity="0.060"/><circle cx="334.0" cy="173.9" r="0.46" fill="#1a1520" opacity="0.058"/><circle cx="215.4" cy="49.8" r="1.57" fill="#1a1520" opacity="0.100"/><circle cx="13.8" cy="36.0" r="1.50" fill="#1a1520" opacity="0.087"/><circle cx="45.2" cy="47.8" r="0.63" fill="#1a1520" opacity="0.064"/><circle cx="141.3" cy="215.7" r="0.90" fill="#1a1520" opacity="0.094"/><circle cx="207.3" cy="207.2" r="1.13" fill="#1a1520" opacity="0.070"/><circle cx="372.8" cy="210.4" r="1.34" fill="#1a1520" opacity="0.055"/><circle cx="244.4" cy="119.4" r="1.13" fill="#1a1520" opacity="0.128"/><circle cx="305.8" cy="21.5" r="0.73" fill="#1a1520" opacity="0.084"/><circle cx="342.3" cy="296.9" r="0.46" fill="#1a1520" opacity="0.081"/><circle cx="256.3" cy="36.0" r="0.48" fill="#1a1520" opacity="0.097"/><circle cx="446.6" cy="229.1" r="0.82" fill="#1a1520" opacity="0.066"/><circle cx="253.7" cy="245.6" r="1.00" fill="#1a1520" opacity="0.047"/><circle cx="363.8" cy="156.8" r="0.46" fill="#1a1520" opacity="0.049"/><circle cx="470.5" cy="57.8" r="1.65" fill="#1a1520" opacity="0.098"/><circle cx="116.6" cy="66.7" r="0.50" fill="#1a1520" opacity="0.051"/><circle cx="417.1" cy="35.2" r="1.54" fill="#1a1520" opacity="0.116"/><circle cx="116.0" cy="191.9" r="0.52" fill="#1a1520" opacity="0.124"/><circle cx="34.7" cy="132.2" r="0.73" fill="#1a1520" opacity="0.119"/><circle cx="31.0" cy="9.9" r="0.84" fill="#1a1520" opacity="0.085"/><circle cx="380.7" cy="146.2" r="1.39" fill="#1a1520" opacity="0.049"/><circle cx="304.1" cy="85.2" r="1.77" fill="#1a1520" opacity="0.068"/><circle cx="23.0" cy="275.3" r="0.70" fill="#1a1520" opacity="0.080"/><circle cx="462.3" cy="224.1" r="0.88" fill="#1a1520" opacity="0.056"/><circle cx="6.2" cy="60.0" r="1.17" fill="#1a1520" opacity="0.087"/><circle cx="70.5" cy="197.2" r="1.80" fill="#1a1520" opacity="0.117"/><circle cx="89.4" cy="65.6" r="1.66" fill="#1a1520" opacity="0.093"/><circle cx="202.5" cy="256.6" r="0.49" fill="#1a1520" opacity="0.084"/><circle cx="63.7" cy="106.2" r="1.00" fill="#1a1520" opacity="0.087"/><circle cx="266.6" cy="290.6" r="1.12" fill="#1a1520" opacity="0.092"/><circle cx="110.3" cy="118.4" r="0.56" fill="#1a1520" opacity="0.135"/><circle cx="404.8" cy="59.2" r="1.18" fill="#1a1520" opacity="0.094"/><circle cx="203.0" cy="84.4" r="0.50" fill="#1a1520" opacity="0.105"/><circle cx="369.0" cy="91.7" r="1.27" fill="#1a1520" opacity="0.097"/><circle cx="361.7" cy="159.9" r="0.92" fill="#1a1520" opacity="0.061"/><circle cx="418.4" cy="95.7" r="0.97" fill="#1a1520" opacity="0.074"/><circle cx="309.1" cy="161.0" r="0.62" fill="#1a1520" opacity="0.065"/><circle cx="150.7" cy="288.7" r="1.47" fill="#1a1520" opacity="0.098"/><circle cx="102.8" cy="180.4" r="1.55" fill="#1a1520" opacity="0.134"/><circle cx="432.0" cy="214.9" r="1.76" fill="#1a1520" opacity="0.138"/><circle cx="145.6" cy="265.1" r="1.59" fill="#1a1520" opacity="0.107"/><circle cx="263.4" cy="246.1" r="1.79" fill="#1a1520" opacity="0.085"/><circle cx="127.2" cy="122.5" r="0.73" fill="#1a1520" opacity="0.130"/><circle cx="254.4" cy="122.1" r="0.79" fill="#1a1520" opacity="0.112"/><circle cx="246.7" cy="106.7" r="1.21" fill="#1a1520" opacity="0.076"/><circle cx="110.6" cy="99.0" r="0.73" fill="#1a1520" opacity="0.068"/><circle cx="18.4" cy="42.2" r="0.77" fill="#1a1520" opacity="0.103"/><circle cx="95.8" cy="23.0" r="1.10" fill="#1a1520" opacity="0.086"/><circle cx="255.6" cy="191.5" r="1.37" fill="#1a1520" opacity="0.075"/><circle cx="133.1" cy="104.3" r="0.55" fill="#1a1520" opacity="0.100"/><circle cx="154.2" cy="274.1" r="1.65" fill="#1a1520" opacity="0.048"/><circle cx="147.7" cy="136.1" r="0.65" fill="#1a1520" opacity="0.091"/><circle cx="143.2" cy="220.9" r="1.75" fill="#1a1520" opacity="0.049"/><circle cx="124.2" cy="84.2" r="0.71" fill="#1a1520" opacity="0.045"/><circle cx="456.6" cy="125.4" r="0.93" fill="#fff8e7" opacity="0.093"/><circle cx="248.5" cy="197.5" r="0.78" fill="#fff8e7" opacity="0.051"/><circle cx="433.8" cy="284.9" r="0.48" fill="#fff8e7" opacity="0.102"/><circle cx="135.3" cy="77.5" r="0.45" fill="#fff8e7" opacity="0.088"/><circle cx="35.5" cy="208.1" r="0.81" fill="#fff8e7" opacity="0.039"/><circle cx="329.9" cy="87.1" r="0.75" fill="#fff8e7" opacity="0.095"/><circle cx="374.1" cy="38.0" r="1.03" fill="#fff8e7" opacity="0.061"/><circle cx="346.8" cy="65.3" r="1.11" fill="#fff8e7" opacity="0.041"/><circle cx="103.6" cy="222.5" r="0.50" fill="#fff8e7" opacity="0.056"/><circle cx="202.4" cy="196.9" r="1.13" fill="#fff8e7" opacity="0.095"/><circle cx="88.8" cy="12.3" r="0.80" fill="#fff8e7" opacity="0.087"/><circle cx="150.4" cy="94.4" r="0.38" fill="#fff8e7" opacity="0.094"/><circle cx="57.1" cy="24.2" r="0.36" fill="#fff8e7" opacity="0.104"/><circle cx="159.4" cy="277.6" r="1.01" fill="#fff8e7" opacity="0.107"/><circle cx="164.5" cy="84.6" r="0.86" fill="#fff8e7" opacity="0.106"/><circle cx="325.3" cy="118.5" r="0.59" fill="#fff8e7" opacity="0.059"/><circle cx="289.8" cy="199.8" r="0.40" fill="#fff8e7" opacity="0.066"/><circle cx="135.6" cy="75.7" r="0.70" fill="#fff8e7" opacity="0.097"/><circle cx="211.8" cy="148.7" r="0.97" fill="#fff8e7" opacity="0.100"/><circle cx="280.9" cy="0.5" r="0.70" fill="#fff8e7" opacity="0.108"/><circle cx="144.0" cy="153.6" r="0.60" fill="#fff8e7" opacity="0.051"/><circle cx="392.4" cy="230.4" r="0.65" fill="#fff8e7" opacity="0.049"/><circle cx="149.2" cy="162.0" r="1.19" fill="#fff8e7" opacity="0.090"/><circle cx="6.7" cy="14.8" r="0.84" fill="#fff8e7" opacity="0.077"/><circle cx="124.6" cy="51.4" r="0.34" fill="#fff8e7" opacity="0.060"/><circle cx="130.5" cy="216.0" r="0.95" fill="#fff8e7" opacity="0.063"/><circle cx="47.7" cy="198.7" r="0.98" fill="#fff8e7" opacity="0.106"/><circle cx="370.9" cy="37.8" r="0.97" fill="#fff8e7" opacity="0.101"/><circle cx="104.3" cy="37.4" r="1.10" fill="#fff8e7" opacity="0.038"/><circle cx="63.2" cy="298.4" r="0.93" fill="#fff8e7" opacity="0.093"/><circle cx="86.6" cy="199.5" r="0.40" fill="#fff8e7" opacity="0.051"/><circle cx="455.3" cy="128.9" r="1.16" fill="#fff8e7" opacity="0.053"/><circle cx="403.6" cy="253.3" r="0.92" fill="#fff8e7" opacity="0.056"/><circle cx="428.7" cy="262.2" r="1.03" fill="#fff8e7" opacity="0.051"/><circle cx="339.6" cy="56.1" r="1.14" fill="#fff8e7" opacity="0.069"/><circle cx="246.9" cy="213.4" r="0.33" fill="#fff8e7" opacity="0.083"/><circle cx="148.1" cy="63.5" r="0.68" fill="#fff8e7" opacity="0.102"/><circle cx="446.7" cy="224.6" r="0.50" fill="#fff8e7" opacity="0.049"/><circle cx="391.0" cy="111.7" r="0.67" fill="#fff8e7" opacity="0.089"/><circle cx="294.4" cy="39.6" r="1.03" fill="#fff8e7" opacity="0.037"/></g>
<rect x="8" y="8" width="464" height="284" fill="none" stroke="#f5efe0" stroke-opacity="0.22" stroke-width="2" rx="4"/>
</svg>
